<?xml version="1.0" encoding="UTF-8" standalone="no"?>
<!-- Created with Inkscape (http://www.inkscape.org/) -->

<svg
   version="1.1"
   id="svg1"
   width="6000"
   height="5999.9868"
   viewBox="0 0 6000 5999.9868"
   sodipodi:docname="vecteezy_seamless-pattern-with-floral-and-plants-flowers-seamless_59179647.eps"
   xmlns:inkscape="http://www.inkscape.org/namespaces/inkscape"
   xmlns:sodipodi="http://sodipodi.sourceforge.net/DTD/sodipodi-0.dtd"
   xmlns="http://www.w3.org/2000/svg"
   xmlns:svg="http://www.w3.org/2000/svg">
  <defs
     id="defs1" />
  <sodipodi:namedview
     id="namedview1"
     pagecolor="#ffffff"
     bordercolor="#000000"
     borderopacity="0.25"
     inkscape:showpageshadow="2"
     inkscape:pageopacity="0.0"
     inkscape:pagecheckerboard="0"
     inkscape:deskcolor="#d1d1d1">
    <inkscape:page
       x="0"
       y="0"
       inkscape:label="1"
       id="page1"
       width="6000"
       height="5999.9868"
       margin="0"
       bleed="0" />
  </sodipodi:namedview>
  <g
     id="g1"
     inkscape:groupmode="layer"
     inkscape:label="1">
    <g
       id="group-R5">
      <path
         id="path2"
         d="M 0.148438,44999.9 H 45000 V 0.101563 H 0.148438 V 44999.9"
         style="fill:#f1f1f2;fill-opacity:1;fill-rule:evenodd;stroke:none"
         transform="matrix(0.13333333,0,0,-0.13333333,0,5999.9867)" />
      <path
         id="path3"
         d="m 12239.7,44999.9 c 0,-546.8 -443.5,-990 -990,-990 -546.3,0 -990,443.2 -990,990 z m 22500,0 c 0,-546.8 -443.6,-990 -990,-990 -546.4,0 -990,443.2 -990,990 z M 44999.8,32763.7 c -29.7,-2.3 -59.7,-3.8 -90.2,-3.8 -546.3,0 -990,443.3 -990,990 0,546.8 443.7,990 990,990 30.5,0 60.5,-1.5 90.2,-3.7 z M 0,34739.9 c 546.395,0 989.996,-443.2 989.996,-990 0,-546.7 -443.601,-990 -989.996,-990 z m 22499.7,0 c 546.4,0 990,-443.2 990,-990 0,-546.7 -443.6,-990 -990,-990 -546.4,0 -990,443.3 -990,990 0,546.8 443.6,990 990,990 z M 12239.7,22500 c 0,-546.8 -443.5,-990 -990,-990 -546.3,0 -990,443.2 -990,990 0,546.7 443.7,990 990,990 546.5,0 990,-443.3 990,-990 z m 22500,0 c 0,-546.8 -443.6,-990 -990,-990 -546.4,0 -990,443.2 -990,990 0,546.7 443.6,990 990,990 546.4,0 990,-443.3 990,-990 z M 44999.8,10263.8 c -29.7,-2.3 -59.7,-3.8 -90.2,-3.8 -546.3,0 -990,443.3 -990,990 0,546.8 443.7,990 990,990 30.5,0 60.5,-1.5 90.2,-3.7 z M 0,12240 c 546.395,0 989.996,-443.2 989.996,-990 0,-546.7 -443.601,-990 -989.996,-990 z m 22499.7,0 c 546.4,0 990,-443.2 990,-990 0,-546.7 -443.6,-990 -990,-990 -546.4,0 -990,443.3 -990,990 0,546.8 443.6,990 990,990 z M 34739.7,0 h -1980 c 0,546.801 443.6,990 990,990 546.4,0 990,-443.199 990,-990 z m -22500,0 h -1980 c 0,546.801 443.7,990 990,990 546.5,0 990,-443.199 990,-990"
         style="fill:#4886a1;fill-opacity:1;fill-rule:evenodd;stroke:none"
         transform="matrix(0.13333333,0,0,-0.13333333,0,5999.9867)" />
      <path
         id="path4"
         d="m 22334.9,25226.6 v -162.8 c -585,-37.2 -1116.7,-270.5 -1530.7,-634.7 l -114.8,115.1 c 443.3,393.6 1016.3,644.9 1645.5,682.4 z m 330,0 c 630,-37.6 1202.3,-289 1646.3,-682.4 l -115.5,-115.1 c -414,364.3 -945.8,597.5 -1530.8,634.7 z m -330,-350 v -1692.8 c -72,-17.4 -140.2,-45.9 -201.7,-83.7 l -1196.3,1196.7 c 379.5,330.7 864.8,543.2 1398,579.8 z m 330,0 c 533.3,-36.6 1019.3,-249 1398.8,-579.8 l -1197,-1196.7 c -61.5,37.8 -129,66.3 -201.8,83.7 z m -1962,-813.1 1197,-1196.7 c -37.5,-61.7 -66,-129.6 -84,-201.8 h -1692.7 c 36.7,533.4 249,1018.8 579.7,1398.5 z m -247.5,247.4 115.5,-115.1 c -364.5,-414 -597.7,-946 -634.5,-1530.8 h -162.7 c 37.5,629.8 288.7,1202.4 681.7,1645.9 z m 4089,0 c 393.8,-443.7 645,-1016.2 682.5,-1645.9 h -162.7 c -37.5,584.9 -270.8,1116.9 -635.3,1530.8 z m -247.5,-247.4 c 330.8,-379.7 543,-865.1 579.8,-1398.5 h -1692.8 c -17.2,72.2 -45.7,140.1 -84,201.8 z m -1797,-1182.8 c 210,0 381,-170.6 381,-380.7 0,-210.2 -171,-380.8 -381,-380.8 -210,0 -381,170.6 -381,380.8 0,210.1 171,380.7 381,380.7 z m 2376.8,-545.7 c -36.8,-533.4 -249,-1018.8 -579.8,-1398.5 l -1197,1196.6 c 38.3,61.7 66.8,129.6 84,201.9 z m -4753.5,0 h 1692.7 c 18,-72.3 46.5,-140.2 84,-201.9 l -1197,-1196.6 c -330.7,379.6 -543,865 -579.7,1398.5 z m 5103.7,0 c -37.5,-629.9 -289.5,-1202.4 -682.5,-1646 l -115.5,115.2 c 364.5,414 597.8,945.9 635.3,1530.8 z m -5290.5,0 c 36.8,-585 270,-1117 634.5,-1530.8 l -115.5,-115.2 c -393,443.7 -644.2,1016.3 -681.7,1646 z m 4127.3,-1631.9 c -379.5,-330.6 -865.5,-543.2 -1398.8,-579.8 v 1692.8 c 72,17.4 140.3,45.9 201.8,83.7 z m -3126.8,0 1196.3,1196.7 c 61.5,-37.8 129.7,-66.3 201.7,-83.7 v -1692.8 c -533.2,36.6 -1018.5,249.1 -1398,579.8 z m -132.7,-132.3 c 414,-364.2 945.7,-597.5 1530.7,-634.6 v -162.8 c -630,37.5 -1202.2,288.9 -1645.5,682.3 z m 3391.5,0 115.5,-115.1 c -444,-393.5 -1016.3,-644.8 -1646.3,-682.3 v 162.8 c 585,37.1 1116.8,270.4 1530.8,634.6 z m -1860.8,5216.9 v 556.9 c -195,98.5 -336,367.1 -336,682.6 0,398.9 225,722.8 501,722.8 276.8,0 501,-323.9 501,-722.8 0,-315.5 -140.2,-584.1 -336,-682.6 v -556.9 c 784.5,-38.9 1497,-352.6 2043,-846.8 l 393.8,394.3 c -68.3,207.9 22.5,497 245.2,720.1 282,282.1 669.8,352.5 865.5,156.9 195.8,-195.4 125.3,-583.1 -156.7,-865.2 -223.5,-223.1 -512.3,-313.7 -720.8,-245.1 l -393.7,-394.3 c 494.2,-545.9 807.7,-1258.4 846.7,-2042.6 h 556.5 c 99,195.4 367.5,335.8 682.5,335.8 399,0 723,-224.4 723,-500.8 0,-276.5 -324,-500.9 -723,-500.9 -315,0 -583.5,140.4 -682.5,335.9 h -556.5 c -39,-784.2 -352.5,-1496.6 -846.7,-2042.6 l 393.7,-394.3 c 208.5,68.5 497.3,-22.1 720.8,-245.2 282,-282.1 352.5,-669.7 156.7,-865.3 -195.7,-195.4 -583.5,-125.1 -865.5,157 -222.7,223.1 -313.5,512.3 -245.2,720.2 l -393.8,394.2 c -546,-494.2 -1258.5,-808 -2043,-846.7 v -557 c 195.8,-98.4 336,-367 336,-682.5 0,-399 -224.2,-722.8 -501,-722.8 -276,0 -501,323.8 -501,722.8 0,315.5 141,584.1 336,682.5 v 557 c -783.7,38.8 -1496.2,352.6 -2042.2,846.7 l -394.5,-394.2 c 68.2,-207.9 -21.8,-497.1 -245.3,-720.2 -282,-282.1 -669.7,-352.4 -865.5,-157 -195,195.6 -124.5,583.2 157.5,865.3 222.8,223.1 512.3,313.7 720,245.2 l 394.5,394.3 c -494.2,545.9 -808.5,1258.4 -846.7,2042.6 h -557.3 c -98.2,-195.5 -366.7,-335.9 -682.5,-335.9 -399,0 -723,224.4 -723,500.9 0,276.4 324,500.8 723,500.8 315.8,0 584.3,-140.4 682.5,-335.8 h 557.3 c 38.2,784.2 352.5,1496.5 846.7,2042.6 l -394.5,394.3 c -207.7,-68.6 -497.2,22 -720,245.1 -282,282.1 -352.5,669.8 -157.5,865.2 195.8,195.6 583.5,125.2 865.5,-156.9 223.5,-223.1 313.5,-512.2 245.3,-720.1 l 394.5,-394.3 c 546,494.2 1258.5,808.1 2042.2,846.8"
         style="fill:#4886a1;fill-opacity:1;fill-rule:evenodd;stroke:none"
         transform="matrix(0.13333333,0,0,-0.13333333,0,5999.9867)" />
      <path
         id="path5"
         d="m 165,25226.6 c 630,-37.6 1202.25,-289 1646.25,-682.4 l -115.51,-115.1 C 1281.75,24793.4 750,25026.6 165,25063.8 Z m 0,-350 c 533.246,-36.6 1019.25,-249 1398.75,-579.8 L 366.754,23100.1 c -61.5,37.8 -129,66.3 -201.754,83.7 z m 1879.49,-565.7 c 393.75,-443.7 645,-1016.2 682.5,-1645.9 h -162.74 c -37.5,584.9 -270.76,1116.9 -635.25,1530.8 z m -247.5,-247.4 c 330.76,-379.7 543,-865.1 579.76,-1398.5 L 684,22665 c -17.246,72.2 -45.754,140.1 -84,201.8 z M 2376.75,22335 c -36.76,-533.4 -249,-1018.8 -579.76,-1398.5 L 600,22133.1 c 38.246,61.7 66.754,129.6 84,201.9 z m 350.24,0 c -37.5,-629.9 -289.5,-1202.4 -682.5,-1646 L 1929,20804.2 c 364.49,414 597.75,945.9 635.25,1530.8 z M 1563.75,20703.1 C 1184.25,20372.5 698.246,20159.9 165,20123.3 v 1692.8 c 71.996,17.4 140.254,45.9 201.754,83.7 z m 131.99,-132.3 115.51,-115.1 C 1367.25,20062.2 795,19810.9 165,19773.4 v 162.8 c 585,37.1 1116.75,270.4 1530.74,634.6 z M 0,27750 c 276.754,0 500.996,-323.9 500.996,-722.8 0,-315.5 -140.25,-584.1 -335.996,-682.6 v -556.9 c 784.496,-38.9 1496.99,-352.6 2043,-846.8 l 393.75,394.3 c -68.26,207.9 22.5,497 245.24,720.1 282,282.1 669.75,352.5 865.5,156.9 195.75,-195.4 125.25,-583.1 -156.75,-865.2 -223.5,-223.1 -512.25,-313.7 -720.75,-245.1 l -393.75,-394.3 c 494.25,-545.9 807.75,-1258.4 846.75,-2042.6 h 556.5 c 99,195.4 367.49,335.8 682.49,335.8 399,0 723,-224.4 723,-500.8 0,-276.5 -324,-500.9 -723,-500.9 -315,0 -583.49,140.4 -682.49,335.9 h -556.5 c -39,-784.2 -352.5,-1496.6 -846.75,-2042.6 l 393.75,-394.3 c 208.5,68.5 497.25,-22.1 720.75,-245.2 282,-282.1 352.5,-669.7 156.75,-865.3 -195.75,-195.4 -583.5,-125.1 -865.5,157 -222.74,223.1 -313.5,512.3 -245.24,720.2 L 2208,20059 C 1661.99,19564.8 949.496,19251 165,19212.3 v -557 c 195.746,-98.4 335.996,-367 335.996,-682.5 0,-399 -224.242,-722.8 -500.996,-722.8 v 4869.2 c 210,0 381,170.6 381,380.8 0,210.1 -171,380.7 -381,380.7 V 27750"
         style="fill:#4886a1;fill-opacity:1;fill-rule:evenodd;stroke:none"
         transform="matrix(0.13333333,0,0,-0.13333333,0,5999.9867)" />
      <path
         id="path6"
         d="m 44834.9,25226.6 v -162.8 c -585,-37.2 -1116.8,-270.5 -1530.8,-634.7 l -114.7,115.1 c 443.2,393.6 1016.2,644.9 1645.5,682.4 z m 0,-350 v -1692.8 c -72,-17.4 -140.3,-45.9 -201.8,-83.7 l -1197,1196.7 c 380.2,330.7 865.5,543.2 1398.8,579.8 z m -1632,-813.1 1197,-1196.7 c -37.5,-61.7 -66.1,-129.6 -84,-201.8 h -1692.8 c 36.8,533.4 249,1018.8 579.8,1398.5 z m -247.5,247.4 115.5,-115.1 c -364.5,-414 -597.8,-946 -634.5,-1530.8 h -162.8 c 37.5,629.8 288.8,1202.4 681.8,1645.9 z M 42623.1,22335 h 1692.8 c 17.9,-72.3 46.5,-140.2 84,-201.9 l -1197,-1196.6 c -330.8,379.6 -543,865 -579.8,1398.5 z m -186.7,0 c 36.7,-585 270,-1117 634.5,-1530.8 l -115.5,-115.2 c -393,443.7 -644.3,1016.3 -681.8,1646 z m 999.7,-1631.9 1197,1196.7 c 61.5,-37.8 129.8,-66.3 201.8,-83.7 v -1692.8 c -533.3,36.6 -1018.6,249.1 -1398.8,579.8 z m -132,-132.3 c 414,-364.2 945.8,-597.5 1530.8,-634.6 v -162.8 c -630,37.5 -1202.3,288.9 -1645.5,682.3 z m 1695.8,7179.2 v -4869.3 c -210,0 -381.1,-170.6 -381.1,-380.7 0,-210.2 171.1,-380.8 381.1,-380.8 V 17250 c -276.1,0 -501.1,323.8 -501.1,722.8 0,315.5 141.1,584.1 336.1,682.5 v 557 c -783.8,38.8 -1496.3,352.6 -2042.3,846.7 l -394.5,-394.2 c 68.3,-207.9 -21.7,-497.1 -245.2,-720.2 -282,-282.1 -669.8,-352.4 -865.5,-157 -195,195.6 -124.5,583.2 157.5,865.3 222.7,223.1 512.2,313.7 720,245.2 l 394.5,394.3 c -494.3,545.9 -808.5,1258.4 -846.8,2042.6 h -557.2 c -98.3,-195.5 -366.8,-335.9 -682.5,-335.9 -399,0 -723,224.4 -723,500.9 0,276.4 324,500.8 723,500.8 315.7,0 584.2,-140.4 682.5,-335.8 h 557.2 c 38.3,784.2 352.5,1496.5 846.8,2042.6 l -394.5,394.3 c -207.8,-68.6 -497.3,22 -720,245.1 -282,282.1 -352.5,669.8 -157.5,865.2 195.7,195.6 583.5,125.2 865.5,-156.9 223.5,-223.1 313.5,-512.2 245.2,-720.1 l 394.5,-394.3 c 546,494.2 1258.5,808.1 2042.3,846.8 v 556.9 c -195,98.5 -336.1,367.1 -336.1,682.6 0,398.9 225,722.8 501.1,722.8"
         style="fill:#4886a1;fill-opacity:1;fill-rule:evenodd;stroke:none"
         transform="matrix(0.13333333,0,0,-0.13333333,0,5999.9867)" />
      <path
         id="path7"
         d="m 24876.7,44834.9 c -36.8,-533.4 -249,-1018.8 -579.8,-1398.5 l -1197,1196.7 c 38.3,61.6 66.8,129.6 84,201.8 z m -4753.5,0 h 1692.7 c 18,-72.2 46.5,-140.1 84,-201.8 l -1197,-1196.7 c -330.7,379.6 -543,865 -579.7,1398.5 z m 5103.7,0 c -37.5,-629.8 -289.5,-1202.4 -682.5,-1645.9 l -115.5,115.1 c 364.5,414 597.8,946 635.3,1530.8 z m -5290.5,0 c 36.8,-584.9 270,-1117 634.5,-1530.8 l -115.5,-115.1 c -393,443.7 -644.2,1016.2 -681.7,1645.9 z m 1000.5,-1631.8 1196.3,1196.7 c 61.5,-37.8 129.7,-66.4 201.7,-83.7 v -1692.9 c -533.2,36.6 -1018.5,249.1 -1398,579.9 z m 3126.8,0 c -379.5,-330.7 -865.5,-543.3 -1398.8,-579.9 v 1692.9 c 72,17.3 140.3,45.9 201.8,83.7 z m -3259.5,-132.3 c 414,-364.3 945.7,-597.6 1530.7,-634.7 v -162.8 c -630,37.6 -1202.2,289 -1645.5,682.3 z m 3391.5,0 115.5,-115.2 c -444,-393.5 -1016.3,-644.8 -1646.3,-682.3 v 162.8 c 585,37.1 1116.8,270.5 1530.8,634.7 z m 3554.2,1929.1 c 0,-276.5 -324,-500.8 -723,-500.8 -315,0 -583.5,140.4 -682.5,335.8 h -556.5 c -39,-784.2 -352.5,-1496.5 -846.7,-2042.6 l 393.7,-394.3 c 208.5,68.6 497.3,-22 720.8,-245.2 282,-282 352.5,-669.7 156.7,-865.2 -195.7,-195.5 -583.5,-125.1 -865.5,156.9 -222.7,223.2 -313.5,512.3 -245.2,720.2 l -393.8,394.3 c -546,-494.3 -1258.5,-808.1 -2043,-846.8 v -556.9 c 195.8,-98.5 336,-367.1 336,-682.6 0,-398.9 -224.2,-722.8 -501,-722.8 -276,0 -501,323.9 -501,722.8 0,315.5 141,584.1 336,682.6 v 556.9 c -783.7,38.9 -1496.2,352.6 -2042.2,846.8 l -394.5,-394.3 c 68.2,-207.9 -21.8,-497 -245.3,-720.2 -282,-282 -669.7,-352.4 -865.5,-156.9 -195,195.5 -124.5,583.2 157.5,865.2 222.8,223.2 512.3,313.8 720,245.2 l 394.5,394.3 c -494.2,545.9 -808.5,1258.4 -846.7,2042.6 h -557.3 c -98.2,-195.4 -366.7,-335.8 -682.5,-335.8 -399,0 -723,224.3 -723,500.8 h 4869 c 0,-210.1 171,-380.8 381,-380.8 210,0 381,170.7 381,380.8 h 4869"
         style="fill:#4886a1;fill-opacity:1;fill-rule:evenodd;stroke:none"
         transform="matrix(0.13333333,0,0,-0.13333333,0,5999.9867)" />
      <path
         id="path8"
         d="m 2376.75,44834.9 c -36.76,-533.4 -249,-1018.8 -579.76,-1398.5 L 600,44633.1 c 38.246,61.6 66.754,129.6 84,201.8 z m 350.24,0 c -37.5,-629.8 -289.5,-1202.4 -682.5,-1645.9 L 1929,43304.1 c 364.49,414 597.75,946 635.25,1530.8 z M 1563.75,43203.1 C 1184.25,42872.4 698.246,42659.8 165,42623.2 v 1692.9 c 71.996,17.3 140.254,45.9 201.754,83.7 z m 131.99,-132.3 115.51,-115.2 C 1367.25,42562.1 795,42310.8 165,42273.3 v 162.8 c 585,37.1 1116.75,270.5 1530.74,634.7 z m 3554.24,1929.1 c 0,-276.5 -324,-500.8 -723,-500.8 -315,0 -583.49,140.4 -682.49,335.8 h -556.5 c -39,-784.2 -352.5,-1496.5 -846.75,-2042.6 l 393.75,-394.3 c 208.5,68.6 497.25,-22 720.75,-245.2 282,-282 352.5,-669.7 156.75,-865.2 -195.75,-195.5 -583.5,-125.1 -865.5,156.9 -222.74,223.2 -313.5,512.3 -245.24,720.2 L 2208,42559 C 1661.99,42064.7 949.496,41750.9 165,41712.2 v -556.9 c 195.746,-98.5 335.996,-367.1 335.996,-682.6 0,-398.9 -224.242,-722.8 -500.996,-722.8 v 4869.2 c 210,0 381,170.7 381,380.8 h 4868.98"
         style="fill:#4886a1;fill-opacity:1;fill-rule:evenodd;stroke:none"
         transform="matrix(0.13333333,0,0,-0.13333333,0,5999.9867)" />
      <path
         id="path9"
         d="m 42623.1,44834.9 h 1692.8 c 17.9,-72.2 46.5,-140.1 84,-201.8 l -1197,-1196.7 c -330.8,379.6 -543,865 -579.8,1398.5 z m -186.7,0 c 36.7,-584.9 270,-1117 634.5,-1530.8 l -115.5,-115.1 c -393,443.7 -644.3,1016.2 -681.8,1645.9 z m 999.7,-1631.8 1197,1196.7 c 61.5,-37.8 129.8,-66.4 201.8,-83.7 v -1692.9 c -533.3,36.6 -1018.6,249.1 -1398.8,579.9 z m -132,-132.3 c 414,-364.3 945.8,-597.6 1530.8,-634.7 v -162.8 c -630,37.6 -1202.3,289 -1645.5,682.3 z m 1314.7,1929.1 c 0,-210.1 171.1,-380.8 381.1,-380.8 v -4869.2 c -276.1,0 -501.1,323.9 -501.1,722.8 0,315.5 141.1,584.1 336.1,682.6 v 556.9 c -783.8,38.9 -1496.3,352.6 -2042.3,846.8 l -394.5,-394.3 c 68.3,-207.9 -21.7,-497 -245.2,-720.2 -282,-282 -669.8,-352.4 -865.5,-156.9 -195,195.5 -124.5,583.2 157.5,865.2 222.7,223.2 512.2,313.8 720,245.2 l 394.5,394.3 c -494.3,545.9 -808.5,1258.4 -846.8,2042.6 h -557.2 c -98.3,-195.4 -366.8,-335.8 -682.5,-335.8 -399,0 -723,224.3 -723,500.8 h 4868.9"
         style="fill:#4886a1;fill-opacity:1;fill-rule:evenodd;stroke:none"
         transform="matrix(0.13333333,0,0,-0.13333333,0,5999.9867)" />
      <path
         id="path10"
         d="m 22334.9,2726.7 v -162.9 c -585,-37.1 -1116.7,-270.4 -1530.7,-634.6 l -114.8,115.1 c 443.3,393.5 1016.3,644.9 1645.5,682.4 z m 330,0 c 630,-37.6 1202.3,-289 1646.3,-682.4 l -115.5,-115.1 c -414,364.3 -945.8,597.5 -1530.8,634.6 z m -330,-350 V 683.902 c -72,-17.398 -140.2,-45.898 -201.7,-83.703 L 20936.9,1796.9 c 379.5,330.7 864.8,543.2 1398,579.8 z m 330,0 c 533.3,-36.6 1019.3,-249.1 1398.8,-579.8 l -1197,-1196.701 c -61.5,37.805 -129,66.305 -201.8,83.703 z m -1962,-813.09 1197,-1196.708 c -37.5,-61.703 -66,-129.597 -84,-201.902 h -1692.7 c 36.7,533.402 249,1018.8 579.7,1398.61 z m -247.5,247.39 115.5,-115.1 c -364.5,-414 -597.7,-945.998 -634.5,-1530.9 h -162.7 c 37.5,629.902 288.7,1202.4 681.7,1646 z m 4089,0 c 393.8,-443.7 645,-1016.297 682.5,-1646 h -162.7 c -37.5,585 -270.8,1117 -635.3,1530.9 z m -247.5,-247.39 c 330.8,-379.71 543,-865.11 579.8,-1398.61 h -1692.8 c -17.2,72.305 -45.7,140.102 -84,201.902 z M 22118.9,0 h -4869 c 0,276.504 324,500.902 723,500.902 315.8,0 584.3,-140.398 682.5,-335.902 h 557.3 c 38.2,784.203 352.5,1496.6 846.7,2042.7 l -394.5,394.2 c -207.7,-68.5 -497.2,22.1 -720,245.21 -282,282.09 -352.5,669.79 -157.5,865.29 195.8,195.4 583.5,125.1 865.5,-157 223.5,-223.1 313.5,-512.2 245.3,-720.1 l 394.5,-394.3 c 546,494.2 1258.5,808 2042.2,846.7 v 557 c -195,98.5 -336,367 -336,682.6 0,398.9 225,722.7 501,722.7 276.8,0 501,-323.8 501,-722.7 0,-315.6 -140.2,-584.1 -336,-682.6 v -557 c 784.5,-38.8 1497,-352.5 2043,-846.7 l 393.8,394.3 c -68.3,207.9 22.5,497 245.2,720.1 282,282.1 669.8,352.4 865.5,157 195.8,-195.5 125.3,-583.2 -156.7,-865.29 -223.5,-223.11 -512.3,-313.71 -720.8,-245.21 l -393.7,-394.2 c 494.2,-546 807.7,-1258.497 846.7,-2042.7 h 556.5 c 99,195.504 367.5,335.902 682.5,335.902 399,0 723,-224.398 723,-500.902 h -4869 c 0,210.199 -171,380.801 -381,380.801 -210,0 -381,-170.602 -381,-380.801"
         style="fill:#4886a1;fill-opacity:1;fill-rule:evenodd;stroke:none"
         transform="matrix(0.13333333,0,0,-0.13333333,0,5999.9867)" />
      <path
         id="path11"
         d="m 165,2726.7 c 630,-37.6 1202.25,-289 1646.25,-682.4 L 1695.74,1929.2 C 1281.75,2293.5 750,2526.7 165,2563.8 Z m 0,-350 c 533.246,-36.6 1019.25,-249.1 1398.75,-579.8 L 366.754,600.199 c -61.5,37.805 -129,66.305 -201.754,83.703 z M 2044.49,1811 c 393.75,-443.7 645,-1016.297 682.5,-1646 H 2564.25 C 2526.75,750 2293.49,1282 1929,1695.9 Z m -247.5,-247.39 C 2127.75,1183.9 2339.99,698.5 2376.75,165 H 684 c -17.246,72.305 -45.754,140.102 -84,201.902 z M 0,5250 c 276.754,0 500.996,-323.8 500.996,-722.7 0,-315.6 -140.25,-584.1 -335.996,-682.6 v -557 C 949.496,3248.9 1661.99,2935.2 2208,2441 l 393.75,394.3 c -68.26,207.9 22.5,497 245.24,720.1 282,282.1 669.75,352.4 865.5,157 195.75,-195.5 125.25,-583.2 -156.75,-865.29 C 3332.24,2624 3043.49,2533.4 2834.99,2601.9 L 2441.24,2207.7 C 2935.49,1661.7 3248.99,949.203 3287.99,165 h 556.5 c 99,195.504 367.49,335.902 682.49,335.902 399,0 723,-224.398 723,-500.902 H 381 C 381,210.199 210,380.801 0,380.801 V 5250"
         style="fill:#4886a1;fill-opacity:1;fill-rule:evenodd;stroke:none"
         transform="matrix(0.13333333,0,0,-0.13333333,0,5999.9867)" />
      <path
         id="path12"
         d="m 44834.9,2726.7 v -162.9 c -585,-37.1 -1116.8,-270.4 -1530.8,-634.6 l -114.7,115.1 c 443.2,393.5 1016.2,644.9 1645.5,682.4 z m 0,-350 V 683.902 c -72,-17.398 -140.3,-45.898 -201.8,-83.703 l -1197,1196.701 c 380.2,330.7 865.5,543.2 1398.8,579.8 z m -1632,-813.09 1197,-1196.708 c -37.5,-61.703 -66.1,-129.597 -84,-201.902 h -1692.8 c 36.8,533.402 249,1018.8 579.8,1398.61 z m -247.5,247.39 115.5,-115.1 c -364.5,-414 -597.8,-945.998 -634.5,-1530.9 h -162.8 c 37.5,629.902 288.8,1202.4 681.8,1646 z m 2044.5,3439 V 380.801 c -210,0 -381.1,-170.602 -381.1,-380.801 h -4868.9 c 0,276.504 324,500.902 723,500.902 315.7,0 584.2,-140.398 682.5,-335.902 h 557.2 c 38.3,784.203 352.5,1496.6 846.8,2042.7 l -394.5,394.2 c -207.8,-68.5 -497.3,22.1 -720,245.21 -282,282.09 -352.5,669.79 -157.5,865.29 195.7,195.4 583.5,125.1 865.5,-157 223.5,-223.1 313.5,-512.2 245.2,-720.1 l 394.5,-394.3 c 546,494.2 1258.5,808 2042.3,846.7 v 557 c -195,98.5 -336.1,367 -336.1,682.6 0,398.9 225,722.7 501.1,722.7"
         style="fill:#4886a1;fill-opacity:1;fill-rule:evenodd;stroke:none"
         transform="matrix(0.13333333,0,0,-0.13333333,0,5999.9867)" />
      <path
         id="path13"
         d="m 11250.1,38471.8 c -304.4,0 -552,-247.6 -552,-551.9 0,-304.4 247.6,-552 552,-552 304.4,0 551.9,247.6 551.9,552 0,304.3 -247.5,551.9 -551.9,551.9 z m -204.2,-1612.7 c -498.3,95.8 -875.9,535 -875.9,1060.8 0,595.5 484.6,1080 1080.1,1080 595.5,0 1080,-484.5 1080,-1080 0,-525.9 -377.7,-965.1 -875.9,-1060.8 l 4.4,-60 c 1.2,-16.5 2.4,-34.4 3.8,-53.5 11.7,-164.2 152.7,-289.8 317.2,-281.2 157,8.2 314,19.1 470.8,32.1 333.4,34.6 666.8,79.8 1000.2,169.9 v -897.7 c -463.8,113.8 -935.6,177.1 -1409.8,203.6 -170.4,9.5 -309.6,-135 -296.3,-305.2 16.6,-213.6 31.6,-405.7 41.2,-527.8 118.9,-1472.5 224.6,-2953.9 225.1,-4432.7 0.1,-230.3 201.6,-412.8 430.1,-383.2 503.5,65.2 992.6,251.7 1398.1,559.5 583.5,445.4 970.8,1078.1 1233.8,1761.5 l -501.7,-350.7 -36.4,38.2 c 148.9,193.2 645.7,837.6 785.8,1019.4 45.9,-222.4 234.9,-1137.9 284.4,-1377.6 l -49.8,-17.6 -329.4,642.4 c -50.1,-292 -123.5,-582.6 -228.4,-866.9 -253.2,-714 -717.7,-1355.8 -1353,-1781.9 -352.5,-235.4 -748,-407.1 -1161,-508.4 -298.6,-73.2 -558.7,-265 -694.4,-540.9 -70.6,-143.6 -159.8,-278.9 -269.5,-400.4 h -138.7 c -109.5,121.2 -198.6,256.2 -269.2,399.7 -135.5,275.4 -395,467 -693.1,540.3 -413.64,101.9 -809.84,275.1 -1162.59,509.6 -905.97,599.4 -1401.12,1604.5 -1582.62,2646.5 l -328.14,-640 -49.83,17.6 c 50.54,244.9 237.41,1150 284.34,1377.6 137.42,-178.2 639.74,-829.8 785.91,-1019.4 l -36.42,-38.2 -502.69,351.5 c 339.92,-881.3 900.45,-1696.2 1778.22,-2082.8 272.49,-122.1 563.12,-201.7 859.12,-239.6 229.2,-29.3 430.3,154.9 428.1,386.1 v 4.1 c -4.3,1638.5 132.8,3309.2 263.3,4951.7 13.5,170.3 -125.8,314.3 -296.4,305.2 -136.5,-7.3 -272.8,-16.7 -408.9,-28.1 -333.39,-33.8 -666.82,-80.1 -1000.29,-173.1 v 897.7 c 485.64,-123.8 978.29,-186.8 1473.29,-209 163.2,-7.4 302.3,117.5 314.3,280.4 3,41.7 6,82.6 8.8,121.3"
         style="fill:#4886a1;fill-opacity:1;fill-rule:nonzero;stroke:none"
         transform="matrix(0.13333333,0,0,-0.13333333,0,5999.9867)" />
      <path
         id="path14"
         d="m 33750.1,15971.9 c -304.4,0 -552,-247.6 -552,-552 0,-304.3 247.6,-552 552,-552 304.4,0 551.9,247.7 551.9,552 0,304.4 -247.5,552 -551.9,552 z m -204.2,-1612.7 c -498.3,95.8 -875.9,535 -875.9,1060.7 0,595.6 484.6,1080.1 1080.1,1080.1 595.5,0 1080,-484.5 1080,-1080.1 0,-525.8 -377.7,-965.1 -875.9,-1060.7 l 4.4,-60 c 1.2,-16.5 2.4,-34.4 3.8,-53.5 11.7,-164.3 152.7,-289.8 317.2,-281.2 157,8.2 314,19.1 470.8,32.1 333.4,34.6 666.8,79.8 1000.2,169.9 v -897.7 c -463.8,113.8 -935.6,177.1 -1409.8,203.5 -170.4,9.6 -309.6,-134.9 -296.3,-305.1 16.6,-213.6 31.6,-405.7 41.2,-527.9 118.9,-1472.4 224.6,-2953.8 225.1,-4432.7 0.1,-230.2 201.6,-412.7 430,-383.1 503.6,65.2 992.7,251.7 1398.2,559.5 583.5,445.4 970.8,1078.11 1233.8,1761.5 l -501.7,-350.7 -36.4,38.2 c 148.9,193.2 645.7,837.6 785.8,1019.4 45.9,-222.5 234.9,-1137.9 284.4,-1377.7 l -49.8,-17.5 -329.4,642.3 c -50.1,-291.9 -123.5,-582.5 -228.4,-866.9 -253.2,-714 -717.7,-1355.7 -1353,-1781.8 -352.5,-235.4 -748,-407.2 -1161,-508.4 -298.6,-73.2 -558.7,-265 -694.4,-540.9 -70.6,-143.6 -159.8,-278.9 -269.5,-400.5 h -138.7 c -109.5,121.3 -198.6,256.3 -269.2,399.8 -135.5,275.4 -395,467 -693.1,540.3 -413.6,101.9 -809.8,275.1 -1162.6,509.6 -906,599.4 -1401.1,1604.5 -1582.6,2646.5 l -328.2,-640 -49.8,17.5 c 50.6,245 237.4,1150.1 284.4,1377.7 137.4,-178.2 639.7,-829.8 785.9,-1019.4 l -36.4,-38.2 -502.7,351.4 c 339.9,-881.3 900.4,-1696.1 1778.2,-2082.7 272.5,-122.1 563.1,-201.7 859.1,-239.6 229.2,-29.4 430.3,154.9 428.1,386.1 v 4.1 c -4.3,1638.5 132.8,3309.2 263.3,4951.7 13.5,170.3 -125.8,314.3 -296.4,305.2 -136.5,-7.3 -272.8,-16.8 -408.9,-28.1 -333.4,-33.8 -666.8,-80.2 -1000.3,-173.1 v 897.7 c 485.7,-123.8 978.3,-186.8 1473.3,-209.1 163.2,-7.3 302.3,117.6 314.3,280.5 3,41.7 6,82.6 8.8,121.3"
         style="fill:#4886a1;fill-opacity:1;fill-rule:nonzero;stroke:none"
         transform="matrix(0.13333333,0,0,-0.13333333,0,5999.9867)" />
      <path
         id="path15"
         d="m 33749.7,38471.8 c 304.4,0 552,-247.6 552,-551.9 0,-304.4 -247.6,-552 -552,-552 -304.4,0 -552,247.6 -552,552 0,304.3 247.6,551.9 552,551.9 z m 204.2,-1612.7 c 498.3,95.8 875.9,535 875.9,1060.8 0,595.5 -484.6,1080 -1080.1,1080 -595.5,0 -1080,-484.5 -1080,-1080 0,-525.9 377.6,-965.1 875.9,-1060.8 l -4.4,-60 c -1.2,-16.5 -2.4,-34.4 -3.8,-53.5 -11.7,-164.2 -152.7,-289.8 -317.2,-281.2 -157,8.2 -314.1,19.1 -470.8,32.1 -333.4,34.6 -666.8,79.8 -1000.2,169.9 v -897.7 c 463.8,113.8 935.6,177.1 1409.8,203.6 170.4,9.5 309.6,-135 296.3,-305.2 -16.6,-213.6 -31.7,-405.7 -41.3,-527.8 -118.8,-1472.5 -224.5,-2953.9 -225.1,-4432.7 0,-230.3 -201.6,-412.8 -430,-383.2 -503.5,65.2 -992.6,251.7 -1398.2,559.5 -583.4,445.4 -970.8,1078.1 -1233.7,1761.5 l 501.6,-350.7 36.5,38.2 c -148.9,193.2 -645.7,837.6 -785.9,1019.4 -45.9,-222.4 -234.9,-1137.9 -284.4,-1377.6 l 49.8,-17.6 329.4,642.4 c 50.2,-292 123.6,-582.6 228.5,-866.9 253.1,-714 717.7,-1355.8 1353,-1781.9 352.5,-235.4 748,-407.1 1160.9,-508.4 298.7,-73.2 558.8,-265 694.5,-540.9 70.6,-143.6 159.7,-278.9 269.5,-400.4 h 138.6 c 109.5,121.2 198.7,256.2 269.3,399.7 135.5,275.4 395,467 693.1,540.3 413.6,101.9 809.8,275.1 1162.6,509.6 905.9,599.4 1401.1,1604.5 1582.6,2646.5 l 328.1,-640 49.9,17.6 c -50.6,244.9 -237.5,1150 -284.4,1377.6 -137.4,-178.2 -639.7,-829.8 -785.9,-1019.4 l 36.4,-38.2 502.7,351.5 c -339.9,-881.3 -900.4,-1696.2 -1778.2,-2082.8 -272.5,-122.1 -563.1,-201.7 -859.1,-239.6 -229.3,-29.3 -430.3,154.9 -428.2,386.1 l 0.1,4.1 c 4.3,1638.5 -132.8,3309.2 -263.3,4951.7 -13.6,170.3 125.8,314.3 296.3,305.2 136.5,-7.3 272.9,-16.7 409,-28.1 333.4,-33.8 666.8,-80.1 1000.3,-173.1 v 897.7 c -485.7,-123.8 -978.3,-186.8 -1473.3,-209 -163.2,-7.4 -302.4,117.5 -314.3,280.4 -3,41.7 -6,82.6 -8.8,121.3"
         style="fill:#4886a1;fill-opacity:1;fill-rule:nonzero;stroke:none"
         transform="matrix(0.13333333,0,0,-0.13333333,0,5999.9867)" />
      <path
         id="path16"
         d="m 11249.8,15971.9 c 304.3,0 551.9,-247.6 551.9,-552 0,-304.3 -247.6,-552 -551.9,-552 -304.4,0 -552,247.7 -552,552 0,304.4 247.6,552 552,552 z m 204.1,-1612.7 c 498.3,95.8 876,535 876,1060.7 0,595.6 -484.6,1080.1 -1080.1,1080.1 -595.6,0 -1080.1,-484.5 -1080.1,-1080.1 0,-525.8 377.7,-965.1 876,-1060.7 l -4.4,-60 c -1.2,-16.5 -2.5,-34.4 -3.9,-53.5 -11.6,-164.3 -152.7,-289.8 -317.1,-281.2 -157,8.2 -314.1,19.1 -470.8,32.1 -333.44,34.6 -666.82,79.8 -1000.24,169.9 v -897.7 c 463.8,113.8 935.64,177.1 1409.84,203.5 170.4,9.6 309.5,-134.9 296.3,-305.1 -16.6,-213.6 -31.7,-405.7 -41.3,-527.9 -118.8,-1472.4 -224.5,-2953.8 -225.1,-4432.7 -0.1,-230.2 -201.6,-412.7 -430,-383.1 -503.57,65.2 -992.6,251.7 -1398.19,559.5 -583.45,445.4 -970.81,1078.11 -1233.78,1761.5 l 501.68,-350.7 36.47,38.2 c -148.95,193.2 -645.73,837.6 -785.87,1019.4 -45.89,-222.5 -234.9,-1137.9 -284.39,-1377.7 l 49.79,-17.5 329.39,642.3 c 50.17,-291.9 123.55,-582.5 228.45,-866.9 253.17,-714 717.72,-1355.7 1353.01,-1781.8 352.49,-235.4 748.02,-407.2 1160.94,-508.4 298.6,-73.2 558.8,-265 694.4,-540.9 70.6,-143.6 159.8,-278.9 269.6,-400.5 h 138.6 c 109.5,121.3 198.7,256.3 269.2,399.8 135.6,275.4 395.1,467 693.2,540.3 413.6,101.9 809.8,275.1 1162.5,509.6 906,599.4 1401.2,1604.5 1582.7,2646.5 l 328.1,-640 49.8,17.5 c -50.5,245 -237.4,1150.1 -284.3,1377.7 -137.4,-178.2 -639.7,-829.8 -785.9,-1019.4 l 36.4,-38.2 502.7,351.4 c -339.9,-881.3 -900.5,-1696.1 -1778.2,-2082.7 -272.5,-122.1 -563.1,-201.7 -859.1,-239.6 -229.3,-29.4 -430.3,154.9 -428.2,386.1 l 0.1,4.1 c 4.2,1638.5 -132.8,3309.2 -263.4,4951.7 -13.5,170.3 125.9,314.3 296.4,305.2 136.5,-7.3 272.9,-16.8 408.9,-28.1 333.4,-33.8 666.9,-80.2 1000.3,-173.1 v 897.7 c -485.6,-123.8 -978.2,-186.8 -1473.3,-209.1 -163.1,-7.3 -302.3,117.6 -314.2,280.5 -3,41.7 -6.1,82.6 -8.9,121.3"
         style="fill:#4886a1;fill-opacity:1;fill-rule:nonzero;stroke:none"
         transform="matrix(0.13333333,0,0,-0.13333333,0,5999.9867)" />
      <path
         id="path17"
         d="m 29813.9,40659.8 1401,1401 c 97.5,97.6 97.5,256 0,353.6 -97.5,97.5 -255.7,97.5 -353.2,0 l -1401.1,-1401 c -97.5,-97.6 -97.5,-256 0,-353.6 97.5,-97.6 255.8,-97.6 353.3,0 z m -22499.92,0 1400.99,1401 c 97.5,97.6 97.5,256 0,353.6 -97.5,97.5 -255.74,97.5 -353.24,0 l -1401,-1401 c -97.5,-97.6 -97.5,-256 0,-353.6 97.5,-97.6 255.75,-97.6 353.25,0 z m 28970.92,1401 1401,-1401 c 97.5,-97.6 255.7,-97.6 353.2,0 98.3,97.6 98.3,256 0,353.6 l -1401,1401 c -97.5,97.5 -255.7,97.5 -353.2,0 -97.5,-97.6 -97.5,-256 0,-353.6 z m -22499.9,0 1400.9,-1401 c 97.5,-97.6 255.8,-97.6 353.3,0 98.2,97.6 98.2,256 0,353.6 l -1401,1401 c -97.5,97.5 -255.7,97.5 -353.2,0 -97.5,-97.6 -97.5,-256 0,-353.6 z m -9849.01,-4021.5 -1401,-1401 c -97.5,-97.5 -97.5,-255.9 0,-353.5 97.5,-97.6 255.75,-97.6 353.25,0 l 1401,1401 c 98.25,97.6 98.25,256 0,353.5 -97.5,97.6 -255.75,97.6 -353.25,0 z m 22499.91,0 -1401,-1401 c -97.5,-97.5 -97.5,-255.9 0,-353.5 97.5,-97.6 255.8,-97.6 353.3,0 l 1401,1401 c 98.2,97.6 98.2,256 0,353.5 -97.5,97.6 -255.8,97.6 -353.3,0 z m 14319.7,-353.5 1401,-1401 c 97.5,-97.6 255.8,-97.6 353.3,0 97.5,97.6 97.5,256 0,353.5 l -1401,1401 c -97.5,97.6 -255.8,97.6 -353.3,0 -97.5,-97.5 -97.5,-255.9 0,-353.5 z m -22544.9,0 1401,-1401 c 97.5,-97.6 255.7,-97.6 353.2,0 97.5,97.6 97.5,256 0,353.5 l -1401,1401 c -97.5,97.6 -255.7,97.6 -353.2,0 -97.5,-97.5 -97.5,-255.9 0,-353.5 z m 1401,-6470.7 -1401,-1401 c -97.5,-97.6 -97.5,-256 0,-353.5 97.5,-97.6 255.7,-97.6 353.2,0 l 1401,1400.9 c 97.5,97.6 97.5,256 0,353.6 -97.5,97.6 -255.7,97.6 -353.2,0 z m 22544.9,0 -1401,-1401 c -97.5,-97.6 -97.5,-256 0,-353.5 97.5,-97.6 255.8,-97.6 353.3,0 l 1401,1400.9 c 97.5,97.6 97.5,256 0,353.6 -97.5,97.6 -255.8,97.6 -353.3,0 z m -39621.61,-353.6 1401,-1400.9 c 97.5,-97.6 255.75,-97.6 353.25,0 98.25,97.5 98.25,255.9 0,353.5 l -1401,1401 c -97.5,97.6 -255.75,97.6 -353.25,0 -97.5,-97.6 -97.5,-256 0,-353.6 z m 22499.91,0 1401,-1400.9 c 97.5,-97.6 255.8,-97.6 353.3,0 98.2,97.5 98.2,255.9 0,353.5 l -1401,1401 c -97.5,97.6 -255.8,97.6 -353.3,0 -97.5,-97.6 -97.5,-256 0,-353.6 z m -10896.7,-5826.7 1401,1401 c 98.2,97.6 98.2,256 0,353.6 -97.5,97.5 -255.8,97.5 -353.3,0 l -1400.9,-1401 c -97.5,-97.6 -97.5,-256 0,-353.6 97.5,-97.6 255.7,-97.6 353.2,0 z m 22499.9,0 1401,1401 c 98.3,97.6 98.3,256 0,353.6 -97.5,97.5 -255.7,97.5 -353.2,0 l -1401,-1401 c -97.5,-97.6 -97.5,-256 0,-353.6 97.5,-97.6 255.7,-97.6 353.2,0 z m -29677.37,1401 1401,-1401 c 97.5,-97.6 255.74,-97.6 353.24,0 97.5,97.6 97.5,256 0,353.6 l -1400.99,1401 c -97.5,97.5 -255.75,97.5 -353.25,0 -97.5,-97.6 -97.5,-256 0,-353.6 z m 22499.87,0 1401.1,-1401 c 97.5,-97.6 255.7,-97.6 353.2,0 97.5,97.6 97.5,256 0,353.6 l -1401,1401 c -97.5,97.5 -255.8,97.5 -353.3,0 -97.5,-97.6 -97.5,-256 0,-353.6 z m 353.3,-8225.2 1401,1401 c 97.5,97.6 97.5,256 0,353.5 -97.5,97.6 -255.7,97.6 -353.2,0 l -1401.1,-1401 c -97.5,-97.5 -97.5,-255.9 0,-353.5 97.5,-97.6 255.8,-97.6 353.3,0 z m -22499.92,0 1400.99,1401 c 97.5,97.6 97.5,256 0,353.5 -97.5,97.6 -255.74,97.6 -353.24,0 l -1401,-1401 c -97.5,-97.5 -97.5,-255.9 0,-353.5 97.5,-97.6 255.75,-97.6 353.25,0 z m 28970.92,1401 1401,-1401 c 97.5,-97.6 255.7,-97.6 353.2,0 98.3,97.6 98.3,256 0,353.5 l -1401,1401 c -97.5,97.6 -255.7,97.6 -353.2,0 -97.5,-97.5 -97.5,-255.9 0,-353.5 z m -22499.9,0 1400.9,-1401 c 97.5,-97.6 255.8,-97.6 353.3,0 98.2,97.6 98.2,256 0,353.5 l -1401,1401 c -97.5,97.6 -255.7,97.6 -353.2,0 -97.5,-97.5 -97.5,-255.9 0,-353.5 z m -9849.01,-4072.2 -1401,-1401 c -97.5,-97.6 -97.5,-256 0,-353.5 97.5,-97.6 255.75,-97.6 353.25,0 l 1401,1400.9 c 98.25,97.6 98.25,256 0,353.6 -97.5,97.6 -255.75,97.6 -353.25,0 z m 22499.91,0 -1401,-1401 c -97.5,-97.6 -97.5,-256 0,-353.5 97.5,-97.6 255.8,-97.6 353.3,0 l 1401,1400.9 c 98.2,97.6 98.2,256 0,353.6 -97.5,97.6 -255.8,97.6 -353.3,0 z m 14319.7,-353.6 1401,-1400.9 c 97.5,-97.6 255.8,-97.6 353.3,0 97.5,97.5 97.5,255.9 0,353.5 l -1401,1401 c -97.5,97.6 -255.8,97.6 -353.3,0 -97.5,-97.6 -97.5,-256 0,-353.6 z m -22544.9,0 1401,-1400.9 c 97.5,-97.6 255.7,-97.6 353.2,0 97.5,97.5 97.5,255.9 0,353.5 l -1401,1401 c -97.5,97.6 -255.7,97.6 -353.2,0 -97.5,-97.6 -97.5,-256 0,-353.6 z m 1401,-6470.6 -1401,-1401 c -97.5,-97.6 -97.5,-256 0,-353.6 97.5,-97.5 255.7,-97.5 353.2,0 l 1401,1401 c 97.5,97.6 97.5,256 0,353.6 -97.5,97.5 -255.7,97.5 -353.2,0 z m 22544.9,0 -1401,-1401 c -97.5,-97.6 -97.5,-256 0,-353.6 97.5,-97.5 255.8,-97.5 353.3,0 l 1401,1401 c 97.5,97.6 97.5,256 0,353.6 -97.5,97.5 -255.8,97.5 -353.3,0 z m -39621.61,-353.6 1401,-1401 c 97.5,-97.5 255.75,-97.5 353.25,0 98.25,97.6 98.25,256 0,353.6 l -1401,1401 c -97.5,97.5 -255.75,97.5 -353.25,0 -97.5,-97.6 -97.5,-256 0,-353.6 z m 22499.91,0 1401,-1401 c 97.5,-97.5 255.8,-97.5 353.3,0 98.2,97.6 98.2,256 0,353.6 l -1401,1401 c -97.5,97.5 -255.8,97.5 -353.3,0 -97.5,-97.6 -97.5,-256 0,-353.6 z m 11603.2,-5826.7 1401,1401 c 98.3,97.6 98.3,256 0,353.5 -97.5,97.6 -255.7,97.6 -353.2,0 l -1401,-1401 c -97.5,-97.5 -97.5,-255.9 0,-353.5 97.5,-97.6 255.7,-97.6 353.2,0 z m -22499.9,0 1401,1401 c 98.2,97.6 98.2,256 0,353.5 -97.5,97.6 -255.8,97.6 -353.3,0 L 13785,2888.4 c -97.5,-97.5 -97.5,-255.9 0,-353.5 97.5,-97.6 255.7,-97.6 353.2,0 z m -7177.47,1401 1401,-1401 c 97.5,-97.6 255.74,-97.6 353.24,0 97.5,97.6 97.5,256 0,353.5 l -1400.99,1401 c -97.5,97.6 -255.75,97.6 -353.25,0 -97.5,-97.5 -97.5,-255.9 0,-353.5 z m 22499.87,0 1401.1,-1401 c 97.5,-97.6 255.7,-97.6 353.2,0 97.5,97.6 97.5,256 0,353.5 l -1401,1401 c -97.5,97.6 -255.8,97.6 -353.3,0 -97.5,-97.5 -97.5,-255.9 0,-353.5"
         style="fill:#4886a1;fill-opacity:1;fill-rule:evenodd;stroke:none"
         transform="matrix(0.13333333,0,0,-0.13333333,0,5999.9867)" />
    </g>
  </g>
</svg>
