<?xml version="1.0" encoding="utf-8"?>
<svg
  xmlns="http://www.w3.org/2000/svg"
  viewBox="337 210 37 37"
  width="370"
  height="370"
>
  <title>Left corner ornament with aligned connection pivots</title>
  <desc>
    The red circles are connection anchors. Extend new lines only from
    pivot-top and pivot-bottom. Both pivots are centered inside the ornament.
  </desc>

  <path
    id="corner-ornament"
    d="M372.1,211.8c-0.6-0.1-4.8-0.5-6.5,1.3c-0.8-0.5-2.1-0.8-3.7-0.5c-0.1,0-0.2,0-0.2,0.1c-0.8-0.9-2.3-1.7-4-1
				c-2.3,1-2,3.5-0.8,4.1c0.1,0,0.2,0.1,0.2,0.1c-0.6,0.6-1.2,1.3-1.9,2c-0.8-0.1-1.5-0.4-2.2-0.7c0.3-0.4,0.5-0.9,0.7-1.5
				c0.5-2.2-1.4-4.8-4.1-4.9c-1.2,0-2.3,0.4-3.2,1.1c-1.8-1.5-3.5-1.1-4.2-0.2c-0.9,1.1-0.5,3.1-0.5,3.1s-1.9-0.5-3,0.5
				c-0.8,0.7-1.2,2.5,0.5,4.4c-1,0.9-1.5,2.3-1.4,3.7c0.2,2.7,2.9,4.4,5,3.9c0.8-0.2,1.4-0.6,1.8-1c0.3,0.7,0.5,1.5,0.7,2.3
				c-0.7,0.7-1.4,1.4-2,1.9c0-0.2-0.1-0.4-0.2-0.5c-0.6-1.2-3.1-1.4-4,0.9c-0.7,1.8,0.1,3.3,1.1,4c-0.1,0.3-0.1,0.5-0.2,0.8
				c-0.2,1.6,0.1,2.8,0.7,3.7c-1.8,1.8-1.2,5.9-1.1,6.5c0.1,0.7,0.9,0.9,0.8-0.4c-0.1-1.2-0.7-2.6-0.2-4.5c0.2-0.6,0.4-1.1,0.7-1.4
				c0.3,0.4,0.7,0.7,1.1,0.9c0.8,0.3,1.6,0,1.7-0.8c0.1-0.7-0.7-1.4-2-1c-0.2,0.1-0.4,0.1-0.5,0.2c-0.4-0.9-0.6-2.1-0.2-3.7l0.1,0
				c1.9,0.5,5.5-0.7,4.9-5.9c0-0.3-0.1-0.6-0.1-0.8c1-1.1,1.8-2.3,2-4c0.5-4.1-2.1-6.2-5.1-6.2c-1.1,0-2.1,0.4-2.9,1
				c-0.8-1.2-0.9-2.5-0.3-3.1c0.6-0.7,1.4-0.9,3.1-0.8c-0.1-1.7,0.1-2.5,0.8-3.1c0.5-0.5,1.7-0.5,2.8,0.1c-0.8,0.9-1.3,2.1-1.2,3.4
				c0.1,2.9,2.3,5.5,6.4,4.8c1.9-0.3,3.1-1.2,4.2-2.4c0.4,0.1,0.7,0.1,1.1,0.2c5.2,0.5,6.3-3.1,5.8-5l0-0.1c1.3-0.2,2.4-0.1,3.1,0.3
				c-0.1,0.2-0.2,0.3-0.2,0.5c-0.4,1.3,0.3,2.1,1.1,1.9c0.7-0.1,1.1-0.9,0.7-1.7c-0.2-0.4-0.5-0.8-0.9-1.1c0.3-0.3,0.7-0.6,1.4-0.7
				c1.9-0.6,3.3-0.1,4.5,0C373,212.7,372.8,211.9,372.1,211.8z M342.6,238.9c0.6,0.1,0.8,1.1,0,1.2c-0.5,0-1.1-0.3-1.5-0.9
				C341.7,238.8,342.4,238.9,342.6,238.9z M343,226.8c-1.2,0.4-2.6,0-3.5-0.9c0.4,0.2,0.8,0.1,1.1-0.1c0.8-0.5,0.6-1.5,0.1-1.5
				c-0.5,0-0.2,0.5-1,0.7c-0.8,0.1-1.2-0.6-1.4-1.2c-0.1-0.4-0.1-0.8-0.1-1.2c0.1-1,0.5-1.8,1.2-2.5c0.1,0.1,0.3,0.2,0.4,0.4
				c1.7,1.3,3.4,3.3,4.3,5.4C344,226.3,343.6,226.6,343,226.8z M340.9,229.6c1.7-0.4,1.7,0.9,1.7,0.9s-0.6-0.3-1,0.1
				c-0.3,0.4-0.2,1,0.2,1.3c-0.6,0.7-1.2,1.4-1.5,2.2C338.8,233,339,230.1,340.9,229.6z M341,234.3c0.1-0.2,0.1-0.4,0.2-0.6
				c0.3-0.7,0.6-1.2,1-1.8c0.4,0,0.8-0.5,0.9-1c0.7-0.7,1.4-1.3,2-2c0,0.1,0,0.2,0,0.4C345.4,232.7,343.3,234.8,341,234.3z
				 M344.7,219.4c2.9,1.3,3.3,5.9,0.7,8.7c-0.2-0.8-0.4-1.5-0.7-2.2c0.5-0.7,0.7-1.6,0.6-2.6c-0.2-1.4-1.7-1.9-2.2-1.6
				c-0.5,0.3-0.3,0.8,0.1,0.8c0.7,0,1,0.2,1.4,0.6c0.2,0.3,0.5,1.4,0,2.4c-1.4-2.9-3.6-4.8-4.5-5.8
				C341.3,218.9,343,218.7,344.7,219.4z M356.4,213.7c0.5-1.9,3.2-2.1,4.3-0.7c-0.8,0.3-1.5,0.8-2.2,1.5c-0.3-0.2-0.8-0.3-1.1,0
				c-0.4,0.4-0.1,1-0.1,1S356.1,215.4,356.4,213.7z M348.8,211.6c0.4-0.1,0.8,0,1.2,0c0.6,0.2,1.4,0.5,1.2,1.3
				c-0.2,0.8-0.6,0.5-0.6,1c0,0.5,1,0.6,1.5-0.2c0.2-0.3,0.2-0.7,0-1.1c0.9,0.9,1.4,2.2,1,3.5c-0.1,0.4-0.3,0.7-0.5,1
				c-2.1-1-3.9-2.5-5.3-4.1c-0.2-0.2-0.3-0.4-0.5-0.5C347.4,212,348.1,211.7,348.8,211.6z M354.7,218.3c-2.7,2.9-7.6,2.7-8.9-0.2
				c-0.9-1.9-0.5-4,0.6-5.2l0.1,0.1c0.9,0.9,2.9,3,5.8,4.4c-1,1-2.5,0.7-2.8,0.4c-0.4-0.4-0.7-0.7-0.7-1.3c0-0.4-0.5-0.6-0.8-0.1
				c-0.3,0.6,0.3,2,1.7,2.2c1.1,0.1,2.1-0.2,2.9-1c0.7,0.3,1.4,0.5,2.2,0.7L354.7,218.3z M361.1,213.7c0.6,2.2-1.4,4.4-4.9,4.3
				c-0.2,0-0.5,0-0.7-0.1c0.6-0.7,1.2-1.4,1.9-2c0.8,0.1,1.4-0.5,1.4-1c0-0.1,0-0.1,0-0.2c0.4-0.3,0.8-0.5,1.2-0.7
				C360.3,213.9,360.7,213.8,361.1,213.7L361.1,213.7z M366.4,215.2c0,0.8-1.1,0.6-1.2,0c0-0.2-0.1-0.8,0.2-1.5
				C366.1,214.2,366.5,214.7,366.4,215.2z"
    fill="#cccccc"
  />

  <g id="connection-pivots" aria-label="connection anchors" display="none">
    <circle
      id="pivot-top"
      data-role="connection-point"
      data-direction="horizontal"
      cx="371.60"
      cy="212.05"
      r="0.28"
      fill="#ff3b30"
    />
    <circle
      id="pivot-bottom"
      data-role="connection-point"
      data-direction="vertical"
      cx="339.95"
      cy="245.50"
      r="0.28"
      fill="#ff3b30"
    />
  </g>
</svg>
