<?xml version="1.0" encoding="UTF-8"?>
<svg xmlns="http://www.w3.org/2000/svg" xmlns:xlink="http://www.w3.org/1999/xlink" width="4219" height="2665" viewBox="0 0 4219 2665">
<path fill-rule="nonzero" fill="rgb(19.993591%, 19.993591%, 19.993591%)" fill-opacity="1" d="M 368.269531 364.699219 C 369.949219 362.898438 370.792969 360.628906 370.792969 358.378906 L 370.769531 358.351562 C 370.769531 355.96875 369.859375 353.589844 368.039062 351.769531 C 366.222656 349.949219 363.839844 349.039062 361.460938 349.039062 C 359.183594 349.039062 356.902344 349.878906 355.113281 351.550781 C 353.445312 353.328125 352.613281 355.621094 352.613281 357.890625 C 352.613281 360.269531 353.523438 362.648438 355.339844 364.46875 C 357.160156 366.289062 359.542969 367.199219 361.921875 367.199219 L 361.945312 367.21875 C 364.195312 367.21875 366.46875 366.378906 368.269531 364.699219 Z M 327.996094 349.359375 C 320.464844 353.328125 314.382812 352.789062 308.382812 352.261719 C 298 351.328125 287.769531 350.421875 274.804688 359.671875 C 275.105469 355.460938 276.546875 351.699219 278.789062 348.480469 C 279.59375 347.320312 280.503906 346.230469 281.507812 345.191406 L 281.617188 345.078125 L 281.695312 345 L 281.808594 344.890625 L 281.886719 344.808594 C 284.824219 341.921875 288.488281 339.53125 292.546875 337.761719 C 295.296875 336.558594 298.21875 335.648438 301.210938 335.050781 C 307.664062 339.71875 314.46875 343.609375 321.421875 346.691406 C 323.609375 347.660156 325.800781 348.550781 327.996094 349.359375 Z M 337.660156 372.730469 C 360.902344 435.738281 413.011719 468.660156 469.566406 487.738281 C 474.84375 524.859375 467.53125 563.191406 441.8125 592.691406 C 429.566406 606.738281 413.648438 617.359375 395.707031 622.671875 C 362.015625 632.640625 326.003906 614.191406 324.316406 577.238281 C 315.335938 582.261719 309.03125 597.691406 313.011719 604.359375 C 297.410156 590.011719 287.019531 569.628906 284.984375 546.128906 C 284.8125 544.140625 284.703125 542.089844 284.652344 539.980469 C 284.191406 520.878906 291.289062 502.921875 303.132812 489.328125 C 314.917969 475.808594 331.390625 466.648438 349.734375 465.058594 C 351.050781 464.949219 352.410156 464.878906 353.796875 464.839844 C 370.25 464.449219 385.21875 470.449219 396.433594 480.761719 C 407.726562 491.148438 415.25 505.921875 416.71875 522.941406 C 416.84375 524.371094 416.925781 525.871094 416.960938 527.410156 C 417.25 539.351562 412.808594 550.578125 405.398438 559.078125 C 395.753906 570.148438 382.996094 574.53125 372.0625 573.539062 C 328.824219 569.640625 345.734375 509.019531 385.148438 531.289062 C 385.128906 530.578125 385.089844 529.828125 385.019531 529.050781 C 384.253906 520.191406 380.296875 512.46875 374.359375 507 C 368.339844 501.46875 360.304688 498.238281 351.488281 498.449219 C 350.839844 498.46875 350.132812 498.511719 349.390625 498.570312 C 339.984375 499.378906 331.605469 504.011719 325.65625 510.839844 C 319.765625 517.601562 316.234375 526.558594 316.46875 536.101562 C 316.496094 537.378906 316.570312 538.691406 316.6875 540.019531 C 318.015625 555.351562 324.839844 568.691406 335.082031 578.121094 C 345.410156 587.621094 359.1875 593.148438 374.324219 592.789062 C 375.488281 592.761719 376.707031 592.691406 377.96875 592.578125 C 394.308594 591.171875 408.90625 583.101562 419.285156 571.191406 C 429.609375 559.339844 435.796875 543.660156 435.398438 526.949219 C 435.351562 525.109375 435.25 523.238281 435.085938 521.359375 C 433.199219 499.550781 423.507812 480.589844 408.949219 467.199219 C 394.3125 453.730469 374.785156 445.890625 353.328125 446.410156 C 351.652344 446.449219 349.925781 446.539062 348.144531 446.699219 C 324.863281 448.710938 304.058594 460.230469 289.246094 477.230469 C 274.488281 494.160156 265.640625 516.570312 266.214844 540.441406 C 266.273438 542.851562 266.410156 545.28125 266.621094 547.71875 C 269.066406 576 281.628906 600.578125 300.492188 617.929688 C 319.4375 635.359375 344.714844 645.5 372.488281 644.828125 C 374.675781 644.78125 376.917969 644.660156 379.214844 644.460938 C 407.53125 642.011719 433.035156 628.71875 451.972656 608.878906 C 444.34375 644.628906 441.089844 680.730469 457.585938 718.609375 C 474.539062 757.550781 494.609375 771.960938 481.9375 820.539062 C 477.238281 838.570312 467.71875 855.179688 454.023438 867.921875 C 452.007812 869.800781 449.902344 871.53125 447.722656 873.101562 L 447.71875 873.101562 C 447.632812 873.089844 446.5625 873.851562 444.683594 875.148438 C 419.347656 891.328125 385.789062 887.699219 369.867188 859.058594 C 364.066406 867.558594 365.300781 884.179688 371.832031 888.378906 C 351.472656 882.488281 333.085938 868.871094 320.796875 848.738281 C 319.757812 847.039062 318.742188 845.25 317.753906 843.378906 C 308.832031 826.488281 307.183594 807.238281 311.734375 789.800781 C 316.257812 772.449219 326.921875 756.910156 342.636719 747.308594 C 343.769531 746.621094 344.953125 745.949219 346.175781 745.308594 C 360.730469 737.621094 376.808594 736.320312 391.441406 740.558594 C 406.179688 744.828125 419.492188 754.691406 428.398438 769.28125 C 429.144531 770.5 429.882812 771.808594 430.605469 773.171875 C 436.183594 783.730469 437.210938 795.769531 434.363281 806.679688 C 430.660156 820.878906 421.191406 830.488281 410.96875 834.480469 C 370.519531 850.25 358.644531 788.449219 403.851562 790.820312 C 403.519531 790.199219 403.148438 789.539062 402.742188 788.878906 C 398.105469 781.28125 391.121094 776.128906 383.371094 773.890625 C 375.515625 771.609375 366.882812 772.300781 359.089844 776.421875 C 358.515625 776.730469 357.898438 777.078125 357.261719 777.460938 C 349.203125 782.378906 343.761719 790.261719 341.480469 799.019531 C 339.21875 807.699219 340.050781 817.289062 344.511719 825.730469 C 345.105469 826.859375 345.757812 828 346.453125 829.140625 C 354.476562 842.28125 366.527344 851.179688 379.898438 855.050781 C 393.378906 858.960938 408.175781 857.769531 421.566406 850.699219 C 422.597656 850.160156 423.65625 849.550781 424.734375 848.890625 C 438.734375 840.351562 448.207031 826.609375 452.191406 811.328125 C 456.15625 796.121094 454.703125 779.320312 446.902344 764.539062 C 446.039062 762.910156 445.117188 761.289062 444.132812 759.679688 C 432.726562 740.988281 415.601562 728.339844 396.601562 722.839844 C 377.496094 717.300781 356.519531 718.988281 337.542969 729.011719 C 336.0625 729.789062 334.554688 730.648438 333.035156 731.578125 C 313.085938 743.75 299.59375 763.339844 293.90625 785.160156 C 288.238281 806.890625 290.308594 830.898438 301.460938 852.011719 C 302.585938 854.140625 303.785156 856.261719 305.0625 858.339844 C 319.855469 882.570312 342.050781 898.980469 366.671875 906.109375 C 372.589844 907.820312 378.648438 909 384.777344 909.621094 C 352.296875 923.488281 317.25 928.601562 306.46875 893.578125 C 291.847656 911.648438 290.117188 940.300781 314.847656 945.679688 C 216.261719 950.039062 268.066406 1079.148438 341.992188 1019.140625 C 331.769531 1025.769531 314.183594 1017.410156 310.558594 1001.890625 C 304.792969 977.21875 338.058594 957.648438 375.589844 938.46875 C 401.875 925.039062 433.964844 908.699219 459.070312 887.808594 C 464.246094 883.789062 469.007812 879.351562 473.335938 874.558594 L 473.386719 874.511719 L 473.382812 874.511719 C 486.0625 860.46875 495.011719 843.429688 499.765625 825.191406 C 512.824219 775.121094 494.171875 755.710938 475.121094 712.320312 C 455.820312 668.308594 466.429688 625.691406 477.0625 582.980469 C 480.242188 570.199219 483.421875 557.421875 485.914062 544.570312 C 490.804688 556.378906 495.925781 567.691406 500.640625 578.121094 C 518.003906 616.519531 531.789062 652.570312 511.890625 668.25 C 499.367188 678.121094 480.40625 673.679688 476.554688 662.121094 C 496.878906 755.148438 617.925781 686.578125 543.613281 621.648438 C 558.179688 628.871094 579.058594 609.46875 592.089844 588.519531 C 613.039062 575.488281 632.433594 554.609375 625.21875 540.039062 C 690.144531 614.359375 758.714844 493.308594 665.691406 472.988281 C 677.25 476.839844 681.6875 495.800781 671.820312 508.320312 C 656.140625 528.21875 620.09375 514.429688 581.6875 497.070312 C 571.261719 492.359375 559.949219 487.238281 548.140625 482.351562 C 560.984375 479.851562 573.773438 476.671875 586.550781 473.488281 C 629.261719 462.859375 671.878906 452.25 715.886719 471.550781 C 759.28125 490.601562 778.691406 509.261719 828.757812 496.199219 C 847 491.441406 864.035156 482.488281 878.074219 469.820312 L 878.128906 469.769531 C 882.914062 465.441406 887.355469 460.679688 891.375 455.5 C 912.269531 430.398438 928.613281 398.308594 942.039062 372.019531 C 961.214844 334.488281 980.785156 301.21875 1005.460938 306.988281 C 1020.980469 310.621094 1029.339844 328.199219 1022.710938 338.429688 C 1082.71875 264.5 953.609375 212.691406 949.246094 311.28125 C 943.867188 286.550781 915.222656 288.28125 897.152344 302.898438 C 932.167969 313.679688 927.0625 348.730469 913.191406 381.210938 C 912.566406 375.078125 911.390625 369.019531 909.675781 363.101562 C 902.546875 338.480469 886.140625 316.289062 861.910156 301.488281 C 859.824219 300.21875 857.707031 299.011719 855.582031 297.890625 C 834.464844 286.738281 810.457031 284.671875 788.722656 290.339844 C 766.90625 296.03125 747.324219 309.519531 735.148438 329.460938 C 734.214844 330.988281 733.359375 332.488281 732.578125 333.96875 C 722.558594 352.949219 720.871094 373.929688 726.402344 393.03125 C 731.90625 412.03125 744.5625 429.160156 763.242188 440.558594 C 764.855469 441.550781 766.484375 442.46875 768.109375 443.328125 C 782.890625 451.140625 799.691406 452.589844 814.898438 448.621094 C 830.183594 444.640625 843.914062 435.171875 852.460938 421.171875 C 853.121094 420.089844 853.722656 419.03125 854.269531 418 C 861.339844 404.609375 862.523438 389.808594 858.621094 376.328125 C 854.746094 362.960938 845.847656 350.910156 832.710938 342.878906 C 831.570312 342.191406 830.429688 341.539062 829.300781 340.941406 C 820.859375 336.480469 811.265625 335.648438 802.589844 337.910156 C 793.828125 340.191406 785.949219 345.640625 781.03125 353.691406 C 780.644531 354.328125 780.292969 354.949219 779.988281 355.519531 C 775.867188 363.320312 775.183594 371.949219 777.453125 379.800781 C 779.703125 387.550781 784.851562 394.539062 792.445312 399.171875 C 793.113281 399.578125 793.765625 399.949219 794.390625 400.28125 C 792.015625 355.078125 853.820312 366.949219 838.046875 407.398438 C 834.058594 417.621094 824.449219 427.089844 810.246094 430.800781 C 799.335938 433.640625 787.300781 432.609375 776.742188 427.039062 C 775.375 426.320312 774.074219 425.578125 772.847656 424.828125 C 758.261719 415.921875 748.398438 402.609375 744.128906 387.871094 C 739.894531 373.238281 741.1875 357.160156 748.875 342.609375 C 749.519531 341.378906 750.191406 340.199219 750.882812 339.070312 C 760.476562 323.351562 776.015625 312.691406 793.371094 308.160156 C 810.8125 303.621094 830.054688 305.261719 846.949219 314.191406 C 848.816406 315.171875 850.605469 316.191406 852.308594 317.230469 C 872.441406 329.519531 886.054688 347.898438 891.949219 368.261719 C 887.75 361.730469 871.128906 360.5 862.628906 366.300781 C 891.265625 382.21875 894.898438 415.78125 878.722656 441.121094 C 877.414062 442.988281 876.660156 444.070312 876.664062 444.148438 C 875.09375 446.328125 873.367188 448.441406 871.492188 450.449219 C 858.742188 464.148438 842.136719 473.671875 824.109375 478.371094 C 775.523438 491.039062 761.121094 470.96875 722.179688 454.019531 C 684.296875 437.519531 648.195312 440.769531 612.449219 448.398438 C 632.285156 429.46875 645.582031 403.960938 648.027344 375.648438 C 648.226562 373.351562 648.351562 371.109375 648.402344 368.921875 C 649.070312 341.140625 638.925781 315.871094 621.5 296.921875 C 604.144531 278.058594 579.566406 265.5 551.285156 263.050781 C 548.847656 262.839844 546.417969 262.699219 544.015625 262.648438 C 520.144531 262.070312 497.726562 270.921875 480.796875 285.679688 C 463.796875 300.488281 452.277344 321.300781 450.265625 344.578125 C 450.109375 346.359375 450.015625 348.089844 449.976562 349.761719 C 449.460938 371.210938 457.300781 390.738281 470.765625 405.378906 C 484.15625 419.941406 503.117188 429.628906 524.925781 431.519531 C 526.804688 431.679688 528.675781 431.78125 530.515625 431.828125 C 547.222656 432.230469 562.910156 426.039062 574.757812 415.71875 C 586.664062 405.339844 594.742188 390.738281 596.152344 374.398438 C 596.261719 373.140625 596.328125 371.921875 596.359375 370.761719 C 596.71875 355.621094 591.1875 341.839844 581.6875 331.511719 C 572.261719 321.269531 558.921875 314.449219 543.585938 313.121094 C 542.257812 313 540.945312 312.929688 539.667969 312.898438 C 530.125 312.671875 521.164062 316.199219 514.40625 322.089844 C 507.582031 328.039062 502.953125 336.421875 502.140625 345.820312 C 502.074219 346.570312 502.035156 347.269531 502.019531 347.921875 C 501.804688 356.738281 505.035156 364.769531 510.574219 370.789062 C 516.039062 376.730469 523.757812 380.679688 532.621094 381.449219 C 533.402344 381.519531 534.152344 381.558594 534.859375 381.578125 C 512.589844 342.171875 573.210938 325.261719 577.113281 368.5 C 578.097656 379.429688 573.714844 392.179688 562.652344 401.828125 C 554.148438 409.238281 542.917969 413.679688 530.980469 413.390625 C 529.4375 413.359375 527.941406 413.28125 526.511719 413.148438 C 509.484375 411.679688 494.722656 404.160156 484.335938 392.871094 C 474.019531 381.648438 468.015625 366.679688 468.410156 350.230469 C 468.445312 348.839844 468.515625 347.480469 468.632812 346.171875 C 470.21875 327.820312 479.378906 311.351562 492.902344 299.558594 C 506.488281 287.71875 524.445312 280.621094 543.546875 281.078125 C 545.660156 281.128906 547.714844 281.25 549.699219 281.421875 C 573.199219 283.449219 593.578125 293.839844 607.929688 309.441406 C 601.257812 305.460938 585.828125 311.769531 580.804688 320.75 C 617.757812 322.429688 636.203125 358.449219 626.238281 392.140625 C 620.929688 410.078125 610.304688 426 596.257812 438.238281 C 566.757812 463.960938 528.433594 471.28125 491.304688 466 C 472.230469 409.441406 439.3125 357.328125 376.304688 334.089844 C 374.449219 332.96875 372.488281 332.078125 370.472656 331.429688 C 375.867188 320.71875 375.078125 311.851562 374.292969 303.101562 C 373.558594 294.878906 372.839844 286.800781 384.039062 275.261719 L 384.542969 274.75 L 385.144531 274.148438 C 385.753906 273.550781 386.398438 272.941406 387.074219 272.328125 L 397.550781 262.761719 L 397.546875 262.761719 L 397.632812 262.679688 L 384.621094 257 C 379.519531 254.769531 374.578125 253.449219 369.863281 252.910156 C 359.023438 251.691406 349.46875 254.539062 341.605469 260.019531 C 339.710938 261.339844 337.917969 262.820312 336.242188 264.421875 L 335.992188 264.648438 L 335.933594 264.710938 L 335.683594 264.949219 L 335.628906 265.011719 L 335.378906 265.261719 L 335.324219 265.308594 L 335.078125 265.558594 L 335.023438 265.621094 C 330.632812 270.101562 327.074219 275.488281 324.472656 281.351562 C 315.367188 272.261719 305.34375 264.871094 294.996094 259.28125 C 284.121094 253.421875 272.875 249.550781 261.957031 247.808594 L 249.367188 245.800781 L 251.378906 258.390625 C 253.121094 269.308594 256.984375 280.550781 262.851562 291.429688 C 268.433594 301.769531 275.824219 311.800781 284.917969 320.898438 C 279.058594 323.511719 273.671875 327.058594 269.183594 331.449219 L 269.128906 331.511719 L 268.878906 331.761719 L 268.824219 331.808594 L 268.578125 332.058594 L 268.519531 332.121094 L 268.277344 332.371094 L 268.222656 332.421875 L 267.984375 332.671875 C 266.382812 334.351562 264.90625 336.140625 263.585938 338.039062 C 258.109375 345.898438 255.253906 355.460938 256.484375 366.289062 C 257.019531 371.011719 258.339844 375.949219 260.570312 381.050781 L 266.253906 394.058594 L 266.328125 393.980469 L 266.332031 393.980469 L 275.894531 383.511719 C 276.511719 382.828125 277.121094 382.191406 277.722656 381.570312 L 278.238281 381.050781 L 278.316406 380.96875 L 278.828125 380.46875 C 290.363281 369.269531 298.445312 369.988281 306.667969 370.730469 C 315.421875 371.511719 324.285156 372.300781 335 366.898438 C 335.652344 368.921875 336.539062 370.878906 337.660156 372.730469 Z M 500.351562 496.78125 C 502.542969 497.339844 504.734375 497.890625 506.929688 498.410156 C 530.179688 504.019531 551.410156 513.019531 564.589844 531.679688 C 572.527344 542.921875 575.816406 556.050781 573.550781 569.980469 C 559.613281 572.25 546.492188 568.960938 535.25 561.019531 C 516.59375 547.839844 507.589844 526.609375 501.984375 503.359375 C 501.453125 501.171875 500.910156 498.980469 500.351562 496.78125 Z M 463.097656 459.53125 C 421.847656 446.441406 385.601562 418.628906 369.628906 384.910156 C 373.84375 383.628906 377.804688 381.328125 381.121094 378.011719 L 381.28125 377.851562 L 381.414062 377.710938 L 381.582031 377.550781 C 384.894531 374.238281 387.195312 370.269531 388.480469 366.058594 C 422.203125 382.03125 450.011719 418.28125 463.097656 459.53125 Z M 336.171875 332.601562 L 336.0625 332.570312 L 336.007812 332.550781 L 335.976562 332.539062 C 331.628906 330.96875 327.269531 329 322.964844 326.660156 L 322.152344 326.210938 L 322.140625 326.210938 C 320.523438 325.308594 318.914062 324.351562 317.3125 323.339844 L 317.304688 323.339844 C 316.640625 322.921875 315.976562 322.488281 315.316406 322.050781 L 315.304688 322.050781 C 309.332031 318.078125 303.523438 313.351562 298.050781 307.871094 C 290.1875 300.011719 283.84375 291.429688 279.101562 282.640625 C 276.804688 278.378906 274.878906 274.070312 273.335938 269.769531 C 277.636719 271.308594 281.945312 273.238281 286.207031 275.53125 C 294.996094 280.28125 303.578125 286.621094 311.441406 294.480469 C 316.914062 299.960938 321.648438 305.761719 325.613281 311.738281 L 325.617188 311.75 C 326.058594 312.410156 326.488281 313.070312 326.910156 313.738281 L 326.914062 313.738281 C 327.921875 315.339844 328.878906 316.949219 329.777344 318.570312 L 329.785156 318.578125 L 330.230469 319.390625 C 332.574219 323.699219 334.539062 328.058594 336.105469 332.410156 L 336.117188 332.441406 L 336.136719 332.5 Z M 352.925781 324.429688 C 352.121094 322.230469 351.234375 320.039062 350.261719 317.851562 C 347.171875 310.898438 343.285156 304.101562 338.621094 297.640625 C 339.214844 294.648438 340.125 291.730469 341.328125 288.980469 C 343.101562 284.921875 345.484375 281.25 348.375 278.320312 L 348.453125 278.238281 L 348.566406 278.128906 L 348.648438 278.050781 L 348.761719 277.941406 C 349.796875 276.941406 350.894531 276.019531 352.050781 275.21875 C 355.269531 272.980469 359.03125 271.539062 363.242188 271.238281 C 353.988281 284.199219 354.898438 294.429688 355.824219 304.808594 C 356.363281 310.820312 356.902344 316.898438 352.925781 324.429688 "/>
<path fill-rule="nonzero" fill="rgb(19.993591%, 19.993591%, 19.993591%)" fill-opacity="1" d="M 3851.601562 364.699219 C 3849.921875 362.898438 3849.070312 360.628906 3849.070312 358.378906 L 3849.101562 358.351562 C 3849.101562 355.96875 3850.011719 353.589844 3851.828125 351.769531 C 3853.640625 349.949219 3856.03125 349.039062 3858.410156 349.039062 C 3860.679688 349.039062 3862.96875 349.878906 3864.75 351.550781 C 3866.421875 353.328125 3867.25 355.621094 3867.25 357.890625 C 3867.25 360.269531 3866.339844 362.648438 3864.53125 364.46875 C 3862.710938 366.289062 3860.320312 367.199219 3857.949219 367.199219 L 3857.921875 367.21875 C 3855.671875 367.21875 3853.398438 366.378906 3851.601562 364.699219 Z M 3891.871094 349.359375 C 3899.398438 353.328125 3905.480469 352.789062 3911.488281 352.261719 C 3921.871094 351.328125 3932.101562 350.421875 3945.058594 359.671875 C 3944.761719 355.460938 3943.320312 351.699219 3941.078125 348.480469 C 3940.269531 347.320312 3939.359375 346.230469 3938.359375 345.191406 L 3938.25 345.078125 L 3938.171875 345 L 3938.058594 344.890625 L 3937.980469 344.808594 C 3935.039062 341.921875 3931.378906 339.53125 3927.320312 337.761719 C 3924.570312 336.558594 3921.648438 335.648438 3918.660156 335.050781 C 3912.199219 339.71875 3905.398438 343.609375 3898.441406 346.691406 C 3896.261719 347.660156 3894.070312 348.550781 3891.871094 349.359375 Z M 3882.210938 372.730469 C 3858.960938 435.738281 3806.859375 468.660156 3750.300781 487.738281 C 3745.019531 524.859375 3752.339844 563.191406 3778.050781 592.691406 C 3790.300781 606.738281 3806.21875 617.359375 3824.160156 622.671875 C 3857.851562 632.640625 3893.871094 614.191406 3895.550781 577.238281 C 3904.53125 582.261719 3910.828125 597.691406 3906.859375 604.359375 C 3922.460938 590.011719 3932.851562 569.628906 3934.878906 546.128906 C 3935.050781 544.140625 3935.160156 542.089844 3935.21875 539.980469 C 3935.679688 520.878906 3928.578125 502.921875 3916.730469 489.328125 C 3904.949219 475.808594 3888.480469 466.648438 3870.128906 465.058594 C 3868.820312 464.949219 3867.449219 464.878906 3866.070312 464.839844 C 3849.621094 464.449219 3834.648438 470.449219 3823.429688 480.761719 C 3812.140625 491.148438 3804.621094 505.921875 3803.148438 522.941406 C 3803.019531 524.371094 3802.941406 525.871094 3802.910156 527.410156 C 3802.621094 539.351562 3807.058594 550.578125 3814.46875 559.078125 C 3824.109375 570.148438 3836.871094 574.53125 3847.800781 573.539062 C 3891.039062 569.640625 3874.128906 509.019531 3834.71875 531.289062 C 3834.738281 530.578125 3834.78125 529.828125 3834.851562 529.050781 C 3835.609375 520.191406 3839.570312 512.46875 3845.511719 507 C 3851.53125 501.46875 3859.558594 498.238281 3868.378906 498.449219 C 3869.03125 498.46875 3869.730469 498.511719 3870.480469 498.570312 C 3879.878906 499.378906 3888.261719 504.011719 3894.210938 510.839844 C 3900.101562 517.601562 3903.628906 526.558594 3903.398438 536.101562 C 3903.371094 537.378906 3903.300781 538.691406 3903.179688 540.019531 C 3901.851562 555.351562 3895.03125 568.691406 3884.78125 578.121094 C 3874.460938 587.621094 3860.679688 593.148438 3845.539062 592.789062 C 3844.378906 592.761719 3843.160156 592.691406 3841.898438 592.578125 C 3825.558594 591.171875 3810.960938 583.101562 3800.578125 571.191406 C 3790.261719 559.339844 3784.070312 543.660156 3784.46875 526.949219 C 3784.511719 525.109375 3784.621094 523.238281 3784.78125 521.359375 C 3786.671875 499.550781 3796.359375 480.589844 3810.921875 467.199219 C 3825.558594 453.730469 3845.078125 445.890625 3866.539062 446.410156 C 3868.210938 446.449219 3869.941406 446.539062 3871.71875 446.699219 C 3895 448.710938 3915.808594 460.230469 3930.621094 477.230469 C 3945.378906 494.160156 3954.230469 516.570312 3953.648438 540.441406 C 3953.589844 542.851562 3953.460938 545.28125 3953.25 547.71875 C 3950.800781 576 3938.238281 600.578125 3919.378906 617.929688 C 3900.429688 635.359375 3875.148438 645.5 3847.378906 644.828125 C 3845.191406 644.78125 3842.949219 644.660156 3840.648438 644.460938 C 3812.328125 642.011719 3786.828125 628.71875 3767.890625 608.878906 C 3775.53125 644.628906 3778.78125 680.730469 3762.28125 718.609375 C 3745.328125 757.550781 3725.261719 771.960938 3737.929688 820.539062 C 3742.628906 838.570312 3752.148438 855.179688 3765.851562 867.921875 C 3767.859375 869.800781 3769.96875 871.53125 3772.140625 873.101562 L 3772.148438 873.101562 C 3772.230469 873.089844 3773.308594 873.851562 3775.179688 875.148438 C 3800.519531 891.328125 3834.078125 887.699219 3850 859.058594 C 3855.800781 867.558594 3854.570312 884.179688 3848.03125 888.378906 C 3868.390625 882.488281 3886.78125 868.871094 3899.070312 848.738281 C 3900.109375 847.039062 3901.121094 845.25 3902.109375 843.378906 C 3911.03125 826.488281 3912.679688 807.238281 3908.128906 789.800781 C 3903.609375 772.449219 3892.949219 756.910156 3877.230469 747.308594 C 3876.101562 746.621094 3874.910156 745.949219 3873.691406 745.308594 C 3859.140625 737.621094 3843.058594 736.320312 3828.429688 740.558594 C 3813.691406 744.828125 3800.371094 754.691406 3791.46875 769.28125 C 3790.71875 770.5 3789.980469 771.808594 3789.261719 773.171875 C 3783.691406 783.730469 3782.660156 795.769531 3785.5 806.679688 C 3789.210938 820.878906 3798.679688 830.488281 3808.898438 834.480469 C 3849.351562 850.25 3861.21875 788.449219 3816.019531 790.820312 C 3816.351562 790.199219 3816.71875 789.539062 3817.128906 788.878906 C 3821.761719 781.28125 3828.738281 776.128906 3836.488281 773.890625 C 3844.351562 771.609375 3852.980469 772.300781 3860.78125 776.421875 C 3861.351562 776.730469 3861.96875 777.078125 3862.601562 777.460938 C 3870.660156 782.378906 3876.101562 790.261719 3878.390625 799.019531 C 3880.648438 807.699219 3879.820312 817.289062 3875.359375 825.730469 C 3874.761719 826.859375 3874.109375 828 3873.410156 829.140625 C 3865.390625 842.28125 3853.339844 851.179688 3839.96875 855.050781 C 3826.488281 858.960938 3811.691406 857.769531 3798.300781 850.699219 C 3797.269531 850.160156 3796.210938 849.550781 3795.128906 848.890625 C 3781.128906 840.351562 3771.660156 826.609375 3767.679688 811.328125 C 3763.710938 796.121094 3765.160156 779.320312 3772.96875 764.539062 C 3773.828125 762.910156 3774.75 761.289062 3775.738281 759.679688 C 3787.140625 740.988281 3804.269531 728.339844 3823.269531 722.839844 C 3842.371094 717.300781 3863.351562 718.988281 3882.328125 729.011719 C 3883.800781 729.789062 3885.308594 730.648438 3886.828125 731.578125 C 3906.78125 743.75 3920.269531 763.339844 3925.960938 785.160156 C 3931.628906 806.890625 3929.558594 830.898438 3918.410156 852.011719 C 3917.28125 854.140625 3916.078125 856.261719 3914.800781 858.339844 C 3900.011719 882.570312 3877.820312 898.980469 3853.199219 906.109375 C 3847.28125 907.820312 3841.21875 909 3835.089844 909.621094 C 3867.570312 923.488281 3902.621094 928.601562 3913.398438 893.578125 C 3928.019531 911.648438 3929.75 940.300781 3905.019531 945.679688 C 4003.601562 950.039062 3951.800781 1079.148438 3877.871094 1019.140625 C 3888.101562 1025.769531 3905.679688 1017.410156 3909.308594 1001.890625 C 3915.078125 977.21875 3881.808594 957.648438 3844.28125 938.46875 C 3817.988281 925.039062 3785.898438 908.699219 3760.800781 887.808594 C 3755.621094 883.789062 3750.859375 879.351562 3746.53125 874.558594 L 3746.480469 874.511719 C 3733.808594 860.46875 3724.859375 843.429688 3720.101562 825.191406 C 3707.039062 775.121094 3725.699219 755.710938 3744.738281 712.320312 C 3764.050781 668.308594 3753.441406 625.691406 3742.808594 582.980469 C 3739.621094 570.199219 3736.449219 557.421875 3733.949219 544.570312 C 3729.058594 556.378906 3723.941406 567.691406 3719.230469 578.121094 C 3701.859375 616.519531 3688.078125 652.570312 3707.980469 668.25 C 3720.5 678.121094 3739.460938 673.679688 3743.308594 662.121094 C 3722.988281 755.148438 3601.941406 686.578125 3676.25 621.648438 C 3661.691406 628.871094 3640.808594 609.46875 3627.78125 588.519531 C 3606.828125 575.488281 3587.429688 554.609375 3594.648438 540.039062 C 3529.71875 614.359375 3461.148438 493.308594 3554.179688 472.988281 C 3542.621094 476.839844 3538.179688 495.800781 3548.050781 508.320312 C 3563.730469 528.21875 3599.78125 514.429688 3638.179688 497.070312 C 3648.609375 492.359375 3659.921875 487.238281 3671.730469 482.351562 C 3658.878906 479.851562 3646.089844 476.671875 3633.320312 473.488281 C 3590.609375 462.859375 3547.988281 452.25 3503.980469 471.550781 C 3460.578125 490.601562 3441.179688 509.261719 3391.109375 496.199219 C 3372.871094 491.441406 3355.828125 482.488281 3341.789062 469.820312 L 3341.738281 469.769531 C 3336.949219 465.441406 3332.511719 460.679688 3328.488281 455.5 C 3307.601562 430.398438 3291.25 398.308594 3277.828125 372.019531 C 3258.648438 334.488281 3239.078125 301.21875 3214.410156 306.988281 C 3198.890625 310.621094 3190.519531 328.199219 3197.148438 338.429688 C 3137.148438 264.5 3266.261719 212.691406 3270.621094 311.28125 C 3276 286.550781 3304.640625 288.28125 3322.710938 302.898438 C 3287.699219 313.679688 3292.808594 348.730469 3306.679688 381.210938 C 3307.300781 375.078125 3308.480469 369.019531 3310.191406 363.101562 C 3317.320312 338.480469 3333.730469 316.289062 3357.949219 301.488281 C 3360.039062 300.21875 3362.160156 299.011719 3364.289062 297.890625 C 3385.398438 286.738281 3409.410156 284.671875 3431.140625 290.339844 C 3452.960938 296.03125 3472.539062 309.519531 3484.71875 329.460938 C 3485.648438 330.988281 3486.511719 332.488281 3487.289062 333.96875 C 3497.308594 352.949219 3498.988281 373.929688 3493.460938 393.03125 C 3487.960938 412.03125 3475.308594 429.160156 3456.621094 440.558594 C 3455.011719 441.550781 3453.378906 442.46875 3451.761719 443.328125 C 3436.980469 451.140625 3420.179688 452.589844 3404.96875 448.621094 C 3389.679688 444.640625 3375.949219 435.171875 3367.410156 421.171875 C 3366.75 420.089844 3366.140625 419.03125 3365.601562 418 C 3358.53125 404.609375 3357.339844 389.808594 3361.25 376.328125 C 3365.121094 362.960938 3374.019531 350.910156 3387.160156 342.878906 C 3388.300781 342.191406 3389.441406 341.539062 3390.570312 340.941406 C 3399.011719 336.480469 3408.601562 335.648438 3417.28125 337.910156 C 3426.039062 340.191406 3433.921875 345.640625 3438.839844 353.691406 C 3439.21875 354.328125 3439.570312 354.949219 3439.878906 355.519531 C 3444 363.320312 3444.691406 371.949219 3442.410156 379.800781 C 3440.160156 387.550781 3435.019531 394.539062 3427.421875 399.171875 C 3426.761719 399.578125 3426.101562 399.949219 3425.480469 400.28125 C 3427.851562 355.078125 3366.050781 366.949219 3381.820312 407.398438 C 3385.808594 417.621094 3395.421875 427.089844 3409.621094 430.800781 C 3420.53125 433.640625 3432.570312 432.609375 3443.121094 427.039062 C 3444.488281 426.320312 3445.789062 425.578125 3447.019531 424.828125 C 3461.601562 415.921875 3471.46875 402.609375 3475.738281 387.871094 C 3479.96875 373.238281 3478.679688 357.160156 3470.988281 342.609375 C 3470.351562 341.378906 3469.679688 340.199219 3468.988281 339.070312 C 3459.390625 323.351562 3443.851562 312.691406 3426.488281 308.160156 C 3409.050781 303.621094 3389.808594 305.261719 3372.921875 314.191406 C 3371.050781 315.171875 3369.261719 316.191406 3367.558594 317.230469 C 3347.429688 329.519531 3333.808594 347.898438 3327.921875 368.261719 C 3332.121094 361.730469 3348.738281 360.5 3357.238281 366.300781 C 3328.601562 382.21875 3324.96875 415.78125 3341.140625 441.121094 C 3342.449219 442.988281 3343.210938 444.070312 3343.199219 444.148438 C 3344.769531 446.328125 3346.5 448.441406 3348.378906 450.449219 C 3361.121094 464.148438 3377.730469 473.671875 3395.761719 478.371094 C 3444.339844 491.039062 3458.75 470.96875 3497.691406 454.019531 C 3535.570312 437.519531 3571.671875 440.769531 3607.421875 448.398438 C 3587.578125 429.46875 3574.289062 403.960938 3571.839844 375.648438 C 3571.640625 373.351562 3571.519531 371.109375 3571.460938 368.921875 C 3570.789062 341.140625 3580.941406 315.871094 3598.371094 296.921875 C 3615.71875 278.058594 3640.300781 265.5 3668.578125 263.050781 C 3671.019531 262.839844 3673.449219 262.699219 3675.851562 262.648438 C 3699.71875 262.070312 3722.140625 270.921875 3739.070312 285.679688 C 3756.070312 300.488281 3767.589844 321.300781 3769.601562 344.578125 C 3769.761719 346.359375 3769.851562 348.089844 3769.890625 349.761719 C 3770.410156 371.210938 3762.570312 390.738281 3749.101562 405.378906 C 3735.710938 419.941406 3716.75 429.628906 3694.941406 431.519531 C 3693.058594 431.679688 3691.191406 431.78125 3689.351562 431.828125 C 3672.640625 432.230469 3656.960938 426.039062 3645.109375 415.71875 C 3633.199219 405.339844 3625.128906 390.738281 3623.710938 374.398438 C 3623.609375 373.140625 3623.539062 371.921875 3623.511719 370.761719 C 3623.148438 355.621094 3628.679688 341.839844 3638.179688 331.511719 C 3647.609375 321.269531 3660.941406 314.449219 3676.28125 313.121094 C 3677.609375 313 3678.921875 312.929688 3680.199219 312.898438 C 3689.738281 312.671875 3698.699219 316.199219 3705.460938 322.089844 C 3712.289062 328.039062 3716.910156 336.421875 3717.730469 345.820312 C 3717.789062 346.570312 3717.828125 347.269531 3717.851562 347.921875 C 3718.058594 356.738281 3714.828125 364.769531 3709.289062 370.789062 C 3703.828125 376.730469 3696.109375 380.679688 3687.25 381.449219 C 3686.46875 381.519531 3685.71875 381.558594 3685.011719 381.578125 C 3707.28125 342.171875 3646.660156 325.261719 3642.761719 368.5 C 3641.769531 379.429688 3646.148438 392.179688 3657.21875 401.828125 C 3665.71875 409.238281 3676.949219 413.679688 3688.890625 413.390625 C 3690.429688 413.359375 3691.929688 413.28125 3693.351562 413.148438 C 3710.378906 411.679688 3725.140625 404.160156 3735.53125 392.871094 C 3745.851562 381.648438 3751.851562 366.679688 3751.460938 350.230469 C 3751.421875 348.839844 3751.351562 347.480469 3751.238281 346.171875 C 3749.648438 327.820312 3740.488281 311.351562 3726.96875 299.558594 C 3713.378906 287.71875 3695.421875 280.621094 3676.320312 281.078125 C 3674.210938 281.128906 3672.148438 281.25 3670.171875 281.421875 C 3646.671875 283.449219 3626.289062 293.839844 3611.941406 309.441406 C 3618.609375 305.460938 3634.039062 311.769531 3639.058594 320.75 C 3602.109375 322.429688 3583.660156 358.449219 3593.628906 392.140625 C 3598.941406 410.078125 3609.558594 426 3623.609375 438.238281 C 3653.109375 463.960938 3691.441406 471.28125 3728.558594 466 C 3747.640625 409.441406 3780.558594 357.328125 3843.558594 334.089844 C 3845.421875 332.96875 3847.378906 332.078125 3849.398438 331.429688 C 3844 320.71875 3844.789062 311.851562 3845.570312 303.101562 C 3846.308594 294.878906 3847.03125 286.800781 3835.828125 275.261719 L 3835.320312 274.75 L 3835.25 274.671875 L 3834.71875 274.148438 C 3834.109375 273.550781 3833.46875 272.941406 3832.789062 272.328125 L 3822.320312 262.761719 L 3822.230469 262.679688 L 3835.238281 257 C 3840.351562 254.769531 3845.289062 253.449219 3850 252.910156 C 3860.839844 251.691406 3870.398438 254.539062 3878.261719 260.019531 C 3880.160156 261.339844 3881.949219 262.820312 3883.628906 264.421875 L 3883.878906 264.648438 L 3883.929688 264.710938 L 3884.179688 264.949219 L 3884.238281 265.011719 L 3884.488281 265.261719 L 3884.539062 265.308594 L 3884.789062 265.558594 L 3884.839844 265.621094 C 3889.238281 270.101562 3892.789062 275.488281 3895.390625 281.351562 C 3904.5 272.261719 3914.519531 264.871094 3924.871094 259.28125 C 3935.75 253.421875 3946.988281 249.550781 3957.910156 247.808594 L 3970.5 245.800781 L 3968.488281 258.390625 C 3966.738281 269.308594 3962.878906 280.550781 3957.011719 291.429688 C 3951.429688 301.769531 3944.039062 311.800781 3934.949219 320.898438 C 3940.808594 323.511719 3946.199219 327.058594 3950.679688 331.449219 L 3950.738281 331.511719 L 3950.988281 331.761719 L 3951.039062 331.808594 L 3951.351562 332.121094 L 3951.589844 332.371094 L 3951.648438 332.421875 L 3951.878906 332.671875 C 3953.480469 334.351562 3954.960938 336.140625 3956.28125 338.039062 C 3961.761719 345.898438 3964.609375 355.460938 3963.378906 366.289062 C 3962.851562 371.011719 3961.53125 375.949219 3959.300781 381.050781 L 3953.609375 394.058594 L 3953.539062 393.980469 L 3953.53125 393.980469 L 3943.96875 383.511719 C 3943.351562 382.828125 3942.738281 382.191406 3942.148438 381.570312 L 3941.628906 381.050781 L 3941.550781 380.96875 L 3941.039062 380.46875 C 3929.5 369.269531 3921.421875 369.988281 3913.199219 370.730469 C 3904.441406 371.511719 3895.578125 372.300781 3884.871094 366.898438 C 3884.21875 368.921875 3883.328125 370.878906 3882.210938 372.730469 Z M 3719.519531 496.78125 C 3717.320312 497.339844 3715.128906 497.890625 3712.941406 498.410156 C 3689.691406 504.019531 3668.449219 513.019531 3655.28125 531.679688 C 3647.339844 542.921875 3644.050781 556.050781 3646.320312 569.980469 C 3660.25 572.25 3673.378906 568.960938 3684.621094 561.019531 C 3703.269531 547.839844 3712.28125 526.609375 3717.878906 503.359375 C 3718.410156 501.171875 3718.960938 498.980469 3719.519531 496.78125 Z M 3756.769531 459.53125 C 3798.019531 446.441406 3834.261719 418.628906 3850.238281 384.910156 C 3846.019531 383.628906 3842.058594 381.328125 3838.75 378.011719 L 3838.578125 377.851562 L 3838.449219 377.710938 L 3838.289062 377.550781 C 3834.96875 374.238281 3832.671875 370.269531 3831.390625 366.058594 C 3797.660156 382.03125 3769.859375 418.28125 3756.769531 459.53125 Z M 3883.691406 332.601562 L 3883.800781 332.570312 L 3883.859375 332.550781 L 3883.890625 332.539062 C 3888.238281 330.96875 3892.601562 329 3896.898438 326.660156 L 3897.71875 326.210938 L 3897.730469 326.210938 C 3899.339844 325.308594 3900.949219 324.351562 3902.550781 323.339844 L 3902.558594 323.339844 C 3903.230469 322.921875 3903.890625 322.488281 3904.550781 322.050781 L 3904.558594 322.050781 C 3910.53125 318.078125 3916.339844 313.351562 3921.820312 307.871094 C 3929.679688 300.011719 3936.019531 291.429688 3940.761719 282.640625 C 3943.058594 278.378906 3944.988281 274.070312 3946.53125 269.769531 C 3942.230469 271.308594 3937.921875 273.238281 3933.660156 275.53125 C 3924.871094 280.28125 3916.289062 286.621094 3908.421875 294.480469 C 3902.949219 299.960938 3898.21875 305.761719 3894.25 311.738281 L 3894.25 311.75 C 3893.808594 312.410156 3893.378906 313.070312 3892.960938 313.738281 L 3892.949219 313.738281 C 3891.941406 315.339844 3890.988281 316.949219 3890.089844 318.570312 L 3890.078125 318.578125 L 3889.640625 319.390625 C 3887.289062 323.699219 3885.328125 328.058594 3883.761719 332.410156 L 3883.75 332.441406 L 3883.730469 332.5 Z M 3866.941406 324.429688 C 3867.75 322.230469 3868.628906 320.039062 3869.601562 317.851562 C 3872.691406 310.898438 3876.578125 304.101562 3881.238281 297.640625 C 3880.648438 294.648438 3879.738281 291.730469 3878.539062 288.980469 C 3876.769531 284.921875 3874.378906 281.25 3871.488281 278.320312 L 3871.410156 278.238281 L 3871.300781 278.128906 L 3871.21875 278.050781 L 3871.109375 277.941406 C 3870.070312 276.941406 3868.96875 276.019531 3867.820312 275.21875 C 3864.601562 272.980469 3860.839844 271.539062 3856.621094 271.238281 C 3865.878906 284.199219 3864.96875 294.429688 3864.039062 304.808594 C 3863.511719 310.820312 3862.96875 316.898438 3866.941406 324.429688 "/>
<path fill-rule="nonzero" fill="rgb(19.993591%, 19.993591%, 19.993591%)" fill-opacity="1" d="M 368.269531 2300.164062 C 369.949219 2301.964844 370.792969 2304.238281 370.792969 2306.484375 L 370.769531 2306.511719 C 370.769531 2308.886719 369.859375 2311.269531 368.039062 2313.089844 C 366.222656 2314.90625 363.839844 2315.820312 361.460938 2315.820312 C 359.183594 2315.820312 356.902344 2314.984375 355.113281 2313.316406 C 353.445312 2311.527344 352.613281 2309.246094 352.613281 2306.96875 C 352.613281 2304.59375 353.523438 2302.210938 355.339844 2300.390625 C 357.160156 2298.570312 359.542969 2297.660156 361.921875 2297.660156 L 361.945312 2297.636719 C 364.195312 2297.636719 366.46875 2298.480469 368.269531 2300.164062 Z M 327.996094 2315.507812 C 320.464844 2311.527344 314.382812 2312.070312 308.382812 2312.605469 C 298 2313.535156 287.769531 2314.445312 274.804688 2305.1875 C 275.105469 2309.398438 276.546875 2313.160156 278.789062 2316.382812 C 279.59375 2317.539062 280.503906 2318.632812 281.507812 2319.671875 L 281.617188 2319.78125 L 281.695312 2319.863281 L 281.886719 2320.054688 C 284.824219 2322.945312 288.488281 2325.332031 292.546875 2327.105469 C 295.296875 2328.304688 298.21875 2329.21875 301.210938 2329.808594 C 307.664062 2325.144531 314.46875 2321.257812 321.421875 2318.167969 C 323.609375 2317.199219 325.800781 2316.308594 327.996094 2315.507812 Z M 337.660156 2292.128906 C 360.902344 2229.117188 413.011719 2196.203125 469.566406 2177.125 C 474.84375 2140 467.53125 2101.675781 441.8125 2072.171875 C 429.566406 2058.125 413.648438 2047.503906 395.707031 2042.191406 C 362.015625 2032.226562 326.003906 2050.671875 324.316406 2087.628906 C 315.335938 2082.601562 309.03125 2067.171875 313.011719 2060.5 C 297.410156 2074.851562 287.019531 2095.234375 284.984375 2118.730469 C 284.8125 2120.71875 284.703125 2122.769531 284.652344 2124.882812 C 284.191406 2143.984375 291.289062 2161.941406 303.132812 2175.53125 C 314.917969 2189.054688 331.390625 2198.214844 349.734375 2199.800781 C 351.050781 2199.914062 352.410156 2199.984375 353.796875 2200.019531 C 370.25 2200.414062 385.21875 2194.410156 396.433594 2184.097656 C 407.726562 2173.707031 415.25 2158.945312 416.71875 2141.917969 C 416.84375 2140.492188 416.925781 2138.996094 416.960938 2137.449219 C 417.25 2125.511719 412.808594 2114.28125 405.398438 2105.777344 C 395.753906 2094.714844 382.996094 2090.332031 372.0625 2091.320312 C 328.824219 2095.21875 345.734375 2155.84375 385.148438 2133.570312 C 385.128906 2134.28125 385.089844 2135.03125 385.019531 2135.808594 C 384.253906 2144.671875 380.296875 2152.390625 374.359375 2157.859375 C 368.339844 2163.394531 360.304688 2166.625 351.488281 2166.410156 C 350.839844 2166.394531 350.132812 2166.355469 349.390625 2166.289062 C 339.984375 2165.476562 331.605469 2160.851562 325.65625 2154.027344 C 319.765625 2147.265625 316.234375 2138.308594 316.46875 2128.761719 C 316.496094 2127.484375 316.570312 2126.171875 316.6875 2124.84375 C 318.015625 2109.507812 324.839844 2096.171875 335.082031 2086.742188 C 345.410156 2077.242188 359.1875 2071.710938 374.324219 2072.070312 C 375.488281 2072.101562 376.707031 2072.167969 377.96875 2072.277344 C 394.308594 2073.691406 408.90625 2081.765625 419.285156 2093.671875 C 429.609375 2105.519531 435.796875 2121.207031 435.398438 2137.917969 C 435.351562 2139.757812 435.25 2141.625 435.085938 2143.507812 C 433.199219 2165.316406 423.507812 2184.277344 408.949219 2197.667969 C 394.3125 2211.132812 374.785156 2218.972656 353.328125 2218.453125 C 351.652344 2218.414062 349.925781 2218.320312 348.144531 2218.164062 C 324.863281 2216.152344 304.058594 2204.632812 289.246094 2187.636719 C 274.488281 2170.703125 265.640625 2148.289062 266.214844 2124.417969 C 266.273438 2122.011719 266.410156 2119.582031 266.621094 2117.144531 C 269.066406 2088.863281 281.628906 2064.285156 300.492188 2046.933594 C 319.4375 2029.507812 344.714844 2019.359375 372.488281 2020.027344 C 374.675781 2020.078125 376.917969 2020.203125 379.214844 2020.402344 C 407.53125 2022.851562 433.035156 2036.148438 451.972656 2055.984375 C 444.34375 2020.234375 441.089844 1984.136719 457.585938 1946.25 C 474.539062 1907.3125 494.609375 1892.90625 481.9375 1844.320312 C 477.238281 1826.292969 467.71875 1809.6875 454.023438 1796.941406 C 452.007812 1795.0625 449.902344 1793.335938 447.722656 1791.765625 L 447.71875 1791.765625 C 447.632812 1791.769531 446.5625 1791.015625 444.683594 1789.707031 C 419.347656 1773.53125 385.789062 1777.164062 369.867188 1805.804688 C 364.066406 1797.304688 365.300781 1780.679688 371.832031 1776.480469 C 351.472656 1782.378906 333.085938 1795.992188 320.796875 1816.121094 C 319.757812 1817.824219 318.742188 1819.613281 317.753906 1821.484375 C 308.832031 1838.375 307.183594 1857.617188 311.734375 1875.058594 C 316.257812 1892.414062 326.921875 1907.953125 342.636719 1917.550781 C 343.769531 1918.238281 344.953125 1918.910156 346.175781 1919.558594 C 360.730469 1927.242188 376.808594 1928.535156 391.441406 1924.300781 C 406.179688 1920.03125 419.492188 1910.167969 428.398438 1895.582031 C 429.144531 1894.359375 429.882812 1893.054688 430.605469 1891.6875 C 436.183594 1881.128906 437.210938 1869.097656 434.363281 1858.183594 C 430.660156 1843.980469 421.191406 1834.371094 410.96875 1830.382812 C 370.519531 1814.609375 358.644531 1876.414062 403.851562 1874.039062 C 403.519531 1874.667969 403.148438 1875.320312 402.742188 1875.988281 C 398.105469 1883.578125 391.121094 1888.730469 383.371094 1890.976562 C 375.515625 1893.25 366.882812 1892.5625 359.089844 1888.441406 C 358.515625 1888.136719 357.898438 1887.785156 357.261719 1887.398438 C 349.203125 1882.480469 343.761719 1874.601562 341.480469 1865.84375 C 339.21875 1857.164062 340.050781 1847.574219 344.511719 1839.128906 C 345.105469 1838.003906 345.757812 1836.859375 346.453125 1835.722656 C 354.476562 1822.585938 366.527344 1813.683594 379.898438 1809.808594 C 393.378906 1805.90625 408.175781 1807.09375 421.566406 1814.160156 C 422.597656 1814.707031 423.65625 1815.308594 424.734375 1815.96875 C 438.734375 1824.515625 448.207031 1838.246094 452.191406 1853.53125 C 456.15625 1868.738281 454.703125 1885.539062 446.902344 1900.320312 C 446.039062 1901.949219 445.117188 1903.574219 444.132812 1905.1875 C 432.726562 1923.871094 415.601562 1936.523438 396.601562 1942.027344 C 377.496094 1947.558594 356.519531 1945.875 337.542969 1935.851562 C 336.0625 1935.070312 334.554688 1934.214844 333.035156 1933.285156 C 313.085938 1921.109375 299.59375 1901.523438 293.90625 1879.707031 C 288.238281 1857.972656 290.308594 1833.964844 301.460938 1812.851562 C 302.585938 1810.722656 303.785156 1808.605469 305.0625 1806.519531 C 319.855469 1782.289062 342.050781 1765.882812 366.671875 1758.753906 C 372.589844 1757.039062 378.648438 1755.863281 384.777344 1755.242188 C 352.296875 1741.371094 317.25 1736.261719 306.46875 1771.277344 C 291.847656 1753.210938 290.117188 1724.5625 314.847656 1719.1875 C 216.261719 1714.824219 268.066406 1585.710938 341.992188 1645.71875 C 331.769531 1639.089844 314.183594 1647.449219 310.558594 1662.980469 C 304.792969 1687.644531 338.058594 1707.214844 375.589844 1726.390625 C 401.875 1739.816406 433.964844 1756.160156 459.070312 1777.058594 C 464.246094 1781.074219 469.007812 1785.515625 473.335938 1790.304688 L 473.386719 1790.355469 L 473.382812 1790.355469 C 486.0625 1804.398438 495.011719 1821.429688 499.765625 1839.671875 C 512.824219 1889.742188 494.171875 1909.148438 475.121094 1952.546875 C 455.820312 1996.554688 466.429688 2039.171875 477.0625 2081.878906 C 480.242188 2094.65625 483.421875 2107.445312 485.914062 2120.289062 C 490.804688 2108.480469 495.925781 2097.167969 500.640625 2086.742188 C 518.003906 2048.339844 531.789062 2012.289062 511.890625 1996.609375 C 499.367188 1986.746094 480.40625 1991.179688 476.554688 2002.738281 C 496.878906 1909.714844 617.925781 1978.285156 543.613281 2043.210938 C 558.179688 2035.996094 579.058594 2055.390625 592.089844 2076.34375 C 613.039062 2089.375 632.433594 2110.25 625.21875 2124.816406 C 690.144531 2050.507812 758.714844 2171.554688 665.691406 2191.875 C 677.25 2188.023438 681.6875 2169.0625 671.820312 2156.542969 C 656.140625 2136.644531 620.09375 2150.429688 581.6875 2167.789062 C 571.261719 2172.503906 559.949219 2177.625 548.140625 2182.515625 C 560.984375 2185.011719 573.773438 2188.1875 586.550781 2191.367188 C 629.261719 2202.003906 671.878906 2212.613281 715.886719 2193.308594 C 759.28125 2174.261719 778.691406 2155.605469 828.757812 2168.664062 C 847 2173.421875 864.035156 2182.371094 878.074219 2195.046875 L 878.128906 2195.09375 C 882.914062 2199.421875 887.355469 2204.1875 891.375 2209.359375 C 912.269531 2234.464844 928.613281 2266.554688 942.039062 2292.839844 C 961.214844 2330.371094 980.785156 2363.640625 1005.460938 2357.875 C 1020.980469 2354.246094 1029.339844 2336.664062 1022.710938 2326.4375 C 1082.71875 2400.363281 953.609375 2452.167969 949.246094 2353.585938 C 943.867188 2378.316406 915.222656 2376.582031 897.152344 2361.960938 C 932.167969 2351.179688 927.0625 2316.136719 913.191406 2283.65625 C 912.566406 2289.78125 911.390625 2295.839844 909.675781 2301.757812 C 902.546875 2326.378906 886.140625 2348.578125 861.910156 2363.367188 C 859.824219 2364.644531 857.707031 2365.847656 855.582031 2366.972656 C 834.464844 2378.121094 810.457031 2380.195312 788.722656 2374.523438 C 766.90625 2368.835938 747.324219 2355.34375 735.148438 2335.398438 C 734.214844 2333.875 733.359375 2332.367188 732.578125 2330.890625 C 722.558594 2311.910156 720.871094 2290.933594 726.402344 2271.828125 C 731.90625 2252.828125 744.5625 2235.707031 763.242188 2224.300781 C 764.855469 2223.3125 766.484375 2222.390625 768.109375 2221.53125 C 782.890625 2213.726562 799.691406 2212.273438 814.898438 2216.238281 C 830.183594 2220.226562 843.914062 2229.695312 852.460938 2243.695312 C 853.121094 2244.773438 853.722656 2245.835938 854.269531 2246.863281 C 861.339844 2260.253906 862.523438 2275.054688 858.621094 2288.53125 C 854.746094 2301.902344 845.847656 2313.957031 832.710938 2321.976562 C 831.570312 2322.671875 830.429688 2323.324219 829.300781 2323.921875 C 820.859375 2328.382812 811.265625 2329.214844 802.589844 2326.949219 C 793.828125 2324.667969 785.949219 2319.226562 781.03125 2311.167969 C 780.644531 2310.53125 780.292969 2309.914062 779.988281 2309.34375 C 775.867188 2301.546875 775.183594 2292.914062 777.453125 2285.058594 C 779.703125 2277.308594 784.851562 2270.328125 792.445312 2265.691406 C 793.113281 2265.28125 793.765625 2264.910156 794.390625 2264.578125 C 792.015625 2309.785156 853.820312 2297.910156 838.046875 2257.464844 C 834.058594 2247.238281 824.449219 2237.769531 810.246094 2234.066406 C 799.335938 2231.222656 787.300781 2232.25 776.742188 2237.824219 C 775.375 2238.546875 774.074219 2239.285156 772.847656 2240.03125 C 758.261719 2248.9375 748.398438 2262.253906 744.128906 2276.988281 C 739.894531 2291.625 741.1875 2307.703125 748.875 2322.257812 C 749.519531 2323.476562 750.191406 2324.664062 750.882812 2325.792969 C 760.476562 2341.511719 776.015625 2352.171875 793.371094 2356.699219 C 810.8125 2361.246094 830.054688 2359.597656 846.949219 2350.675781 C 848.816406 2349.6875 850.605469 2348.671875 852.308594 2347.632812 C 872.441406 2335.34375 886.054688 2316.957031 891.949219 2296.597656 C 887.75 2303.132812 871.128906 2304.363281 862.628906 2298.5625 C 891.265625 2282.640625 894.898438 2249.082031 878.722656 2223.746094 C 877.414062 2221.871094 876.660156 2220.796875 876.664062 2220.710938 L 876.664062 2220.707031 C 875.09375 2218.527344 873.367188 2216.421875 871.492188 2214.410156 C 858.742188 2200.714844 842.136719 2191.195312 824.109375 2186.492188 C 775.523438 2173.820312 761.121094 2193.890625 722.179688 2210.847656 C 684.296875 2227.339844 648.195312 2224.089844 612.449219 2216.457031 C 632.285156 2235.394531 645.582031 2260.898438 648.027344 2289.21875 C 648.226562 2291.511719 648.351562 2293.757812 648.402344 2295.941406 C 649.070312 2323.71875 638.925781 2348.992188 621.5 2367.941406 C 604.144531 2386.804688 579.566406 2399.363281 551.285156 2401.808594 C 548.847656 2402.019531 546.417969 2402.15625 544.015625 2402.214844 C 520.144531 2402.789062 497.726562 2393.945312 480.796875 2379.1875 C 463.796875 2364.371094 452.277344 2343.566406 450.265625 2320.285156 C 450.109375 2318.507812 450.015625 2316.777344 449.976562 2315.105469 C 449.460938 2293.648438 457.300781 2274.117188 470.765625 2259.480469 C 484.15625 2244.921875 503.117188 2235.230469 524.925781 2233.34375 C 526.804688 2233.183594 528.675781 2233.078125 530.515625 2233.035156 C 547.222656 2232.632812 562.910156 2238.820312 574.757812 2249.144531 C 586.664062 2259.523438 594.742188 2274.121094 596.152344 2290.460938 C 596.261719 2291.722656 596.328125 2292.941406 596.359375 2294.105469 C 596.71875 2309.242188 591.1875 2323.023438 581.6875 2333.347656 C 572.261719 2343.59375 558.921875 2350.417969 543.585938 2351.742188 C 542.257812 2351.859375 540.945312 2351.933594 539.667969 2351.964844 C 530.125 2352.195312 521.164062 2348.664062 514.40625 2342.773438 C 507.582031 2336.828125 502.953125 2328.445312 502.140625 2319.039062 C 502.074219 2318.296875 502.035156 2317.589844 502.019531 2316.941406 C 501.804688 2308.125 505.035156 2300.09375 510.574219 2294.074219 C 516.039062 2288.132812 523.757812 2284.179688 532.621094 2283.410156 C 533.402344 2283.34375 534.152344 2283.300781 534.859375 2283.285156 C 512.589844 2322.695312 573.210938 2339.605469 577.113281 2296.367188 C 578.097656 2285.433594 573.714844 2272.679688 562.652344 2263.035156 C 554.148438 2255.625 542.917969 2251.183594 530.980469 2251.46875 C 529.4375 2251.507812 527.941406 2251.585938 526.511719 2251.710938 C 509.484375 2253.183594 494.722656 2260.707031 484.335938 2271.996094 C 474.019531 2283.210938 468.015625 2298.179688 468.410156 2314.636719 C 468.445312 2316.019531 468.515625 2317.378906 468.632812 2318.695312 C 470.21875 2337.042969 479.378906 2353.511719 492.902344 2365.300781 C 506.488281 2377.144531 524.445312 2384.238281 543.546875 2383.78125 C 545.660156 2383.726562 547.714844 2383.617188 549.699219 2383.445312 C 573.199219 2381.414062 593.578125 2371.019531 607.929688 2355.421875 C 601.257812 2359.398438 585.828125 2353.097656 580.804688 2344.113281 C 617.757812 2342.429688 636.203125 2306.417969 626.238281 2272.726562 C 620.929688 2254.78125 610.304688 2238.863281 596.257812 2226.617188 C 566.757812 2200.898438 528.433594 2193.585938 491.304688 2198.867188 C 472.230469 2255.417969 439.3125 2307.527344 376.304688 2330.769531 C 374.449219 2331.894531 372.488281 2332.78125 370.472656 2333.429688 C 375.867188 2344.144531 375.078125 2353.007812 374.292969 2361.765625 C 373.558594 2369.984375 372.839844 2378.066406 384.039062 2389.601562 L 384.542969 2390.113281 L 384.621094 2390.191406 L 385.144531 2390.710938 C 385.753906 2391.308594 386.398438 2391.917969 387.074219 2392.535156 L 397.550781 2402.097656 L 397.546875 2402.101562 L 397.632812 2402.179688 L 384.621094 2407.863281 C 379.519531 2410.09375 374.578125 2411.410156 369.863281 2411.949219 C 359.023438 2413.175781 349.46875 2410.320312 341.605469 2404.84375 C 339.710938 2403.523438 337.917969 2402.046875 336.242188 2400.445312 L 335.992188 2400.210938 L 335.933594 2400.152344 L 335.683594 2399.910156 L 335.628906 2399.851562 L 335.378906 2399.605469 L 335.324219 2399.550781 L 335.078125 2399.300781 L 335.023438 2399.246094 C 330.632812 2394.761719 327.074219 2389.375 324.472656 2383.511719 C 315.367188 2392.605469 305.34375 2399.996094 294.996094 2405.578125 C 284.121094 2411.445312 272.875 2415.308594 261.957031 2417.050781 L 249.367188 2419.0625 L 251.378906 2406.472656 C 253.121094 2395.554688 256.984375 2384.308594 262.851562 2373.433594 C 268.433594 2363.089844 275.824219 2353.0625 284.917969 2343.957031 C 279.058594 2341.355469 273.671875 2337.800781 269.183594 2333.40625 L 269.128906 2333.351562 L 268.878906 2333.105469 L 268.519531 2332.746094 L 268.277344 2332.496094 L 268.222656 2332.4375 L 267.984375 2332.1875 C 266.382812 2330.511719 264.90625 2328.726562 263.585938 2326.824219 C 258.109375 2318.960938 255.253906 2309.40625 256.484375 2298.566406 C 257.019531 2293.851562 258.339844 2288.914062 260.570312 2283.808594 L 266.253906 2270.800781 L 266.328125 2270.882812 L 266.332031 2270.878906 L 275.894531 2281.355469 C 276.511719 2282.03125 277.121094 2282.675781 277.722656 2283.285156 L 278.238281 2283.808594 L 278.316406 2283.886719 L 278.828125 2284.390625 C 290.363281 2295.589844 298.445312 2294.871094 306.667969 2294.136719 C 315.421875 2293.355469 324.285156 2292.5625 335 2297.960938 C 335.652344 2295.941406 336.539062 2293.984375 337.660156 2292.128906 Z M 500.351562 2168.078125 C 502.542969 2167.519531 504.734375 2166.976562 506.929688 2166.449219 C 530.179688 2160.84375 551.410156 2151.839844 564.589844 2133.179688 C 572.527344 2121.9375 575.816406 2108.816406 573.550781 2094.882812 C 559.613281 2092.613281 546.492188 2095.902344 535.25 2103.84375 C 516.59375 2117.019531 507.589844 2138.25 501.984375 2161.503906 C 501.453125 2163.695312 500.910156 2165.886719 500.351562 2168.078125 Z M 463.097656 2205.332031 C 421.847656 2218.421875 385.601562 2246.230469 369.628906 2279.949219 C 373.84375 2281.234375 377.804688 2283.535156 381.121094 2286.851562 L 381.28125 2287.015625 L 381.414062 2287.148438 L 381.582031 2287.308594 C 384.894531 2290.625 387.195312 2294.589844 388.480469 2298.800781 C 422.203125 2282.828125 450.011719 2246.582031 463.097656 2205.332031 Z M 336.171875 2332.257812 L 336.0625 2332.296875 L 336.007812 2332.3125 L 335.976562 2332.324219 C 331.628906 2333.894531 327.269531 2335.859375 322.964844 2338.203125 L 322.152344 2338.648438 L 322.140625 2338.652344 C 320.523438 2339.550781 318.914062 2340.507812 317.3125 2341.519531 L 317.304688 2341.523438 C 316.640625 2341.941406 315.976562 2342.371094 315.316406 2342.8125 L 315.304688 2342.816406 C 309.332031 2346.78125 303.523438 2351.515625 298.050781 2356.988281 C 290.1875 2364.851562 283.84375 2373.433594 279.101562 2382.222656 C 276.804688 2386.484375 274.878906 2390.792969 273.335938 2395.09375 C 277.636719 2393.554688 281.945312 2391.628906 286.207031 2389.328125 C 294.996094 2384.585938 303.578125 2378.242188 311.441406 2370.378906 C 316.914062 2364.90625 321.648438 2359.101562 325.613281 2353.125 L 325.617188 2353.117188 C 326.058594 2352.453125 326.488281 2351.789062 326.910156 2351.128906 L 326.914062 2351.117188 C 327.921875 2349.519531 328.878906 2347.910156 329.777344 2346.292969 L 329.785156 2346.28125 L 330.230469 2345.46875 C 332.574219 2341.160156 334.539062 2336.800781 336.105469 2332.453125 L 336.117188 2332.421875 L 336.136719 2332.367188 Z M 352.925781 2340.433594 C 352.121094 2342.628906 351.234375 2344.824219 350.261719 2347.007812 C 347.171875 2353.964844 343.285156 2360.765625 338.621094 2367.222656 C 339.214844 2370.214844 340.125 2373.136719 341.328125 2375.882812 C 343.101562 2379.945312 345.484375 2383.609375 348.375 2386.542969 L 348.566406 2386.734375 L 348.648438 2386.8125 L 348.761719 2386.925781 C 349.796875 2387.925781 350.894531 2388.839844 352.050781 2389.644531 C 355.269531 2391.886719 359.03125 2393.324219 363.242188 2393.628906 C 353.988281 2380.664062 354.898438 2370.429688 355.824219 2360.050781 C 356.363281 2354.046875 356.902344 2347.964844 352.925781 2340.433594 "/>
<path fill-rule="nonzero" fill="rgb(19.993591%, 19.993591%, 19.993591%)" fill-opacity="1" d="M 3851.601562 2300.164062 C 3849.921875 2301.964844 3849.070312 2304.238281 3849.070312 2306.484375 L 3849.101562 2306.511719 C 3849.101562 2308.886719 3850.011719 2311.269531 3851.828125 2313.089844 C 3853.640625 2314.90625 3856.03125 2315.820312 3858.410156 2315.820312 C 3860.679688 2315.820312 3862.96875 2314.984375 3864.75 2313.316406 C 3866.421875 2311.527344 3867.25 2309.246094 3867.25 2306.96875 C 3867.25 2304.59375 3866.339844 2302.210938 3864.53125 2300.390625 C 3862.710938 2298.570312 3860.320312 2297.660156 3857.949219 2297.660156 L 3857.921875 2297.636719 C 3855.671875 2297.636719 3853.398438 2298.480469 3851.601562 2300.164062 Z M 3891.871094 2315.507812 C 3899.398438 2311.527344 3905.480469 2312.070312 3911.488281 2312.605469 C 3921.871094 2313.535156 3932.101562 2314.445312 3945.058594 2305.1875 C 3944.761719 2309.398438 3943.320312 2313.160156 3941.078125 2316.382812 C 3940.269531 2317.539062 3939.359375 2318.632812 3938.359375 2319.671875 L 3938.25 2319.78125 L 3938.171875 2319.863281 L 3937.980469 2320.054688 C 3935.039062 2322.945312 3931.378906 2325.332031 3927.320312 2327.105469 C 3924.570312 2328.304688 3921.648438 2329.21875 3918.660156 2329.808594 C 3912.199219 2325.144531 3905.398438 2321.257812 3898.441406 2318.167969 C 3896.261719 2317.199219 3894.070312 2316.308594 3891.871094 2315.507812 Z M 3882.210938 2292.128906 C 3858.960938 2229.117188 3806.859375 2196.203125 3750.300781 2177.125 C 3745.019531 2140 3752.339844 2101.675781 3778.050781 2072.171875 C 3790.300781 2058.125 3806.21875 2047.503906 3824.160156 2042.191406 C 3857.851562 2032.226562 3893.871094 2050.671875 3895.550781 2087.628906 C 3904.53125 2082.601562 3910.828125 2067.171875 3906.859375 2060.5 C 3922.460938 2074.851562 3932.851562 2095.234375 3934.878906 2118.730469 C 3935.050781 2120.71875 3935.160156 2122.769531 3935.21875 2124.882812 C 3935.679688 2143.984375 3928.578125 2161.941406 3916.730469 2175.53125 C 3904.949219 2189.054688 3888.480469 2198.214844 3870.128906 2199.800781 C 3868.820312 2199.914062 3867.449219 2199.984375 3866.070312 2200.019531 C 3849.621094 2200.414062 3834.648438 2194.410156 3823.429688 2184.097656 C 3812.140625 2173.707031 3804.621094 2158.945312 3803.148438 2141.917969 C 3803.019531 2140.492188 3802.941406 2138.996094 3802.910156 2137.449219 C 3802.621094 2125.511719 3807.058594 2114.28125 3814.46875 2105.777344 C 3824.109375 2094.714844 3836.871094 2090.332031 3847.800781 2091.320312 C 3891.039062 2095.21875 3874.128906 2155.84375 3834.71875 2133.570312 C 3834.738281 2134.28125 3834.78125 2135.03125 3834.851562 2135.808594 C 3835.609375 2144.671875 3839.570312 2152.390625 3845.511719 2157.859375 C 3851.53125 2163.394531 3859.558594 2166.625 3868.378906 2166.410156 C 3869.03125 2166.394531 3869.730469 2166.355469 3870.480469 2166.289062 C 3879.878906 2165.476562 3888.261719 2160.851562 3894.210938 2154.027344 C 3900.101562 2147.265625 3903.628906 2138.308594 3903.398438 2128.761719 C 3903.371094 2127.484375 3903.300781 2126.171875 3903.179688 2124.84375 C 3901.851562 2109.507812 3895.03125 2096.171875 3884.78125 2086.742188 C 3874.460938 2077.242188 3860.679688 2071.710938 3845.539062 2072.070312 C 3844.378906 2072.101562 3843.160156 2072.167969 3841.898438 2072.277344 C 3825.558594 2073.691406 3810.960938 2081.765625 3800.578125 2093.671875 C 3790.261719 2105.519531 3784.070312 2121.207031 3784.46875 2137.917969 C 3784.511719 2139.757812 3784.621094 2141.625 3784.78125 2143.507812 C 3786.671875 2165.316406 3796.359375 2184.277344 3810.921875 2197.667969 C 3825.558594 2211.132812 3845.078125 2218.972656 3866.539062 2218.453125 C 3868.210938 2218.414062 3869.941406 2218.320312 3871.71875 2218.164062 C 3895 2216.152344 3915.808594 2204.632812 3930.621094 2187.636719 C 3945.378906 2170.703125 3954.230469 2148.289062 3953.648438 2124.417969 C 3953.589844 2122.011719 3953.460938 2119.582031 3953.25 2117.144531 C 3950.800781 2088.863281 3938.238281 2064.285156 3919.378906 2046.933594 C 3900.429688 2029.507812 3875.148438 2019.359375 3847.378906 2020.027344 C 3845.191406 2020.078125 3842.949219 2020.203125 3840.648438 2020.402344 C 3812.328125 2022.851562 3786.828125 2036.148438 3767.890625 2055.984375 C 3775.53125 2020.234375 3778.78125 1984.136719 3762.28125 1946.25 C 3745.328125 1907.3125 3725.261719 1892.90625 3737.929688 1844.320312 C 3742.628906 1826.292969 3752.148438 1809.6875 3765.851562 1796.941406 C 3767.859375 1795.0625 3769.96875 1793.335938 3772.140625 1791.765625 L 3772.148438 1791.765625 C 3772.230469 1791.769531 3773.308594 1791.015625 3775.179688 1789.707031 C 3800.519531 1773.53125 3834.078125 1777.164062 3850 1805.804688 C 3855.800781 1797.304688 3854.570312 1780.679688 3848.03125 1776.480469 C 3868.390625 1782.378906 3886.78125 1795.992188 3899.070312 1816.121094 C 3900.109375 1817.824219 3901.121094 1819.613281 3902.109375 1821.484375 C 3911.03125 1838.375 3912.679688 1857.617188 3908.128906 1875.058594 C 3903.609375 1892.414062 3892.949219 1907.953125 3877.230469 1917.550781 C 3876.101562 1918.238281 3874.910156 1918.910156 3873.691406 1919.558594 C 3859.140625 1927.242188 3843.058594 1928.535156 3828.429688 1924.300781 C 3813.691406 1920.03125 3800.371094 1910.167969 3791.46875 1895.582031 C 3790.71875 1894.359375 3789.980469 1893.054688 3789.261719 1891.6875 C 3783.691406 1881.128906 3782.660156 1869.097656 3785.5 1858.183594 C 3789.210938 1843.980469 3798.679688 1834.371094 3808.898438 1830.382812 C 3849.351562 1814.609375 3861.21875 1876.414062 3816.019531 1874.039062 C 3816.351562 1874.667969 3816.71875 1875.320312 3817.128906 1875.988281 C 3821.761719 1883.578125 3828.738281 1888.730469 3836.488281 1890.976562 C 3844.351562 1893.25 3852.980469 1892.5625 3860.78125 1888.441406 C 3861.351562 1888.136719 3861.96875 1887.785156 3862.601562 1887.398438 C 3870.660156 1882.480469 3876.101562 1874.601562 3878.390625 1865.84375 C 3880.648438 1857.164062 3879.820312 1847.574219 3875.359375 1839.128906 C 3874.761719 1838.003906 3874.109375 1836.859375 3873.410156 1835.722656 C 3865.390625 1822.585938 3853.339844 1813.683594 3839.96875 1809.808594 C 3826.488281 1805.90625 3811.691406 1807.09375 3798.300781 1814.160156 C 3797.269531 1814.707031 3796.210938 1815.308594 3795.128906 1815.96875 C 3781.128906 1824.515625 3771.660156 1838.246094 3767.679688 1853.53125 C 3763.710938 1868.738281 3765.160156 1885.539062 3772.96875 1900.320312 C 3773.828125 1901.949219 3774.75 1903.574219 3775.738281 1905.1875 C 3787.140625 1923.871094 3804.269531 1936.523438 3823.269531 1942.027344 C 3842.371094 1947.558594 3863.351562 1945.875 3882.328125 1935.851562 C 3883.800781 1935.070312 3885.308594 1934.214844 3886.828125 1933.285156 C 3906.78125 1921.109375 3920.269531 1901.523438 3925.960938 1879.707031 C 3931.628906 1857.972656 3929.558594 1833.964844 3918.410156 1812.851562 C 3917.28125 1810.722656 3916.078125 1808.605469 3914.800781 1806.519531 C 3900.011719 1782.289062 3877.820312 1765.882812 3853.199219 1758.753906 C 3847.28125 1757.039062 3841.21875 1755.863281 3835.089844 1755.242188 C 3867.570312 1741.371094 3902.621094 1736.261719 3913.398438 1771.277344 C 3928.019531 1753.210938 3929.75 1724.5625 3905.019531 1719.1875 C 4003.601562 1714.824219 3951.800781 1585.710938 3877.871094 1645.71875 C 3888.101562 1639.089844 3905.679688 1647.449219 3909.308594 1662.980469 C 3915.078125 1687.644531 3881.808594 1707.214844 3844.28125 1726.390625 C 3817.988281 1739.816406 3785.898438 1756.160156 3760.800781 1777.058594 C 3755.621094 1781.074219 3750.859375 1785.515625 3746.53125 1790.304688 L 3746.480469 1790.355469 C 3733.808594 1804.398438 3724.859375 1821.429688 3720.101562 1839.671875 C 3707.039062 1889.742188 3725.699219 1909.148438 3744.738281 1952.546875 C 3764.050781 1996.554688 3753.441406 2039.171875 3742.808594 2081.878906 C 3739.621094 2094.65625 3736.449219 2107.445312 3733.949219 2120.289062 C 3729.058594 2108.480469 3723.941406 2097.167969 3719.230469 2086.742188 C 3701.859375 2048.339844 3688.078125 2012.289062 3707.980469 1996.609375 C 3720.5 1986.746094 3739.460938 1991.179688 3743.308594 2002.738281 C 3722.988281 1909.714844 3601.941406 1978.285156 3676.25 2043.210938 C 3661.691406 2035.996094 3640.808594 2055.390625 3627.78125 2076.34375 C 3606.828125 2089.375 3587.429688 2110.25 3594.648438 2124.816406 C 3529.71875 2050.507812 3461.148438 2171.554688 3554.179688 2191.875 C 3542.621094 2188.023438 3538.179688 2169.0625 3548.050781 2156.542969 C 3563.730469 2136.644531 3599.78125 2150.429688 3638.179688 2167.789062 C 3648.609375 2172.503906 3659.921875 2177.625 3671.730469 2182.515625 C 3658.878906 2185.011719 3646.089844 2188.1875 3633.320312 2191.367188 C 3590.609375 2202.003906 3547.988281 2212.613281 3503.980469 2193.308594 C 3460.578125 2174.261719 3441.179688 2155.605469 3391.109375 2168.664062 C 3372.871094 2173.421875 3355.828125 2182.371094 3341.789062 2195.046875 L 3341.738281 2195.09375 C 3336.949219 2199.421875 3332.511719 2204.1875 3328.488281 2209.359375 C 3307.601562 2234.464844 3291.25 2266.554688 3277.828125 2292.839844 C 3258.648438 2330.371094 3239.078125 2363.640625 3214.410156 2357.875 C 3198.890625 2354.246094 3190.519531 2336.664062 3197.148438 2326.4375 C 3137.148438 2400.363281 3266.261719 2452.167969 3270.621094 2353.585938 C 3276 2378.316406 3304.640625 2376.582031 3322.710938 2361.960938 C 3287.699219 2351.179688 3292.808594 2316.136719 3306.679688 2283.65625 C 3307.300781 2289.78125 3308.480469 2295.839844 3310.191406 2301.757812 C 3317.320312 2326.378906 3333.730469 2348.578125 3357.949219 2363.367188 C 3360.039062 2364.644531 3362.160156 2365.847656 3364.289062 2366.972656 C 3385.398438 2378.121094 3409.410156 2380.195312 3431.140625 2374.523438 C 3452.960938 2368.835938 3472.539062 2355.34375 3484.71875 2335.398438 C 3485.648438 2333.875 3486.511719 2332.367188 3487.289062 2330.890625 C 3497.308594 2311.910156 3498.988281 2290.933594 3493.460938 2271.828125 C 3487.960938 2252.828125 3475.308594 2235.707031 3456.621094 2224.300781 C 3455.011719 2223.3125 3453.378906 2222.390625 3451.761719 2221.53125 C 3436.980469 2213.726562 3420.179688 2212.273438 3404.96875 2216.238281 C 3389.679688 2220.226562 3375.949219 2229.695312 3367.410156 2243.695312 C 3366.75 2244.773438 3366.140625 2245.835938 3365.601562 2246.863281 C 3358.53125 2260.253906 3357.339844 2275.054688 3361.25 2288.53125 C 3365.121094 2301.902344 3374.019531 2313.957031 3387.160156 2321.976562 C 3388.300781 2322.671875 3389.441406 2323.324219 3390.570312 2323.921875 C 3399.011719 2328.382812 3408.601562 2329.214844 3417.28125 2326.949219 C 3426.039062 2324.667969 3433.921875 2319.226562 3438.839844 2311.167969 C 3439.21875 2310.53125 3439.570312 2309.914062 3439.878906 2309.34375 C 3444 2301.546875 3444.691406 2292.914062 3442.410156 2285.058594 C 3440.160156 2277.308594 3435.019531 2270.328125 3427.421875 2265.691406 C 3426.761719 2265.28125 3426.101562 2264.910156 3425.480469 2264.578125 C 3427.851562 2309.785156 3366.050781 2297.910156 3381.820312 2257.464844 C 3385.808594 2247.238281 3395.421875 2237.769531 3409.621094 2234.066406 C 3420.53125 2231.222656 3432.570312 2232.25 3443.121094 2237.824219 C 3444.488281 2238.546875 3445.789062 2239.285156 3447.019531 2240.03125 C 3461.601562 2248.9375 3471.46875 2262.253906 3475.738281 2276.988281 C 3479.96875 2291.625 3478.679688 2307.703125 3470.988281 2322.257812 C 3470.351562 2323.476562 3469.679688 2324.664062 3468.988281 2325.792969 C 3459.390625 2341.511719 3443.851562 2352.171875 3426.488281 2356.699219 C 3409.050781 2361.246094 3389.808594 2359.597656 3372.921875 2350.675781 C 3371.050781 2349.6875 3369.261719 2348.671875 3367.558594 2347.632812 C 3347.429688 2335.34375 3333.808594 2316.957031 3327.921875 2296.597656 C 3332.121094 2303.132812 3348.738281 2304.363281 3357.238281 2298.5625 C 3328.601562 2282.640625 3324.96875 2249.082031 3341.140625 2223.746094 C 3342.449219 2221.871094 3343.210938 2220.796875 3343.199219 2220.710938 L 3343.199219 2220.707031 C 3344.769531 2218.527344 3346.5 2216.421875 3348.378906 2214.410156 C 3361.121094 2200.714844 3377.730469 2191.195312 3395.761719 2186.492188 C 3444.339844 2173.820312 3458.75 2193.890625 3497.691406 2210.847656 C 3535.570312 2227.339844 3571.671875 2224.089844 3607.421875 2216.457031 C 3587.578125 2235.394531 3574.289062 2260.898438 3571.839844 2289.21875 C 3571.640625 2291.511719 3571.519531 2293.757812 3571.460938 2295.941406 C 3570.789062 2323.71875 3580.941406 2348.992188 3598.371094 2367.941406 C 3615.71875 2386.804688 3640.300781 2399.363281 3668.578125 2401.808594 C 3671.019531 2402.019531 3673.449219 2402.15625 3675.851562 2402.214844 C 3699.71875 2402.789062 3722.140625 2393.945312 3739.070312 2379.1875 C 3756.070312 2364.371094 3767.589844 2343.566406 3769.601562 2320.285156 C 3769.761719 2318.507812 3769.851562 2316.777344 3769.890625 2315.105469 C 3770.410156 2293.648438 3762.570312 2274.117188 3749.101562 2259.480469 C 3735.710938 2244.921875 3716.75 2235.230469 3694.941406 2233.34375 C 3693.058594 2233.183594 3691.191406 2233.078125 3689.351562 2233.035156 C 3672.640625 2232.632812 3656.960938 2238.820312 3645.109375 2249.144531 C 3633.199219 2259.523438 3625.128906 2274.121094 3623.710938 2290.460938 C 3623.609375 2291.722656 3623.539062 2292.941406 3623.511719 2294.105469 C 3623.148438 2309.242188 3628.679688 2323.023438 3638.179688 2333.347656 C 3647.609375 2343.59375 3660.941406 2350.417969 3676.28125 2351.742188 C 3677.609375 2351.859375 3678.921875 2351.933594 3680.199219 2351.964844 C 3689.738281 2352.195312 3698.699219 2348.664062 3705.460938 2342.773438 C 3712.289062 2336.828125 3716.910156 2328.445312 3717.730469 2319.039062 C 3717.789062 2318.296875 3717.828125 2317.589844 3717.851562 2316.941406 C 3718.058594 2308.125 3714.828125 2300.09375 3709.289062 2294.074219 C 3703.828125 2288.132812 3696.109375 2284.179688 3687.25 2283.410156 C 3686.46875 2283.34375 3685.71875 2283.300781 3685.011719 2283.285156 C 3707.28125 2322.695312 3646.660156 2339.605469 3642.761719 2296.367188 C 3641.769531 2285.433594 3646.148438 2272.679688 3657.21875 2263.035156 C 3665.71875 2255.625 3676.949219 2251.183594 3688.890625 2251.46875 C 3690.429688 2251.507812 3691.929688 2251.585938 3693.351562 2251.710938 C 3710.378906 2253.183594 3725.140625 2260.707031 3735.53125 2271.996094 C 3745.851562 2283.210938 3751.851562 2298.179688 3751.460938 2314.636719 C 3751.421875 2316.019531 3751.351562 2317.378906 3751.238281 2318.695312 C 3749.648438 2337.042969 3740.488281 2353.511719 3726.96875 2365.300781 C 3713.378906 2377.144531 3695.421875 2384.238281 3676.320312 2383.78125 C 3674.210938 2383.726562 3672.148438 2383.617188 3670.171875 2383.445312 C 3646.671875 2381.414062 3626.289062 2371.019531 3611.941406 2355.421875 C 3618.609375 2359.398438 3634.039062 2353.097656 3639.058594 2344.113281 C 3602.109375 2342.429688 3583.660156 2306.417969 3593.628906 2272.726562 C 3598.941406 2254.78125 3609.558594 2238.863281 3623.609375 2226.617188 C 3653.109375 2200.898438 3691.441406 2193.585938 3728.558594 2198.867188 C 3747.640625 2255.417969 3780.558594 2307.527344 3843.558594 2330.769531 C 3845.421875 2331.894531 3847.378906 2332.78125 3849.398438 2333.429688 C 3844 2344.144531 3844.789062 2353.007812 3845.570312 2361.765625 C 3846.308594 2369.984375 3847.03125 2378.066406 3835.828125 2389.601562 L 3835.320312 2390.113281 L 3835.25 2390.191406 L 3834.71875 2390.710938 C 3834.109375 2391.308594 3833.46875 2391.917969 3832.789062 2392.535156 L 3822.320312 2402.097656 L 3822.320312 2402.101562 L 3822.230469 2402.179688 L 3835.238281 2407.863281 C 3840.351562 2410.09375 3845.289062 2411.410156 3850 2411.949219 C 3860.839844 2413.175781 3870.398438 2410.320312 3878.261719 2404.84375 C 3880.160156 2403.523438 3881.949219 2402.046875 3883.628906 2400.445312 L 3883.878906 2400.210938 L 3883.929688 2400.152344 L 3884.179688 2399.910156 L 3884.238281 2399.851562 L 3884.488281 2399.605469 L 3884.539062 2399.550781 L 3884.789062 2399.300781 L 3884.839844 2399.246094 C 3889.238281 2394.761719 3892.789062 2389.375 3895.390625 2383.511719 C 3904.5 2392.605469 3914.519531 2399.996094 3924.871094 2405.578125 C 3935.75 2411.445312 3946.988281 2415.308594 3957.910156 2417.050781 L 3970.5 2419.0625 L 3968.488281 2406.472656 C 3966.738281 2395.554688 3962.878906 2384.308594 3957.011719 2373.433594 C 3951.429688 2363.089844 3944.039062 2353.0625 3934.949219 2343.957031 C 3940.808594 2341.355469 3946.199219 2337.800781 3950.679688 2333.40625 L 3950.738281 2333.351562 L 3950.988281 2333.105469 L 3951.039062 2333.050781 L 3951.289062 2332.804688 L 3951.351562 2332.746094 L 3951.589844 2332.496094 L 3951.648438 2332.4375 L 3951.878906 2332.1875 C 3953.480469 2330.511719 3954.960938 2328.726562 3956.28125 2326.824219 C 3961.761719 2318.960938 3964.609375 2309.40625 3963.378906 2298.566406 C 3962.851562 2293.851562 3961.53125 2288.914062 3959.300781 2283.808594 L 3953.609375 2270.800781 L 3953.539062 2270.882812 L 3953.53125 2270.878906 L 3943.96875 2281.355469 C 3943.351562 2282.03125 3942.738281 2282.675781 3942.148438 2283.285156 L 3941.628906 2283.808594 L 3941.550781 2283.886719 L 3941.039062 2284.390625 C 3929.5 2295.589844 3921.421875 2294.871094 3913.199219 2294.136719 C 3904.441406 2293.355469 3895.578125 2292.5625 3884.871094 2297.960938 C 3884.21875 2295.941406 3883.328125 2293.984375 3882.210938 2292.128906 Z M 3719.519531 2168.078125 C 3717.320312 2167.519531 3715.128906 2166.976562 3712.941406 2166.449219 C 3689.691406 2160.84375 3668.449219 2151.839844 3655.28125 2133.179688 C 3647.339844 2121.9375 3644.050781 2108.816406 3646.320312 2094.882812 C 3660.25 2092.613281 3673.378906 2095.902344 3684.621094 2103.84375 C 3703.269531 2117.019531 3712.28125 2138.25 3717.878906 2161.503906 C 3718.410156 2163.695312 3718.960938 2165.886719 3719.519531 2168.078125 Z M 3756.769531 2205.332031 C 3798.019531 2218.421875 3834.261719 2246.230469 3850.238281 2279.949219 C 3846.019531 2281.234375 3842.058594 2283.535156 3838.75 2286.851562 L 3838.578125 2287.015625 L 3838.449219 2287.148438 L 3838.289062 2287.308594 C 3834.96875 2290.625 3832.671875 2294.589844 3831.390625 2298.800781 C 3797.660156 2282.828125 3769.859375 2246.582031 3756.769531 2205.332031 Z M 3883.691406 2332.257812 L 3883.800781 2332.296875 L 3883.859375 2332.3125 L 3883.890625 2332.324219 C 3888.238281 2333.894531 3892.601562 2335.859375 3896.898438 2338.203125 L 3897.71875 2338.648438 L 3897.730469 2338.652344 C 3899.339844 2339.550781 3900.949219 2340.507812 3902.550781 2341.519531 L 3902.558594 2341.523438 C 3903.230469 2341.941406 3903.890625 2342.371094 3904.550781 2342.8125 L 3904.558594 2342.816406 C 3910.53125 2346.78125 3916.339844 2351.515625 3921.820312 2356.988281 C 3929.679688 2364.851562 3936.019531 2373.433594 3940.761719 2382.222656 C 3943.058594 2386.484375 3944.988281 2390.792969 3946.53125 2395.09375 C 3942.230469 2393.554688 3937.921875 2391.628906 3933.660156 2389.328125 C 3924.871094 2384.585938 3916.289062 2378.242188 3908.421875 2370.378906 C 3902.949219 2364.90625 3898.21875 2359.101562 3894.25 2353.125 L 3894.25 2353.117188 C 3893.808594 2352.453125 3893.378906 2351.789062 3892.960938 2351.128906 L 3892.949219 2351.117188 C 3891.941406 2349.519531 3890.988281 2347.910156 3890.089844 2346.292969 L 3890.078125 2346.28125 L 3889.640625 2345.46875 C 3887.289062 2341.160156 3885.328125 2336.800781 3883.761719 2332.453125 L 3883.75 2332.421875 Z M 3866.941406 2340.433594 C 3867.75 2342.628906 3868.628906 2344.824219 3869.601562 2347.007812 C 3872.691406 2353.964844 3876.578125 2360.765625 3881.238281 2367.222656 C 3880.648438 2370.214844 3879.738281 2373.136719 3878.539062 2375.882812 C 3876.769531 2379.945312 3874.378906 2383.609375 3871.488281 2386.542969 L 3871.410156 2386.621094 L 3871.300781 2386.734375 L 3871.21875 2386.8125 L 3871.109375 2386.925781 C 3870.070312 2387.925781 3868.96875 2388.839844 3867.820312 2389.644531 C 3864.601562 2391.886719 3860.839844 2393.324219 3856.621094 2393.628906 C 3865.878906 2380.664062 3864.96875 2370.429688 3864.039062 2360.050781 C 3863.511719 2354.046875 3862.96875 2347.964844 3866.941406 2340.433594 "/>
</svg>
