<?xml version='1.0' encoding='utf-8'?>
<svg xmlns:inkscape="http://www.inkscape.org/namespaces/inkscape" xmlns:sodipodi="http://sodipodi.sourceforge.net/DTD/sodipodi-0.dtd" xmlns="http://www.w3.org/2000/svg" xmlns:svg="http://www.w3.org/2000/svg" version="1.1" sodipodi:docname="ornament.eps" id="01-top-left-flourish" viewBox="169.9697 107.9725 278.9502 108.9722" width="278.9502" height="108.9722"><path id="path91" d="m 3013.82,8363.91 c -1.61,0 -3.21,0.01 -4.84,0.04 -79.79,1.49 -116.18,55.37 -116.85,108.11 -0.66,51.59 30.3,93.41 70.48,95.18 10.05,0.45 19.32,-7.65 19.79,-18.12 0.46,-10.47 -7.66,-19.33 -18.13,-19.79 -18.91,-0.84 -34.58,-26.85 -34.2,-56.8 0.22,-16.22 6.57,-69.26 79.61,-70.63 57.47,-1.51 104.77,20.91 137.41,63.56 41,53.54 50.21,126.81 38.09,168.56 -34.54,118.9 -121.97,179.59 -450.34,114.92 -100.41,-19.77 -241.25,-87.9 -390.36,-160.05 -168.38,-81.46 -342.49,-165.69 -486,-194.72 -262.25,-53.09 -412.84,2.41 -441.76,76.39 -14.83,37.96 -4.87,75.83 27.35,103.93 34.47,30.09 85.99,39.95 117.29,22.47 9.16,-5.1 12.44,-16.66 7.32,-25.81 -5.11,-9.15 -16.68,-12.42 -25.81,-7.32 -15.37,8.55 -49.48,3.33 -73.85,-17.94 -13.94,-12.16 -28.2,-32.71 -16.94,-61.51 15.79,-40.43 134.09,-106.57 398.88,-53.02 138.82,28.08 310.73,111.26 476.99,191.7 151.38,73.23 294.35,142.4 399.55,163.11 308.4,60.72 446.9,21.02 494.13,-141.57 15.09,-51.94 4.68,-138.09 -44.4,-202.21 -27.57,-36.01 -78.18,-78.47 -163.41,-78.48" style="fill:#ecb538;fill-opacity:1;fill-rule:nonzero;stroke:none" transform="matrix(0.13333333,0,0,-0.13333333,0,1306.6667)"/>
      <path id="path92" d="m 2108.28,8740.06 c -87.56,-136.14 -230.65,-228.97 -367.33,-268.72 19.04,2.12 38.88,5.39 59.39,10.07 114.79,26.19 261.9,141.03 372.47,228.79 -29.3,9.33 -50.79,20.98 -64.53,29.86 z m -426.2,-310.09 c -117.98,0 -194.74,37.82 -198.94,39.93 l 15.66,34.55 c 138.65,-56.03 446.57,33.76 587.8,272.76 l 11.9,20.12 17.25,-15.78 c 2.29,-2.05 33.14,-28.81 93.9,-42.13 45.87,36.27 82.71,64.39 108.75,77.79 93.64,48.19 204.12,26.87 208.79,25.93 10.27,-2.05 16.92,-12.02 14.89,-22.3 -2.06,-10.27 -12.1,-16.86 -22.31,-14.92 -1.01,0.22 -102.36,19.55 -184,-22.46 -17.59,-9.05 -43.11,-27.54 -73.43,-50.97 47.68,-2.44 107.16,4.21 178.87,29.3 9.9,3.42 20.72,-1.77 24.17,-11.65 3.47,-9.88 -1.75,-20.72 -11.64,-24.17 -97.82,-34.23 -175.77,-36.49 -233.99,-26.97 -4.23,-3.36 -8.52,-6.76 -12.86,-10.21 -114.48,-90.92 -271.25,-215.44 -398.12,-244.39 -45.84,-10.44 -88.44,-14.43 -126.69,-14.43" style="fill:#ecb538;fill-opacity:1;fill-rule:nonzero;stroke:none" transform="matrix(0.13333333,0,0,-0.13333333,0,1306.6667)"/>
      <path id="path93" d="m 2685.9,8608.06 c -103.5,0 -270.4,-76.12 -387.6,-129.58 -49.57,-22.61 -92.38,-42.14 -124.87,-53.99 -80.15,-29.24 -155.63,-50.15 -224.14,-65.04 148.12,13.99 280.22,43.93 396.21,70.23 105.79,23.97 197.74,44.82 277.38,48.22 13.41,20.62 49.51,73.29 100.45,125.95 -11.21,2.88 -23.76,4.21 -37.43,4.21 z m -901.96,-294.59 c -65.73,0 -134.18,3.82 -205.42,12.77 l 4.13,37.72 c 2.5,-0.24 254.13,-21.89 577.77,96.19 31.1,11.34 73.29,30.58 122.12,52.86 163.38,74.52 366.25,167.07 471.11,120.38 60.87,55.73 137.39,104.36 219.67,105.26 0.64,0.01 1.3,0.01 1.95,0.01 69.85,0 130.54,-41.02 148.01,-100.3 15.4,-52.24 -7.4,-103.58 -60.99,-137.36 -8.85,-5.59 -20.57,-2.94 -26.18,5.94 -5.59,8.87 -2.93,20.58 5.94,26.18 38.96,24.54 55.29,58.99 44.83,94.5 -10.43,35.36 -49.71,73.09 -111.48,73.09 -0.56,0 -1.11,0 -1.67,-0.01 -68.09,-0.74 -133.63,-41.21 -187.72,-89.46 13.72,-13.94 23.27,-31.94 28.52,-53.83 2.44,-10.19 -3.85,-20.43 -14.04,-22.88 -10.21,-2.35 -20.42,3.85 -22.87,14.04 -3.66,15.24 -9.99,27.33 -19.19,36.5 -65.08,-65.37 -107.92,-134.4 -108.73,-135.72 l -5.4,-8.81 -10.32,-0.24 c -78.17,-1.86 -171.74,-23.08 -280.08,-47.63 -159.64,-36.2 -349.36,-79.2 -569.96,-79.2" style="fill:#ecb538;fill-opacity:1;fill-rule:nonzero;stroke:none" transform="matrix(0.13333333,0,0,-0.13333333,0,1306.6667)"/>
      <path id="path94" d="m 1705.41,8700.71 c -30.68,0 -55.64,-24.95 -55.64,-55.63 0,-30.68 24.96,-55.63 55.64,-55.63 30.67,0 55.63,24.95 55.63,55.63 0,30.68 -24.96,55.63 -55.63,55.63 z m 0,-149.21 c -51.61,0 -93.59,41.98 -93.59,93.58 0,51.6 41.98,93.58 93.59,93.58 51.6,0 93.58,-41.98 93.58,-93.58 0,-51.6 -41.98,-93.58 -93.58,-93.58" style="fill:#ecb538;fill-opacity:1;fill-rule:nonzero;stroke:none" transform="matrix(0.13333333,0,0,-0.13333333,0,1306.6667)"/>
      </svg>
