<?xml version='1.0' encoding='utf-8'?>
<svg xmlns:inkscape="http://www.inkscape.org/namespaces/inkscape" xmlns:sodipodi="http://sodipodi.sourceforge.net/DTD/sodipodi-0.dtd" xmlns="http://www.w3.org/2000/svg" xmlns:svg="http://www.w3.org/2000/svg" version="1.1" sodipodi:docname="ornament.eps" id="02-top-center-crest" viewBox="322.9423 109.9719 1220.7820 321.9179" width="1220.7820" height="321.9179"><path id="path3" d="m 3916.86,7626.74 c -1.19,0 -1.86,-0.03 -1.91,-0.03 -59.79,-0.02 -94.65,-70.33 -98.63,-139.8 -5.38,-93.91 40.15,-194.52 154,-207.6 45.43,-5.26 160.94,-9.23 252.84,66.28 64.2,52.75 101.06,132.48 109.53,236.96 8.19,101.25 -21.59,190.47 -86.16,258.02 -16.92,17.7 -35.96,33.53 -56.92,47.41 10.99,-10.82 20.6,-21.71 28.96,-32.25 74.31,-93.63 101.19,-225.34 71.91,-352.33 -22.39,-97 -84.92,-142.86 -133.43,-164.25 -81.27,-35.82 -174.68,-27.23 -221.27,-0.94 -15.5,8.74 -33.29,21.23 -33.29,40.37 -0.01,21.21 20.32,32.68 43.87,45.97 28.4,16.03 63.75,35.98 70.43,72.38 7.9,42.94 2.32,75.73 -16.58,97.46 -26.65,30.64 -73.36,32.35 -83.35,32.35 z m 139.73,-735.68 c -9.84,0 -19.71,0.17 -29.71,0.52 -350.77,12.29 -560.47,328.83 -560.58,627.75 -0.07,213.06 113.03,465.91 431.94,477.37 0.07,0.01 0.13,0.01 0.18,0.01 156.8,5.56 290.15,-40.56 375.54,-129.91 71.24,-74.53 105.53,-176.56 96.55,-287.3 -9.33,-115.14 -50.8,-203.7 -123.26,-263.23 -103.13,-84.72 -231.02,-80.41 -281.27,-74.67 -137.7,15.83 -193.74,139.39 -187.56,247.48 5.94,103.37 61.72,175.57 135.65,175.57 2.08,0.14 72.48,2.98 114.56,-45.1 27.03,-30.89 35.6,-74.46 25.49,-129.48 -9.89,-53.86 -57.56,-80.77 -89.12,-98.58 -7.17,-4.05 -16.32,-9.21 -21.59,-13.1 2.22,-1.74 5.67,-4.11 11,-7.12 38.29,-21.59 120.79,-26.75 187.33,2.6 40.57,17.89 92.9,56.36 111.76,138.07 26.71,115.83 2.54,235.53 -64.65,320.2 -65.45,82.45 -165.54,126.24 -289.52,126.62 -291.7,-10.62 -395.14,-243.31 -395.07,-439.43 0.09,-277.03 183.75,-577.89 523.95,-589.82 357.32,-12.55 610.32,214.71 751.4,675.49 2.45,7.98 4.6,14.99 6.47,20.89 3.68,11.54 8.04,31.18 13.55,56.03 51.25,231 207.55,933.87 1071.57,923.81 495.86,-5.88 781.62,-280.55 934.04,-509.94 164.51,-247.59 211.49,-489.87 213.39,-500.06 1.96,-10.3 -4.83,-20.22 -15.11,-22.16 -10.23,-1.92 -20.2,4.83 -22.17,15.13 -0.46,2.43 -47.81,245.91 -208.43,487.15 -214.31,321.86 -517.84,487.37 -902.16,491.93 -5.96,0.07 -12.01,0.11 -17.89,0.11 -817.91,0 -966.94,-672.22 -1016.19,-894.19 -5.72,-25.79 -10.23,-46.14 -14.42,-59.32 -1.85,-5.79 -3.95,-12.66 -6.35,-20.49 -142.84,-466.51 -398.25,-702.81 -759.32,-702.83" style="fill:#ecb538;fill-opacity:1;fill-rule:nonzero;stroke:none" transform="matrix(0.13333333,0,0,-0.13333333,0,1306.6667)"/>
      <path id="path4" d="m 5642.14,8026.83 c -35.62,-12.33 -70.07,-28.75 -102.34,-49.22 -124.29,-78.81 -188.5,-202.89 -176.13,-340.42 19.61,-218.41 173.39,-296.96 299.11,-297.86 120.35,-0.28 248.6,67.21 262.34,198.96 10.73,103.17 -14.21,173.76 -72.16,204.17 -52.93,27.79 -117.83,12.66 -142.46,-8.43 -13.1,-11.2 -20.37,-46.68 -10.51,-77.39 6.48,-20.18 22.37,-44.96 61.26,-48.34 38.93,-3.38 61.86,-29.85 59.84,-69.08 -3.12,-60.49 -69.04,-148.99 -154.08,-149 -0.67,0 -1.33,0.01 -2.01,0.02 -152.74,2.5 -230.83,76.04 -253.14,238.48 -13.17,95.69 26.42,243.81 144.46,342.89 23.36,19.6 51.79,38.98 85.82,55.22 z m 8.3,-1077.02 c -167.66,-0.01 -340.03,50.2 -477.48,146.8 -196.34,137.98 -290.35,346.44 -264.72,586.98 52.88,496.56 319.9,721.04 534.6,821.9 232.07,109.03 448.21,100.7 457.31,100.32 10.46,-0.47 18.56,-9.33 18.09,-19.79 -0.45,-10.47 -9.28,-18.59 -19.78,-18.12 -2.24,0.08 -217.15,8.14 -440.82,-97.39 -298.63,-140.88 -470.77,-406.99 -511.67,-790.93 -24.09,-226.22 64.27,-422.22 248.81,-551.92 219.37,-154.15 531.73,-184.59 759.6,-74.02 123.95,60.13 274.71,187.05 289.12,450.18 12.63,230.34 -62.24,405.14 -210.79,492.23 -2.76,1.62 -5.53,3.2 -8.33,4.76 -226.79,68.79 -366.21,6.75 -443.66,-58.28 -107.01,-89.81 -143.05,-222.95 -131.26,-308.64 19.78,-143.92 82.41,-203.51 216.17,-205.69 0.45,-0.01 0.89,-0.01 1.34,-0.01 61.06,0 113.9,67.98 116.21,112.98 0.99,18.93 -6.56,27.71 -25.22,29.33 -45.88,3.98 -80.18,31.16 -94.11,74.55 -13.98,43.56 -4.33,95.31 21.96,117.81 38.36,32.86 119.95,47.26 184.8,13.2 41.58,-21.82 108.86,-82.24 92.26,-241.7 -15.99,-153.31 -161.5,-232.98 -297.86,-232.98 -0.84,0 -1.67,0 -2.5,0 -141.62,1.02 -314.76,88.68 -336.65,332.42 -13.67,152.18 56.9,289.17 193.62,375.86 158,100.19 364.86,110.16 519.7,26.3 3.41,-1.05 6.83,-2.13 10.26,-3.23 4.83,-1.55 8.61,-4.85 10.85,-8.98 155.88,-96.15 234.31,-281.05 221.11,-522 -12.03,-219.69 -122.28,-390.96 -310.45,-482.26 -96.54,-46.84 -207.46,-69.68 -320.51,-69.68" style="fill:#ecb538;fill-opacity:1;fill-rule:nonzero;stroke:none" transform="matrix(0.13333333,0,0,-0.13333333,0,1306.6667)"/>
      <path id="path5" d="m 2901.03,7520.14 c -201.92,0 -296.84,-154.4 -301.35,-307.58 -4.11,-139.55 69.31,-294.22 240.22,-304.02 116.82,-6.94 205.87,59.04 242.46,127.19 30.69,57.14 27.26,118.01 -9.39,166.98 -31.96,42.69 -69.38,63.25 -110.81,61.18 -49.17,-2.47 -91,-36.32 -105,-59.55 -9.27,-15.45 -20.54,-58.58 -9.93,-89.53 4.97,-14.5 14.06,-24.13 27.78,-29.44 56.96,-22.05 89.49,-12.36 89.82,-12.24 l 47.49,15.85 -25.06,-43.35 c -1.5,-2.6 -37.48,-63.66 -106.36,-81 -44.46,-11.17 -91.58,-1.68 -140.04,28.27 -98.4,60.74 -133.21,208.08 -79.25,335.41 19.85,46.86 88.3,167.75 270,191.15 -10,0.45 -20.75,0.61 -30.58,0.68 z m -45.64,-649.99 c -5.87,0 -11.77,0.16 -17.67,0.49 -187.49,10.77 -280.76,180.72 -275.98,343.04 4.89,165.95 113.18,344.41 339.3,344.41 0.22,0 0.43,0 0.66,0 291.93,-0.45 440.08,-161.86 583.35,-317.96 101.97,-111.09 198.28,-216.03 342.87,-264.02 9.95,-3.31 15.33,-14.05 12.03,-23.99 -3.31,-9.95 -14.02,-15.35 -23.99,-12.04 -153.94,51.11 -258.12,164.62 -358.88,274.39 -86.22,93.95 -174.29,189.9 -295.63,248.63 -227.49,56.58 -401.15,0.85 -464.9,-149.59 -46.05,-108.68 -17.23,-238.02 64.25,-288.32 39.41,-24.36 76.74,-32.3 110.84,-23.75 24.04,6.05 43.13,19.33 56.9,32.15 -17.96,1.55 -40.54,6.05 -67.22,16.39 -24.13,9.32 -41.42,27.5 -50,52.53 -14.77,43.11 -0.78,97.92 13.33,121.39 21.93,36.42 75.55,74.86 135.6,77.89 37.9,1.87 93.29,-9.81 143.1,-76.35 45.87,-61.28 50.41,-136.97 12.45,-207.67 -48.23,-89.8 -151.32,-147.62 -260.41,-147.62" style="fill:#ecb538;fill-opacity:1;fill-rule:nonzero;stroke:none" transform="matrix(0.13333333,0,0,-0.13333333,0,1306.6667)"/>
      <path id="path6" d="m 4847.64,7408.02 c -16.73,-31.18 -38.9,-86.2 -22.33,-136.87 2.9,-8.88 6.92,-17.34 12.02,-25.38 12.14,16.67 21.48,34.85 26.47,54.53 8.65,34.05 3.21,70.17 -16.16,107.72 z m -10.35,-219.54 c -32.71,-31.81 -72.19,-56.64 -106.89,-74.72 -65.06,-33.86 -87.96,-75.7 -87.71,-103.56 0.13,-14.86 6.63,-26.24 18.32,-32.06 15.4,-7.65 36.7,-14.49 50.72,-3.55 13.28,10.38 19.42,35.74 14.3,59.02 -2.74,12.46 -8.54,21.84 -14.51,23.57 -0.32,0.09 -0.52,0.13 -0.56,0.14 l 8.8,36.91 c 0.44,-0.1 0.88,-0.21 1.32,-0.32 9.43,-2.41 64.71,-17.55 116.79,-53.48 34.7,27.8 80.57,45.45 136.68,51.92 2.28,0.26 3.99,0.44 5.03,0.62 l 10.74,-36.32 c -15.77,-5.58 -20.14,-18.58 -21.34,-25.85 -2.48,-15.08 3.68,-31.36 15.3,-40.5 14.02,-11 35.13,-11.35 59.44,-1.01 4.55,2.86 16.21,22.19 13.05,47.62 -5.07,40.69 -45.54,74.94 -113.95,96.42 -44.09,13.86 -79.34,32.29 -105.53,55.15 z m 2.74,-198 c -27.66,-32.6 -41.65,-77.01 -41.79,-133.05 -0.18,-79.04 42.76,-107.32 61.55,-115.91 16.14,16.31 52.97,65.14 35.12,158.45 -7.24,37.76 -28.87,67.52 -54.88,90.51 z m 27.81,-291.17 -8.5,2.1 c -34.36,8.47 -99.29,52 -99.05,156.11 0.15,64.08 17.24,116.49 49.77,155.64 -15.8,10.3 -31.83,18.58 -46.25,25.05 5.62,-30.61 -0.86,-71.77 -28.72,-93.53 -16.35,-12.75 -45.38,-23.2 -90.99,-0.51 -24.39,12.14 -39.1,36.7 -39.36,65.68 -0.46,50.67 39.96,102.09 108.13,137.58 32.26,16.79 69.03,39.8 98.67,68.79 -9.84,13.33 -17.3,27.78 -22.37,43.34 -30.77,94.54 40.4,192.29 43.44,196.41 l 15.97,21.58 15.02,-22.26 c 37.95,-56.26 50.39,-111.56 36.99,-164.34 -6.98,-27.47 -20.49,-52.22 -37.81,-74.27 22.13,-19.2 52.67,-34.96 91.42,-47.13 118.59,-37.26 139.19,-101.14 140.92,-135.91 1.91,-38.51 -17.47,-71.13 -36.52,-79.26 -50.79,-21.6 -83.05,-5.48 -97.76,6.08 -22.53,17.69 -34.04,47.72 -29.3,76.5 0.52,3.17 1.22,6.24 2.09,9.22 -25.31,-6.82 -47.11,-16.78 -65.35,-29.81 29.98,-27.37 55.07,-63.16 63.89,-109.27 26.88,-140.39 -53.78,-200.21 -57.22,-202.68 l -7.11,-5.11" style="fill:#ecb538;fill-opacity:1;fill-rule:nonzero;stroke:none" transform="matrix(0.13333333,0,0,-0.13333333,0,1306.6667)"/>
      <path id="path7" d="m 3160.24,7982.05 c -8.11,-18.99 -21.47,-68.95 20.92,-136.72 17.04,-27.21 42.99,-44.08 70.57,-54.41 11.73,34.44 9.21,73.86 -7.64,118.04 -23.53,61.59 -65.26,71.75 -83.85,73.09 z m 77.82,-340.15 c 29.61,0 55.72,-3.89 78.23,-11.64 17.18,35.94 41.78,68.35 64.63,93.93 42.56,47.65 48.43,88.07 39.73,110.01 -4.39,11.08 -12.61,17.69 -23.15,18.61 -14.74,1.29 -33.88,0.14 -41.43,-12.62 -7.11,-12 -4.19,-33.41 6.76,-49.81 6.49,-9.71 13.15,-13.91 17.19,-13.41 0.27,0.03 0.42,0.06 0.46,0.06 l 5.19,-37.59 c -0.35,-0.06 -0.7,-0.1 -1.05,-0.14 -8.05,-0.99 -58.26,-6.4 -112.79,5.97 -20.27,-33.54 -52.75,-62.41 -97.01,-85.52 -1.74,-0.9 -3.06,-1.58 -3.87,-2.06 l -22.87,30.2 c 9.92,8.39 10.3,18.55 8.87,25.59 -2.43,12.02 -11.77,22.51 -23.25,26.1 -14.37,4.47 -31.42,-1.74 -47.95,-17.63 -2.41,-3.56 -5.4,-22.6 5.02,-41.08 16.87,-29.94 60.13,-44.05 121.76,-39.88 8.79,0.6 17.29,0.91 25.53,0.91 z m 98.64,-64.92 c -4.22,-16.41 -5.88,-33.11 -3.9,-49.62 3.43,-28.5 17.94,-54.56 43.24,-77.72 3.56,30.54 3.47,78.62 -23.99,112.38 -4.51,5.53 -9.62,10.52 -15.35,14.96 z m 63.33,-192.31 -21.77,14.96 c -49.42,33.99 -77.4,75.43 -83.14,123.2 -2.94,24.43 0.21,48.69 7.29,72.02 -23.62,7.86 -52.72,10.63 -87.28,8.28 -111.17,-7.73 -148.96,38.91 -161.55,67.31 -14.24,32.19 -8.19,65.39 5.89,78.89 36.37,34.92 69.24,31.54 85.55,26.47 24.66,-7.71 43.94,-29.22 49.13,-54.79 0.28,-1.39 0.51,-2.77 0.71,-4.15 16.22,12.19 29.38,25.51 39.44,39.9 -32.71,13 -63.88,34.21 -85.31,68.43 -67.08,107.24 -18.26,183.02 -16.15,186.19 l 4.78,7.18 8.55,1.13 c 31.7,4.09 100.39,-10.83 133.37,-97.2 19.75,-51.77 22.4,-99.56 8.63,-141.67 13.68,-2.65 26.98,-4.11 39.04,-4.83 -13.03,23.56 -19.19,57.53 -3.8,83.54 9.73,16.42 31.03,35.11 77.4,31.09 24.83,-2.16 45.45,-18.02 55.13,-42.43 16.67,-42.06 -0.79,-97.86 -46.72,-149.29 -20.9,-23.41 -43.51,-52.99 -58.83,-85.05 11.94,-7.76 22.37,-17.11 31.24,-28.05 55.34,-68.28 26.88,-171.36 25.63,-175.72 l -7.23,-25.41" style="fill:#ecb538;fill-opacity:1;fill-rule:nonzero;stroke:none" transform="matrix(0.13333333,0,0,-0.13333333,0,1306.6667)"/>
      <path id="path8" d="m 4317.92,7905.66 c 11.77,-22.03 32.34,-50.61 63.2,-60.56 3.89,-1.26 7.86,-2.18 11.94,-2.79 -4.26,11.28 -10.01,21.73 -17.61,30.83 -13.73,16.45 -33,27.32 -57.53,32.52 z m 121.74,-97.43 c 3.87,-32.46 1.38,-65.55 -2.91,-93.31 -0.52,-3.36 -0.94,-6.62 -1.28,-9.81 0.17,0.16 0.36,0.31 0.54,0.45 5.41,4.54 37.36,30.46 80.42,46.77 -0.56,32.58 9.23,67.35 29.55,103.41 l 1.72,3.09 10.69,-5.33 24.86,-7.68 c -2.69,-8.93 1.06,-15.19 4.67,-18.88 6.4,-6.51 16.52,-9.26 25.07,-6.89 10.99,3.07 19.29,14.39 23.38,31.85 -0.29,1.8 -6.01,16.04 -22.01,23.72 -24.22,11.6 -59.27,1.72 -98.67,-27.89 -26.36,-19.8 -51.76,-32.98 -76.03,-39.5 z m 118.86,-83.17 c 7.85,-27.58 26.81,-52.41 56.86,-74.33 41.17,-30.02 72.67,-20.99 86.6,-13.96 -3.58,17.4 -17.84,55.31 -74.64,81.73 -22.47,10.48 -46.36,10.99 -68.82,6.56 z m -123.1,-20.41 c -4.64,-45.16 8.64,-72.15 22.23,-81.81 5.04,-3.59 12.83,-6.89 21.44,-2.32 10.1,5.37 22.05,14.03 21.61,24.78 -0.43,10.35 -11.64,23.13 -25.51,29.07 -7.97,3.43 -13.54,3 -14.92,2.02 -0.12,-0.12 -0.2,-0.18 -0.23,-0.21 z m 35.09,-124.27 c -12,0 -24.08,3.87 -34.85,11.52 -31.76,22.58 -45.38,70.74 -36.42,128.81 3.85,24.88 6.19,54.5 2.87,82.76 -11.25,0.26 -22.21,2.13 -32.85,5.58 -71.34,23.17 -98.75,109.79 -99.88,113.46 l -7.77,25.26 26.41,-0.7 c 51,-1.35 90.23,-18.04 116.57,-49.6 12.8,-15.35 21.59,-33.1 27.37,-51.96 18.92,5.43 39.28,16.3 60.94,32.58 75.96,57.03 124.88,41.07 147.28,26.45 23.08,-15.05 37.64,-41.96 33.15,-61.27 -9.98,-42.6 -35.67,-55.74 -50.11,-59.77 -21.35,-5.94 -45.21,0.21 -61.26,15.74 -4.13,-12.46 -6.57,-24.53 -7.34,-36.19 28.26,5.06 58.88,3.79 88.74,-10.15 97.61,-45.41 97.8,-122.64 97.76,-125.91 l -0.09,-8.61 -6.57,-5.6 c -20.96,-17.87 -77.51,-39.35 -141.45,7.28 -36.84,26.89 -60.53,58.55 -70.77,93.58 -7.47,-3.17 -14.53,-6.63 -21,-10.13 19.23,-11.77 36.36,-32.05 37.37,-56.64 0.58,-13.76 -4.08,-39.86 -41.72,-59.86 -8.36,-4.44 -17.35,-6.63 -26.38,-6.63" style="fill:#ecb538;fill-opacity:1;fill-rule:nonzero;stroke:none" transform="matrix(0.13333333,0,0,-0.13333333,0,1306.6667)"/>
      <path id="path9" d="m 3755.36,7932.48 c -7.2,0 -14.07,4.11 -17.27,11.08 -4.35,9.54 -0.16,20.79 9.37,25.16 9.62,4.4 241.92,106.9 779.76,26.78 130.67,-19.45 245.33,28.91 314.69,132.68 65.74,98.37 76.26,226.06 25.6,310.52 -47.5,79.16 -171.68,123.28 -282.69,100.45 -53.4,-11 -145.42,-47.3 -161.67,-167.06 -5.75,-42.5 2.33,-73.54 24.73,-94.9 53.65,-51.22 171.46,-30.27 172.64,-30.07 10.27,1.97 20.19,-4.91 22.1,-15.22 1.9,-10.3 -4.89,-20.19 -15.19,-22.1 -5.56,-1.05 -137.92,-24.7 -205.68,39.85 -31.43,29.94 -43.61,72.85 -36.19,127.53 14.14,104.42 84,177 191.62,199.14 125.79,25.89 267.61,-25.99 322.87,-118.09 57.96,-96.6 47.02,-241 -26.58,-351.14 -77.85,-116.46 -206.02,-170.8 -351.85,-149.13 -526.74,78.46 -756.12,-22.74 -758.37,-23.77 -2.56,-1.17 -5.25,-1.71 -7.89,-1.71" style="fill:#ecb538;fill-opacity:1;fill-rule:nonzero;stroke:none" transform="matrix(0.13333333,0,0,-0.13333333,0,1306.6667)"/>
      <path id="path10" d="m 4286.41,7006.2 c -54.48,0 -101.99,16.44 -136.58,47.82 -25.49,23.13 -48.88,69.13 -43.67,119.77 3.44,33.48 20.62,81.06 82.85,117.68 51.12,30.05 113.52,14.98 148.74,-15.44 32.28,-27.87 42.46,-66.89 27.25,-104.42 -29.96,-73.88 -91.15,-77.91 -119.28,-69.76 l 10.4,36.5 c 5.03,-1.39 49.79,-11.51 73.7,47.52 12.25,30.21 -5.31,51.45 -16.87,61.43 -24.39,21.04 -69.38,32.21 -104.69,11.46 -38.44,-22.61 -60.69,-53.34 -64.34,-88.85 -3.84,-37.25 13.59,-71.61 31.41,-87.78 34.73,-31.52 87.28,-44.01 147.92,-35.23 117.46,17.04 240.99,106.48 314.71,227.86 l 32.43,-19.7 c -79.35,-130.67 -213.47,-227.12 -341.69,-245.71 -14.47,-2.11 -28.6,-3.15 -42.29,-3.15" style="fill:#ecb538;fill-opacity:1;fill-rule:nonzero;stroke:none" transform="matrix(0.13333333,0,0,-0.13333333,0,1306.6667)"/>
      <path id="path11" d="m 5301.37,7187.33 c -46.83,0 -98.25,17.01 -149.46,50.45 -131.75,86.03 -260.74,288 -232.61,528.16 l 37.7,-4.41 c -26.25,-224.12 93.39,-412.13 215.65,-491.97 72.53,-47.37 143.58,-57.23 194.9,-27.08 24.04,14.07 50.52,46.21 55.51,86.27 4.62,37.08 -9.92,72.52 -43.21,105.32 -30.76,30.34 -79.69,30.47 -110.11,15.14 -14.78,-7.43 -38.84,-25.13 -33.92,-60.21 9.77,-69.67 61.6,-68.35 63.7,-68.24 l 1.57,-37.91 c -30.43,-1.49 -91.26,18.19 -102.85,100.89 -5.92,42.11 14.45,79.27 54.45,99.38 43.27,21.74 110,21.18 153.8,-22.02 52.49,-51.72 58.46,-103.07 54.22,-137.04 -7.04,-56.52 -44.24,-96.91 -73.96,-114.33 -25.54,-14.98 -54.46,-22.39 -85.38,-22.4" style="fill:#ecb538;fill-opacity:1;fill-rule:nonzero;stroke:none" transform="matrix(0.13333333,0,0,-0.13333333,0,1306.6667)"/>
      <path id="path12" d="m 6981.91,7586.45 c -92.12,288.72 -332.17,447.58 -516.23,472.99 -102.4,14.19 -184.6,-13.21 -225.42,-75.07 -20.43,-30.96 -33.54,-85.69 -16.76,-138.17 15.03,-47.03 52.01,-83.11 106.96,-104.34 50.14,-19.34 104.55,4.52 132.43,38.08 12.31,14.84 37.88,54.34 9.34,100.47 -50.05,80.97 -110.3,50.28 -112.86,48.96 l -17.75,33.54 c 0.92,0.51 94.4,48.28 162.89,-62.54 28.79,-46.53 24.14,-100.61 -12.42,-144.67 -43.27,-52.16 -115.36,-72.44 -175.31,-49.24 -83.42,32.24 -116.43,87.5 -129.44,128.18 -20.58,64.44 -4.17,132.13 21.25,170.64 49.19,74.53 144.75,107.93 262.29,91.77 195.46,-27.01 450.07,-194.69 547.21,-499.06 l -36.18,-11.54" style="fill:#ecb538;fill-opacity:1;fill-rule:nonzero;stroke:none" transform="matrix(0.13333333,0,0,-0.13333333,0,1306.6667)"/>
      <path id="path13" d="m 3814.3,6940.72 c -143.33,62.96 -212.59,182.34 -229.62,273.07 -12.42,66.25 1.03,124.81 36.92,160.66 27.03,27.01 75.38,56.53 122.97,50.62 22.01,-2.71 53.4,-14.51 77.89,-55.31 26.75,-44.53 25.28,-107.13 -3.42,-145.62 -20.37,-27.32 -51.13,-38.07 -84.33,-29.51 -70.74,18.17 -82.35,74.01 -78.62,101 l 37.62,-5.01 c -0.54,-4.6 -3.69,-45.33 50.45,-59.24 18.37,-4.77 33.3,0.48 44.46,15.45 17.27,23.15 22.48,68.15 1.31,103.38 -13.54,22.56 -29.9,34.72 -50,37.19 -31.52,3.99 -69.59,-17.9 -91.5,-39.81 -26.89,-26.85 -36.53,-73.06 -26.44,-126.8 14.53,-77.49 77.62,-188.25 207.58,-245.32 l -15.27,-34.75" style="fill:#ecb538;fill-opacity:1;fill-rule:nonzero;stroke:none" transform="matrix(0.13333333,0,0,-0.13333333,0,1306.6667)"/>
      <path id="path14" d="m 6342.29,8251.7 c -20.72,0 -39.22,-3.41 -54.68,-11.03 -36.43,-17.94 -47.09,-34.95 -45.13,-44.06 2.27,-10.67 20.89,-22.68 44.97,-23.56 14.03,-0.51 48.03,2.56 59.46,41.84 3.85,13.24 4.61,25.48 2.31,36.68 -2.34,0.08 -4.65,0.13 -6.93,0.13 z m 455.45,-212.09 c -79.41,58.6 -272.65,182.2 -409.79,207.5 1.18,-13.71 -0.32,-28.1 -4.6,-42.81 -15.42,-53.03 -60.17,-70.57 -97.27,-69.17 -40.45,1.46 -74.4,23.98 -80.72,53.54 -3.89,18.18 -0.55,53.53 65.47,86.05 16.44,8.09 35.08,12.55 55.28,14 -1.42,1.21 -2.9,2.4 -4.45,3.57 -46.43,35.11 -128.63,35.9 -183.22,1.78 -91.56,-57.17 -180.34,-47.14 -263.89,29.95 -58.22,53.66 -112.67,82.18 -113.21,82.46 l -44.82,23.25 49.03,12.02 c 5.46,1.34 550.66,130.25 923.41,-196.03 l -25,-28.55 c -295.19,258.4 -704.54,219.21 -842.16,196.76 21.73,-14.66 49.59,-35.38 78.47,-62.02 71.38,-65.84 140.65,-74.01 218.06,-25.65 67.93,42.48 167.31,40.87 226.23,-3.7 13.53,-10.25 24.05,-22.28 31.38,-35.63 179.49,-22.8 431.43,-207.26 444.34,-216.78 l -22.54,-30.54" style="fill:#ecb538;fill-opacity:1;fill-rule:nonzero;stroke:none" transform="matrix(0.13333333,0,0,-0.13333333,0,1306.6667)"/>
      <path id="path15" d="m 5408.57,8258.57 c -2.92,-18.12 -3.2,-37.01 -0.3,-56.66 6.13,-41.46 19.93,-57.84 30.8,-59.34 11.69,-1.82 26.8,10.86 34.66,28.37 4.39,9.76 16.06,43.78 -17.4,72.32 -14.47,12.36 -30.51,17.47 -47.76,15.31 z m -390.78,-642.74 6.38,58.48 c 2.98,27.22 77.92,668.94 529.34,875.29 l 15.77,-34.53 c -353.93,-161.78 -468.09,-621.94 -498.12,-785.96 25.18,25.18 58.69,56.77 92.26,82.73 77.78,60.12 97.41,118.56 80.82,240.48 -11.21,82.21 43.05,189.34 116.13,229.26 5.25,2.86 10.5,5.33 15.73,7.4 55.68,203.59 387.33,305.42 403.37,310.23 l 10.91,-36.35 c -3.57,-1.07 -304.92,-93.64 -371.31,-265.83 22.17,-0.62 43.2,-8.95 61.89,-24.9 42.55,-36.29 42.05,-84.09 27.4,-116.73 -15.11,-33.68 -45.81,-54.39 -74.49,-50.43 -18.92,2.62 -52.28,17.97 -63.15,91.39 -2.32,15.74 -3,31 -2.21,45.79 -54.8,-36.8 -95.32,-121.32 -86.67,-184.7 15.76,-115.78 5.24,-197.99 -95.19,-275.63 -63.33,-48.96 -128.85,-121.53 -129.51,-122.26 l -39.35,-43.73" style="fill:#ecb538;fill-opacity:1;fill-rule:nonzero;stroke:none" transform="matrix(0.13333333,0,0,-0.13333333,0,1306.6667)"/>
      <path id="path16" d="m 5607.86,7203.85 c -13.94,0 -31.1,-6.95 -43.69,-18.69 -9.89,-9.24 -24.79,-28.74 -13.38,-55.59 3.74,-8.81 8.95,-15.37 14.99,-20.2 39.36,10.82 65.35,27.02 68.14,49.9 1.85,15.2 1.2,34.76 -12.41,41.68 -3.86,1.97 -8.54,2.9 -13.65,2.9 z m -79.19,-219.72 c -49.74,0 -103.87,4.49 -162.72,14.55 l 6.4,37.41 c 376.01,-64.28 544.12,103.85 607.46,199.25 -26.32,-11.94 -57.73,-20.52 -87.77,-14.44 -65.6,13.32 -95.38,16.52 -114.23,-47.52 -18.72,-63.73 -99.06,-110.49 -162.34,-114.18 -20.77,-1.12 -39.29,2.03 -55.01,9.23 -115.92,-27.7 -286.72,-11.58 -333.74,-6.33 l 4.21,37.71 c 92.9,-10.37 208.8,-12.66 292.46,0.63 -2.86,4.44 -5.38,9.2 -7.54,14.28 -14.71,34.64 -6.32,71.34 22.44,98.19 29.31,27.37 71.55,36.56 100.44,21.87 14.99,-7.63 39.2,-28.18 32.86,-80.11 -2.72,-22.2 -14.84,-39.81 -33.5,-53.69 47.01,11.75 92.73,47.11 103.31,83.11 29.49,100.15 97.9,86.24 158.18,74.01 42.78,-8.66 99.72,29.65 118.06,45.16 l 55.16,46.65 -25.11,-67.72 c -1.24,-3.36 -115.78,-298.06 -519.02,-298.06" style="fill:#ecb538;fill-opacity:1;fill-rule:nonzero;stroke:none" transform="matrix(0.13333333,0,0,-0.13333333,0,1306.6667)"/>
      <path id="path17" d="m 6767.48,8560.63 c 0.48,-32.48 13.03,-59.25 22.47,-74.85 21.76,-36.03 53.19,-58.72 74.84,-63.88 3.96,4.12 10.48,15.55 11.34,31.58 1.06,19.65 -5.95,49.31 -45.38,78.98 -18.69,14.07 -40.3,23.02 -63.27,28.17 z m 251.49,-968.41 h -37.95 v 1182.53 c -55.41,-27.33 -180.43,-95.87 -206.18,-169.14 -0.85,-2.45 -1.63,-4.87 -2.33,-7.28 29.06,-6.1 56.8,-17.28 81.07,-35.56 63.57,-47.84 69.09,-105.89 53.06,-144.25 -9.9,-23.67 -26.96,-37.4 -43.52,-34.92 -36.63,5.38 -79.09,38.57 -105.66,82.55 -19.22,31.8 -28.64,65.97 -27.94,99.73 -67.02,4.06 -138.08,-15.62 -179.77,-29.99 47.25,-29.43 130.39,-90.47 184.45,-182.58 75.79,-129.13 149.03,-385.81 152.1,-396.67 l -36.5,-10.37 c -0.74,2.62 -75.01,262.9 -148.33,387.82 -71.72,122.18 -202.98,187.47 -204.29,188.12 l -36.34,17.79 36.91,16.56 c 6.77,3.03 124.36,54.86 236.87,46.98 1.24,4.91 2.71,9.8 4.42,14.65 38.63,109.92 244.67,200.08 253.43,203.88 l 26.5,11.46 V 7592.22" style="fill:#ecb538;fill-opacity:1;fill-rule:nonzero;stroke:none" transform="matrix(0.13333333,0,0,-0.13333333,0,1306.6667)"/>
      <path id="path18" d="m 6594.27,7366.72 c -14.08,0 -42.27,-22.46 -64.08,-59.52 -21.64,-36.78 -28.27,-72.45 -16.89,-90.88 12.72,-20.63 35.66,-35.95 63.87,-46.14 2.23,3.89 4.3,7.73 6.24,11.49 35.17,68.53 37.01,141.91 20.88,176.15 -4.07,8.64 -7.83,8.82 -9.44,8.89 -0.19,0.01 -0.38,0.01 -0.58,0.01 z m 217.86,-85.38 c -2.17,0 -4.2,-0.27 -6.06,-0.63 -33.53,-6.46 -75.45,-58.18 -91.74,-123.52 34.75,4.12 67.62,13.57 92.95,28.16 54.86,31.6 36.69,65.48 30.72,76.61 v 0 c -8.49,15.85 -18.03,19.38 -25.87,19.38 z m -129.74,216.64 c -160.23,0 -232.56,-95.31 -296.22,-248.32 -54.57,-131.15 -165.67,-206.4 -246.03,-245.68 61.52,0.94 142.09,4.95 211.07,17.66 104.51,19.25 167.07,67.91 204.32,116.12 -31.67,12.85 -58.14,32.06 -74.53,58.63 -19.25,31.18 -13.08,79.81 16.49,130.06 21.85,37.15 60.76,80.21 99.11,78.16 10.53,-0.48 30.01,-5.1 42.03,-30.61 19.85,-42.16 21.61,-125.76 -21.45,-209.66 -0.73,-1.42 -1.48,-2.84 -2.24,-4.26 19.18,-3.6 39.53,-5.41 59.98,-5.28 16.74,80.79 70.05,152.77 123.97,163.18 29.93,5.84 56.47,-8.07 72.57,-38.08 v 0 c 26,-48.52 9.09,-96.15 -45.24,-127.43 -30.53,-17.59 -72.9,-29.35 -117.96,-33.52 -1.25,-47.92 38.64,-79.34 78.08,-88.59 49.73,-11.69 119.15,5.78 151.15,93.41 29.3,80.25 15.1,174.93 -37.96,253.26 -50.39,74.38 -124.96,118.39 -204.59,120.77 -4.24,0.13 -8.43,0.18 -12.55,0.18 z M 6110.7,6965.71 c -39.95,0 -66.98,1.17 -69.78,1.3 l -124.24,5.63 120.28,31.68 c 2.32,0.61 232.32,63.21 314.17,259.92 60.15,144.57 144.18,277.15 344.94,271.49 91.97,-2.74 177.57,-52.83 234.88,-137.41 59.87,-88.4 75.66,-195.89 42.19,-287.55 -37.92,-103.86 -125.5,-133.8 -195.47,-117.37 -65.09,15.29 -107.57,65.18 -107.38,123.88 -25.98,0.12 -52.01,2.84 -76.41,8.5 -40.65,-57.81 -111.89,-118.64 -235.8,-141.46 -84.32,-15.54 -182.75,-18.61 -247.38,-18.61" style="fill:#ecb538;fill-opacity:1;fill-rule:nonzero;stroke:none" transform="matrix(0.13333333,0,0,-0.13333333,0,1306.6667)"/>
      <path id="path19" d="m 6990.32,7241.72 -37.88,2.47 c 0.62,9.77 12.16,240.67 -227.69,360.35 -160.95,80.32 -176.16,159.09 -160.58,211.03 16.63,55.43 77.28,74.6 126.65,68.9 57.57,-6.61 98.27,-43.32 101.27,-91.35 2.26,-35.94 -6.3,-60.67 -25.41,-73.49 -27.23,-18.27 -61.68,-2.5 -65.51,-0.64 l 16.55,34.15 c 5.88,-2.76 20.56,-6.93 27.86,-1.97 6.77,4.6 9.92,19.03 8.63,39.58 -2.24,35.86 -37.88,52.59 -67.72,56.02 -34.22,3.92 -75.61,-7.59 -85.96,-42.11 -20.65,-68.8 65.36,-128.33 141.17,-166.16 262.95,-131.21 248.79,-394.13 248.62,-396.78" style="fill:#ecb538;fill-opacity:1;fill-rule:nonzero;stroke:none" transform="matrix(0.13333333,0,0,-0.13333333,0,1306.6667)"/>
      <path id="path20" d="m 9810.41,7887.99 c -20.96,-13.89 -40.03,-29.73 -56.92,-47.42 -64.56,-67.55 -94.35,-156.77 -86.14,-258.01 8.45,-104.49 45.29,-184.21 109.49,-236.96 91.89,-75.5 207.47,-71.48 252.86,-66.29 113.8,13.08 159.4,113.69 154,207.6 -4,69.47 -38.8,139.78 -97.8,139.78 -1.3,0.06 -56.3,1.97 -86.11,-32.31 -18.91,-21.72 -24.51,-54.51 -16.61,-97.45 6.69,-36.39 42.02,-56.35 70.42,-72.38 23.6,-13.29 43.9,-24.76 43.9,-45.96 0,-19.15 -17.8,-31.64 -33.3,-40.38 -46.6,-26.29 -139.99,-34.89 -221.23,0.94 -48.52,21.38 -111.04,67.25 -133.42,164.25 -29.31,126.96 -2.43,258.67 71.86,352.3 8.38,10.56 18.01,21.45 29,32.29 z m 132.98,-996.93 c -361.08,-0.01 -616.44,236.28 -759.28,702.82 -2.41,7.83 -4.5,14.71 -6.36,20.5 -4.19,13.18 -8.71,33.55 -14.43,59.35 -49.61,223.56 -200.42,904.27 -1034.06,894.05 -384.35,-4.56 -687.86,-170.07 -902.18,-491.93 -160.63,-241.24 -207.98,-484.72 -208.45,-487.15 -1.94,-10.3 -11.85,-17.05 -22.16,-15.13 -10.28,1.94 -17.07,11.86 -15.12,22.16 1.91,10.19 48.88,252.47 213.41,500.06 152.42,229.39 438.19,504.06 934.05,509.94 6.23,0.07 12.45,0.11 18.6,0.11 847.96,0 1002.06,-694.54 1052.95,-923.89 5.53,-24.87 9.88,-44.51 13.57,-56.06 1.87,-5.9 4.02,-12.91 6.47,-20.9 141.07,-460.75 393.63,-688.26 751.38,-675.48 340.22,11.93 523.82,312.79 523.92,589.82 0.1,196.12 -103.3,428.81 -395,439.43 -123.99,-0.38 -224.12,-44.18 -289.57,-126.65 -67.17,-84.67 -91.32,-204.36 -64.6,-320.17 18.85,-81.71 71.17,-120.18 111.75,-138.07 66.52,-29.33 149.02,-24.17 187.32,-2.6 5.3,3.01 8.8,5.39 11,7.13 -5.3,3.89 -14.4,9.05 -21.6,13.09 -31.6,17.81 -79.23,44.72 -89.14,98.57 -10.12,55.03 -1.54,98.59 25.5,129.49 42.04,48.05 112.44,45.27 115.54,45.08 v 0 c 73,0 128.8,-72.19 134.7,-175.55 6.2,-108.09 -49.9,-231.65 -187.6,-247.48 -50.23,-5.76 -178.15,-10.03 -281.26,74.68 -72.46,59.53 -113.91,148.09 -123.23,263.22 -8.97,110.73 25.29,212.76 96.53,287.29 85.41,89.36 218.67,135.69 375.56,129.92 0.1,0 0.1,0 0.2,-0.01 318.9,-11.46 432,-264.31 431.9,-477.37 -0.1,-294.8 -196.6,-614.99 -560.58,-627.75 -9.99,-0.35 -19.89,-0.52 -29.73,-0.52" style="fill:#ecb538;fill-opacity:1;fill-rule:nonzero;stroke:none" transform="matrix(0.13333333,0,0,-0.13333333,0,1306.6667)"/>
      <path id="path21" d="m 8211.12,7757.58 c -21.12,0 -43.48,-4.32 -64.08,-15.11 -57.94,-30.41 -82.89,-101.01 -72.16,-204.18 13.73,-131.74 142.36,-199.21 262.35,-198.96 125.74,0.9 279.53,79.45 299.15,297.86 12.34,137.53 -51.87,261.62 -176.19,340.43 -32.23,20.43 -66.65,36.84 -102.22,49.17 33.96,-16.22 62.35,-35.58 85.67,-55.14 118.04,-99.07 157.66,-247.21 144.5,-342.93 -22.33,-162.44 -100.4,-235.98 -253.11,-238.48 -85.36,-1.68 -152.96,88 -156.09,148.98 -2.03,39.23 20.9,65.7 59.82,69.08 38.88,3.38 54.76,28.15 61.24,48.34 9.86,30.71 2.58,66.19 -10.51,77.39 -15.05,12.88 -45.13,23.55 -78.37,23.55 z m 138.43,-807.77 c -113.06,-0.01 -223.92,22.83 -320.5,69.68 -188.16,91.3 -298.43,262.56 -310.47,482.26 -13.21,240.99 65.25,425.9 221.18,522.04 2.25,4.11 6.01,7.4 10.84,8.94 3.38,1.09 6.76,2.15 10.13,3.19 154.85,83.88 361.73,73.93 519.79,-26.25 136.74,-86.69 207.32,-223.69 193.67,-375.87 -21.92,-243.74 -195.07,-331.4 -336.68,-332.42 -0.84,0 -1.67,0 -2.5,0 -136.38,-0.01 -281.88,79.66 -297.85,232.98 -16.63,159.47 50.68,219.89 92.26,241.71 64.85,34.03 146.4,19.64 184.76,-13.21 26.29,-22.5 35.93,-74.25 21.95,-117.82 -13.93,-43.39 -48.21,-70.56 -94.08,-74.54 -18.66,-1.62 -26.2,-10.4 -25.21,-29.33 2.31,-45 55.16,-112.98 116.22,-112.98 0.45,0 0.9,0 1.33,0.01 133.74,2.18 196.36,61.77 216.18,205.69 11.76,85.71 -24.3,218.86 -131.32,308.68 -77.5,65 -216.91,127.04 -443.71,58.2 -2.79,-1.54 -5.54,-3.12 -8.28,-4.73 -148.55,-87.08 -223.42,-261.89 -210.8,-492.22 14.44,-263.13 165.21,-390.06 289.17,-450.19 227.92,-110.58 540.29,-80.12 759.6,74.04 184.55,129.7 272.89,325.7 248.79,551.91 -40.89,383.94 -213.05,650.05 -511.69,790.93 -223.73,105.55 -438.69,97.49 -440.84,97.39 -10.17,-0.45 -19.3,7.64 -19.79,18.12 -0.46,10.46 7.64,19.32 18.1,19.79 9.13,0.37 225.31,8.7 457.32,-100.32 214.71,-100.86 481.74,-325.34 534.63,-821.9 25.63,-240.53 -68.36,-448.99 -264.7,-586.97 -137.43,-96.59 -309.84,-146.81 -477.5,-146.81" style="fill:#ecb538;fill-opacity:1;fill-rule:nonzero;stroke:none" transform="matrix(0.13333333,0,0,-0.13333333,0,1306.6667)"/>
      <path id="path22" d="m 11032.1,7264.03 c -39.2,0 -74.6,-20.6 -105,-61.32 -36.7,-48.98 -40.1,-109.85 -9.4,-167 36.6,-68.14 125.9,-133.94 242.4,-127.17 170.9,9.8 244.3,164.47 240.2,304.02 -4.5,153.32 -98.9,307.84 -301.9,307.58 -10.2,-0.02 -20.2,-0.24 -30,-0.68 181.7,-23.39 250.1,-144.27 270,-191.13 54,-127.33 19.2,-274.68 -79.2,-335.43 -48.5,-29.95 -95.6,-39.46 -140.1,-28.27 -68.9,17.35 -104.8,78.41 -106.3,81 l -25.1,43.36 47.5,-15.87 c 0.2,-0.01 33.2,-9.65 89.8,12.25 13.7,5.31 22.8,14.94 27.8,29.46 10.6,30.96 -0.7,74.07 -9.9,89.51 -14,23.23 -55.8,57.07 -105,59.55 -2,0.09 -3.9,0.14 -5.8,0.14 z m 112.5,-393.88 c -109.1,-0.01 -212.2,57.8 -260.4,147.6 -37.9,70.71 -33.4,146.41 12.5,207.69 49.8,66.57 105.4,78.33 143.1,76.35 60,-3.03 113.6,-41.47 135.6,-77.88 14.1,-23.46 28.1,-78.25 13.3,-121.38 -8.6,-25.05 -25.9,-43.22 -50,-52.55 -26.6,-10.3 -49.1,-14.81 -67,-16.37 13.8,-12.92 33,-26.29 57,-32.25 34.2,-8.45 71.3,-0.43 110.5,23.82 81.5,50.31 110.3,179.66 64.2,288.35 -63.7,150.41 -237.3,206.17 -464.9,149.57 -121.3,-58.73 -209.4,-154.68 -295.6,-248.63 -100.8,-109.77 -204.9,-223.28 -358.9,-274.39 -9.9,-3.3 -20.6,2.08 -24,12.04 -3.3,9.94 2.1,20.68 12.1,23.99 144.6,47.99 240.9,152.93 342.9,264.02 143.2,156.1 291.4,317.51 583.3,317.96 0.2,0 0.4,0 0.7,0 226.1,0 334.4,-178.45 339.3,-344.41 4.7,-162.32 -88.5,-332.27 -276,-343.04 -5.9,-0.33 -11.8,-0.49 -17.7,-0.49" style="fill:#ecb538;fill-opacity:1;fill-rule:nonzero;stroke:none" transform="matrix(0.13333333,0,0,-0.13333333,0,1306.6667)"/>
      <path id="path23" d="m 9152.38,7408.09 c -19.38,-37.57 -24.83,-73.72 -16.17,-107.78 5,-19.68 14.32,-37.86 26.46,-54.52 5.13,8.07 9.16,16.58 12.07,25.51 16.54,50.87 -5.62,105.71 -22.36,136.79 z M 9016,7074.55 h 0.18 z m 272.41,-17.39 c -5.95,-1.77 -11.72,-11.12 -14.46,-23.54 -5.13,-23.28 1.02,-48.65 14.3,-59.03 14.02,-10.95 35.32,-4.1 50.72,3.55 11.68,5.82 18.19,17.21 18.32,32.07 0.26,27.86 -22.67,69.69 -87.73,103.55 -34.7,18.08 -74.16,42.91 -106.85,74.73 -26.19,-22.86 -61.43,-41.3 -105.54,-55.16 -68.4,-21.48 -108.87,-55.73 -113.93,-96.42 -3.17,-25.43 8.49,-44.76 13.46,-47.81 23.92,-10.18 45.01,-9.8 58.99,1.19 11.64,9.14 17.78,25.42 15.3,40.51 -1.19,7.27 -5.54,20.28 -21.31,25.85 l 6.71,19.56 4.02,16.76 c 1.05,-0.18 2.75,-0.36 5.04,-0.62 56.1,-6.47 101.97,-24.11 136.67,-51.92 52.07,35.92 107.32,51.06 116.76,53.48 0.45,0.11 0.89,0.22 1.33,0.32 l 8.82,-36.9 c -0.06,-0.02 -0.25,-0.07 -0.62,-0.17 z m -128.39,-66.75 c -26.06,-23 -47.73,-52.74 -54.94,-90.44 -17.83,-93.24 18.91,-142.07 35.13,-158.46 18.86,8.58 61.69,36.78 61.54,115.93 -0.13,55.99 -14.1,100.38 -41.73,132.97 z m -27.89,-291.1 -7.12,5.11 c -3.45,2.48 -84.05,62.29 -57.22,202.67 8.84,46.12 33.93,81.92 63.91,109.28 -18.23,13.04 -40.04,22.99 -65.35,29.81 0.87,-2.97 1.57,-6.06 2.09,-9.23 4.74,-28.78 -6.77,-58.81 -29.3,-76.5 -14.7,-11.52 -46.9,-27.69 -97.73,-6.08 -19.08,8.14 -38.44,40.75 -36.53,79.26 1.72,34.77 22.32,98.66 140.91,135.92 38.75,12.17 69.31,27.94 91.42,47.14 -17.31,22.06 -30.8,46.8 -37.79,74.28 -13.39,52.78 -0.96,108.06 36.98,164.32 l 15.01,22.26 15.96,-21.58 c 3.05,-4.12 74.22,-101.87 43.44,-196.41 -5.06,-15.56 -12.52,-30.01 -22.34,-43.33 29.61,-28.99 66.37,-52.01 98.62,-68.81 68.17,-35.47 108.61,-86.89 108.14,-137.56 -0.25,-28.99 -14.97,-53.55 -39.35,-65.68 -45.61,-22.7 -74.67,-12.25 -90.97,0.5 -27.84,21.73 -34.34,62.83 -28.77,93.44 -14.39,-6.48 -30.37,-14.77 -46.14,-25.04 32.49,-39.14 49.56,-91.53 49.71,-155.56 0.2,-104.12 -64.72,-147.64 -99.08,-156.11 l -8.5,-2.1" style="fill:#ecb538;fill-opacity:1;fill-rule:nonzero;stroke:none" transform="matrix(0.13333333,0,0,-0.13333333,0,1306.6667)"/>
      <path id="path24" d="m 10839.8,7982.07 c -18.5,-1.34 -60.3,-11.46 -83.9,-73.12 -16.8,-44.18 -19.4,-83.6 -7.7,-118.03 27.7,10.32 53.6,27.2 70.6,54.42 42.4,67.68 29.1,117.62 21,136.73 z m -228.4,-128.85 c -3,0 -6.1,-0.16 -8.9,-0.41 -10.5,-0.92 -18.8,-7.52 -23.2,-18.59 -8.7,-21.94 -2.8,-62.37 39.8,-110.04 22.8,-25.58 47.4,-57.98 64.6,-93.92 28.8,9.9 63.3,13.53 103.8,10.73 61.7,-4.11 104.9,9.96 121.7,39.89 10.5,18.47 7.5,37.51 4.6,41.63 -16.1,15.33 -33.2,21.58 -47.5,17.06 -11.5,-3.58 -20.8,-14.07 -23.3,-26.08 -1.4,-7.05 -1,-17.21 8.9,-25.6 l -13.3,-16.1 -9.5,-14.11 c -0.8,0.48 -2.2,1.15 -3.9,2.06 -44.3,23.1 -76.8,51.98 -97,85.53 -54.5,-12.36 -104.6,-6.98 -112.8,-5.98 -0.3,0.05 -0.7,0.09 -1.1,0.15 l 5.2,37.59 c 0.1,0 0.2,-0.03 0.5,-0.06 3.5,-0.28 10.6,3.68 17.1,13.38 11,16.41 13.9,37.83 6.8,49.84 -6.1,10.29 -19.7,13.03 -32.5,13.03 z m 51.9,-276.24 c -5.8,-4.47 -10.9,-9.49 -15.5,-15.08 -27.5,-33.94 -27.5,-81.89 -23.9,-112.32 25.3,23.18 39.9,49.25 43.3,77.78 2,16.51 0.3,33.2 -3.9,49.62 z m -63.3,-192.31 -7.3,25.41 c -1.2,4.36 -29.7,107.44 25.7,175.72 8.8,10.94 19.3,20.29 31.2,28.05 -15.3,32.06 -37.9,61.64 -58.8,85.04 -46,51.45 -63.4,107.26 -46.8,149.32 9.7,24.39 30.3,40.25 55.2,42.41 46.5,4.03 67.7,-14.67 77.4,-31.1 15.4,-26 9.2,-59.97 -3.8,-83.53 12,0.72 25.3,2.18 39,4.83 -13.8,42.1 -11.1,89.89 8.6,141.66 33,86.36 101.8,101.33 133.4,97.21 l 8.6,-1.13 4.8,-7.18 c 2.1,-3.18 50.9,-78.95 -16.2,-186.18 -21.4,-34.23 -52.6,-55.45 -85.3,-68.44 10,-14.4 23.2,-27.72 39.4,-39.92 0.2,1.39 0.5,2.78 0.8,4.18 5.1,25.56 24.4,47.07 49,54.78 16.4,5.08 49.2,8.48 85.6,-26.46 14.1,-13.51 20.2,-46.71 5.9,-78.9 -12.6,-28.4 -50.4,-74.91 -161.5,-67.31 -34.5,2.35 -63.7,-0.42 -87.3,-8.27 7.1,-23.34 10.2,-47.6 7.3,-72.03 -5.8,-47.77 -33.7,-89.21 -83.2,-123.2 l -21.7,-14.96" style="fill:#ecb538;fill-opacity:1;fill-rule:nonzero;stroke:none" transform="matrix(0.13333333,0,0,-0.13333333,0,1306.6667)"/>
      <path id="path25" d="m 9434.89,7851.28 h 0.19 z m 247.14,54.38 c -24.5,-5.19 -43.77,-16.07 -57.49,-32.49 -7.6,-9.11 -13.34,-19.57 -17.6,-30.87 4.06,0.62 8.04,1.54 11.94,2.79 30.83,9.95 51.4,38.53 63.15,60.57 z m -117.99,-200.13 c 0.17,-0.13 0.32,-0.26 0.48,-0.4 -0.33,3.17 -0.76,6.44 -1.28,9.79 -4.28,27.77 -6.78,60.86 -2.89,93.32 -24.26,6.52 -49.65,19.7 -75.99,39.5 -39.44,29.6 -74.49,39.48 -98.73,27.88 -16.02,-7.69 -21.74,-21.94 -21.86,-25.08 3.92,-16.1 12.22,-27.42 23.2,-30.49 8.67,-2.39 18.66,0.39 25.08,6.89 3.6,3.68 7.35,9.95 4.67,18.89 l 19.55,6.05 16.01,6.96 1.7,-3.07 c 20.33,-36.06 30.13,-70.86 29.59,-103.43 43.15,-16.36 75.17,-42.35 80.47,-46.81 z m -266.01,-68.73 c 14.02,-7.01 45.54,-16.02 86.63,13.93 30.04,21.92 48.99,46.75 56.83,74.33 -22.5,4.46 -46.36,3.93 -68.8,-6.55 -56.71,-26.38 -71.04,-64.16 -74.66,-81.71 z m 238.01,40.32 c -2.59,0 -6.39,-0.66 -11.26,-2.75 -13.87,-5.96 -25.06,-18.73 -25.49,-29.06 -0.44,-10.76 11.53,-19.41 21.63,-24.79 8.57,-4.56 16.41,-1.25 21.43,2.32 13.61,9.66 26.88,36.66 22.23,81.82 l -24.61,-28.48 c -0.02,0.02 -0.1,0.08 -0.22,0.19 -0.52,0.38 -1.78,0.75 -3.71,0.75 z m -6.55,-96.75 c -9.02,0 -18.01,2.19 -26.36,6.63 -37.66,20.01 -42.33,46.1 -41.75,59.87 0.99,24.59 18.14,44.88 37.37,56.65 -6.46,3.5 -13.53,6.96 -20.98,10.12 -10.24,-35.03 -33.9,-66.68 -70.75,-93.57 -64.02,-46.67 -120.56,-25.17 -141.5,-7.29 l -6.56,5.59 -0.11,8.63 c -0.04,3.26 0.18,80.49 97.8,125.91 29.84,13.91 60.46,15.2 88.71,10.15 -0.75,11.66 -3.2,23.73 -7.33,36.19 -16.05,-15.56 -39.93,-21.72 -61.27,-15.75 -14.44,4.03 -40.14,17.16 -50.13,59.74 -4.48,19.39 10.12,46.29 33.23,61.32 22.39,14.58 71.34,30.52 147.29,-26.47 21.64,-16.27 41.99,-27.14 60.9,-32.57 5.78,18.86 14.56,36.63 27.36,51.96 26.34,31.56 65.55,48.24 116.52,49.59 l 26.41,0.7 -7.76,-25.25 c -1.13,-3.68 -28.54,-90.31 -99.85,-113.47 -10.65,-3.45 -21.61,-5.32 -32.85,-5.58 -3.32,-28.26 -0.97,-57.88 2.87,-82.75 8.97,-58.06 -4.64,-106.22 -36.39,-128.81 -10.78,-7.65 -22.86,-11.54 -34.87,-11.54" style="fill:#ecb538;fill-opacity:1;fill-rule:nonzero;stroke:none" transform="matrix(0.13333333,0,0,-0.13333333,0,1306.6667)"/>
      <path id="path26" d="m 10244.6,7932.47 c -2.6,0 -5.3,0.55 -7.8,1.72 -3.5,1.55 -235,101.77 -758.43,23.77 -145.82,-21.66 -273.99,32.67 -351.84,149.14 -73.6,110.14 -84.54,254.53 -26.59,351.13 55.27,92.08 196.99,144.02 322.91,118.08 107.61,-22.14 177.45,-94.71 191.61,-199.13 7.42,-54.68 -4.78,-97.58 -36.21,-127.52 -67.75,-64.52 -200.12,-40.87 -205.69,-39.86 -10.29,1.91 -17.09,11.8 -15.2,22.1 1.89,10.29 11.71,17.09 22.11,15.22 1.18,-0.21 118.99,-21.13 172.67,30.07 22.39,21.36 30.47,52.4 24.71,94.9 -16.23,119.76 -108.25,156.06 -161.65,167.05 -111.1,22.84 -235.22,-21.29 -282.72,-100.44 -50.66,-84.46 -40.14,-212.14 25.62,-310.51 69.33,-103.77 183.93,-152.2 314.67,-132.69 537.83,80.1 770.13,-22.38 779.73,-26.78 9.6,-4.37 13.8,-15.62 9.4,-25.16 -3.2,-6.97 -10.1,-11.09 -17.3,-11.09" style="fill:#ecb538;fill-opacity:1;fill-rule:nonzero;stroke:none" transform="matrix(0.13333333,0,0,-0.13333333,0,1306.6667)"/>
      <path id="path27" d="m 9713.58,7006.2 c -13.69,0 -27.79,1.04 -42.26,3.14 -128.22,18.59 -262.36,115.04 -341.74,245.72 l 32.43,19.7 c 73.73,-121.39 197.29,-210.83 314.76,-227.86 60.63,-8.78 113.16,3.72 147.89,35.23 17.83,16.17 35.27,50.53 31.43,87.78 -3.65,35.51 -25.88,66.24 -64.32,88.85 -35.35,20.76 -80.31,9.6 -104.7,-11.46 -11.56,-9.98 -29.11,-31.22 -16.86,-61.42 23.88,-58.99 68.58,-48.88 73.66,-47.53 l 10.41,-36.5 c -28.19,-8.15 -89.3,-4.11 -119.25,69.77 -15.22,37.52 -5.04,76.54 27.23,104.41 35.2,30.43 97.63,45.5 148.75,15.45 62.24,-36.64 79.4,-84.22 82.83,-117.7 5.2,-50.64 -18.18,-96.63 -43.67,-119.76 -34.58,-31.38 -82.12,-47.82 -136.59,-47.82" style="fill:#ecb538;fill-opacity:1;fill-rule:nonzero;stroke:none" transform="matrix(0.13333333,0,0,-0.13333333,0,1306.6667)"/>
      <path id="path28" d="m 8698.61,7187.34 c -30.91,-0.01 -59.84,7.41 -85.4,22.39 -29.71,17.42 -66.91,57.82 -73.95,114.35 -4.22,33.97 1.74,85.3 54.22,137.03 43.82,43.21 110.58,43.77 153.84,22 39.99,-20.12 60.35,-57.27 54.44,-99.38 -11.6,-82.72 -73.02,-102.19 -102.85,-100.88 l 1.38,37.92 c 5.55,-0.26 54.44,0.82 63.88,68.23 4.93,35.07 -19.12,52.77 -33.89,60.2 -30.45,15.3 -79.39,15.19 -110.15,-15.13 -33.3,-32.8 -47.84,-68.22 -43.22,-105.3 5,-40.07 31.47,-72.21 55.5,-86.29 51.39,-30.13 122.44,-20.27 194.97,27.1 122.26,79.85 241.88,267.85 215.6,491.94 l 37.69,4.42 c 28.15,-240.13 -100.81,-442.09 -232.54,-528.13 -51.22,-33.45 -102.65,-50.47 -149.52,-50.47" style="fill:#ecb538;fill-opacity:1;fill-rule:nonzero;stroke:none" transform="matrix(0.13333333,0,0,-0.13333333,0,1306.6667)"/>
      <path id="path29" d="m 7018.09,7586.45 -36.18,11.54 c 97.16,304.35 351.76,472.04 547.21,499.05 117.37,16.21 213.13,-17.21 262.34,-91.76 25.4,-38.54 41.79,-106.24 21.17,-170.67 -13.01,-40.67 -46.04,-95.92 -129.43,-128.15 -59.89,-23.17 -131.99,-2.91 -175.28,49.22 -36.58,44.06 -41.23,98.15 -12.45,144.69 68.44,110.79 161.92,63.04 162.89,62.54 l -17.75,-33.54 c -6.32,3.19 -64.27,29.67 -112.87,-48.95 -28.53,-46.15 -2.94,-85.65 9.39,-100.49 27.85,-33.58 82.33,-57.37 132.4,-38.07 54.92,21.23 91.92,57.31 106.96,104.32 16.79,52.48 3.71,107.23 -16.71,138.2 -40.82,61.85 -123.05,89.19 -225.47,75.06 -184.04,-25.42 -424.1,-184.28 -516.22,-472.99" style="fill:#ecb538;fill-opacity:1;fill-rule:nonzero;stroke:none" transform="matrix(0.13333333,0,0,-0.13333333,0,1306.6667)"/>
      <path id="path30" d="m 10185.7,6940.72 -15.3,34.75 c 130,57.06 193.1,167.8 207.6,245.28 10.1,53.76 0.5,99.99 -26.4,126.84 -21.9,21.9 -60,43.81 -91.5,39.81 -20.1,-2.47 -36.5,-14.64 -50.1,-37.19 -21.1,-35.23 -15.9,-80.23 1.4,-103.39 11.1,-14.96 26.1,-20.15 44.4,-15.44 54.1,13.91 51,54.66 50.5,59.25 l 37.6,4.99 c 3.7,-26.99 -7.9,-82.82 -78.6,-101 -33.2,-8.53 -64,2.19 -84.3,29.5 -28.8,38.49 -30.2,101.09 -3.5,145.64 24.5,40.8 55.9,52.6 77.9,55.31 47.6,5.87 96,-23.61 123,-50.62 35.9,-35.87 49.3,-94.44 36.9,-160.71 -17,-90.72 -86.3,-210.08 -229.6,-273.02" style="fill:#ecb538;fill-opacity:1;fill-rule:nonzero;stroke:none" transform="matrix(0.13333333,0,0,-0.13333333,0,1306.6667)"/>
      <path id="path31" d="m 7650.79,8251.58 c -2.31,-11.2 -1.53,-23.45 2.31,-36.69 11.41,-39.26 45.21,-42.24 59.46,-41.84 24.07,0.88 42.69,12.89 44.98,23.56 1.94,9.11 -8.69,26.12 -45.13,44.06 -17.16,8.45 -38.08,11.77 -61.62,10.91 z m -448.56,-211.97 -22.53,30.54 c 12.91,9.52 264.86,193.96 444.37,216.78 7.33,13.35 17.84,25.38 31.38,35.63 58.93,44.53 158.29,46.17 226.25,3.7 77.38,-48.38 146.63,-40.21 218.04,25.64 28.86,26.63 56.7,47.34 78.43,62 -137.68,22.36 -547.24,61.41 -842.14,-196.73 l -24.99,28.55 c 372.72,326.29 917.93,197.39 923.41,196.03 l 48.93,-11.99 -44.7,-23.27 c -0.54,-0.29 -55.24,-29.03 -113.22,-82.48 -83.57,-77.08 -172.31,-87.13 -263.89,-29.94 -54.58,34.14 -136.79,33.35 -183.22,-1.78 -1.55,-1.17 -3.04,-2.36 -4.44,-3.57 20.21,-1.45 38.81,-5.9 55.27,-14 66.03,-32.52 69.36,-67.87 65.48,-86.05 -6.32,-29.56 -40.28,-52.08 -80.72,-53.54 -37.04,-1.35 -81.86,16.13 -97.28,69.17 -4.28,14.72 -5.78,29.12 -4.6,42.83 -137.17,-25.27 -330.43,-148.91 -409.83,-207.52" style="fill:#ecb538;fill-opacity:1;fill-rule:nonzero;stroke:none" transform="matrix(0.13333333,0,0,-0.13333333,0,1306.6667)"/>
      <path id="path32" d="m 8583.83,8259.05 c -14.41,0 -27.83,-5.27 -40.16,-15.79 -33.46,-28.54 -21.79,-62.56 -17.42,-72.32 7.87,-17.53 23.35,-30.08 34.67,-28.37 10.86,1.5 24.67,17.88 30.8,59.35 2.91,19.65 2.64,38.53 -0.29,56.65 -2.56,0.32 -5.1,0.48 -7.6,0.48 z m 398.41,-643.22 -39.35,43.73 c -0.66,0.73 -66.25,73.36 -129.5,122.26 -100.51,77.67 -111.04,159.88 -95.23,275.63 8.66,63.39 -31.87,147.92 -86.69,184.71 0.8,-14.79 0.11,-30.06 -2.2,-45.79 -10.86,-73.43 -44.22,-88.78 -63.14,-91.4 -28.96,-3.9 -59.39,16.76 -74.5,50.43 -14.66,32.64 -15.14,80.44 27.41,116.73 18.69,15.96 39.75,24.29 61.92,24.9 -66.31,172.35 -367.8,264.76 -371.35,265.83 l 10.9,36.35 c 16.02,-4.81 347.65,-106.67 403.37,-310.22 5.24,-2.08 10.5,-4.55 15.77,-7.42 73.06,-39.92 127.34,-147.05 116.13,-229.26 -16.66,-121.89 2.98,-180.32 80.81,-240.46 33.59,-25.97 67.08,-57.56 92.27,-82.74 -30.04,164.02 -144.21,624.18 -498.12,785.96 l 15.79,34.53 c 451.36,-206.35 526.36,-848.07 529.33,-875.29 l 6.38,-58.48" style="fill:#ecb538;fill-opacity:1;fill-rule:nonzero;stroke:none" transform="matrix(0.13333333,0,0,-0.13333333,0,1306.6667)"/>
      <path id="path33" d="m 8392.16,7203.85 c -5.12,0 -9.79,-0.93 -13.66,-2.89 -13.61,-6.93 -14.25,-26.49 -12.42,-41.69 2.81,-22.89 28.78,-39.09 68.13,-49.92 6.03,4.83 11.26,11.4 14.99,20.22 11.43,26.85 -3.47,46.35 -13.36,55.59 -12.59,11.74 -29.73,18.69 -43.68,18.69 z m 79.18,-219.72 c -403.27,-0.04 -517.77,294.7 -519.01,298.06 l -25.14,67.76 55.2,-46.69 c 18.35,-15.51 75.25,-53.79 118.09,-45.16 60.24,12.24 128.62,26.14 158.12,-73.99 10.6,-36.01 56.3,-71.37 103.31,-83.12 -18.66,13.87 -30.78,31.48 -33.48,53.68 -6.34,51.93 17.88,72.48 32.87,80.12 28.9,14.69 71.12,5.48 100.43,-21.89 28.76,-26.84 37.13,-63.54 22.4,-98.18 -2.15,-5.09 -4.67,-9.86 -7.55,-14.3 83.71,-13.3 199.59,-11 292.46,-0.61 l 4.23,-37.71 c -47.03,-5.25 -217.79,-21.39 -333.73,6.33 -15.69,-7.2 -34.21,-10.36 -54.94,-9.23 -63.29,3.67 -143.66,50.42 -162.39,114.19 -18.87,64.01 -48.67,60.82 -114.19,47.51 -30.08,-6.12 -61.47,2.49 -87.79,14.43 63.34,-95.4 231.42,-263.55 607.41,-199.24 l 6.4,-37.41 c -58.82,-10.06 -113,-14.55 -162.7,-14.55" style="fill:#ecb538;fill-opacity:1;fill-rule:nonzero;stroke:none" transform="matrix(0.13333333,0,0,-0.13333333,0,1306.6667)"/>
      <path id="path34" d="m 7232.51,8560.6 c -23,-5.15 -44.61,-14.08 -63.29,-28.14 -39.4,-29.66 -46.42,-59.32 -45.36,-78.96 0.85,-16.04 7.37,-27.47 11.32,-31.6 21.69,5.17 53.11,27.87 74.87,63.9 9.41,15.58 21.96,42.33 22.46,74.8 z m -213.54,-968.38 h -37.95 v 1241.31 l 26.5,-11.46 c 8.77,-3.8 214.79,-93.96 253.42,-203.88 1.7,-4.85 3.18,-9.74 4.42,-14.66 112.31,8.07 230.16,-43.94 236.91,-46.97 l 36.84,-16.54 -36.25,-17.81 c -1.32,-0.65 -132.85,-66.28 -204.34,-188.12 -73.37,-124.98 -147.59,-385.2 -148.32,-387.82 l -36.52,10.37 c 3.08,10.86 76.32,267.54 152.11,396.67 54.03,92.08 137.19,153.13 184.44,182.56 -41.71,14.34 -112.82,33.95 -179.77,29.94 0.68,-33.72 -8.73,-67.86 -27.93,-99.64 -26.57,-43.99 -69.04,-77.19 -105.68,-82.57 -16.31,-2.42 -33.58,11.23 -43.49,34.9 -16.04,38.38 -10.53,96.43 53.04,144.27 24.26,18.28 52.01,29.45 81.07,35.56 -0.71,2.4 -1.48,4.83 -2.33,7.28 -23.89,67.96 -139.73,136.65 -206.17,169.3 V 7592.22" style="fill:#ecb538;fill-opacity:1;fill-rule:nonzero;stroke:none" transform="matrix(0.13333333,0,0,-0.13333333,0,1306.6667)"/>
      <path id="path35" d="m 7405.72,7366.72 c -0.2,0 -0.39,0 -0.59,-0.01 -1.61,-0.07 -5.37,-0.25 -9.46,-8.89 -16.12,-34.23 -14.28,-107.61 20.89,-176.13 1.95,-3.77 4.03,-7.62 6.26,-11.52 28.22,10.19 51.16,25.51 63.92,46.15 11.36,18.43 4.71,54.12 -16.95,90.91 -21.82,37.04 -49.99,59.49 -64.07,59.49 z m -243.75,-104.75 c -5.96,-11.14 -24.12,-45.02 30.72,-76.61 25.35,-14.59 58.24,-24.05 93,-28.17 -16.32,65.34 -58.26,117.07 -91.8,123.53 -8.47,1.67 -21.09,1.48 -31.92,-18.75 z m 282.5,-124.21 c 37.25,-48.22 99.81,-96.87 204.32,-116.12 69.01,-12.71 149.59,-16.73 211.07,-17.66 -80.35,39.27 -191.46,114.52 -246.03,245.68 -65.3,156.95 -139.93,253.21 -308.77,248.14 -79.65,-2.38 -154.22,-46.41 -204.6,-120.8 -53.06,-78.34 -67.24,-173 -37.94,-253.22 32,-87.64 101.51,-105.05 151.12,-93.42 39.46,9.24 79.37,40.66 78.13,88.59 -45.09,4.16 -87.48,15.93 -118.02,33.53 -54.32,31.28 -71.22,78.91 -45.24,127.41 l 0.02,0.01 c 16.06,30 42.49,43.96 72.54,38.08 53.92,-10.39 107.27,-82.37 124.04,-163.18 20.12,-0.07 40.77,1.69 59.95,5.27 -0.78,1.44 -1.52,2.87 -2.25,4.29 -43.06,83.9 -41.32,167.48 -21.45,209.64 12.02,25.52 31.5,30.13 42.04,30.61 0.74,0.04 1.5,0.06 2.26,0.06 37.44,0 75.38,-41.79 96.83,-78.19 29.59,-50.25 35.76,-98.89 16.54,-130.09 -16.39,-26.57 -42.89,-45.79 -74.56,-58.63 z m 444.83,-172.05 c -64.64,0 -163.06,3.07 -247.4,18.61 -123.9,22.82 -195.13,83.65 -235.79,141.46 -24.39,-5.66 -50.41,-8.38 -76.36,-8.49 0.16,-58.72 -42.34,-108.62 -107.44,-123.89 -69.93,-16.39 -157.52,13.53 -195.44,117.37 -33.47,91.63 -17.72,199.11 42.15,287.51 57.32,84.61 142.93,134.71 234.89,137.45 202.03,5.91 284.8,-126.92 344.94,-271.49 82.06,-197.16 311.84,-259.31 314.16,-259.92 l 120.99,-31.65 -124.94,-5.66 c -2.78,-0.13 -29.83,-1.3 -69.76,-1.3" style="fill:#ecb538;fill-opacity:1;fill-rule:nonzero;stroke:none" transform="matrix(0.13333333,0,0,-0.13333333,0,1306.6667)"/>
      <path id="path36" d="m 7009.67,7241.72 c -0.17,2.65 -14.33,265.57 248.63,396.79 75.81,37.83 161.86,97.37 141.15,166.13 -10.35,34.53 -51.84,46.06 -85.96,42.13 -29.84,-3.43 -65.47,-20.16 -67.73,-56.03 -1.28,-20.59 1.89,-35.03 8.7,-39.6 7.57,-5.09 23.02,-0.31 27.83,2 l 16.52,-34.15 c -3.82,-1.87 -38.26,-17.62 -65.49,0.63 -19.12,12.82 -27.69,37.55 -25.44,73.5 3.02,48.04 43.73,84.74 101.29,91.35 49.3,5.73 110,-13.48 126.64,-68.9 15.61,-51.91 0.43,-130.67 -160.57,-211.02 -240.63,-120.08 -227.86,-357.94 -227.69,-360.33 l -37.88,-2.5" style="fill:#ecb538;fill-opacity:1;fill-rule:nonzero;stroke:none" transform="matrix(0.13333333,0,0,-0.13333333,0,1306.6667)"/>
      </svg>
