<?xml version='1.0' encoding='utf-8'?>
<svg xmlns:inkscape="http://www.inkscape.org/namespaces/inkscape" xmlns:sodipodi="http://sodipodi.sourceforge.net/DTD/sodipodi-0.dtd" xmlns="http://www.w3.org/2000/svg" xmlns:svg="http://www.w3.org/2000/svg" version="1.1" sodipodi:docname="ornament.eps" id="03-top-right-flourish" viewBox="1417.7469 107.9725 278.9502 108.9722" width="278.9502" height="108.9722"><path id="path95" d="m 10986.2,8363.91 c -85.3,0 -135.8,42.47 -163.4,78.47 -49.1,64.12 -59.5,150.27 -44.4,202.22 47.2,162.58 185.8,202.29 494.1,141.57 105.2,-20.7 248.2,-89.88 399.5,-163.1 166.3,-80.45 338.2,-163.63 477,-191.71 264.8,-53.51 383.1,12.58 398.9,53.01 11.3,28.81 -3,49.36 -16.9,61.52 -24.4,21.27 -58.5,26.51 -73.9,17.93 -9.1,-5.1 -20.7,-1.83 -25.8,7.33 -5.1,9.15 -1.8,20.72 7.3,25.82 31.4,17.47 82.9,7.58 117.3,-22.49 32.2,-28.09 42.2,-65.97 27.4,-103.93 -29,-73.97 -179.5,-129.46 -441.8,-76.38 -143.5,29.03 -317.6,113.27 -486,194.73 -149.1,72.14 -289.9,140.27 -390.3,160.04 -328.4,64.63 -415.8,3.98 -450.4,-114.92 -12.1,-41.75 -2.9,-115.03 38.1,-168.57 32.7,-42.63 79.6,-64.71 137.4,-63.55 73.1,1.37 79.4,54.41 79.6,70.63 0.4,29.95 -15.3,55.96 -34.2,56.8 -10.4,0.46 -18.6,9.32 -18.1,19.79 0.5,10.46 9.6,18.31 19.8,18.12 40.2,-1.77 71.1,-43.59 70.5,-95.18 -0.7,-52.74 -37.1,-106.62 -116.9,-108.11 -1.6,-0.03 -3.2,-0.04 -4.8,-0.04" style="fill:#ecb538;fill-opacity:1;fill-rule:nonzero;stroke:none" transform="matrix(0.13333333,0,0,-0.13333333,0,1306.6667)"/>
      <path id="path96" d="m 11827.2,8710.2 c 110.6,-87.77 257.7,-202.6 372.5,-228.79 20.5,-4.7 40.4,-7.98 59.5,-10.11 -136.7,39.74 -279.9,132.59 -367.5,268.77 -13.7,-8.89 -35.2,-20.53 -64.5,-29.87 z m 490.7,-280.23 c -38.3,0 -80.8,3.98 -126.7,14.43 -126.8,28.95 -283.6,153.48 -398.1,244.4 -4.3,3.44 -8.6,6.85 -12.8,10.2 -58.3,-9.56 -136.2,-7.27 -234,26.97 -9.9,3.46 -15.1,14.29 -11.7,24.17 3.5,9.9 14.3,15.08 24.2,11.65 71.3,-24.94 130.8,-31.48 178.5,-29.01 -30.2,23.29 -55.6,41.67 -73.1,50.68 -81.9,42.16 -182.9,22.66 -183.9,22.47 -10.4,-2.06 -20.3,4.62 -22.4,14.88 -2,10.29 4.6,20.28 14.9,22.33 4.7,0.94 115.2,22.26 208.8,-25.93 26,-13.36 62.7,-41.37 108.4,-77.47 62.5,13.65 93.7,41.3 94.3,41.81 l 17.2,15.78 11.9,-20.12 c 141.2,-239 449.1,-328.84 587.8,-272.76 l 15.7,-34.55 c -4.3,-2.11 -81,-39.93 -199,-39.93" style="fill:#ecb538;fill-opacity:1;fill-rule:nonzero;stroke:none" transform="matrix(0.13333333,0,0,-0.13333333,0,1306.6667)"/>
      <path id="path97" d="m 11377.1,8477.9 c 79.7,-3.4 171.6,-24.24 277.4,-48.22 116,-26.3 248.1,-56.24 396.2,-70.23 -68.5,14.89 -144,35.8 -224.1,65.04 -32.5,11.85 -75.3,31.38 -124.9,54 -132.7,60.49 -329,150.15 -425,125.36 50.9,-52.66 87,-105.33 100.4,-125.95 z m 839,-164.43 c -220.7,0 -410.3,43 -570,79.2 -108.3,24.56 -201.9,45.77 -280.1,47.63 l -10.3,0.24 -5.4,8.81 c -0.8,1.31 -43.7,70.31 -108.8,135.68 -9.1,-9.17 -15.5,-21.24 -19.1,-36.46 -2.5,-10.2 -12.6,-16.5 -22.9,-14.04 -10.2,2.45 -16.5,12.69 -14,22.88 5.2,21.87 14.7,39.85 28.4,53.78 -54.1,48.27 -119.6,88.77 -187.6,89.51 -62.3,0.67 -102.7,-37.39 -113.2,-73.07 -10.4,-35.51 5.9,-69.97 44.9,-94.51 8.8,-5.6 11.5,-17.31 5.9,-26.18 -5.6,-8.89 -17.3,-11.52 -26.2,-5.94 -53.6,33.78 -76.4,85.12 -61,137.36 17.5,59.28 78.2,100.3 148,100.3 0.7,0 1.3,0 2,-0.01 82.2,-0.9 158.8,-49.53 219.7,-105.26 104.7,46.71 307.6,-45.85 471.1,-120.38 48.8,-22.28 91,-41.52 122.1,-52.86 323.7,-118.07 575.2,-96.41 577.8,-96.19 l 4.1,-37.72 c -71.2,-8.95 -139.7,-12.77 -205.4,-12.77" style="fill:#ecb538;fill-opacity:1;fill-rule:nonzero;stroke:none" transform="matrix(0.13333333,0,0,-0.13333333,0,1306.6667)"/>
      <path id="path98" d="m 12294.6,8700.71 c -30.7,0 -55.6,-24.95 -55.6,-55.63 0,-30.68 24.9,-55.63 55.6,-55.63 30.7,0 55.6,24.95 55.6,55.63 0,30.68 -24.9,55.63 -55.6,55.63 z m 0,-149.21 c -51.6,0 -93.6,41.98 -93.6,93.58 0,51.6 42,93.58 93.6,93.58 51.6,0 93.6,-41.98 93.6,-93.58 0,-51.6 -42,-93.58 -93.6,-93.58" style="fill:#ecb538;fill-opacity:1;fill-rule:nonzero;stroke:none" transform="matrix(0.13333333,0,0,-0.13333333,0,1306.6667)"/>
      </svg>
