<?xml version='1.0' encoding='utf-8'?>
<svg xmlns:inkscape="http://www.inkscape.org/namespaces/inkscape" xmlns:sodipodi="http://sodipodi.sourceforge.net/DTD/sodipodi-0.dtd" xmlns="http://www.w3.org/2000/svg" xmlns:svg="http://www.w3.org/2000/svg" version="1.1" sodipodi:docname="ornament.eps" id="04-upper-divider" viewBox="292.9477 391.9000 1280.7713 171.9561" width="1280.7713" height="171.9561"><path id="path51" d="m 6833.07,6081 c 34.53,-17.35 65.25,-52.04 88.59,-92.66 v 436.32 c -36.1,-78.5 -87.47,-138.95 -139.53,-184.53 27.86,-34.3 50.73,-85.02 50.94,-159.13 z m -222.1,199.98 c -40.96,0 -82.09,-12.43 -115.42,-36.64 -58.25,-42.29 -83.03,-111.8 -69.76,-195.72 11.48,-72.76 47.97,-121.5 97.62,-130.4 34.33,-6.15 68.2,9.07 84.37,37.85 24.48,43.62 6.22,105.09 -50.13,168.64 l -19.21,21.69 27.57,8.95 c 1.48,0.49 76.67,25.7 158.62,88.24 -8.36,6.44 -17.42,12.18 -27.16,17.14 -26.64,13.58 -56.53,20.25 -86.5,20.25 z M 2500.2,5750.73 h 199.01 c -39.58,21.29 -68.79,50.02 -84.32,67.39 -29.68,-21.66 -75.67,-47.12 -114.69,-67.39 z m -80.9,-37.95 h -85.07 l 77.01,36.15 c 1.47,0.7 148.96,70.15 193.86,109.79 l 15.47,13.67 12.34,-16.6 c 0.8,-1.09 81.7,-108.11 191.7,-93.09 48.99,6.7 64.46,44.02 62.6,76.71 -2.47,43.51 -34.6,88.22 -91.2,89.47 -23.08,0.49 -39.01,-3.87 -43.9,-12.05 -3.74,-6.26 -1.94,-17.41 4.69,-29.09 9.88,-17.43 24.76,-27.06 31.27,-27.06 10.47,0 18.97,-8.5 18.97,-18.98 0,-10.48 -8.5,-18.98 -18.97,-18.98 -26.26,0 -51.21,23.25 -64.28,46.29 -13.77,24.26 -15.31,48.79 -4.26,67.29 12.64,21.14 38.55,31.5 77.32,30.52 78.77,-1.74 124.87,-65.83 128.25,-125.25 1.87,-32.83 -9.18,-67.63 -35.88,-90.84 h 3576.64 c 11.49,1.1 310.7,31.13 328.44,303.55 -1.11,0.18 -2.21,0.31 -3.3,0.41 -28.51,2.71 -53.18,-18.13 -73.41,-61.75 -4.43,-9.49 -15.71,-13.6 -25.2,-9.22 -9.51,4.41 -13.64,15.69 -9.23,25.2 34.54,74.4 79.69,86.4 111.34,83.57 0.12,-0.02 0.24,-0.03 0.36,-0.04 -2.06,49.57 -16.56,91.59 -42.1,123.5 -60.03,-46.46 -117.32,-73.8 -149.31,-87 75.45,-97.35 51.97,-165.56 37.43,-191.45 -24.09,-42.88 -73.97,-65.56 -124.17,-56.64 -66.3,11.89 -114.3,72.39 -128.41,161.84 -15.38,97.3 15.59,181.99 84.94,232.34 69.02,50.12 166.05,57.94 241.47,19.5 11.84,-6.03 25.83,-14.6 39.97,-26.49 70.93,61.63 140.86,151.9 167.37,278.74 l 37.55,179.6 v -985.62 l -37.36,146.53 c -16.53,64.86 -53.07,122.85 -91.22,150.5 -29.19,-292.14 -360.01,-324.65 -363.5,-324.95 l -4048.22,-0.07" style="fill:#ecb538;fill-opacity:1;fill-rule:nonzero;stroke:none" transform="matrix(0.13333333,0,0,-0.13333333,0,1306.6667)"/>
      <path id="path52" d="m 7078.35,6424.67 v -436.34 c 23.35,40.61 54.06,75.31 88.58,92.67 0.23,74.1 23.09,124.83 50.95,159.13 -52.06,45.59 -103.43,106.05 -139.53,184.54 z m 196.9,-181.18 c 82,-62.56 157.24,-87.64 158.73,-88.13 l 27.64,-8.92 -19.28,-21.73 c -56.33,-63.55 -74.61,-125.02 -50.1,-168.64 16.16,-28.78 50.02,-44 84.35,-37.85 49.66,8.9 86.15,57.64 97.65,130.39 13.24,83.93 -11.53,153.44 -69.78,195.73 -57.74,41.93 -138.88,48.53 -201.93,16.39 -9.79,-4.99 -18.89,-10.75 -27.28,-17.24 z m 4109.85,-425.36 c -15.5,-17.38 -44.8,-46.11 -84.3,-67.41 l 199,0.01 c -39,20.27 -85,45.74 -114.7,67.4 z m 195.6,-105.35 H 7534.13 c -5.08,0.37 -335.96,32.87 -365.14,325.01 -38.14,-27.65 -74.68,-85.63 -91.23,-150.49 l -37.36,-146.45 v 985.49 l 37.55,-179.55 c 26.57,-127.01 96.4,-217.26 167.26,-278.84 14.17,11.94 28.21,20.54 40.08,26.59 75.4,38.44 172.43,30.62 241.47,-19.49 69.36,-50.35 100.32,-135.04 84.94,-232.35 -14.1,-89.45 -62.11,-149.95 -128.4,-161.84 -50.24,-8.98 -100.09,13.76 -124.16,56.64 -14.55,25.89 -38.03,94.1 37.41,191.45 -31.98,13.21 -89.29,40.55 -149.3,87 -25.54,-31.9 -40.03,-73.93 -42.1,-123.5 0.12,0.01 0.24,0.02 0.37,0.04 31.69,2.95 76.81,-9.19 111.34,-83.57 4.4,-9.51 0.27,-20.79 -9.23,-25.2 -9.5,-4.43 -20.78,-0.28 -25.21,9.22 -20.23,43.63 -45.05,64.41 -73.4,61.75 -1.09,-0.1 -2.2,-0.23 -3.32,-0.41 17.76,-272.42 317,-302.45 330.1,-303.63 l 3575,0.07 c -26.7,23.21 -37.8,58.02 -35.9,90.85 3.4,59.42 49.5,123.51 128.3,125.26 38.5,0.62 64.7,-9.4 77.3,-30.53 11,-18.5 9.5,-43.03 -4.3,-67.29 -13,-23.04 -38,-46.29 -64.3,-46.29 -10.4,0 -18.9,8.5 -18.9,18.98 0,10.48 8.5,18.98 18.9,18.98 6.5,0 21.4,9.63 31.3,27.06 6.7,11.69 8.5,22.83 4.7,29.09 -4.9,8.18 -20.9,12.51 -43.9,12.06 -56.6,-1.26 -88.7,-45.97 -91.2,-89.47 -1.9,-32.7 13.6,-70.02 62.6,-76.72 110,-15.07 190.9,92 191.7,93.09 l 12.3,16.57 15.5,-13.63 c 44.9,-39.65 192.4,-109.1 193.9,-109.8 l 77,-36.15 h -85.1" style="fill:#ecb538;fill-opacity:1;fill-rule:nonzero;stroke:none" transform="matrix(0.13333333,0,0,-0.13333333,0,1306.6667)"/>
      </svg>
