<?xml version='1.0' encoding='utf-8'?>
<svg xmlns:inkscape="http://www.inkscape.org/namespaces/inkscape" xmlns:sodipodi="http://sodipodi.sourceforge.net/DTD/sodipodi-0.dtd" xmlns="http://www.w3.org/2000/svg" xmlns:svg="http://www.w3.org/2000/svg" version="1.1" sodipodi:docname="ornament.eps" id="05-mid-left-upper" viewBox="198.9645 584.8508 289.9482 125.9679" width="289.9482" height="125.9679"><path id="path57" d="m 3159.51,4798.14 c -16.83,0 -33.35,3.03 -48.34,9.22 -9.7,4.01 -14.3,15.11 -10.3,24.79 4.01,9.7 15.09,14.3 24.79,10.29 28,-11.59 65.5,-6.96 93.31,11.49 20.41,13.51 44.82,40.54 45.24,92.5 0.14,18.09 -13.29,47.5 -43.6,72.36 -33.87,27.78 -114.16,69.56 -271.34,37.02 -81.66,-16.9 -176.68,-52.71 -277.28,-90.63 -156.72,-59.07 -318.77,-120.16 -458.06,-120.94 -1.38,0 -2.8,0 -4.18,0 -287.42,-0.02 -324.42,164.98 -326.96,236.19 -1.81,52.48 28.7,114.11 75.93,153.4 46.12,38.38 103.38,52.46 161.32,39.65 68.92,-15.24 90.34,-77.62 81.07,-129.12 -7.62,-42.34 -34.37,-68.94 -65.09,-64.65 -10.39,1.44 -17.63,11.03 -16.19,21.4 1.45,10.38 11.06,17.66 21.41,16.19 9.14,-1.03 19.01,14.28 22.52,33.77 4.75,26.4 -0.85,74.07 -51.91,85.35 -59.18,13.1 -102.76,-10.04 -128.87,-31.76 -38.06,-31.67 -63.66,-82.21 -62.25,-122.9 2.65,-74.7 43.86,-199.57 288.97,-199.57 1.34,0 2.67,0 4.03,0.01 132.47,0.74 291.29,60.6 444.88,118.49 102.03,38.46 198.4,74.78 282.97,92.28 172.59,35.73 263.99,-12.75 303.1,-44.83 42.68,-35.01 57.68,-75.65 57.49,-102.01 -0.44,-53.56 -22.55,-97.54 -62.23,-123.84 -23.96,-15.88 -52.61,-24.15 -80.43,-24.15" style="fill:#ecb538;fill-opacity:1;fill-rule:nonzero;stroke:none" transform="matrix(0.13333333,0,0,-0.13333333,0,1306.6667)"/>
      <path id="path58" d="m 2069.06,4720.71 c -13.93,0 -27.83,0.4 -41.8,1.2 -309.84,18.09 -386.19,140.21 -395.68,239.46 -4.48,47.4 19.94,101.46 63.73,141.08 30.99,28.07 98.23,72.12 200.64,52.02 76.3,-14.99 107.47,-77.06 98.83,-130.63 -6.82,-42.27 -35.48,-68.62 -69.8,-64.4 -10.4,1.33 -17.75,10.82 -16.44,21.22 1.33,10.41 10.89,17.82 21.22,16.44 14.99,-2.05 24.78,15.66 27.54,32.79 4.3,26.58 -5.33,74.91 -68.66,87.33 -86.12,16.9 -142.15,-19.64 -167.86,-42.91 -34.56,-31.26 -54.74,-74.19 -51.41,-109.34 11.57,-121.14 136.1,-192.09 360.1,-205.16 235.29,-13.87 469.12,98.75 716.8,217.84 55.24,26.56 112.37,54.03 170.37,80.53 149.15,68.16 261.89,16.45 303.44,-8.96 47.66,-29.14 80.64,-70.18 82.07,-102.11 2.98,-67.41 -26.58,-103.87 -51.92,-122.58 -37.61,-27.78 -90.55,-34.49 -138.19,-17.5 -9.87,3.53 -15.02,14.39 -11.5,24.25 3.52,9.88 14.37,15.02 24.25,11.5 35.35,-12.59 75.73,-7.79 102.89,12.28 25.69,18.97 38.33,50.21 36.55,90.37 -0.61,13.78 -20.86,45.06 -63.95,71.41 -36.34,22.22 -135.24,67.43 -267.88,6.81 -57.64,-26.34 -114.61,-53.73 -169.69,-80.21 -237.85,-114.35 -463.29,-222.72 -693.65,-222.73" style="fill:#ecb538;fill-opacity:1;fill-rule:nonzero;stroke:none" transform="matrix(0.13333333,0,0,-0.13333333,0,1306.6667)"/>
      <path id="path59" d="m 2380.56,4606.23 c -49.63,0 -93.83,14.06 -129.3,41.87 -51.05,40.01 -77.94,105.63 -71.95,175.53 5.93,68.91 46.02,134.84 107.24,176.37 48.03,32.57 101.39,44.54 142.75,32.1 10.04,-3.02 15.71,-13.61 12.69,-23.64 -3.03,-10.05 -13.62,-15.69 -23.65,-12.69 -30.05,9.05 -72.4,-1.34 -110.48,-27.17 -51.86,-35.19 -85.77,-90.58 -90.74,-148.22 -4.89,-57.09 16.62,-110.33 57.54,-142.41 48.52,-38.04 118.93,-44.16 198.28,-17.25 69.98,23.71 168.05,86.1 271.88,152.14 165.1,105 335.8,213.59 437.04,194.01 104.6,-20.24 110.61,-77.79 108.35,-101.6 -5.09,-53.4 -59.09,-100.98 -98.1,-101.02 0,0 -0.01,0 -0.02,0 -10.47,0 -18.96,8.47 -18.97,18.95 -0.01,10.48 8.47,18.99 18.96,19 19.82,0.03 57.13,32.98 60.34,66.67 3.53,37.07 -40.34,53.49 -77.78,60.73 -86.25,16.78 -257.99,-92.45 -409.45,-188.77 -105.81,-67.29 -205.77,-130.86 -280.07,-156.06 -36.57,-12.39 -71.75,-18.54 -104.56,-18.54" style="fill:#ecb538;fill-opacity:1;fill-rule:nonzero;stroke:none" transform="matrix(0.13333333,0,0,-0.13333333,0,1306.6667)"/>
      <path id="path60" d="m 3396.46,5034.26 c -51.9,0 -94.13,-42.25 -94.13,-94.17 0,-51.92 42.23,-94.16 94.13,-94.16 51.92,0 94.17,42.24 94.17,94.16 0,51.92 -42.25,94.17 -94.17,94.17 z m 0,-226.28 c -72.83,0 -132.08,59.26 -132.08,132.11 0,72.85 59.25,132.13 132.08,132.13 72.85,0 132.12,-59.28 132.12,-132.13 0,-72.85 -59.27,-132.11 -132.12,-132.11" style="fill:#ecb538;fill-opacity:1;fill-rule:nonzero;stroke:none" transform="matrix(0.13333333,0,0,-0.13333333,0,1306.6667)"/>
      </svg>
