<?xml version='1.0' encoding='utf-8'?>
<svg xmlns:inkscape="http://www.inkscape.org/namespaces/inkscape" xmlns:sodipodi="http://sodipodi.sourceforge.net/DTD/sodipodi-0.dtd" xmlns="http://www.w3.org/2000/svg" xmlns:svg="http://www.w3.org/2000/svg" version="1.1" sodipodi:docname="ornament.eps" id="06-mid-center-wing" viewBox="650.8838 644.8355 564.8991 137.9648" width="564.8991" height="137.9648"><path id="path99" d="m 6999.26,4617.47 c -36.76,-41.03 -138.69,-162.14 -159.96,-265.39 -21.53,-104.52 120.46,-213.57 159.92,-241.57 37.53,25.11 183.96,131.08 161.23,241.59 v -0.02 c -22.87,111.02 -124.63,226.69 -161.19,265.39 z m 5.73,-510.99 c 1.85,-0.44 3.61,-1.17 5.19,-2.18 -1.78,1.14 -3.67,1.94 -5.55,2.42 0.12,-0.07 0.25,-0.17 0.36,-0.24 z m -18.26,-4.91 c -0.01,0 -0.01,0 -0.01,-0.02 0,0.02 0,0.02 0.01,0.02 z m 12.18,-32.87 c -3.61,0 -7.21,1.06 -10.38,3.11 -8.86,5.75 -216.42,142.24 -186.4,287.94 28.16,136.71 176.76,291.94 183.07,298.48 6.82,7.07 17.86,7.72 25.43,1.71 2,-1.31 3.75,-3.01 5.22,-5.02 21.59,-21.79 153.9,-159.87 181.77,-295.17 0,-0.02 0,-0.02 0,-0.02 30.22,-146.92 -164.39,-272.96 -186.66,-286.87 v 0 c -0.43,-0.25 -0.84,-0.5 -1.28,-0.73 l -1.19,-0.74 c -2.98,-1.8 -6.28,-2.69 -9.58,-2.69" style="fill:#ecb538;fill-opacity:1;fill-rule:nonzero;stroke:none" transform="matrix(0.13333333,0,0,-0.13333333,0,1306.6667)"/>
      <path id="path100" d="m 5233.36,4336.85 c -85.23,0 -135.82,42.45 -163.4,78.45 -49.08,64.12 -59.49,150.28 -44.41,202.25 47.24,162.56 185.79,202.25 494.14,141.55 105.19,-20.7 248.16,-89.88 399.53,-163.11 166.26,-80.44 338.19,-163.62 477.01,-191.69 264.77,-53.58 383.07,12.59 398.86,53.02 11.28,28.79 -2.98,49.35 -16.92,61.5 -24.35,21.28 -58.47,26.52 -73.86,17.94 -9.15,-5.11 -20.72,-1.84 -25.81,7.32 -5.12,9.15 -1.84,20.72 7.32,25.81 31.33,17.46 82.85,7.58 117.31,-22.48 32.21,-28.08 42.16,-65.96 27.31,-103.91 -28.89,-73.99 -179.48,-129.45 -441.73,-76.41 -143.52,29.03 -317.63,113.28 -486.02,194.75 -149.1,72.13 -289.94,140.27 -390.34,160.03 -328.4,64.6 -415.81,3.96 -450.35,-114.91 -12.13,-41.75 -2.89,-115.03 38.1,-168.58 32.65,-42.63 80.27,-64.9 137.4,-63.55 73.05,1.36 79.4,54.41 79.6,70.63 0.4,29.94 -15.27,55.96 -34.19,56.8 -10.47,0.46 -18.59,9.31 -18.13,19.78 0.46,10.48 9.57,18.6 19.79,18.13 40.19,-1.78 71.14,-43.59 70.49,-95.2 -0.67,-52.73 -37.07,-106.61 -116.85,-108.08 -1.62,-0.02 -3.24,-0.04 -4.85,-0.04" style="fill:#ecb538;fill-opacity:1;fill-rule:nonzero;stroke:none" transform="matrix(0.13333333,0,0,-0.13333333,0,1306.6667)"/>
      <path id="path101" d="m 6074.38,4683.13 c 110.57,-87.78 257.67,-202.61 372.46,-228.79 20.48,-4.67 40.31,-7.93 59.33,-10.05 -136.67,39.75 -279.71,132.58 -367.26,268.7 -13.74,-8.88 -35.24,-20.52 -64.53,-29.86 z m 490.71,-280.22 c -38.25,0 -80.84,3.97 -126.69,14.43 -126.86,28.93 -283.64,153.46 -398.12,244.41 -4.33,3.44 -8.61,6.83 -12.84,10.18 -58.25,-9.5 -136.15,-7.25 -233.99,26.97 -9.9,3.45 -15.11,14.28 -11.65,24.18 3.47,9.88 14.33,15.1 24.18,11.64 71.69,-25.09 131.27,-31.76 178.86,-29.31 -30.31,23.45 -55.83,41.94 -73.42,51 -81.64,42 -183,22.66 -184.01,22.44 -10.27,-1.98 -20.26,4.66 -22.3,14.92 -2.04,10.27 4.62,20.25 14.89,22.3 4.64,0.94 115.14,22.27 208.78,-25.92 26.04,-13.41 62.88,-41.53 108.75,-77.79 60.79,13.31 91.65,40.1 93.98,42.19 l 17.23,15.44 11.85,-19.85 c 141.23,-239.01 449.13,-328.83 587.79,-272.78 l 15.65,-34.52 c -4.19,-2.13 -80.96,-39.93 -198.94,-39.93" style="fill:#ecb538;fill-opacity:1;fill-rule:nonzero;stroke:none" transform="matrix(0.13333333,0,0,-0.13333333,0,1306.6667)"/>
      <path id="path102" d="m 5624.31,4450.83 c 79.63,-3.39 171.57,-24.24 277.34,-48.21 115.99,-26.3 248.13,-56.25 396.24,-70.24 -68.51,14.88 -143.98,35.8 -224.14,65.04 -32.48,11.87 -75.29,31.38 -124.86,53.99 -132.66,60.49 -329,149.94 -425.02,125.38 50.93,-52.67 87.03,-105.33 100.44,-125.96 z m 838.93,-164.42 c -220.65,0 -410.33,43 -569.98,79.2 -108.33,24.55 -201.89,45.77 -280.05,47.62 l -10.32,0.26 -5.4,8.81 c -0.82,1.29 -43.71,70.3 -108.78,135.66 -9.17,-9.17 -15.5,-21.23 -19.14,-36.47 -2.45,-10.17 -12.7,-16.44 -22.88,-14.03 -10.19,2.45 -16.47,12.7 -14.03,22.89 5.24,21.87 14.78,39.84 28.47,53.77 -54.12,48.27 -119.66,88.77 -187.68,89.51 -62.82,0.84 -102.63,-37.39 -113.15,-73.07 -10.46,-35.52 5.88,-69.97 44.84,-94.52 8.87,-5.58 11.53,-17.3 5.94,-26.17 -5.6,-8.85 -17.33,-11.51 -26.18,-5.93 -53.59,33.77 -76.39,85.11 -60.99,137.35 17.63,59.83 80.24,101.13 149.95,100.29 82.27,-0.9 158.82,-49.53 219.68,-105.26 104.85,46.66 307.71,-45.86 471.1,-120.39 48.84,-22.28 91.03,-41.52 122.12,-52.85 324.23,-118.3 575.3,-96.44 577.76,-96.18 l 4.15,-37.73 c -71.22,-8.95 -139.72,-12.76 -205.43,-12.76" style="fill:#ecb538;fill-opacity:1;fill-rule:nonzero;stroke:none" transform="matrix(0.13333333,0,0,-0.13333333,0,1306.6667)"/>
      <path id="path103" d="m 6541.78,4673.64 c -30.68,0 -55.63,-24.95 -55.63,-55.63 0,-30.68 24.95,-55.64 55.63,-55.64 30.68,0 55.63,24.96 55.63,55.64 0,30.68 -24.95,55.63 -55.63,55.63 z m 0,-149.23 c -51.6,0 -93.58,42 -93.58,93.6 0,51.6 41.98,93.58 93.58,93.58 51.6,0 93.59,-41.98 93.59,-93.58 0,-51.6 -41.99,-93.6 -93.59,-93.6" style="fill:#ecb538;fill-opacity:1;fill-rule:nonzero;stroke:none" transform="matrix(0.13333333,0,0,-0.13333333,0,1306.6667)"/>
      <path id="path104" d="m 8766.64,4336.85 c -1.59,0 -3.2,0.02 -4.83,0.04 -79.8,1.47 -116.19,55.37 -116.86,108.1 -0.64,51.59 30.3,93.4 70.48,95.18 10.32,0.55 19.35,-7.65 19.78,-18.13 0.47,-10.47 -7.64,-19.32 -18.12,-19.78 -18.92,-0.84 -34.58,-26.84 -34.19,-56.78 0.21,-16.24 6.56,-69.29 79.61,-70.65 56.65,-1.42 104.75,20.89 137.39,63.55 41,53.53 50.23,126.81 38.11,168.58 -34.52,118.87 -121.87,179.56 -450.35,114.91 -100.4,-19.76 -241.22,-87.9 -390.33,-160.03 -168.39,-81.47 -342.51,-165.72 -486.03,-194.75 -262.22,-53.04 -412.82,2.42 -441.75,76.41 -14.83,37.95 -4.88,75.83 27.34,103.93 34.5,30.08 86.03,39.93 117.29,22.46 9.16,-5.09 12.44,-16.66 7.32,-25.81 -5.09,-9.16 -16.68,-12.4 -25.82,-7.32 -15.34,8.56 -49.45,3.32 -73.83,-17.94 -13.94,-12.15 -28.22,-32.71 -16.95,-61.5 15.81,-40.43 134.11,-106.58 398.87,-53.02 138.84,28.07 310.77,111.26 477.03,191.7 151.37,73.23 294.34,142.4 399.52,163.1 308.43,60.71 446.9,21.01 494.11,-141.55 15.11,-51.97 4.69,-138.13 -44.39,-202.25 -27.58,-36 -78.16,-78.45 -163.4,-78.45" style="fill:#ecb538;fill-opacity:1;fill-rule:nonzero;stroke:none" transform="matrix(0.13333333,0,0,-0.13333333,0,1306.6667)"/>
      <path id="path105" d="m 7861.09,4712.99 c -87.54,-136.1 -230.59,-228.95 -367.24,-268.7 19.01,2.12 38.84,5.38 59.31,10.05 114.79,26.18 261.91,141.01 372.48,228.79 -29.31,9.33 -50.8,20.98 -64.55,29.86 z m -426.18,-310.08 c -117.99,0 -194.74,37.8 -198.94,39.93 l 15.65,34.52 c 138.59,-56.03 446.57,33.77 587.79,272.78 l 11.9,20.13 17.25,-15.79 c 2.3,-2.05 33.14,-28.82 93.92,-42.13 45.87,36.27 82.71,64.39 108.74,77.8 93.62,48.14 204.12,26.85 208.8,25.92 10.26,-2.05 16.91,-12.03 14.87,-22.3 -2.05,-10.26 -12.06,-16.91 -22.3,-14.92 -1.01,0.2 -102.36,19.55 -183.99,-22.44 -17.59,-9.06 -43.12,-27.55 -73.43,-51 47.77,-2.47 107.16,4.21 178.86,29.31 9.93,3.44 20.72,-1.76 24.18,-11.64 3.45,-9.9 -1.75,-20.73 -11.66,-24.18 -97.82,-34.23 -175.8,-36.49 -233.97,-26.97 -4.24,-3.35 -8.53,-6.75 -12.86,-10.2 -114.49,-90.93 -271.26,-215.46 -398.11,-244.39 -45.85,-10.46 -88.45,-14.43 -126.7,-14.43" style="fill:#ecb538;fill-opacity:1;fill-rule:nonzero;stroke:none" transform="matrix(0.13333333,0,0,-0.13333333,0,1306.6667)"/>
      <path id="path106" d="m 8438.74,4581 c -103.52,0 -270.41,-76.13 -387.63,-129.59 -49.57,-22.61 -92.37,-42.12 -124.86,-53.99 -80.17,-29.24 -155.64,-50.16 -224.15,-65.04 148.13,13.99 280.24,43.94 396.25,70.24 105.78,23.97 197.71,44.82 277.36,48.21 13.4,20.63 49.5,73.29 100.44,125.96 -11.19,2.87 -23.76,4.21 -37.41,4.21 z m -901.96,-294.59 c -65.73,0 -134.2,3.81 -205.44,12.76 l 4.14,37.73 c 2.54,-0.28 254.11,-21.92 577.76,96.18 31.1,11.33 73.27,30.57 122.12,52.85 163.42,74.53 366.26,167.09 471.1,120.39 60.88,55.73 137.42,104.36 219.67,105.26 0.66,0.01 1.32,0.01 1.98,0.01 69.84,0 130.52,-41.02 148,-100.3 15.4,-52.24 -7.41,-103.58 -61,-137.35 -8.86,-5.6 -20.59,-2.94 -26.17,5.93 -5.6,8.87 -2.93,20.59 5.93,26.17 38.95,24.55 55.3,59 44.83,94.52 -10.51,35.69 -50.26,74.1 -113.16,73.07 -68,-0.74 -133.55,-41.23 -187.66,-89.51 13.69,-13.93 23.24,-31.9 28.48,-53.77 2.44,-10.19 -3.83,-20.44 -14.03,-22.89 -10.3,-2.43 -20.42,3.86 -22.88,14.03 -3.65,15.24 -9.97,27.32 -19.16,36.47 -65.07,-65.36 -107.97,-134.37 -108.76,-135.66 l -5.42,-8.81 -10.31,-0.26 c -78.16,-1.85 -171.72,-23.07 -280.05,-47.62 -159.65,-36.2 -349.38,-79.2 -569.97,-79.2" style="fill:#ecb538;fill-opacity:1;fill-rule:nonzero;stroke:none" transform="matrix(0.13333333,0,0,-0.13333333,0,1306.6667)"/>
      <path id="path107" d="m 7458.22,4673.64 c -30.66,0 -55.62,-24.95 -55.62,-55.63 0,-30.68 24.96,-55.64 55.62,-55.64 30.68,0 55.64,24.96 55.64,55.64 0,30.68 -24.96,55.63 -55.64,55.63 z m 0,-149.23 c -51.6,0 -93.58,42 -93.58,93.6 0,51.6 41.98,93.58 93.58,93.58 51.61,0 93.59,-41.98 93.59,-93.58 0,-51.6 -41.98,-93.6 -93.59,-93.6" style="fill:#ecb538;fill-opacity:1;fill-rule:nonzero;stroke:none" transform="matrix(0.13333333,0,0,-0.13333333,0,1306.6667)"/>
    </svg>
