<?xml version='1.0' encoding='utf-8'?>
<svg xmlns:inkscape="http://www.inkscape.org/namespaces/inkscape" xmlns:sodipodi="http://sodipodi.sourceforge.net/DTD/sodipodi-0.dtd" xmlns="http://www.w3.org/2000/svg" xmlns:svg="http://www.w3.org/2000/svg" version="1.1" sodipodi:docname="ornament.eps" id="07-mid-right-upper" viewBox="1377.7540 584.8508 289.9482 125.9679" width="289.9482" height="125.9679"><path id="path61" d="m 10840.5,4798.14 c -27.8,0 -56.5,8.28 -80.5,24.16 -39.6,26.31 -61.7,70.29 -62.1,123.82 -0.2,26.37 14.8,67.02 57.4,102.02 39.1,32.08 130.5,80.61 303.1,44.83 84.6,-17.49 180.9,-53.81 282.9,-92.26 153.6,-57.9 312.5,-117.77 445,-118.51 1.3,-0.01 2.7,-0.01 4,-0.01 245.2,0 286.3,124.86 289,199.58 1.4,40.66 -24.2,91.16 -62.2,122.83 -26.1,21.76 -69.7,44.93 -129,31.82 -51,-11.28 -56.6,-58.96 -51.9,-85.36 3.5,-19.49 13.9,-34.76 22.6,-33.76 10.3,1.6 19.9,-5.8 21.4,-16.19 1.4,-10.37 -5.8,-19.96 -16.2,-21.4 -30.6,-4.34 -57.5,22.28 -65.1,64.64 -9.3,51.5 12.1,113.89 81.1,129.13 57.9,12.83 115.3,-1.28 161.4,-39.71 47.2,-39.29 77.6,-100.91 75.8,-153.34 -2.5,-71.2 -39.5,-236.19 -326.9,-236.19 -1.4,0 -2.8,0 -4.2,0 -139.3,0.78 -301.4,61.88 -458.2,120.96 -100.5,37.91 -195.5,73.72 -277.2,90.62 -157.1,32.52 -237.4,-9.22 -271.3,-37.02 -30.3,-24.86 -43.7,-54.27 -43.6,-72.39 0.4,-51.93 24.8,-78.95 45.2,-92.47 27.8,-18.46 65.4,-23.08 93.4,-11.5 9.6,3.96 20.8,-0.58 24.7,-10.29 4,-9.68 -0.5,-20.78 -10.2,-24.79 -15,-6.19 -31.6,-9.22 -48.4,-9.22" style="fill:#ecb538;fill-opacity:1;fill-rule:nonzero;stroke:none" transform="matrix(0.13333333,0,0,-0.13333333,0,1306.6667)"/>
      <path id="path62" d="m 11931,4720.71 c -230.5,0 -455.9,108.38 -693.8,222.75 -55,26.48 -112,53.86 -169.6,80.19 -132.6,60.6 -231.5,15.44 -267.9,-6.8 -43,-26.36 -63.3,-57.63 -63.9,-71.42 -1.8,-40.15 10.8,-71.4 36.5,-90.37 27.2,-20.08 67.6,-24.87 102.9,-12.28 10,3.51 20.8,-1.63 24.3,-11.5 3.5,-9.87 -1.6,-20.72 -11.5,-24.25 -47.7,-16.97 -100.6,-10.29 -138.2,17.51 -25.3,18.71 -54.9,55.17 -51.9,122.57 1.4,31.94 34.4,72.97 82.1,102.11 41.5,25.41 154.1,77.13 303.4,8.96 57.9,-26.5 115.1,-53.96 170.3,-80.51 247.7,-119.09 481.6,-231.58 716.8,-217.86 224,13.07 348.5,84.02 360.1,205.19 3.4,35.12 -16.8,78.05 -51.4,109.32 -25.7,23.28 -81.7,59.81 -167.8,42.9 -63.4,-12.42 -73,-60.75 -68.7,-87.35 2.7,-17.13 12.7,-34.7 27.5,-32.77 10.5,1.31 19.9,-6.04 21.2,-16.44 1.4,-10.4 -6,-19.89 -16.4,-21.22 -34.1,-4.28 -62.9,22.11 -69.8,64.38 -8.6,53.58 22.6,115.66 98.9,130.65 102.4,20.09 169.6,-23.96 200.6,-52.01 43.8,-39.63 68.2,-93.69 63.7,-141.07 -9.5,-99.28 -85.9,-221.39 -395.6,-239.48 -14,-0.8 -27.9,-1.2 -41.8,-1.2" style="fill:#ecb538;fill-opacity:1;fill-rule:nonzero;stroke:none" transform="matrix(0.13333333,0,0,-0.13333333,0,1306.6667)"/>
      <path id="path63" d="m 11619.4,4606.23 c -32.8,0 -67.9,6.15 -104.5,18.54 -74.3,25.2 -174.3,88.77 -280.1,156.06 -151.4,96.32 -323.1,205.62 -409.4,188.77 -37.5,-7.24 -81.4,-23.66 -77.8,-60.74 3.2,-33.68 40.5,-66.63 60.3,-66.66 10.5,-0.01 19,-8.52 19,-19 0,-10.48 -8.5,-18.95 -19,-18.95 v 0 c -39,0.04 -93,47.62 -98.1,101.02 -2.3,23.8 3.7,81.36 108.4,101.6 101.3,19.5 271.9,-89.02 437,-194.01 103.8,-66.04 201.9,-128.43 271.9,-152.14 79.3,-26.88 149.7,-20.79 198.2,17.25 41,32.08 62.5,85.33 57.6,142.42 -5,57.64 -38.9,113.04 -90.8,148.23 -38,25.79 -80.3,36.25 -110.4,27.15 -10.2,-3.01 -20.7,2.67 -23.7,12.69 -3,10.03 2.7,20.62 12.7,23.64 41.4,12.5 94.7,0.49 142.7,-32.08 61.3,-41.52 101.4,-107.47 107.3,-176.38 6,-69.91 -20.9,-135.53 -71.9,-175.54 -35.5,-27.81 -79.8,-41.87 -129.4,-41.87" style="fill:#ecb538;fill-opacity:1;fill-rule:nonzero;stroke:none" transform="matrix(0.13333333,0,0,-0.13333333,0,1306.6667)"/>
      <path id="path64" d="m 10603.5,5034.26 c -51.9,0 -94.1,-42.25 -94.1,-94.17 0,-51.92 42.2,-94.16 94.1,-94.16 51.9,0 94.2,42.24 94.2,94.16 0,51.92 -42.3,94.17 -94.2,94.17 z m 0,-226.28 c -72.8,0 -132.1,59.26 -132.1,132.11 0,72.85 59.3,132.13 132.1,132.13 72.9,0 132.1,-59.28 132.1,-132.13 0,-72.85 -59.2,-132.11 -132.1,-132.11" style="fill:#ecb538;fill-opacity:1;fill-rule:nonzero;stroke:none" transform="matrix(0.13333333,0,0,-0.13333333,0,1306.6667)"/>
      </svg>
