<?xml version='1.0' encoding='utf-8'?>
<svg xmlns:inkscape="http://www.inkscape.org/namespaces/inkscape" xmlns:sodipodi="http://sodipodi.sourceforge.net/DTD/sodipodi-0.dtd" xmlns="http://www.w3.org/2000/svg" xmlns:svg="http://www.w3.org/2000/svg" version="1.1" sodipodi:docname="ornament.eps" id="08-mid-left-lower" viewBox="212.9620 713.8179 304.9456 100.9742" width="304.9456" height="100.9742"><path id="path65" d="m 2318.7,3862.63 c -76.67,-0.02 -139.46,17.86 -187.38,53.45 -68.71,51.06 -88.32,125.75 -93.9,165.74 -7.63,54.67 17.62,122.53 62.82,168.83 44.16,45.22 102.7,66.26 164.71,59.05 71.62,-8.23 100.68,-59.56 97.36,-103.76 -2.91,-38.75 -28.72,-66.46 -61.41,-64.88 -10.48,0.37 -18.67,9.16 -18.3,19.62 0.37,10.47 9.22,18.85 19.64,18.3 12.51,-0.04 21.09,14.63 22.23,29.79 1.92,25.56 -13.65,57.47 -63.86,63.23 -64.15,7.3 -107.9,-21.94 -133.21,-47.87 -36.84,-37.72 -58.38,-94.1 -52.4,-137.09 4.77,-34.1 21.34,-97.68 78.95,-140.49 57.56,-42.77 142.28,-55.82 251.7,-38.77 82.76,12.87 203.56,72.74 331.46,136.16 145.2,71.97 295.34,146.39 415.86,165.94 236.95,38.4 343.85,-46.47 357.87,-112.95 11.88,-56.29 -18.04,-96.64 -49.99,-115.61 -30.72,-18.23 -65.45,-18.46 -86.49,-0.52 -7.97,6.8 -8.91,18.79 -2.11,26.76 6.8,7.97 18.79,8.9 26.76,2.11 8.4,-7.19 26.25,-5.35 42.46,4.29 20.66,12.26 39.98,38.44 32.24,75.15 -10.58,50.23 -105.43,117.24 -314.66,83.3 -114.87,-18.62 -262.4,-91.75 -405.08,-162.48 -130.59,-64.74 -253.95,-125.91 -342.5,-139.66 -32.86,-5.1 -63.81,-7.64 -92.77,-7.64" style="fill:#ecb538;fill-opacity:1;fill-rule:nonzero;stroke:none" transform="matrix(0.13333333,0,0,-0.13333333,0,1306.6667)"/>
      <path id="path66" d="m 2889.21,3826.29 c -3.23,0 -6.51,0.83 -9.51,2.57 -9.07,5.26 -12.14,16.86 -6.88,25.93 79.27,136.46 208.58,237.97 345.92,271.54 80.85,19.76 153.69,12.7 205.05,-19.88 8.85,-5.62 11.47,-17.36 5.86,-26.22 -5.61,-8.83 -17.34,-11.46 -26.18,-5.84 -41.95,26.61 -105.99,32.09 -175.73,15.05 -127.5,-31.14 -247.92,-125.98 -322.1,-253.71 -3.52,-6.05 -9.89,-9.44 -16.43,-9.44" style="fill:#ecb538;fill-opacity:1;fill-rule:nonzero;stroke:none" transform="matrix(0.13333333,0,0,-0.13333333,0,1306.6667)"/>
      <path id="path67" d="m 2134.52,3978.61 c -203.66,0 -342.91,64.42 -386.32,147.29 -33.59,64.14 1.44,133.33 53.15,160.64 43.58,23.04 87.48,11.05 109.26,-29.81 4.92,-9.25 1.42,-20.75 -7.83,-25.68 -9.25,-4.9 -20.73,-1.43 -25.67,7.82 -16.82,31.55 -46.18,20.4 -58.02,14.14 -29.9,-15.79 -62.4,-61.52 -37.27,-109.5 66.89,-127.69 419.06,-203.42 880.89,-6.34 537.86,229.49 798.13,29.92 808.95,21.29 8.2,-6.53 9.56,-18.46 3.04,-26.66 -6.54,-8.2 -18.44,-9.55 -26.63,-3.07 -3.06,2.39 -255.72,193.14 -770.47,-26.47 -207.6,-88.59 -392.86,-123.65 -543.08,-123.65" style="fill:#ecb538;fill-opacity:1;fill-rule:nonzero;stroke:none" transform="matrix(0.13333333,0,0,-0.13333333,0,1306.6667)"/>
      <path id="path68" d="m 3722.88,4081.31 h 0.19 z m -112.86,104.44 c -21.97,0 -43.04,-7.6 -60.12,-21.82 -19.33,-16.11 -31.23,-38.77 -33.5,-63.84 -2.29,-25.06 5.31,-49.48 21.42,-68.81 16.1,-19.33 38.76,-31.23 63.83,-33.51 51.71,-4.58 97.62,33.57 102.32,85.25 v 0 c 4.7,51.72 -33.55,97.63 -85.26,102.32 -2.9,0.27 -5.8,0.41 -8.69,0.41 z m 0.21,-226.32 c -3.98,0 -7.98,0.17 -12.02,0.54 -35.16,3.2 -66.96,19.9 -89.55,47.01 -22.59,27.11 -33.27,61.42 -30.05,96.56 3.19,35.14 19.87,66.97 47.01,89.56 27.1,22.56 61.43,33.26 96.53,30.05 72.53,-6.62 126.19,-71.01 119.63,-143.54 v -0.02 c -6.24,-68.5 -64.04,-120.16 -131.55,-120.16" style="fill:#ecb538;fill-opacity:1;fill-rule:nonzero;stroke:none" transform="matrix(0.13333333,0,0,-0.13333333,0,1306.6667)"/>
      </svg>
