<?xml version='1.0' encoding='utf-8'?>
<svg xmlns:inkscape="http://www.inkscape.org/namespaces/inkscape" xmlns:sodipodi="http://sodipodi.sourceforge.net/DTD/sodipodi-0.dtd" xmlns="http://www.w3.org/2000/svg" xmlns:svg="http://www.w3.org/2000/svg" version="1.1" sodipodi:docname="ornament.eps" id="09-mid-right-lower" viewBox="1348.7592 713.8179 304.9456 100.9742" width="304.9456" height="100.9742"><path id="path69" d="m 11681.3,3862.63 c -29,-0.02 -59.9,2.54 -92.8,7.64 -88.5,13.75 -211.8,74.92 -342.4,139.64 -142.7,70.74 -290.2,143.88 -405.1,162.5 -209.3,33.94 -304.2,-33.07 -314.7,-83.3 -7.8,-36.71 11.6,-62.89 32.2,-75.15 16.3,-9.66 34.1,-11.48 42.5,-4.29 7.9,6.77 19.9,5.88 26.7,-2.11 6.8,-7.97 5.9,-19.94 -2.1,-26.76 -21,-17.94 -55.7,-17.71 -86.4,0.52 -32,18.97 -61.9,59.32 -50.1,115.61 14,66.46 120.8,151.37 358,112.95 120.5,-19.55 270.6,-93.97 415.8,-165.96 127.9,-63.4 248.7,-123.27 331.4,-136.14 109.5,-17.06 194.2,-3.96 251.8,38.79 57.6,42.81 74.1,106.39 78.9,140.47 6,42.99 -15.6,99.37 -52.4,137.11 -25.3,25.91 -69,55.1 -133.2,47.85 -50.2,-5.76 -65.8,-37.67 -63.8,-63.25 1.1,-15.16 9.5,-29.54 22.2,-29.77 9.8,0.83 19.3,-7.81 19.6,-18.3 0.4,-10.46 -7.8,-19.25 -18.3,-19.62 -33.4,-1.56 -58.5,26.13 -61.4,64.86 -3.3,44.22 25.7,95.55 97.4,103.78 62,7.29 120.5,-13.83 164.6,-59.03 45.2,-46.3 70.5,-114.18 62.9,-168.85 -5.6,-39.98 -25.2,-114.66 -93.9,-165.72 -47.9,-35.59 -110.8,-53.47 -187.4,-53.47" style="fill:#ecb538;fill-opacity:1;fill-rule:nonzero;stroke:none" transform="matrix(0.13333333,0,0,-0.13333333,0,1306.6667)"/>
      <path id="path70" d="m 11110.7,3826.29 c -6.5,0 -12.9,3.39 -16.4,9.44 -74.1,127.71 -194.5,222.57 -322,253.71 -69.8,17.07 -133.8,11.58 -175.7,-15.05 -8.9,-5.6 -20.6,-2.99 -26.2,5.84 -5.6,8.86 -3,20.6 5.8,26.22 51.4,32.55 124.2,39.62 205.1,19.88 137.3,-33.59 266.6,-135.08 345.8,-271.54 5.3,-9.07 2.2,-20.69 -6.9,-25.95 -3,-1.74 -6.2,-2.55 -9.5,-2.55" style="fill:#ecb538;fill-opacity:1;fill-rule:nonzero;stroke:none" transform="matrix(0.13333333,0,0,-0.13333333,0,1306.6667)"/>
      <path id="path71" d="m 11865.5,3978.61 c -150.2,0 -335.5,35.04 -543.1,123.65 -515.2,219.83 -767.9,28.42 -770.4,26.47 -8.3,-6.5 -20.2,-5.09 -26.7,3.14 -6.5,8.19 -5.1,20.08 3.1,26.59 10.8,8.63 271.1,208.2 808.9,-21.29 461.9,-197.06 814,-121.35 880.9,6.34 25.1,47.98 -7.4,93.71 -37.3,109.5 -11.8,6.26 -41.2,17.43 -58,-14.14 -4.9,-9.21 -16.4,-12.72 -25.7,-7.82 -9.2,4.93 -12.7,16.43 -7.8,25.68 21.8,40.84 65.7,52.79 109.3,29.83 51.7,-27.33 86.7,-96.52 53.1,-160.66 -43.4,-82.85 -182.7,-147.29 -386.3,-147.29" style="fill:#ecb538;fill-opacity:1;fill-rule:nonzero;stroke:none" transform="matrix(0.13333333,0,0,-0.13333333,0,1306.6667)"/>
      <path id="path72" d="m 10296.1,4083.04 c 4.7,-51.7 50.6,-89.89 102.3,-85.27 51.6,4.71 89.9,50.61 85.2,102.33 -4.7,51.69 -50.6,89.98 -102.3,85.24 -51.7,-4.69 -89.9,-50.6 -85.2,-102.3 z m 93.7,-123.61 c -67.5,0 -125.3,51.66 -131.6,120.16 v 0 c -6.5,72.55 47.1,136.94 119.7,143.56 72.5,6.6 136.9,-47.07 143.5,-119.61 6.6,-72.57 -47.1,-136.96 -119.6,-143.57 -4,-0.35 -8,-0.54 -12,-0.54" style="fill:#ecb538;fill-opacity:1;fill-rule:nonzero;stroke:none" transform="matrix(0.13333333,0,0,-0.13333333,0,1306.6667)"/>
      </svg>
