<?xml version='1.0' encoding='utf-8'?>
<svg xmlns:inkscape="http://www.inkscape.org/namespaces/inkscape" xmlns:sodipodi="http://sodipodi.sourceforge.net/DTD/sodipodi-0.dtd" xmlns="http://www.w3.org/2000/svg" xmlns:svg="http://www.w3.org/2000/svg" version="1.1" sodipodi:docname="ornament.eps" id="10-lower-divider" viewBox="309.9447 817.7914 1246.7774 146.9625" width="1246.7774" height="146.9625"><path id="path53" d="m 7526.09,3079.66 c 5.14,-22.14 16.11,-50.59 39.54,-66.63 2.19,-1.51 4.46,-2.88 6.79,-4.1 -1.01,9.8 -3.3,19.3 -7.14,28.28 -7.41,17.26 -20.54,31.48 -39.19,42.45 z m 81.82,-117.6 c -5.02,-29.36 -15.59,-57.54 -26.37,-80.62 -0.86,-1.84 -1.67,-3.66 -2.45,-5.45 9.97,4.05 41.95,15.9 80.13,18.6 8.12,28.84 25.82,56.82 53.02,83.12 l 2.2,2.14 8.81,-8.3 21.54,-14.32 c -3.43,-5.27 -3.62,-10.82 -0.56,-16.56 3.89,-7.24 11.78,-12.18 19.66,-12.28 0.07,0 0.14,0 0.22,0 9.69,0 19.24,7.43 26.87,20.94 -0.04,1.37 -1.63,15.1 -13.92,25.86 -18.25,15.98 -51.1,16.43 -92.54,1.34 -28.04,-10.18 -53.38,-14.84 -76.61,-14.47 z m -30.65,-90.53 c -14.87,-37.43 -10.17,-63.96 -0.93,-75.83 3.34,-4.25 8.88,-9.02 17.17,-7.5 7.66,1.51 21,5.31 23.82,13.86 2.4,7.25 -1.96,19.16 -10.36,28.3 -7.12,7.77 -13.79,9.99 -15.5,9.68 -0.06,-0.04 -0.1,-0.06 -0.12,-0.06 z m 114.95,-15.32 c 0.35,-25.68 10.69,-51.94 31.04,-78.62 27.74,-36.37 56.04,-37.98 70.59,-35.75 0.97,16.66 -2.8,52.77 -44.92,90.34 -16.54,14.73 -36.57,21.64 -56.71,24.03 z m 93.89,-152.82 c -27.14,0 -62.63,11.32 -93.02,51.18 -25.63,33.61 -38.59,67.84 -38.99,101.46 -5.86,-0.65 -11.53,-1.54 -16.9,-2.56 13.56,-15.97 22.73,-38.36 17.09,-60.19 -3.26,-12.55 -14.55,-34.72 -53.56,-42.32 -20.5,-3.97 -40.77,4.05 -54.31,21.4 -22.59,28.96 -22.32,75.74 0.74,125.12 9.6,20.55 19.1,45.59 23.48,71 -9.5,3.22 -18.37,7.68 -26.62,13.36 -58.17,39.99 -60.26,125.06 -60.32,128.68 l -0.44,26.84 25.46,-8.53 c 45.4,-15.24 76.16,-41.04 91.46,-76.67 7.14,-16.67 10.35,-34.34 10.74,-52.15 17.88,0.16 37.94,3.92 60.61,12.18 82.81,30.2 122.5,2.39 138.82,-16.85 16.89,-19.95 22.89,-48.36 13.66,-64.69 -19.67,-34.82 -45.7,-40.21 -59.89,-40.21 -0.22,0 -0.45,0 -0.67,0.02 -20.45,0.24 -40.08,11.6 -50.9,29.24 -5.76,-8.62 -10.3,-17.31 -13.6,-26.1 26.09,-3.38 52.56,-12.91 75.23,-33.09 75.31,-67.16 55.52,-136.26 54.63,-139.17 l -2.52,-8.39 -8.02,-3.51 c -7.71,-3.37 -18.94,-6.05 -32.16,-6.05" style="fill:#ecb538;fill-opacity:1;fill-rule:nonzero;stroke:none" transform="matrix(0.13333333,0,0,-0.13333333,0,1306.6667)"/>
      <path id="path54" d="m 7272.65,2749.93 c -36.77,0 -74.15,7.6 -108.51,23.24 -85.26,38.81 -134.17,118.92 -134.17,219.82 0,331.25 361.89,366.84 365.54,367.16 l 3956.99,0.08 c 1.1,0.01 143.1,3.57 143.1,78.79 0,27.94 -11,44.73 -33.6,51.31 -35.1,10.16 -84,-8.39 -97.9,-30.2 -5.1,-8.04 -4.3,-14.58 2.7,-22.53 6.9,-7.86 6.1,-19.86 -1.8,-26.78 -7.8,-6.89 -19.8,-6.15 -26.7,1.72 -18.3,20.7 -20.5,45.48 -6.2,67.95 24.4,38.49 91.4,60.58 140.4,46.28 38.8,-11.27 61,-43.25 61,-87.75 0,-112.35 -173.3,-116.62 -180.7,-116.74 H 7397.17 c -11.84,-1.14 -329.24,-33.01 -329.24,-329.29 0,-116.88 70.12,-166.24 111.92,-185.27 73.39,-33.37 166.14,-23.23 220.55,24.17 32.56,28.34 65.56,81.59 37.97,174.24 -16.12,54.1 -54.52,87.06 -105.35,90.45 -43.91,2.71 -88.53,-18.66 -102.76,-50.29 -7.03,-15.59 -13.27,-46.66 -1.72,-68.52 7.2,-13.69 20.56,-22.11 40.83,-25.71 64.11,-11.45 83.2,-0.59 83.4,-0.49 l 4.36,-6.07 19.02,-23.74 c -0.5,-0.43 -1.16,-0.95 -1.97,-1.53 -9.84,-7.14 -82.29,-57.68 -151.02,-45.97 -31.48,5.4 -57.14,22.68 -76.29,51.39 -34.9,52.33 -34.69,128.65 0.52,194.43 48.4,90.47 147.66,142.35 272.28,142.35 140.59,0 257.73,-76.74 361.1,-144.44 80.89,-52.99 157.3,-103.04 228.69,-104.23 64.46,-0.46 109.21,21.98 125.24,64.81 13.99,37.42 1.74,78.18 -17.64,94.51 -20.89,17.57 -50.37,21.49 -75.09,9.95 -21.22,-9.86 -33.4,-28.58 -33.4,-51.31 0,-18.89 4.3,-32.95 12.46,-40.65 8.06,-7.63 17.66,-7.44 17.79,-7.44 10.39,0.73 19.42,-7.43 19.99,-17.89 0.59,-10.45 -7.41,-19.41 -17.88,-19.99 -2.56,-0.22 -26.26,-0.91 -45.98,17.76 -16.14,15.24 -24.32,38.21 -24.32,68.21 0,37.56 20.67,69.6 55.33,85.72 38.06,17.76 83.44,11.7 115.52,-15.34 34.67,-29.17 47.04,-88.01 28.76,-136.84 -21.75,-58.13 -80.48,-90.48 -161.39,-89.45 -82.4,1.38 -163.25,54.34 -248.89,110.43 -103.74,67.97 -211.01,138.24 -340.29,138.24 -110.19,0 -197.23,-44.59 -238.83,-122.3 -28.69,-53.61 -29.62,-114.64 -2.39,-155.48 13.3,-19.96 30.02,-31.41 51.11,-35.02 13.1,-2.27 26.94,-1.21 40.62,1.74 -2.45,0.41 -4.94,0.81 -7.48,1.28 -39.97,7.13 -58.88,28.59 -67.74,45.36 -19.24,36.45 -8.62,81.15 0.68,101.8 20.74,46.08 79.45,76.66 139.92,72.58 66.56,-4.45 118.58,-48.37 139.17,-117.49 26.03,-87.37 8.48,-163.26 -49.41,-213.68 -40.19,-35.03 -95.67,-53.34 -152.67,-53.34" style="fill:#ecb538;fill-opacity:1;fill-rule:nonzero;stroke:none" transform="matrix(0.13333333,0,0,-0.13333333,0,1306.6667)"/>
      <path id="path55" d="m 6473.88,3079.66 c -18.65,-10.97 -31.77,-25.17 -39.18,-42.43 -3.84,-8.98 -6.11,-18.5 -7.15,-28.3 2.34,1.22 4.6,2.59 6.78,4.1 23.45,16.04 34.42,44.49 39.55,66.63 z m -202.8,-112.07 h 0.19 z m 69.66,-73 c 38.19,-2.7 70.16,-14.55 80.14,-18.6 -0.77,1.79 -1.58,3.61 -2.44,5.45 -10.77,23.08 -21.34,51.26 -26.37,80.62 -22.83,-0.31 -48.56,4.27 -76.6,14.47 -41.42,15.07 -74.31,14.62 -92.56,-1.34 -12.28,-10.76 -13.87,-24.49 -13.22,-27.44 7.01,-12.04 16.51,-18.69 26.39,-19.36 7.88,0.1 15.79,5.04 19.66,12.28 3.05,5.74 2.87,11.29 -0.56,16.56 l 17.08,11.35 13.27,11.27 2.2,-2.14 c 27.21,-26.3 44.9,-54.28 53.01,-83.12 z m 67.37,-54.5 c -2.07,0 -8.41,-2.42 -15.09,-9.73 -8.39,-9.14 -12.74,-21.05 -10.35,-28.3 2.81,-8.55 16.16,-12.35 23.86,-13.86 8.06,-1.52 13.77,3.21 17.11,7.5 9.26,11.87 13.94,38.38 -0.92,75.81 l -14.05,-31.55 c -0.02,0.02 -0.1,0.04 -0.21,0.09 -0.1,0.02 -0.22,0.04 -0.35,0.04 z m -202.02,-98.27 c 14.38,-2.28 42.83,-0.69 70.61,35.77 20.33,26.64 30.67,52.86 31.04,78.51 -20.17,-2.35 -40.19,-9.24 -56.69,-23.94 -42.27,-37.7 -45.99,-73.75 -44.96,-90.34 z m 7.77,-38.43 c -13.21,0 -24.44,2.68 -32.15,6.05 l -8.02,3.51 -2.54,8.39 c -0.87,2.91 -20.64,72.01 54.65,139.15 22.65,20.18 49.15,29.71 75.24,33.11 -3.31,8.79 -7.85,17.48 -13.6,26.1 -10.84,-17.64 -30.44,-29.02 -50.91,-29.24 -0.22,-0.02 -0.44,-0.02 -0.66,-0.02 -14.19,0 -40.23,5.39 -59.9,40.21 -9.23,16.33 -3.23,44.74 13.67,64.69 16.32,19.22 56.06,47.03 138.82,16.85 22.68,-8.24 42.9,-11.92 60.61,-12.18 0.4,17.83 3.61,35.49 10.76,52.17 15.29,35.63 46.05,61.41 91.45,76.65 l 25.45,8.53 -0.44,-26.84 c -0.07,-3.62 -2.15,-88.69 -60.33,-128.68 -8.24,-5.68 -17.12,-10.14 -26.59,-13.36 4.36,-25.41 13.87,-50.45 23.47,-71 23.05,-49.38 23.32,-96.16 0.73,-125.12 -13.56,-17.35 -33.85,-25.34 -54.28,-21.4 -39.05,7.6 -50.33,29.77 -53.58,42.32 -5.66,21.79 3.49,44.14 17,60.1 -5.36,1.02 -11,1.88 -16.84,2.54 -0.43,-33.59 -13.38,-67.77 -38.98,-101.35 -30.39,-39.86 -65.88,-51.18 -93.03,-51.18" style="fill:#ecb538;fill-opacity:1;fill-rule:nonzero;stroke:none" transform="matrix(0.13333333,0,0,-0.13333333,0,1306.6667)"/>
      <path id="path56" d="m 6727.34,2749.93 c -57.01,0 -112.48,18.29 -152.69,53.32 -57.9,50.44 -75.45,126.33 -49.42,213.7 20.6,69.14 72.64,113.06 139.2,117.49 60.24,4.04 119.17,-26.5 139.91,-72.58 9.29,-20.67 19.89,-65.38 0.66,-101.82 -8.85,-16.75 -27.78,-38.21 -67.72,-45.34 -2.68,-0.49 -5.28,-0.93 -7.84,-1.34 13.61,-2.94 27.63,-4 41.09,-1.67 21.03,3.63 37.71,15.09 50.98,35.01 27.24,40.84 26.31,101.87 -2.36,155.46 -41.61,77.73 -128.66,122.32 -238.86,122.32 -129.26,0 -236.53,-70.27 -340.28,-138.24 -85.61,-56.09 -166.47,-109.05 -248.84,-110.43 -81.11,-0.99 -139.68,31.32 -161.43,89.45 -18.27,48.83 -5.91,107.67 28.75,136.84 32.12,27.05 77.46,33.08 115.54,15.34 34.65,-16.12 55.33,-48.16 55.33,-85.72 0,-30 -8.18,-52.95 -24.33,-68.21 -19.73,-18.67 -43.37,-17.9 -46.01,-17.76 -10.46,0.58 -18.46,9.54 -17.88,19.99 0.58,10.38 9.31,18.87 19.73,17.9 0.88,0.08 10.59,0.08 18.46,7.79 7.9,7.76 12.08,21.69 12.08,40.29 0,22.73 -12.17,41.45 -33.4,51.31 -24.74,11.53 -54.21,7.6 -75.08,-9.95 -19.38,-16.33 -31.64,-57.09 -17.65,-94.51 16.01,-42.83 60.6,-65.35 125.27,-64.81 71.38,1.19 147.78,51.23 228.66,104.23 103.36,67.7 220.5,144.44 361.08,144.44 124.65,0 223.9,-51.88 272.31,-142.37 35.2,-65.76 35.39,-142.1 0.49,-194.41 -19.12,-28.71 -44.78,-45.98 -76.25,-51.39 -68.58,-11.58 -141.1,38.77 -151.01,45.97 -0.82,0.58 -1.48,1.1 -2,1.55 l 23.72,29.59 c 0.05,-0.04 0.41,-0.3 1.07,-0.77 1.74,-0.58 22.42,-9.16 81.98,1.46 20.24,3.6 33.61,12.02 40.83,25.7 11.53,21.85 5.3,52.94 -1.71,68.53 -14.23,31.63 -58.52,53.11 -102.76,50.29 -50.84,-3.39 -89.24,-36.35 -105.35,-90.45 -27.6,-92.65 5.42,-145.9 37.97,-174.24 54.43,-47.42 147.17,-57.54 220.55,-24.17 41.8,19.03 111.93,68.39 111.93,185.27 0,296.28 -317.42,328.15 -330.93,329.35 l -3953.65,-0.06 c -7.7,0.12 -181.02,4.39 -181.02,116.74 0,44.5 22.23,76.48 61,87.75 49.04,14.34 115.99,-7.77 140.45,-46.28 14.28,-22.49 12.03,-47.25 -6.2,-67.95 -6.9,-7.86 -18.9,-8.65 -26.77,-1.72 -7.87,6.92 -8.64,18.92 -1.71,26.78 7,7.95 7.76,14.49 2.64,22.55 -13.87,21.82 -62.68,40.42 -97.82,30.18 -22.63,-6.58 -33.64,-23.37 -33.64,-51.31 0,-74.25 141.95,-78.78 143.39,-78.79 h 3955.01 c 5.32,-0.4 367.19,-35.99 367.19,-367.24 0,-100.88 -48.89,-181.01 -134.15,-219.82 -34.36,-15.64 -71.76,-23.24 -108.51,-23.24" style="fill:#ecb538;fill-opacity:1;fill-rule:nonzero;stroke:none" transform="matrix(0.13333333,0,0,-0.13333333,0,1306.6667)"/>
      </svg>
