<?xml version='1.0' encoding='utf-8'?>
<svg xmlns:inkscape="http://www.inkscape.org/namespaces/inkscape" xmlns:sodipodi="http://sodipodi.sourceforge.net/DTD/sodipodi-0.dtd" xmlns="http://www.w3.org/2000/svg" xmlns:svg="http://www.w3.org/2000/svg" version="1.1" sodipodi:docname="ornament.eps" id="11-bottom-left-corner" viewBox="178.9680 849.7832 346.9381 348.9110" width="346.9381" height="348.9110"><path id="path82" d="m 2763.25,1337.36 c -30.27,0 -57.58,-16 -81.25,-47.63 -28.49,-38.05 -31.13,-85.36 -7.26,-129.82 28.77,-53.57 99.01,-105.04 190.88,-100.01 134.49,7.73 192.27,129.77 189.01,239.91 -3.45,117.06 -73.73,235.02 -222.62,242.53 118.47,-29.61 165.55,-113.65 180.2,-148.18 43.98,-103.75 15.44,-223.93 -64.99,-273.61 -39.76,-24.57 -78.51,-32.36 -115.19,-23.09 -56.75,14.29 -86.36,64.54 -87.59,66.69 l -25.02,43.25 47.43,-15.75 v 0 c 0.02,0 25.59,-7.17 69.47,9.79 10.06,3.89 16.44,10.67 20.09,21.34 8.01,23.39 -0.71,57.06 -7.63,68.56 -10.79,17.92 -43.11,44 -81.17,45.92 -1.46,0.06 -2.92,0.1 -4.36,0.1 z m 90.19,-315.75 c -88.85,-0.02 -172.82,47.13 -212.13,120.34 -31.15,58 -27.4,120.16 10.29,170.53 40.91,54.65 86.56,64.15 117.92,62.69 49.47,-2.5 93.67,-34.21 111.77,-64.27 11.67,-19.38 23.25,-64.69 11.02,-100.4 -7.24,-21.18 -21.87,-36.54 -42.29,-44.45 -17.66,-6.84 -33.18,-10.55 -46.28,-12.39 10.01,-8.11 22.71,-15.73 37.89,-19.49 26.3,-6.5 55.09,-0.22 85.66,18.66 63.8,39.42 86.22,141.03 49.97,226.51 -50.61,119.4 -189.49,163.17 -371.5,116.91 -3.2,-0.79 -6.43,-0.74 -9.43,0.02 -99,-42.25 -189.45,-108.96 -287.87,-181.57 -144.84,-106.83 -309,-227.93 -533.35,-281.84 -10.1,-2.39 -20.43,3.82 -22.87,14.03 -2.46,10.19 3.82,20.43 14.01,22.89 216.88,52.09 370.81,165.65 519.68,275.46 163.88,120.9 318.68,235.09 530.35,235.42 0.18,0 0.39,0 0.57,0 183.78,0 271.74,-144.93 275.71,-279.72 3.9,-131.98 -72.06,-270.16 -224.78,-278.92 -4.78,-0.28 -9.58,-0.41 -14.34,-0.41" style="fill:#ecb538;fill-opacity:1;fill-rule:nonzero;stroke:none" transform="matrix(0.13333333,0,0,-0.13333333,0,1306.6667)"/>
      <path id="path83" d="m 3577.18,1009.22 c -44.41,0 -91.98,8 -139.57,24.12 -92.78,31.47 -151.52,114.66 -213.72,202.73 -66.37,94 -141.59,200.53 -272.8,268.62 l 17.47,33.69 c 139.41,-72.35 217.47,-182.89 286.33,-280.4 61.08,-86.5 113.83,-161.2 194.9,-188.68 94.96,-32.18 188.44,-29.32 250.03,7.64 35.9,21.54 58.3,53.7 64.76,92.97 4.69,28.45 -3.38,71.49 -31.96,103.47 -25.95,29.07 -62.63,42.64 -109.45,40.19 -41.24,-2.13 -71.99,-36.04 -81.06,-68.43 -3.93,-14.1 -9.44,-49.41 24.5,-72.46 60.26,-40.94 92.16,-1.45 93.5,0.26 l 29.91,-23.35 c -18.81,-24.11 -73.31,-56.89 -144.74,-8.3 -37.68,25.59 -52.52,68.23 -39.71,114.06 15.06,53.87 62.62,93.39 115.66,96.13 72.93,3.66 116.31,-26.66 139.68,-52.81 39.49,-44.2 46.83,-100.29 41.13,-134.92 -8.34,-50.61 -36.93,-91.9 -82.68,-119.35 -38.96,-23.38 -88.25,-35.18 -142.18,-35.18" style="fill:#ecb538;fill-opacity:1;fill-rule:nonzero;stroke:none" transform="matrix(0.13333333,0,0,-0.13333333,0,1306.6667)"/>
      <path id="path84" d="m 2241.87,1082.19 c -5.3,-7.73 -9.24,-17.68 -10.53,-30.48 -2,-19.65 3.62,-34.29 15.01,-39.22 7.29,-3.12 15.52,-1.7 20.05,3.53 5.94,6.87 6.83,23.06 -8.47,47.94 -4.36,7.1 -9.72,13.17 -16.06,18.23 z m 12.49,-109.35 c -7.69,0 -15.53,1.57 -23.05,4.82 -27.38,11.813 -41.5,40.93 -37.73,77.89 1.59,15.71 6.2,29.96 13.41,42.32 -55.65,11.94 -147.48,-12.79 -277.53,-74.46 -81.48,-38.629 -207.05,-49.961 -212.36,-50.418 l -3.3,37.798 c 1.23,0.11 124.13,11.21 199.41,46.91 111.86,53.05 241.93,103.88 323.45,71.47 10.28,6.8 22.13,11.9 35.34,15.01 53.01,12.52 111.12,-9.49 138.14,-52.29 41.52,-65.76 71.59,-80.52 128.7,-63.22 27.14,8.24 56.65,13.63 79.41,16.96 -74.62,72.07 -298.94,256.01 -526.47,119.99 l -19.47,32.57 c 304.76,182.17 597.69,-151.06 600.61,-154.47 l 24.41,-28.28 -37.23,-3.04 c -0.6,-0.04 -61,-5.09 -110.24,-20.048 -85.11,-25.782 -128.82,11.218 -171.8,79.258 -18.36,29.07 -60.28,44.37 -97.36,35.64 -2.22,-0.52 -4.65,-1.21 -7.2,-2.06 6.18,-6.18 11.79,-13.25 16.76,-21.35 31.88,-51.83 14,-82.05 4.84,-92.66 -10.35,-11.95 -25.23,-18.34 -40.74,-18.34" style="fill:#ecb538;fill-opacity:1;fill-rule:nonzero;stroke:none" transform="matrix(0.13333333,0,0,-0.13333333,0,1306.6667)"/>
      <path id="path85" d="m 2330.59,1517.92 c -64.82,-24.77 -160.95,-62.82 -224.55,-93.95 -126.38,-61.83 -117.81,-179.35 -106.89,-230.9 130.4,103.7 262.74,246.98 331.44,324.85 z m -557.98,-485.49 -3.86,37.78 c 56.16,5.72 125.8,44.26 197.71,97.71 -12.19,46.68 -41.04,209.93 122.91,290.14 104.98,51.38 289.66,118.62 297.47,121.45 l 65.46,23.8 -44.36,-53.71 c -16.65,-20.18 -410.62,-494.24 -635.33,-517.17" style="fill:#ecb538;fill-opacity:1;fill-rule:nonzero;stroke:none" transform="matrix(0.13333333,0,0,-0.13333333,0,1306.6667)"/>
      <path id="path86" d="m 1820.02,2538.84 c -107.72,0 -223.58,-58.22 -231.09,-189.16 -5.28,-91.92 46.42,-162.1 99.99,-190.88 44.48,-23.87 91.78,-21.25 129.84,7.25 33.15,24.83 49.15,53.65 47.52,85.67 -1.92,38.05 -28.01,70.34 -45.92,81.13 -11.48,6.91 -45.14,15.68 -68.55,7.64 -10.68,-3.65 -17.48,-10.05 -21.37,-20.11 -16.98,-43.89 -9.75,-69.49 -9.67,-69.73 l 13.54,-45.67 -41.14,23.54 c -2.13,1.22 -52.39,30.84 -66.69,87.59 -9.24,36.67 -1.47,75.42 23.08,115.2 49.7,80.44 169.9,108.94 273.63,64.97 34.54,-14.65 118.56,-61.73 148.16,-180.19 -7.5,148.92 -125.48,219.17 -242.54,222.62 -2.92,0.1 -5.85,0.13 -8.79,0.13 z M 1580.37,1235.78 c -1.48,0 -2.97,0.17 -4.45,0.52 -10.19,2.44 -16.48,12.69 -14.02,22.88 53.88,224.37 174.98,388.53 281.83,533.37 72.59,98.42 139.31,188.88 181.57,287.87 -0.78,2.98 -0.83,6.2 -0.02,9.41 46.21,182 2.51,320.87 -116.9,371.52 -85.5,36.22 -187.1,13.82 -226.53,-49.98 -18.88,-30.58 -25.16,-59.4 -18.65,-85.66 3.75,-15.17 11.36,-27.87 19.49,-37.88 1.82,13.11 5.53,28.6 12.36,46.26 7.91,20.42 23.29,35.06 44.48,42.31 35.68,12.21 81.02,0.64 100.41,-11.05 30.03,-18.06 61.75,-62.24 64.25,-111.71 1.58,-31.22 -8.01,-77.03 -62.68,-117.99 -50.37,-37.67 -112.5,-41.43 -170.53,-10.28 -77.14,41.42 -125.34,132.44 -119.95,226.5 8.77,152.69 146.63,228.56 278.9,224.78 134.93,-3.97 280.04,-92.14 279.75,-276.31 -0.34,-211.66 -114.53,-366.45 -235.42,-530.32 -109.81,-148.89 -223.37,-302.82 -275.46,-519.7 -2.09,-8.71 -9.86,-14.54 -18.43,-14.54" style="fill:#ecb538;fill-opacity:1;fill-rule:nonzero;stroke:none" transform="matrix(0.13333333,0,0,-0.13333333,0,1306.6667)"/>
      <path id="path87" d="m 2033.71,2435.14 c -68.09,131.22 -174.61,206.44 -268.61,272.8 -88.07,62.21 -171.27,120.96 -202.73,213.72 -35.71,105.39 -31.58,210.72 11.05,281.79 27.46,45.75 68.73,74.34 119.35,82.66 34.62,5.8 90.76,-1.61 134.94,-41.1 26.15,-23.37 56.53,-66.58 52.79,-139.69 -2.74,-53.05 -42.26,-100.6 -96.12,-115.67 -45.83,-12.82 -88.48,2.02 -114.08,39.7 -48.57,71.45 -15.81,125.93 8.31,144.76 l 23.35,-29.91 c -4.07,-3.31 -39.93,-35.17 -0.27,-93.51 23.07,-33.94 58.34,-28.4 72.47,-24.5 32.4,9.06 66.31,39.83 68.44,81.09 2.4,46.66 -11.13,83.47 -40.18,109.44 -32.01,28.59 -75.08,36.61 -103.48,31.96 -39.29,-6.46 -71.43,-28.86 -92.97,-64.76 -36.98,-61.62 -39.84,-155.11 -7.64,-250.06 27.48,-81.1 102.17,-133.84 188.67,-194.91 97.52,-68.87 208.05,-146.91 280.4,-286.31 l -33.69,-17.5" style="fill:#ecb538;fill-opacity:1;fill-rule:nonzero;stroke:none" transform="matrix(0.13333333,0,0,-0.13333333,0,1306.6667)"/>
      <path id="path88" d="m 1557.98,1754.46 c -5.82,0 -10.14,-1.57 -12.93,-3.97 -5.23,-4.52 -6.68,-12.77 -3.53,-20.08 4.93,-11.39 19.53,-17.08 39.2,-15.01 12.81,1.3 22.76,5.23 30.48,10.55 -5.05,6.34 -11.13,11.7 -18.22,16.06 -14.77,9.08 -26.49,12.45 -35,12.45 z m -10.73,-549.79 -37.93,1.14 c 0.15,5.1 4.22,125.73 43.11,207.74 61.66,130.03 86.39,221.82 74.46,277.51 -12.36,-7.21 -26.63,-11.83 -42.34,-13.42 -37,-3.66 -66.04,10.34 -77.87,37.75 -9.79,22.68 -4.35,48.31 13.53,63.78 10.58,9.17 40.82,27.04 92.64,-4.83 8.11,-4.97 15.18,-10.64 21.31,-16.91 0.88,2.6 1.57,5.08 2.09,7.35 8.76,37.12 -6.55,78.99 -35.61,97.36 -68.06,42.97 -105.05,86.69 -79.25,171.76 14.94,49.27 19.99,109.66 20.04,110.26 l 3.04,37.24 28.27,-24.42 c 3.39,-2.93 336.6,-295.85 154.47,-600.59 l -32.58,19.45 c 136.21,227.92 -47.86,452 -119.97,526.51 -3.33,-22.75 -8.71,-52.29 -16.95,-79.46 -17.31,-57.09 -2.54,-87.15 63.19,-128.66 42.8,-27.05 64.79,-85.15 52.3,-138.16 -3.17,-13.46 -8.41,-25.52 -15.42,-35.96 32.21,-84.11 -21.98,-219.34 -71.07,-322.83 -35.51,-74.89 -39.42,-191.45 -39.46,-192.61" style="fill:#ecb538;fill-opacity:1;fill-rule:nonzero;stroke:none" transform="matrix(0.13333333,0,0,-0.13333333,0,1306.6667)"/>
      <path id="path89" d="m 1722.16,1483.3 c 51.66,-10.73 169.28,-18.97 230.83,106.82 31.14,63.59 69.19,159.71 93.96,224.54 -77.87,-68.67 -221.11,-200.99 -324.79,-331.36 z m -122.94,-230.48 -37.75,3.86 c 22.9,224.7 496.99,618.67 517.16,635.33 l 53.7,44.38 -23.79,-65.49 c -2.83,-7.8 -70.09,-192.5 -121.45,-297.46 -80.2,-163.91 -243.43,-135.08 -290.14,-122.9 -53.44,-71.91 -92,-141.56 -97.73,-197.72" style="fill:#ecb538;fill-opacity:1;fill-rule:nonzero;stroke:none" transform="matrix(0.13333333,0,0,-0.13333333,0,1306.6667)"/>
      <path id="path90" d="m 1523.72,995.871 c 41.14,-6.691 176.5,-22.879 221.24,45.089 44.62,67.77 56.08,188.03 58.91,235.12 -45.74,-1.59 -163.1,-10.43 -235.74,-58.28 -72.12,-47.51 -51.89,-183.2 -44.41,-221.929 z m 77.68,-44.512 c -51.46,0 -93.78,8.75 -97.56,9.563 -6.9,1.457 -12.4,6.637 -14.3,13.418 -0.48,1.332 -0.81,2.742 -0.99,4.211 -6.08,26.809 -41.96,204.609 58.7,270.939 v 0 c 92.8,61.12 241.71,64.83 273.23,64.9 1.82,0.13 3.61,0.03 5.37,-0.28 4.05,-0.67 8.03,-2.54 10.85,-5.39 3.57,-3.63 6.1,-8.56 6.01,-13.64 -0.13,-7.35 -3.92,-180.63 -66.04,-274.99 -36.73,-55.809 -112.74,-68.731 -175.27,-68.731" style="fill:#ecb538;fill-opacity:1;fill-rule:nonzero;stroke:none" transform="matrix(0.13333333,0,0,-0.13333333,0,1306.6667)"/>
      </svg>
