<?xml version='1.0' encoding='utf-8'?>
<svg xmlns:inkscape="http://www.inkscape.org/namespaces/inkscape" xmlns:sodipodi="http://sodipodi.sourceforge.net/DTD/sodipodi-0.dtd" xmlns="http://www.w3.org/2000/svg" xmlns:svg="http://www.w3.org/2000/svg" version="1.1" sodipodi:docname="ornament.eps" id="12-bottom-center-crest" viewBox="467.9165 966.7534 930.8338 194.9503" width="930.8338" height="194.9503"><path id="path37" d="m 8287.03,1595.37 c 9.91,-0.45 19.93,-0.66 30.09,-0.68 0.18,0 0.41,0 0.61,0 201.92,0 296.82,154.4 301.34,307.56 4.11,139.56 -69.28,294.23 -240.2,304.06 -116.69,6.73 -205.86,-59.06 -242.46,-127.2 -30.69,-57.15 -27.26,-118.01 9.41,-166.98 31.94,-42.71 69.23,-63.17 110.8,-61.17 49.18,2.48 91.01,36.32 104.99,59.56 9.29,15.41 20.56,58.47 9.95,89.44 -4.96,14.53 -14.06,24.19 -27.81,29.5 -56.61,21.89 -89.65,12.29 -90.02,12.18 l -46.02,-13.99 23.81,41.57 c 1.51,2.59 37.47,63.65 106.34,81 44.42,11.23 91.6,1.7 140.08,-28.25 98.4,-60.78 133.2,-208.12 79.22,-335.45 -19.87,-46.86 -88.36,-167.78 -270.13,-191.15 z m 30.7,-38.64 c -0.24,0 -0.44,0 -0.68,0 -262.48,0.43 -454.96,142.41 -658.73,292.74 -186.05,137.26 -378.47,279.19 -649.89,344.39 -10.2,2.44 -16.48,12.69 -14.03,22.88 2.44,10.21 12.69,16.46 22.89,14.03 278.91,-67.01 483.27,-217.76 663.56,-350.76 123.55,-91.13 237.05,-174.86 361.54,-227.71 3.43,1.17 7.2,1.39 10.94,0.48 229.45,-58.28 404.76,-2.74 468.88,148.55 46.07,108.68 17.27,238.04 -64.21,288.37 -39.44,24.32 -76.74,32.33 -110.87,23.71 -24.04,-6.06 -43.15,-19.35 -56.9,-32.17 17.96,-1.55 40.53,-6.05 67.22,-16.38 24.16,-9.36 41.46,-27.55 50.03,-52.61 14.76,-43.12 0.74,-97.88 -13.36,-121.3 -21.9,-36.42 -75.52,-74.88 -135.59,-77.89 -37.68,-2.04 -93.29,9.78 -143.1,76.31 -45.89,61.3 -50.42,137 -12.45,207.7 50.81,94.64 162.33,154.04 278.07,147.12 187.49,-10.77 280.74,-180.73 275.95,-343.06 -4.89,-165.94 -113.16,-344.4 -339.27,-344.4" style="fill:#ecb538;fill-opacity:1;fill-rule:nonzero;stroke:none" transform="matrix(0.13333333,0,0,-0.13333333,0,1306.6667)"/>
      <path id="path38" d="m 9021.72,2368.87 c -20.2,-4.15 -68.87,-21.66 -100.27,-95.2 -12.64,-29.54 -11.67,-60.47 -4.42,-89.02 34.97,10.02 65.88,34.58 92.53,73.62 37.2,54.57 21.59,94.72 12.16,110.6 z M 8877.8,2044.2 c 20.46,0 40.22,-1.5 58.16,-3.71 63.42,-7.71 99.94,10.51 113,30.17 6.6,9.94 7.34,20.46 2.08,29.65 -7.33,12.83 -19.33,27.85 -33.99,26.8 -13.92,-1.03 -29.85,-15.64 -37.08,-34 -4.25,-10.84 -3.61,-18.78 -1.19,-21.72 0.18,-0.23 0.3,-0.34 0.32,-0.37 l -27.89,-25.73 c -0.26,0.28 -0.52,0.56 -0.78,0.85 -5.56,6.21 -38.51,44.28 -59.41,95.94 -39.09,-2.54 -81.37,7.71 -125.61,30.87 -1.74,0.91 -3.04,1.61 -3.89,1.99 l 11.75,36 c 12.56,-3.26 21.09,2.14 26.04,7.32 8.5,8.86 11.78,22.54 8.17,34.01 -4.52,14.41 -19.38,24.83 -41.85,29.33 -4.27,-0.08 -21.64,-8.5 -30.86,-27.62 -14.95,-30.93 -1.9,-74.53 36.74,-122.72 25.3,-31.52 42.1,-62.03 50.4,-91.31 18.61,3.04 37.53,4.25 55.89,4.25 z m -87.99,-51.43 c -15.87,-5.9 -30.49,-14.06 -42.91,-25.1 -21.46,-19.1 -34.58,-45.89 -39.16,-79.9 27.09,14.52 66.51,42.05 78.56,83.86 1.96,6.86 3.14,13.9 3.51,21.14 z m -121.74,-161.81 -0.13,26.44 c -0.29,60.01 17.77,106.63 53.74,138.62 18.36,16.34 40.07,27.6 63.24,35.11 -7.02,23.89 -21.38,49.43 -43.03,76.39 -69.69,86.96 -53.06,144.47 -36.95,171.01 18.29,30.09 49.07,44.07 68.15,40.28 49.47,-9.93 65.46,-38.82 70.6,-55.17 7.75,-24.66 1.1,-52.77 -16.97,-71.64 -0.97,-1.01 -1.95,-1.98 -2.97,-2.93 19.29,-6.35 37.72,-9.56 55.29,-9.62 -8,34.29 -8.37,71.99 7.49,109.13 49.7,116.35 139.82,119.45 143.64,119.52 l 8.62,0.16 5.8,-6.37 c 21.49,-23.65 48.42,-88.58 -3.67,-165 -31.22,-45.76 -68.94,-75.2 -111.38,-87.93 5.64,-12.74 12.03,-24.49 18.31,-34.79 11.92,24.15 36.29,48.59 66.44,50.8 19.13,1.18 46.59,-5.44 69.69,-45.79 12.4,-21.65 11.12,-47.65 -3.4,-69.51 -25.02,-37.68 -80.73,-55.3 -149.22,-46.84 -31.18,3.8 -68.4,5.49 -103.46,-0.23 0.45,-14.25 -1.28,-28.14 -5.2,-41.68 -24.47,-84.42 -125.36,-119.89 -129.63,-121.38 l -25,-8.58" style="fill:#ecb538;fill-opacity:1;fill-rule:nonzero;stroke:none" transform="matrix(0.13333333,0,0,-0.13333333,0,1306.6667)"/>
      <path id="path39" d="m 9234.7,1492.73 c -4.84,0 -9.79,0.1 -14.85,0.37 -64.19,3.34 -121.76,51.24 -140,116.5 -15.42,55.14 2.42,106.41 47.65,137.15 107.77,73.29 173.59,-8.52 174.25,-9.38 l -29.91,-23.35 c -4.46,5.49 -46.52,53.35 -122.99,1.34 -44.87,-30.49 -37.64,-76.96 -32.45,-95.53 11.74,-42.05 51.73,-86.04 105.4,-88.81 58.89,-3.18 107.33,14.84 140.24,51.68 36.7,41.06 47.06,96.37 41.04,132.97 -12.05,73.13 -75.93,131.64 -175.22,160.5 -178.38,51.88 -462.37,4.75 -664.27,-221.3 l -28.32,25.28 c 212.84,238.3 513.74,287.56 703.17,232.48 113.91,-33.12 187.56,-102.67 202.07,-190.8 7.51,-45.49 -5.12,-114.01 -50.17,-164.43 -26.84,-30.04 -75.27,-64.67 -155.64,-64.67" style="fill:#ecb538;fill-opacity:1;fill-rule:nonzero;stroke:none" transform="matrix(0.13333333,0,0,-0.13333333,0,1306.6667)"/>
      <path id="path40" d="m 10086.2,1615.79 c -142.67,0 -318.07,54.82 -479.56,153.94 -164.22,100.83 -240.56,141.15 -483.31,125.51 l -2.45,37.89 c 253.75,16.3 338.4,-28.4 505.62,-131.04 232.39,-142.66 455.7,-169.49 574.1,-132.78 48.9,15.18 82.8,41.12 97.8,75.06 15.2,33.85 19.1,89.96 -6,138.99 -22.5,43.96 -64.9,73.54 -122.6,85.51 -52.5,10.94 -102.4,-21.54 -124.4,-59.25 -9.7,-16.65 -28.5,-59.81 7.2,-100.64 62.7,-71.71 117.1,-31.6 119.4,-29.85 l 23,-30.17 c -0.9,-0.65 -85.2,-63.03 -171,35.04 -35.98,41.18 -40.25,95.29 -11.4,144.75 34.2,58.54 102,90.26 164.9,77.3 87.6,-18.19 129.2,-67.35 148.7,-105.4 30.8,-60.18 25.7,-129.62 6.9,-171.72 -19.6,-44.2 -61.6,-77.36 -121.3,-95.86 -37.5,-11.64 -79.9,-17.28 -125.6,-17.28" style="fill:#ecb538;fill-opacity:1;fill-rule:nonzero;stroke:none" transform="matrix(0.13333333,0,0,-0.13333333,0,1306.6667)"/>
      <path id="path41" d="m 7615.98,2267.5 c -3.88,0 -7.86,-0.8 -11.66,-2.43 -16.44,-7.09 -24.3,-26.66 -21.56,-53.68 1.95,-19.24 8.4,-33.58 16.87,-44.29 9.8,7.04 18.19,15.96 25,27 17.32,28.21 21.1,52.63 10.1,65.34 -4.56,5.25 -11.47,8.06 -18.75,8.06 z m 12.2,-301.54 c -76.01,0 -156.03,18.97 -236.7,67.19 l 19.47,32.58 c 294.3,-175.88 583.12,71.77 669.25,157 -29.13,3.96 -70.33,10.95 -107.84,22.33 -73.87,22.38 -112.59,3.47 -165.83,-80.81 -32.69,-51.75 -103.09,-78.3 -167.3,-63.18 -17.08,4.02 -32.32,10.83 -45.29,19.96 -102.96,-41.48 -272.13,26.31 -401.35,87.57 -94.53,44.86 -193.38,54.56 -194.36,54.65 l 3.52,37.81 c 4.3,-0.41 106.3,-10.34 207.11,-58.17 115.69,-54.81 265.62,-116.38 355.86,-91.97 -10.76,16.12 -17.55,35.26 -19.72,56.63 -4.46,43.93 12.08,78.49 44.29,92.36 26.35,11.36 56.17,5.12 74.13,-15.64 10.76,-12.41 31.67,-48.03 -6.48,-110.04 -7.39,-12.06 -16.08,-22.24 -25.85,-30.7 6.05,-2.6 11.85,-4.36 16.85,-5.52 48.16,-11.4 102.59,8.65 126.49,46.5 52.45,83.01 105.73,128.17 208.95,96.87 62.06,-18.83 137.73,-25.13 138.5,-25.19 l 37.24,-3.02 -24.42,-28.3 c -2.83,-3.29 -227.56,-258.89 -506.52,-258.91" style="fill:#ecb538;fill-opacity:1;fill-rule:nonzero;stroke:none" transform="matrix(0.13333333,0,0,-0.13333333,0,1306.6667)"/>
      <path id="path42" d="m 7133.38,1634.06 c -3.97,-4.11 -10.49,-15.54 -11.34,-31.59 -1.05,-19.65 5.95,-49.3 45.36,-78.96 17.8,-13.4 39.48,-22.09 63.29,-27.25 -0.72,32.06 -13.1,58.46 -22.44,73.91 -21.76,36.02 -53.2,58.74 -74.87,63.89 z m -112.79,486.01 8.35,-838.19 c 53,27.87 168.84,95.79 194.39,168.48 1.01,2.82 1.88,5.64 2.66,8.42 -30.27,6.07 -58.24,16.95 -81.41,34.41 -63.55,47.83 -69.07,105.85 -53.06,144.21 9.9,23.67 27.02,37.4 43.53,34.96 36.64,-5.39 79.11,-38.57 105.7,-82.58 19.04,-31.51 28.45,-65.37 27.93,-98.81 74.79,-5.49 160.72,14.32 214.03,29.7 -85.03,35.95 -247.06,125.53 -298.09,300.83 -49.92,171.52 -122.7,259.74 -164.03,298.57 z m -29.01,-898.23 -10.56,1060.13 37.94,0.37 1.12,-112.13 c 35.32,-25.85 136.34,-116.02 200.97,-338.1 63.04,-216.56 322.47,-293.61 325.08,-294.38 l 54.84,-15.8 -53.39,-20.18 c -8.36,-3.15 -156.35,-58.17 -283.74,-48.17 -1.29,-5.31 -2.87,-10.57 -4.71,-15.8 -38.54,-109.68 -232.71,-199.94 -240.96,-203.73 l -26.59,-12.21" style="fill:#ecb538;fill-opacity:1;fill-rule:nonzero;stroke:none" transform="matrix(0.13333333,0,0,-0.13333333,0,1306.6667)"/>
      <path id="path43" d="m 7294.9,2043.62 c -14.22,-61.17 -31.97,-219.06 134.18,-300.35 85.51,-41.84 217.97,-93.68 298.18,-124.09 -82.34,94.12 -259.08,287.9 -432.36,424.44 z m 553.61,-509.53 -65.49,23.79 c -2.38,0.85 -239.91,87.34 -370.62,151.29 -205.04,100.35 -164.44,306.56 -150.06,359.45 -91.32,68.16 -179.98,117.53 -251.41,124.81 l 3.86,37.77 c 278.35,-28.38 768.61,-618.3 789.33,-643.41 l 44.39,-53.7" style="fill:#ecb538;fill-opacity:1;fill-rule:nonzero;stroke:none" transform="matrix(0.13333333,0,0,-0.13333333,0,1306.6667)"/>
      <path id="path44" d="m 5637.52,2206.78 c -5.4,0 -10.86,-0.16 -16.39,-0.47 -170.9,-9.83 -244.31,-164.5 -240.2,-304.06 4.51,-153.16 99.45,-307.56 301.32,-307.56 10.48,-0.14 20.6,0.23 30.73,0.68 -181.83,23.35 -250.27,144.29 -270.13,191.15 -53.97,127.33 -19.17,274.69 79.23,335.45 48.46,29.95 95.59,39.48 140.05,28.25 68.88,-17.33 104.86,-78.41 106.36,-80.99 l 25.04,-43.3 -47.47,15.79 c -0.1,0.05 -33.23,9.65 -89.81,-12.26 -13.74,-5.31 -22.84,-14.97 -27.8,-29.5 -10.59,-30.95 0.67,-74.03 9.96,-89.44 13.98,-23.24 55.78,-57.06 104.96,-59.56 41.54,-2.04 78.88,18.46 110.84,61.17 36.66,48.97 40.09,109.83 9.39,166.98 -34.85,64.91 -117.43,127.67 -226.08,127.67 z m 44.74,-650.05 c -226.13,0 -334.38,178.45 -339.27,344.4 -4.78,162.33 88.47,332.29 275.97,343.06 115.4,6.82 227.26,-52.48 278.08,-147.12 37.96,-70.7 33.43,-146.4 -12.45,-207.7 -49.82,-66.53 -105.23,-78.46 -143.14,-76.31 -60.06,3.03 -113.65,41.49 -135.56,77.89 -14.1,23.42 -28.11,78.18 -13.36,121.3 8.58,25.07 25.87,43.25 50.01,52.61 26.62,10.31 49.17,14.81 67.1,16.36 -13.88,12.94 -33.09,26.32 -57.12,32.29 -34.02,8.44 -71.21,0.42 -110.49,-23.81 -81.48,-50.33 -110.3,-179.69 -64.24,-288.37 64.12,-151.27 239.44,-206.83 468.9,-148.55 3.77,0.93 7.53,0.69 10.93,-0.48 124.5,52.85 238,136.58 361.55,227.71 180.28,133.02 384.64,283.75 663.55,350.76 10.14,2.39 20.44,-3.84 22.89,-14.03 2.44,-10.19 -3.84,-20.44 -14.03,-22.88 -271.43,-65.2 -463.83,-207.13 -649.89,-344.39 -203.78,-150.33 -396.26,-292.31 -658.76,-292.74 -0.22,0 -0.44,0 -0.67,0" style="fill:#ecb538;fill-opacity:1;fill-rule:nonzero;stroke:none" transform="matrix(0.13333333,0,0,-0.13333333,0,1306.6667)"/>
      <path id="path45" d="m 5231.67,2192.62 h 0.18 z m -253.37,176.25 c -9.47,-15.92 -25.04,-56.03 12.16,-110.6 26.64,-39.04 57.55,-63.6 92.53,-73.62 7.26,28.55 8.23,59.48 -4.39,89.02 -31.42,73.48 -80.17,91.03 -100.3,95.2 z m 258.57,-194.5 h 0.19 z m -255.41,-47.21 c -14.1,0 -25.4,-14.47 -32.5,-26.85 -5.25,-9.18 -4.52,-19.71 2.08,-29.65 13.05,-19.66 49.52,-37.86 113,-30.17 34.06,4.19 74.71,5.88 114.04,-0.54 8.3,29.28 25.13,59.81 50.43,91.33 38.61,48.17 51.67,91.77 36.74,122.7 -9.21,19.1 -26.55,27.53 -31.62,27.53 h -0.02 c -21.7,-4.41 -36.56,-14.83 -41.09,-29.22 -3.6,-11.48 -0.31,-25.15 8.18,-34.03 4.96,-5.18 13.55,-10.59 26.06,-7.32 l 5.47,-19.79 6.27,-16.21 c -0.85,-0.39 -2.17,-1.1 -3.92,-2 -44.23,-23.15 -86.47,-33.29 -125.57,-30.84 -20.89,-51.63 -53.82,-89.7 -59.43,-95.94 -0.25,-0.29 -0.51,-0.59 -0.78,-0.87 l -27.9,25.73 c 0.03,0.03 0.14,0.16 0.34,0.37 2.41,2.96 3.05,10.88 -1.2,21.7 -7.2,18.38 -23.14,32.99 -37.07,34.02 -0.5,0.04 -1.01,0.05 -1.51,0.05 z m 228.72,-134.39 c 0.38,-7.24 1.55,-14.28 3.53,-21.12 12.03,-41.83 51.45,-69.36 78.56,-83.88 -4.59,34.01 -17.71,60.8 -39.17,79.9 -12.42,11.04 -27.05,19.2 -42.92,25.1 z m 121.76,-161.81 -25.01,8.58 c -4.28,1.49 -105.17,36.96 -129.64,121.38 -3.92,13.52 -5.65,27.44 -5.2,41.68 -35.06,5.72 -72.29,4.03 -103.44,0.23 -68.34,-8.48 -124.19,9.14 -149.23,46.84 -14.52,21.86 -15.79,47.86 -3.39,69.51 23.12,40.35 50.69,46.99 69.72,45.79 30.13,-2.23 54.5,-26.65 66.42,-50.8 6.28,10.32 12.67,22.07 18.31,34.81 -42.45,12.71 -80.16,42.15 -111.37,87.91 -52.1,76.42 -25.18,141.35 -3.66,165 l 5.8,6.37 8.6,-0.16 c 3.81,-0.07 93.9,-3.17 143.65,-119.52 15.87,-37.12 15.5,-74.82 7.48,-109.11 17.57,0.06 36.01,3.25 55.28,9.6 -1.01,0.95 -2,1.94 -2.97,2.95 -18.06,18.85 -24.72,46.97 -16.96,71.64 5.13,16.33 21.12,45.22 70.56,55.15 19.15,3.73 49.89,-10.23 68.16,-40.28 16.12,-26.54 32.76,-84.05 -36.94,-170.99 -21.64,-26.98 -36.01,-52.52 -43.03,-76.41 23.17,-7.51 44.87,-18.77 63.24,-35.09 35.96,-31.99 54.04,-78.63 53.75,-138.64 l -0.13,-26.44" style="fill:#ecb538;fill-opacity:1;fill-rule:nonzero;stroke:none" transform="matrix(0.13333333,0,0,-0.13333333,0,1306.6667)"/>
      <path id="path46" d="m 4765.34,1492.73 c -80.41,-0.02 -128.82,34.63 -155.67,64.69 -45.07,50.42 -57.68,118.92 -50.18,164.41 14.52,88.13 88.16,157.68 202.06,190.8 189.48,55.02 490.33,5.84 703.17,-232.48 l -28.29,-25.28 c -201.9,226.03 -485.84,273.18 -664.28,221.3 -99.3,-28.86 -163.17,-87.37 -175.21,-160.5 -6.03,-36.6 4.33,-91.89 41.03,-132.97 32.9,-36.81 81.34,-54.73 140.27,-51.68 53.64,2.77 93.6,46.76 105.35,88.8 5.2,18.56 12.44,65.05 -32.42,95.54 -76.53,51.98 -118.57,4.17 -123.11,-1.46 l -29.82,23.47 c 0.66,0.86 66.48,82.64 174.26,9.38 45.24,-30.74 63.05,-82.01 47.65,-137.17 -18.25,-65.24 -75.8,-113.14 -139.96,-116.48 -5.06,-0.27 -10.02,-0.37 -14.85,-0.37" style="fill:#ecb538;fill-opacity:1;fill-rule:nonzero;stroke:none" transform="matrix(0.13333333,0,0,-0.13333333,0,1306.6667)"/>
      <path id="path47" d="m 3913.82,1615.79 c -45.77,0 -88.15,5.64 -125.65,17.28 -59.69,18.5 -101.64,51.66 -121.31,95.88 -18.76,42.1 -23.88,111.55 6.97,171.74 19.5,38.03 61.12,87.17 148.71,105.36 62.85,13.02 130.66,-18.74 164.83,-77.28 28.88,-49.46 24.62,-103.59 -11.38,-144.77 -85.77,-98.07 -170.13,-35.69 -170.97,-35.04 l 23,30.17 c 5.72,-4.19 58.55,-39.77 119.39,29.85 35.69,40.83 16.92,83.99 7.19,100.64 -22.02,37.7 -71.78,70.2 -124.35,59.25 -57.7,-11.97 -100.11,-41.53 -122.64,-85.49 -25.13,-49.03 -21.16,-105.15 -6.08,-138.99 15.1,-33.96 48.95,-59.9 97.88,-75.08 118.32,-36.69 341.69,-9.88 574.08,132.78 167.25,102.64 251.86,147.37 505.63,131.04 l -2.43,-37.89 c -242.79,15.64 -319.09,-24.7 -483.35,-125.51 -161.46,-99.1 -336.85,-153.94 -479.52,-153.94" style="fill:#ecb538;fill-opacity:1;fill-rule:nonzero;stroke:none" transform="matrix(0.13333333,0,0,-0.13333333,0,1306.6667)"/>
      <path id="path48" d="m 6384.04,2267.5 c -7.29,0 -14.2,-2.81 -18.74,-8.06 -11.02,-12.71 -7.24,-37.13 10.09,-65.34 6.78,-11.04 15.2,-19.96 24.99,-27 8.47,10.71 14.91,25.05 16.86,44.27 2.75,27.04 -5.11,46.61 -21.55,53.7 -3.79,1.63 -7.77,2.43 -11.65,2.43 z m -12.2,-301.54 c -279.01,-0.02 -503.69,255.62 -506.54,258.91 l -24.41,28.28 37.24,3.04 c 0.76,0.06 76.53,6.38 138.49,25.19 103.36,31.34 156.55,-13.88 208.99,-96.87 23.9,-37.85 78.22,-57.9 126.45,-46.5 4.99,1.16 10.79,2.92 16.84,5.52 -9.76,8.46 -18.45,18.64 -25.85,30.7 -38.12,62.03 -17.21,97.63 -6.45,110.04 17.95,20.76 47.74,27.02 74.13,15.64 32.19,-13.87 48.74,-48.43 44.27,-92.38 -2.16,-21.37 -8.97,-40.49 -19.72,-56.61 90.24,-24.55 240.16,37.16 355.86,91.97 100.82,47.83 202.83,57.76 207.13,58.17 l 3.52,-37.81 c -0.98,-0.09 -99.84,-9.79 -194.39,-54.65 -129.19,-61.26 -298.36,-129.1 -401.34,-87.57 -12.98,-9.15 -28.22,-15.96 -45.31,-19.97 -64.19,-15.05 -134.56,11.44 -167.24,63.19 -53.25,84.32 -92.02,103.21 -165.87,80.81 -37.5,-11.38 -78.67,-18.37 -107.8,-22.33 86.22,-85.15 375.23,-332.71 669.23,-157 l 19.48,-32.58 c -80.66,-48.2 -160.72,-67.17 -236.71,-67.19" style="fill:#ecb538;fill-opacity:1;fill-rule:nonzero;stroke:none" transform="matrix(0.13333333,0,0,-0.13333333,0,1306.6667)"/>
      <path id="path49" d="m 6866.63,1634.08 c -21.65,-5.17 -53.09,-27.87 -74.86,-63.89 -9.33,-15.45 -21.73,-41.85 -22.45,-73.91 23.82,5.16 45.5,13.85 63.28,27.23 39.43,29.66 46.44,59.33 45.37,78.98 -0.86,16.05 -7.39,27.46 -11.34,31.59 z M 6774,1458.78 c 0.79,-2.8 1.66,-5.6 2.66,-8.44 25.57,-72.67 141.43,-140.59 194.43,-168.46 l 8.35,838.2 c -41.31,-38.78 -114.11,-127.01 -164.05,-298.58 -51.03,-175.28 -213,-264.86 -298.05,-300.81 53.29,-15.37 139.13,-35.03 213.99,-29.68 -0.51,33.44 8.92,67.3 27.95,98.81 26.58,43.99 69.05,77.15 105.68,82.54 16.43,2.42 33.65,-11.28 43.53,-34.96 16.01,-38.36 10.47,-96.38 -53.06,-144.21 -23.19,-17.46 -51.15,-28.34 -81.43,-34.41 z m 234.44,-236.94 -26.59,12.21 c -8.26,3.79 -202.42,94.05 -241,203.71 -1.83,5.25 -3.4,10.51 -4.71,15.82 -127.39,-9.93 -275.37,45.02 -283.71,48.17 l -53.26,20.13 54.7,15.85 c 2.62,0.77 262.17,78.27 325.09,294.38 64.63,222.08 165.66,312.25 200.98,338.1 l 1.11,112.13 37.95,-0.37 -10.56,-1060.13" style="fill:#ecb538;fill-opacity:1;fill-rule:nonzero;stroke:none" transform="matrix(0.13333333,0,0,-0.13333333,0,1306.6667)"/>
      <path id="path50" d="m 6705.09,2043.6 c -173.31,-136.55 -350.02,-330.3 -432.35,-424.42 80.2,30.41 212.68,82.27 298.18,124.09 166.12,81.28 148.38,239.14 134.17,300.33 z m -553.61,-509.51 44.38,53.7 c 20.73,25.11 511.02,615.03 789.36,643.41 l 3.86,-37.77 c -71.46,-7.28 -160.1,-56.65 -251.44,-124.85 14.39,-52.93 54.97,-259.1 -150.04,-359.41 -130.71,-63.95 -368.24,-150.44 -370.64,-151.29 l -65.48,-23.79" style="fill:#ecb538;fill-opacity:1;fill-rule:nonzero;stroke:none" transform="matrix(0.13333333,0,0,-0.13333333,0,1306.6667)"/>
      </svg>
