<?xml version='1.0' encoding='utf-8'?>
<svg xmlns:inkscape="http://www.inkscape.org/namespaces/inkscape" xmlns:sodipodi="http://sodipodi.sourceforge.net/DTD/sodipodi-0.dtd" xmlns="http://www.w3.org/2000/svg" xmlns:svg="http://www.w3.org/2000/svg" version="1.1" sodipodi:docname="ornament.eps" id="13-bottom-right-corner" viewBox="1340.7606 849.7832 346.9381 348.9110" width="346.9381" height="348.9110"><path id="path73" d="m 11168,1542.34 c -148.9,-7.49 -219.2,-125.47 -222.6,-242.53 -3.3,-110.14 54.5,-232.18 189,-239.91 91.9,-5.09 162.1,46.42 190.9,100.01 23.9,44.46 21.2,91.77 -7.3,129.82 -24.8,33.14 -53.5,49.18 -85.6,47.53 -38.1,-1.92 -70.4,-28 -81.2,-45.92 -6.9,-11.5 -15.6,-45.13 -7.6,-68.54 3.6,-10.67 10,-17.47 20.1,-21.36 44,-17.02 69.5,-9.79 69.8,-9.69 l 45.6,13.48 -23.5,-41.1 c -1.3,-2.13 -30.9,-52.38 -87.6,-66.67 -36.7,-9.27 -75.4,-1.48 -115.2,23.09 -80.4,49.68 -109,169.86 -65,273.61 14.6,34.53 61.8,118.57 180.2,148.18 z m -21.4,-520.73 c -4.8,0 -9.6,0.13 -14.4,0.41 -152.7,8.76 -228.7,146.94 -224.8,278.9 4,134.79 92,279.74 275.8,279.74 0.1,0 0.3,0 0.5,0 211.7,-0.33 366.5,-114.52 530.4,-235.42 148.9,-109.81 302.8,-223.37 519.7,-275.46 10.1,-2.46 16.4,-12.7 14,-22.89 -2.5,-10.19 -12.8,-16.42 -22.9,-14.03 -224.3,53.91 -388.5,174.99 -533.3,281.84 -98.5,72.61 -188.9,139.32 -287.9,181.59 -3,-0.79 -6.2,-0.83 -9.4,-0.04 -182,46.28 -320.9,2.5 -371.6,-116.91 -36.2,-85.48 -13.8,-187.09 50,-226.51 30.7,-18.95 59.7,-25.24 86,-18.56 15,3.76 27.6,11.34 37.5,19.41 -13.1,1.82 -28.6,5.55 -46.2,12.37 -20.4,7.91 -35.1,23.29 -42.3,44.49 -12.2,35.71 -0.6,81.01 11,100.38 18.1,30.02 62.3,61.75 111.8,64.24 31,1.7 77,-7.99 117.9,-62.68 37.7,-50.37 41.5,-112.53 10.3,-170.53 -39.3,-73.21 -123.3,-120.34 -212.1,-120.34" style="fill:#ecb538;fill-opacity:1;fill-rule:nonzero;stroke:none" transform="matrix(0.13333333,0,0,-0.13333333,0,1306.6667)"/>
      <path id="path74" d="m 10422.8,1009.22 c -53.9,0 -103.2,11.8 -142.2,35.18 -45.7,27.47 -74.3,68.74 -82.6,119.37 -5.8,34.59 1.6,90.7 41.1,134.88 23.3,26.16 66.3,56.45 139.7,52.83 53,-2.74 100.6,-42.26 115.6,-96.12 12.8,-45.82 -2,-88.48 -39.7,-114.07 -71.5,-48.57 -125.9,-15.81 -144.7,8.3 l 29.9,23.35 c 3.3,-4.06 35.1,-39.94 93.5,-0.26 33.9,23.05 28.4,58.36 24.5,72.46 -9.1,32.41 -39.8,66.3 -81.1,68.43 -46.8,2.49 -83.5,-11.14 -109.4,-40.19 -28.6,-32 -36.7,-75.02 -32,-103.45 6.5,-39.28 28.8,-71.43 64.7,-92.99 61.6,-36.94 155.2,-39.82 250.1,-7.64 81.1,27.48 133.9,102.18 194.9,188.68 68.9,97.51 146.9,208.05 286.3,280.4 l 17.5,-33.69 c -131.2,-68.09 -206.4,-174.62 -272.8,-268.62 -62.2,-88.07 -120.9,-171.26 -213.7,-202.73 -47.6,-16.12 -95.2,-24.12 -139.6,-24.12" style="fill:#ecb538;fill-opacity:1;fill-rule:nonzero;stroke:none" transform="matrix(0.13333333,0,0,-0.13333333,0,1306.6667)"/>
      <path id="path75" d="m 11758.1,1082.19 c -6.3,-5.04 -11.7,-11.12 -16,-18.21 -15.3,-24.9 -14.4,-41.09 -8.5,-47.96 4.5,-5.23 12.8,-6.65 20.1,-3.53 11.4,4.93 17,19.57 15,39.2 -1.3,12.82 -5.3,22.77 -10.6,30.5 z m -12.4,-109.35 c -15.6,0 -30.4,6.39 -40.8,18.34 -9.2,10.61 -27,40.83 4.8,92.66 5,8.1 10.7,15.17 16.9,21.3 -2.6,0.89 -5,1.57 -7.3,2.11 -37.1,8.69 -79,-6.59 -97.4,-35.64 -42.9,-68.04 -86.6,-105.04 -171.7,-79.258 -49.3,14.958 -109.7,20.008 -110.3,20.048 l -37.2,3.04 24.4,28.28 c 2.9,3.41 295.8,336.64 600.6,154.47 l -19.5,-32.57 c -227.9,136.17 -452,-47.89 -526.5,-119.97 22.8,-3.33 52.3,-8.74 79.5,-16.98 57.1,-17.34 87.1,-2.56 128.7,63.22 27,42.78 85.1,64.8 138.1,52.29 13.5,-3.17 25.5,-8.42 36,-15.42 84.1,32.27 219.3,-21.96 322.8,-71.06 75.4,-35.76 198.2,-46.8 199.4,-46.91 l -3.3,-37.798 c -5.3,0.457 -130.9,11.789 -212.4,50.418 -130,61.66 -221.7,86.34 -277.5,74.47 7.2,-12.37 11.9,-26.64 13.4,-42.35 3.8,-36.94 -10.3,-66.057 -37.7,-77.87 -7.5,-3.25 -15.4,-4.82 -23,-4.82" style="fill:#ecb538;fill-opacity:1;fill-rule:nonzero;stroke:none" transform="matrix(0.13333333,0,0,-0.13333333,0,1306.6667)"/>
      <path id="path76" d="m 11669.4,1517.92 c 68.7,-77.85 201,-221.1 331.4,-324.78 10.7,51.67 19,169.26 -106.8,230.83 -63.6,31.13 -159.8,69.18 -224.6,93.95 z m 558,-485.49 c -224.7,22.93 -618.7,496.99 -635.3,517.17 l -44.4,53.71 65.5,-23.8 c 7.8,-2.83 192.5,-70.07 297.4,-121.45 164,-80.19 135.1,-243.44 122.9,-290.14 72,-53.45 141.6,-91.99 197.8,-97.71 l -3.9,-37.78" style="fill:#ecb538;fill-opacity:1;fill-rule:nonzero;stroke:none" transform="matrix(0.13333333,0,0,-0.13333333,0,1306.6667)"/>
      <path id="path77" d="m 12226.5,2343.67 c -19,0 -38.6,-5.88 -46.9,-10.82 -17.9,-10.79 -44,-43.08 -45.9,-81.13 -1.6,-32.02 14.4,-60.84 47.6,-85.67 38,-28.48 85.3,-31.12 129.8,-7.23 53.6,28.76 105.3,98.94 100,190.86 -7.7,134.49 -129.9,192.58 -239.9,189.03 -117.1,-3.45 -235.1,-73.72 -242.6,-222.66 29.6,118.52 113.7,165.58 148.2,180.24 103.8,43.94 224,15.44 273.6,-64.98 24.6,-39.78 32.4,-78.53 23.1,-115.2 -14.3,-56.75 -64.5,-86.37 -66.7,-87.61 l -43.2,-25 15.7,47.42 v 0 c 0,0 7.2,25.59 -9.7,69.48 -3.9,10.04 -10.7,16.44 -21.4,20.09 -6.7,2.27 -14.1,3.18 -21.7,3.18 z m 193.1,-1107.89 c -8.5,0 -16.3,5.83 -18.4,14.54 -52.1,216.88 -165.6,370.81 -275.5,519.68 -120.8,163.89 -235,318.68 -235.4,530.34 -0.3,184.19 144.9,272.34 279.8,276.31 131.9,3.83 270.1,-72.09 278.9,-224.78 5.4,-94.06 -42.8,-185.06 -120,-226.5 -58,-31.15 -120.2,-27.39 -170.5,10.28 -54.7,40.96 -64.3,86.75 -62.7,117.97 2.5,49.47 34.2,93.67 64.3,111.73 19.3,11.69 64.7,23.26 100.4,11.05 21.2,-7.25 36.5,-21.87 44.5,-42.31 6.8,-17.66 10.5,-33.17 12.3,-46.27 8.1,10 15.7,22.72 19.5,37.87 6.5,26.28 0.2,55.1 -18.7,85.68 -39.4,63.8 -140.9,86.2 -226.5,49.98 -119.4,-50.64 -163.1,-189.52 -116.9,-371.52 0.9,-3.21 0.8,-6.45 0,-9.45 42.3,-98.99 109,-189.43 181.6,-287.85 106.8,-144.83 227.9,-308.98 281.8,-533.35 2.5,-10.19 -3.8,-20.44 -14,-22.88 -1.5,-0.35 -3,-0.52 -4.5,-0.52" style="fill:#ecb538;fill-opacity:1;fill-rule:nonzero;stroke:none" transform="matrix(0.13333333,0,0,-0.13333333,0,1306.6667)"/>
      <path id="path78" d="m 11966.3,2435.14 -33.7,17.5 c 72.4,139.38 182.9,217.44 280.4,286.31 86.5,61.07 161.2,113.81 188.7,194.91 32.2,94.97 29.3,188.44 -7.6,250.08 -21.6,35.88 -53.7,58.28 -93,64.74 -28.5,4.67 -71.5,-3.41 -103.5,-31.96 -29.1,-25.97 -42.6,-62.8 -40.2,-109.46 2.1,-41.24 36,-72.01 68.4,-81.07 14.1,-3.9 49.5,-9.48 72.5,24.5 41,60.25 1.5,92.18 -0.2,93.51 l 23.3,29.91 c 24.1,-18.83 56.9,-73.31 8.3,-144.74 -25.6,-37.72 -68.2,-52.56 -114.1,-39.72 -53.8,15.07 -93.4,62.62 -96.1,115.65 -3.7,73.13 26.7,116.34 52.8,139.71 44.2,39.47 100.3,46.89 134.9,41.1 50.7,-8.32 91.9,-36.91 119.4,-82.66 42.6,-71.05 46.7,-176.38 11,-281.79 -31.4,-92.76 -114.6,-151.53 -202.7,-213.72 -94,-66.36 -200.5,-141.58 -268.6,-272.8" style="fill:#ecb538;fill-opacity:1;fill-rule:nonzero;stroke:none" transform="matrix(0.13333333,0,0,-0.13333333,0,1306.6667)"/>
      <path id="path79" d="m 12388.8,1725.95 c 7.7,-5.32 17.7,-9.25 30.5,-10.55 19.6,-2.05 34.3,3.62 39.2,15.01 3.2,7.31 1.7,15.56 -3.5,20.06 -6.9,5.99 -23.1,6.82 -48,-8.46 -7.1,-4.36 -13.2,-9.72 -18.2,-16.06 z m 63.9,-521.28 c 0,1.16 -4,117.85 -39.4,192.61 -53,111.87 -103.9,241.94 -71.5,323.44 -6.8,10.29 -11.9,22.15 -15,35.36 -12.5,53 9.5,111.12 52.3,138.15 65.8,41.51 80.5,71.57 63.2,128.66 -8.2,27.15 -13.6,56.65 -16.9,79.42 -72.1,-74.61 -256,-298.9 -120,-526.47 l -32.6,-19.45 c -182.1,304.74 151.1,597.66 154.5,600.59 l 28.3,24.43 3,-37.25 c 0,-0.6 5.1,-60.99 20,-110.26 25.8,-85.05 -11.2,-128.79 -79.2,-171.76 -29.1,-18.37 -44.4,-60.22 -35.6,-97.36 0.5,-2.23 1.1,-4.66 2,-7.22 6.2,6.19 13.3,11.81 21.4,16.78 51.8,31.87 82,13.98 92.6,4.83 17.9,-15.47 23.3,-41.12 13.5,-63.78 -11.8,-27.39 -40.7,-41.39 -77.8,-37.75 -15.8,1.59 -30,6.21 -42.4,13.42 -11.9,-55.71 12.8,-147.49 74.5,-277.51 38.9,-82.01 42.9,-202.64 43.1,-207.74 l -38,-1.14" style="fill:#ecb538;fill-opacity:1;fill-rule:nonzero;stroke:none" transform="matrix(0.13333333,0,0,-0.13333333,0,1306.6667)"/>
      <path id="path80" d="m 11953.1,1814.66 c 24.7,-64.81 62.8,-160.95 93.9,-224.54 61.6,-125.83 179.2,-117.55 230.9,-106.82 -103.7,130.38 -247,262.69 -324.8,331.36 z m 447.7,-561.84 c -5.8,56.17 -44.3,125.81 -97.7,197.72 -46.8,-12.16 -210,-41.03 -290.2,122.9 -51.3,104.96 -118.6,289.66 -121.4,297.46 l -23.8,65.49 53.7,-44.38 c 20.2,-16.66 494.2,-410.63 517.1,-635.33 l -37.7,-3.86" style="fill:#ecb538;fill-opacity:1;fill-rule:nonzero;stroke:none" transform="matrix(0.13333333,0,0,-0.13333333,0,1306.6667)"/>
      <path id="path81" d="m 12487.5,998.73 c -1.4,-0.39 -2.8,-0.929 -4,-1.621 0.1,0.02 0.1,0.043 0.2,0.043 1.2,0.68 2.5,1.219 3.8,1.578 z m -291.4,277.35 c 2.9,-47.09 14.3,-167.35 58.9,-235.12 44.8,-68.011 180.2,-51.819 221.3,-45.069 7.5,38.749 27.6,174.429 -44.4,221.909 v 0 c -72.7,47.85 -190,56.69 -235.8,58.28 z m 202.5,-324.721 c -62.5,0 -138.5,12.922 -175.3,68.731 -62.1,94.36 -65.9,267.64 -66,274.99 -0.1,5.08 1.9,10.01 5.4,13.64 3.1,3.1 7.1,5.04 11.4,5.54 2.1,0.41 4.3,0.44 6.5,0.13 33.8,-0.17 180.4,-4.47 272.2,-64.9 v 0 c 102.4,-67.45 63.4,-250.51 58.4,-272.24 -0.2,-0.687 -0.4,-1.371 -0.6,-2.039 l 0.1,-0.012 c -1.9,-6.75 -7.7,-12.84 -14.5,-14.277 -3.8,-0.813 -46.2,-9.563 -97.6,-9.563" style="fill:#ecb538;fill-opacity:1;fill-rule:nonzero;stroke:none" transform="matrix(0.13333333,0,0,-0.13333333,0,1306.6667)"/>
      </svg>
