<?xml version='1.0' encoding='utf-8'?>
<svg xmlns="http://www.w3.org/2000/svg" version="1.1" id="corner-05" viewBox="188.0101 1840.9555 1063.5867 1064.3680" width="1063.5867" height="1064.3680">
  <desc>Extracted decorative corner ornament 5, transparent background.</desc>
  <g id="corner-05-paths">
    <path id="path70" d="m 3584.73,8017.5 c -57.68,-58.1 -93.27,-138.2 -93.1,-226.6 0.34,-177.2 144.26,-320.5 321.45,-320.2 88.59,0.2 168.73,36.2 226.68,94.4 57.94,58.2 93.7,138.5 93.53,227 -0.35,177.2 -144.26,320.6 -321.45,320.3 -88.37,-0.2 -168.3,-36.1 -226.21,-94 -204.41,273.8 -1260.87,1751.2 -1304.88,1795.1 -47.43,47.2 -196.55,-25.6 -334.77,-162.7 -136.5,-138.7 -208.8,-288.1 -161.37,-335.4 44.01,-43.8 1525.57,-1094.6 1800.12,-1297.9" style="fill:#100f0d;fill-opacity:1;fill-rule:nonzero;stroke:none" transform="matrix(0.13333333,0,0,-0.13333333,0,3200)"/>
    <path id="path71" d="m 1754.71,7832.8 c 61.71,-51.8 124.51,-91 173.57,-115.3 48.94,-23.8 84.9,-33.3 99.37,-19.4 7.5,6.6 53.21,83.8 157.09,174.2 102.05,90.5 270.46,186 464.97,214.8 194.43,31.1 408.33,-9.4 558.7,-76.7 152.38,-65.7 241.77,-148 250.13,-154.4 -9.2,6.5 -67.16,111.6 -200.53,230.9 -131.17,119.3 -344.85,246.6 -597.71,291.7 -252.65,47.8 -523.99,2.8 -716.29,-76.9 -194.49,-77.8 -313.99,-176.9 -326.06,-188.2 -25.13,-24.4 -23.37,-70.3 2.14,-121.7 25,-51.4 72.91,-107.2 134.62,-159" style="fill:#100f0d;fill-opacity:1;fill-rule:nonzero;stroke:none" transform="matrix(0.13333333,0,0,-0.13333333,0,3200)"/>
    <path id="path72" d="m 2421.38,7058.7 c 2.78,8.4 4.51,87.7 37.23,196 31.83,108.4 103.8,241.8 233.13,339.3 128.46,99.5 298.85,155.8 434.12,167.5 136.06,13.9 233.47,-9.2 242.06,-10.5 -9.24,1 -93.23,53.1 -237.01,85.5 -142.2,33.5 -346.8,39.7 -547.04,-27.7 -99.05,-33.1 -199.22,-85.8 -280.66,-151 -82.88,-64.4 -150.14,-138.9 -200.51,-208.4 -101.2,-140 -141.78,-254.6 -145.92,-267 -15.06,-54.9 83.67,-118.8 213.74,-142.1 131.27,-23.5 241.52,-14.4 250.86,18.4" style="fill:#100f0d;fill-opacity:1;fill-rule:nonzero;stroke:none" transform="matrix(0.13333333,0,0,-0.13333333,0,3200)"/>
    <path id="path73" d="m 3638.73,7104.4 c -7.45,80.9 -39.91,162.2 -93.94,231.3 -53.48,68.9 -132,127.8 -222.24,157.5 -89.9,31.5 -189.72,37.6 -288.07,19.1 -98.02,-19.1 -196.34,-65 -275.09,-142.3 -78.33,-77.7 -127.27,-176.6 -155.48,-275.9 -27.7,-99.4 -36.7,-198.3 -40.68,-292.9 -3.26,-95.1 -2.56,-183.6 -3.26,-273.6 -0.69,-179.4 -0.21,-357.2 1.76,-529.5 2.75,-168.8 5.38,-330.2 7.87,-483.5 3.46,-153 6.44,-294.1 1.39,-423.5 -4.9,-129.4 -18,-246.8 -39.44,-351.9 -21.55,-104.6 -52.29,-195.5 -88.15,-275.2 -145.78,-320.6 -344.53,-413.3 -317.8,-473.4 12.36,-30.8 78.74,-38.4 186.1,9.2 88.31,40.4 201.54,126.5 300.55,263.8 0.71,-24.7 1.48,-49 2.13,-74.1 4.77,-202.6 3.47,-425.6 -21.72,-644.3 -25.32,-218.9 -75.06,-432.3 -154.44,-609.4 -77.77,-177.9 -180.82,-317.2 -266.6,-405.5 -43.08,-43.9 -80.59,-76.5 -107.25,-97.9 -27.08,-21 -41.84,-32.4 -41.84,-32.4 0,0 15.91,7.9 45.3,22.5 29.3,15 71.07,39 121.64,73.4 99.8,69.6 231.72,188.2 345.52,359.5 115.96,169.6 208.73,390.8 266.44,623.7 59.3,233.7 85.6,480.1 91.33,708.4 5,222.6 0.65,422 -4.49,597.5 -5.55,175.3 -12.07,326 -20.14,450 -1.28,19.6 -2.65,38.3 -4.05,56.5 -0.53,75.7 -2.7,152.7 -5.39,230.8 -5.91,153 -12.14,314.1 -18.65,482.5 -7.94,159.9 -16.31,328.5 -24.88,501 -7.51,173.7 -28.83,349.7 -7.56,501.6 11.2,76 33.25,145.8 72.5,203.2 37.22,55.1 94.03,98.5 159.82,124.5 132.25,52.9 290.44,31 389.49,-57 102.35,-87 144.71,-229.4 99.59,-336 -20.86,-54 -57.71,-99.1 -100.73,-127.8 -43.16,-29.4 -92.37,-40.6 -136.93,-37.1 -81.14,7.5 -139.46,52.4 -170.21,92.5 22.71,-21.2 53.04,-34.4 86.59,-34.4 69.99,0.2 126.61,57 126.47,127 -0.13,70 -56.97,126.6 -126.95,126.5 -69.99,-0.2 -126.61,-57 -126.48,-127 0.01,-5.7 1.41,-11 2.26,-16.5 0.4,-4 0.95,-8.5 1.9,-13.9 2.22,-12.7 6.05,-28.4 14.9,-48.4 20.48,-46.5 73.38,-113.2 171.52,-140.4 48.29,-14 108.9,-11.1 165.92,12.6 56.96,24.1 110.41,68.4 148.69,128.7 38.7,59.5 60.52,139.6 52.78,220.5" style="fill:#100f0d;fill-opacity:1;fill-rule:nonzero;stroke:none" transform="matrix(0.13333333,0,0,-0.13333333,0,3200)"/>
    <path id="path74" d="m 2182.4,3589.2 c 40.81,-6.9 108.44,10.7 177.93,59.7 32.9,23 65.81,55.5 90.84,90.2 25.45,34.7 43.55,71.3 54.45,103.1 11.18,31.9 15.2,58.9 16.58,77.3 1.35,18.5 0.42,28.8 0.42,28.8 0,0 -7.99,-9.1 -21.79,-22.6 -13.77,-13.5 -33.22,-31.3 -55.96,-48.1 -22.63,-16.9 -48.2,-32.8 -72.91,-45.6 -24.84,-13 -48.08,-22.6 -69.09,-31.9 -41.36,-18.3 -74.08,-29.8 -100.97,-48.1 -26.51,-18.2 -49.57,-42.6 -61.42,-82.1 -13.58,-44.8 0.15,-73.9 41.92,-80.7" style="fill:#100f0d;fill-opacity:1;fill-rule:nonzero;stroke:none" transform="matrix(0.13333333,0,0,-0.13333333,0,3200)"/>
    <path id="path75" d="m 2159.5,3190.2 c 41.2,-4 107.36,18.6 173.05,72.6 31.11,25.4 61.53,60.2 83.94,96.7 22.81,36.4 38.16,74.3 46.69,106.8 8.8,32.6 10.82,59.8 10.84,78.3 -0.01,18.5 -1.7,28.7 -1.7,28.7 0,0 -7.3,-9.6 -20.07,-24.1 -12.73,-14.5 -30.82,-33.6 -52.26,-52.1 -21.32,-18.5 -45.65,-36.2 -69.35,-50.8 -23.81,-14.8 -46.28,-26.1 -66.55,-36.9 -39.89,-21.4 -71.68,-35.3 -97.15,-55.4 -25.1,-20.1 -46.3,-46.2 -55.2,-86.5 -10.23,-45.7 5.59,-73.6 47.76,-77.3" style="fill:#100f0d;fill-opacity:1;fill-rule:nonzero;stroke:none" transform="matrix(0.13333333,0,0,-0.13333333,0,3200)"/>
    <path id="path76" d="m 2313.13,3067.8 c -21.43,-18.4 -45.85,-36 -69.63,-50.4 -23.91,-14.7 -46.44,-25.9 -66.77,-36.6 -40.01,-21.1 -71.88,-34.8 -97.46,-54.8 -25.22,-20 -46.56,-45.9 -55.69,-86.2 -10.5,-45.6 5.17,-73.6 47.3,-77.6 41.19,-4.1 107.47,18 173.47,71.6 31.26,25.2 61.88,59.9 84.49,96.3 23.03,36.3 38.6,74.1 47.31,106.5 8.98,32.6 11.15,59.8 11.29,78.2 0.09,18.5 -1.55,28.8 -1.55,28.8 0,0 -7.35,-9.6 -20.21,-24 -12.81,-14.5 -31.01,-33.5 -52.55,-51.8" style="fill:#100f0d;fill-opacity:1;fill-rule:nonzero;stroke:none" transform="matrix(0.13333333,0,0,-0.13333333,0,3200)"/>
    <path id="path77" d="m 3514.96,8344.8 c 119.83,-132.9 225.09,-190.4 231.68,-199.6 -6.44,8.3 -89.13,97.4 -155.39,249.5 -67.84,150.2 -109.19,363.9 -78.8,558.4 28,194.7 122.88,363.4 212.95,465.8 90.02,104.2 167.04,150.3 173.57,157.8 13.94,14.5 4.27,50.4 -19.72,99.3 -24.52,49 -63.96,111.6 -115.97,173.1 -52.01,61.5 -108.08,109.2 -159.5,134 -51.49,25.3 -97.41,26.9 -121.79,1.7 -11.19,-12.1 -109.86,-132 -186.93,-326.8 -78.96,-192.6 -122.92,-464.1 -74.11,-716.6 46.03,-252.7 174.22,-465.8 294.01,-596.6" style="fill:#100f0d;fill-opacity:1;fill-rule:nonzero;stroke:none" transform="matrix(0.13333333,0,0,-0.13333333,0,3200)"/>
    <path id="path78" d="m 3764.87,8472.9 c 32.97,-143.7 85.34,-227.4 86.41,-236.7 -1.3,8.6 -24.77,105.9 -11.47,242 11.17,135.4 66.82,306 165.87,434.8 97.02,129.7 230.13,202.2 338.36,234.4 108.19,33.2 187.48,35.2 195.93,38 32.75,9.5 41.4,119.8 17.36,251 -23.76,129.9 -88.07,228.4 -142.87,213.1 -12.38,-4.1 -126.89,-45.2 -266.44,-146.9 -69.35,-50.6 -143.55,-118.2 -207.66,-201.3 -64.88,-81.7 -117.21,-182.1 -149.92,-281.3 -66.61,-200.4 -59.58,-405 -25.57,-547.1" style="fill:#100f0d;fill-opacity:1;fill-rule:nonzero;stroke:none" transform="matrix(0.13333333,0,0,-0.13333333,0,3200)"/>
    <path id="path79" d="m 9067.29,9452.6 c -87.92,-86.1 -226.88,-189.7 -404.47,-268.1 -176.74,-80.1 -389.91,-130.7 -608.72,-156.8 -218.67,-26 -441.68,-28.2 -644.22,-24.2 -25.18,0.5 -49.4,1.2 -74.15,1.8 136.94,99.6 222.6,213.1 262.62,301.6 47.24,107.5 39.32,173.9 8.54,186.1 -60.27,26.5 -152.14,-172.6 -472.17,-319.6 -79.56,-36.2 -170.33,-67.3 -274.9,-89.2 -104.99,-21.9 -222.32,-35.4 -351.69,-40.8 -129.41,-5.5 -270.57,-3.1 -423.58,-0.3 -153.24,1.9 -314.66,4 -483.53,6.1 -172.23,1.3 -350.09,1.1 -529.5,-0.3 -89.92,-1.1 -178.41,-0.7 -273.56,-4.3 -94.6,-4.4 -193.4,-13.8 -292.76,-41.8 -99.18,-28.6 -197.91,-78 -275.32,-156.6 -76.97,-79 -122.44,-177.5 -141.22,-275.6 -18.13,-98.4 -11.61,-198.2 20.25,-288 30,-90.1 89.28,-168.4 158.31,-221.7 69.37,-53.7 150.76,-85.9 231.66,-93 80.94,-7.4 160.97,14.7 220.28,53.6 60.24,38.5 104.27,92.2 128.19,149.2 23.48,57.1 26.15,117.7 11.91,166 -27.49,98 -94.42,150.7 -141.06,171 -19.97,8.7 -35.72,12.5 -48.43,14.7 -5.36,0.9 -9.84,1.4 -13.83,1.8 -5.5,0.9 -10.84,2.2 -16.58,2.2 -69.98,-0.1 -126.61,-57 -126.48,-126.9 0.14,-70 56.98,-126.6 126.96,-126.5 69.99,0.1 126.62,57 126.48,126.9 -0.07,33.6 -13.4,63.9 -34.74,86.5 40.29,-30.6 85.4,-88.7 93.15,-169.8 3.7,-44.6 -7.25,-93.8 -36.48,-137.1 -28.62,-43.2 -73.53,-80.2 -127.43,-101.2 -106.48,-45.6 -249.05,-3.8 -336.44,98.3 -88.35,98.7 -110.84,256.8 -58.47,389.2 25.79,65.9 68.89,122.9 123.93,160.3 57.16,39.5 126.95,61.8 202.85,73.3 151.86,21.9 327.97,1.2 501.6,-5.6 172.62,-7.9 341.21,-15.7 501.13,-23 168.47,-5.8 329.59,-11.4 482.58,-16.8 78.14,-2.4 155.14,-4.2 230.8,-4.5 18.26,-1.3 36.95,-2.6 56.55,-3.8 124,-7.6 274.73,-13.5 450.09,-18.4 175.52,-4.5 374.89,-8.1 597.48,-2.2 228.29,6.6 474.6,33.9 708.01,94.1 232.74,58.6 453.56,152.2 622.69,268.8 170.85,114.5 289,246.8 358.2,346.9 34.23,50.7 58.07,92.6 72.96,121.9 14.45,29.5 22.27,45.4 22.27,45.4 0,0 -11.37,-14.8 -32.26,-41.9 -21.24,-26.8 -53.73,-64.4 -97.5,-107.7" style="fill:#100f0d;fill-opacity:1;fill-rule:nonzero;stroke:none" transform="matrix(0.13333333,0,0,-0.13333333,0,3200)"/>
    <path id="path80" d="m 7679.5,9096.7 c 18.4,1.5 45.39,5.6 77.19,16.9 31.75,11 68.33,29.2 102.89,54.8 34.65,25.2 67.02,58.2 89.9,91.2 48.74,69.7 66.06,137.4 58.98,178.2 -6.98,41.7 -36.06,55.3 -80.8,41.6 -39.54,-12 -63.85,-35.2 -81.95,-61.8 -18.12,-26.9 -29.5,-59.7 -47.68,-101.1 -9.22,-21.1 -18.75,-44.3 -31.65,-69.2 -12.7,-24.8 -28.51,-50.4 -45.34,-73.1 -16.69,-22.8 -34.35,-42.3 -47.82,-56.2 -13.49,-13.8 -22.5,-21.8 -22.5,-21.8 0,0 10.32,-0.9 28.78,0.5" style="fill:#100f0d;fill-opacity:1;fill-rule:nonzero;stroke:none" transform="matrix(0.13333333,0,0,-0.13333333,0,3200)"/>
    <path id="path81" d="m 8132.45,9157.5 c 32.47,8.6 70.3,24.1 106.65,47.1 36.41,22.5 71.12,53.1 96.37,84.3 53.75,65.9 76.02,132.1 71.97,173.3 -3.89,42.2 -31.89,57.9 -77.52,47.5 -40.31,-9.1 -66.26,-30.4 -86.28,-55.6 -20.05,-25.5 -33.82,-57.4 -55,-97.3 -10.75,-20.3 -21.97,-42.9 -36.68,-66.7 -14.49,-23.8 -32.14,-48.2 -50.6,-69.6 -18.32,-21.5 -37.37,-39.6 -51.83,-52.4 -14.48,-12.9 -24.04,-20.2 -24.04,-20.2 0,0 10.22,-1.6 28.72,-1.6 18.46,0.1 45.69,2.2 78.24,11.2" style="fill:#100f0d;fill-opacity:1;fill-rule:nonzero;stroke:none" transform="matrix(0.13333333,0,0,-0.13333333,0,3200)"/>
    <path id="path82" d="m 8561.8,9246.2 c 32.42,8.8 70.16,24.5 106.38,47.7 36.28,22.7 70.82,53.5 95.9,84.8 53.36,66.2 75.26,132.6 70.96,173.8 -4.12,42.1 -32.21,57.6 -77.79,47 -40.26,-9.3 -66.08,-30.8 -85.95,-56.1 -19.91,-25.6 -33.5,-57.5 -54.45,-97.6 -10.63,-20.4 -21.73,-43 -36.29,-66.9 -14.36,-23.9 -31.87,-48.4 -50.2,-69.9 -18.21,-21.6 -37.15,-39.8 -51.53,-52.7 -14.41,-12.9 -23.93,-20.3 -23.93,-20.3 0,0 10.23,-1.6 28.73,-1.4 18.45,0.2 45.67,2.4 78.17,11.6" style="fill:#100f0d;fill-opacity:1;fill-rule:nonzero;stroke:none" transform="matrix(0.13333333,0,0,-0.13333333,0,3200)"/>
  </g>
</svg>
