<?xml version='1.0' encoding='utf-8'?>
<svg xmlns="http://www.w3.org/2000/svg" version="1.1" id="corner-01" viewBox="188.0002 294.6722 1064.0001 1063.9928" width="1064.0001" height="1063.9928">
  <desc>Extracted decorative corner ornament 1, transparent background.</desc>
  <g id="corner-01-paths">
    <path id="path51" d="m 2221.74,19137.9 c 123.82,-102.5 260.46,-163.3 390.47,-208.5 130.27,-44.4 259.13,-74.5 382.79,-92.7 247.61,-37 472.67,-27 656.27,0.6 183.97,28.7 327.07,73.7 423.23,109.6 63.16,23.3 104.55,41.3 127.07,51.5 h -0.01 c 10.23,22.6 28.23,63.9 51.55,127.1 35.86,96.2 80.87,239.3 109.57,423.2 27.66,183.6 37.66,408.7 0.64,656.3 -18.24,123.7 -48.28,252.5 -92.73,382.8 -45.14,130 -106,266.6 -208.53,390.5 -196.97,254.9 -590.03,347.4 -863.04,179.5 -132.91,-77.5 -232.8,-201.3 -273.85,-341.8 -40.45,-140.1 -23.04,-278.2 28.59,-389.1 50.74,-111.5 142.07,-194.9 230.31,-233.6 88.35,-39.8 171.89,-46.5 236.6,-36.3 132.63,22.2 177.38,93.6 158.41,126.1 -19.03,38.2 -77.48,38.1 -154,62.6 -76.86,24.2 -177.27,75 -217.11,190.5 -44.77,116.8 -14.95,282.1 137.77,378.3 140.15,95.7 384.43,76.5 545.01,-91.7 168.24,-172.1 263.63,-429.2 324.41,-649.9 59.46,-226 75.73,-439.9 70.72,-618.9 -5.76,-179.4 -31.18,-324.2 -53.67,-422.9 -14.26,-63.7 -26.08,-106.2 -33.12,-130.2 -23.96,-7 -66.53,-18.8 -130.16,-33.1 -98.7,-22.5 -243.56,-47.9 -422.91,-53.7 -179.04,-5 -392.93,11.3 -618.92,70.7 -220.67,60.8 -477.81,156.2 -649.92,324.5 -168.22,160.5 -187.41,404.8 -91.72,545 96.23,152.7 261.54,182.5 378.35,137.7 115.5,-39.8 166.32,-140.2 190.49,-217.1 24.48,-76.5 24.44,-135 62.58,-154 32.48,-19 103.96,25.8 126.15,158.4 10.15,64.7 3.49,148.3 -36.31,236.6 -38.68,88.3 -122.15,179.6 -233.59,230.3 -110.89,51.7 -249.05,69.1 -389.15,28.6 -140.44,-41 -264.23,-140.9 -341.81,-273.8 -167.91,-273 -75.35,-666.1 179.57,-863.1" style="fill:#100f0d;fill-opacity:1;fill-rule:nonzero;stroke:none" transform="matrix(0.13333333,0,0,-0.13333333,0,3200)"/>
    <path id="path52" d="m 2785.03,20415 0.02,-0.1 c -223.17,480.1 -92.25,789.7 -92.25,789.7 h -697.44 v -697.4 c 0,0 309.64,130.9 789.67,-92.2" style="fill:#100f0d;fill-opacity:1;fill-rule:nonzero;stroke:none" transform="matrix(0.13333333,0,0,-0.13333333,0,3200)"/>
    <path id="path53" d="m 2368.08,14055 c 216.24,94.2 359.99,304.3 422.2,523.4 64.34,223.8 53.1,453.7 35.52,671.4 -17.81,220.5 -47.67,444.1 -76.19,670 -59.99,457.7 -95.2,891.2 -36.43,1279.3 54.85,387.1 204.21,718.6 403.7,939.1 196.01,225.1 420.26,340.7 579.76,390.9 80.58,24.7 145.62,36.5 189.9,42 44.51,4.6 67.92,7 67.92,7 0,0 -23.45,-0.4 -68.1,-1.3 -44.67,-1.8 -110.69,-8.2 -194.39,-26.5 -165.29,-38 -405.78,-137 -628.84,-357 -226.93,-214.7 -413.38,-558.2 -498.55,-963.9 -89.8,-406 -80.25,-866.4 -45.19,-1332.1 16.1,-229 34.57,-450.8 42.91,-663.4 9.32,-213.4 7.62,-411.1 -44.13,-573.8 -50.24,-162.8 -150.99,-290.9 -267.91,-340.9 -121.32,-54.8 -245.62,-37.4 -312.13,26 -75.8,67.9 -96.23,162.6 -71.66,224.5 25.4,69.6 87.63,114.4 140.1,125.1 119.36,23.7 196.16,-43.9 228.91,-18.8 16.09,10.6 19.64,45.1 -13.07,92.5 -31.91,45.8 -103.44,105.5 -221.1,115 -118.1,10.1 -272.3,-54.8 -354.76,-207.9 -88.39,-157.9 -48.69,-387.3 100.28,-530.3 152.88,-158.3 417.63,-185.4 621.25,-90.3" style="fill:#100f0d;fill-opacity:1;fill-rule:nonzero;stroke:none" transform="matrix(0.13333333,0,0,-0.13333333,0,3200)"/>
    <path id="path54" d="m 2497.53,18471.3 c 217.91,-12.4 400.86,27 537.13,61 -41.13,-16.3 -85.16,-35.2 -133.09,-59.3 -231.86,-113.8 -526.46,-349.2 -739.36,-702.4 -208.38,-345 -292.43,-714.6 -306.11,-977.2 -13.59,-265.3 34.36,-428.6 114.58,-428 83.6,0.2 119.6,156.7 160.44,397.3 41.36,240.2 92.58,569.3 236.2,901 144.93,335.7 374.96,597 573.84,743.4 99.02,74.2 187.68,124.8 251.22,155 39.08,18.8 66.47,30.9 82.94,37.9 10.93,3.5 17.25,5.6 17.25,5.6 0,0 -3.16,0.1 -3.74,0.2 1.36,0.5 3.71,1.5 3.71,1.5 0,0 -2.41,-0.4 -7.1,-1.4 -17.19,0.9 -98.94,5.1 -222.47,11.5 -140.39,8.7 -335.58,22.8 -525.66,81.8 -184.81,58 -323.96,149.5 -417.73,216.2 -94.77,65.5 -161.14,114.6 -236.12,76.7 -71.59,-34.3 -65.8,-155.2 50.4,-281.8 113.4,-126.1 329.64,-225.8 563.67,-239" style="fill:#100f0d;fill-opacity:1;fill-rule:nonzero;stroke:none" transform="matrix(0.13333333,0,0,-0.13333333,0,3200)"/>
    <path id="path55" d="m 1886.03,17947.7 c 100.72,-65.3 172.01,48.4 298.9,175.2 127.41,131.5 278.27,206.4 278.27,206.4 0,0 -40.74,4.1 -108.39,-1.2 -67.43,-5.1 -162.26,-22.9 -261.88,-66.1 -199.25,-85.1 -307.26,-252.3 -206.9,-314.3" style="fill:#100f0d;fill-opacity:1;fill-rule:nonzero;stroke:none" transform="matrix(0.13333333,0,0,-0.13333333,0,3200)"/>
    <path id="path56" d="m 3918.01,19282 h 0.01 c -176.31,295.8 -251.02,625.5 -251.02,625.5 -101.06,-32 -352.87,56.1 -479.52,105 h 0.01 c 48.95,-126.6 137,-378.4 105.05,-479.5 0,0 329.71,-74.7 625.47,-251" style="fill:#100f0d;fill-opacity:1;fill-rule:nonzero;stroke:none" transform="matrix(0.13333333,0,0,-0.13333333,0,3200)"/>
    <path id="path57" d="m 8524.44,21553.4 c -153.14,-82.4 -218,-236.6 -207.92,-354.7 9.46,-117.7 69.21,-189.2 114.97,-221.1 47.46,-32.7 81.95,-29.2 92.48,-13.1 25.09,32.8 -42.47,109.6 -18.73,228.9 10.67,52.5 55.46,114.7 125.1,140.1 61.87,24.6 156.55,4.2 224.46,-71.6 63.38,-66.5 80.83,-190.8 26.05,-312.2 -50.08,-116.9 -178.17,-217.6 -340.97,-267.9 -162.69,-51.7 -360.39,-53.4 -573.76,-44.1 -212.63,8.3 -434.41,26.8 -663.38,42.9 -465.69,35.1 -926.14,44.6 -1332.17,-45.2 -405.7,-85.1 -749.12,-271.6 -963.84,-498.5 -220.05,-223.1 -319,-463.6 -356.99,-628.9 -18.36,-83.7 -24.76,-149.7 -26.55,-194.4 -0.85,-44.6 -1.29,-68.1 -1.29,-68.1 0,0 2.41,23.4 6.99,68 5.51,44.3 17.28,109.3 42.01,189.9 50.26,159.5 165.8,383.7 390.93,579.7 220.48,199.5 551.97,348.9 939.08,403.7 388.12,58.8 821.57,23.6 1279.33,-36.4 225.86,-28.5 449.48,-58.4 669.92,-76.2 217.72,-17.6 447.69,-28.8 671.45,35.5 219.1,62.2 429.15,206 523.36,422.2 95.15,203.6 68.07,468.4 -90.22,621.3 -143.06,148.9 -372.46,188.6 -530.31,100.2" style="fill:#100f0d;fill-opacity:1;fill-rule:nonzero;stroke:none" transform="matrix(0.13333333,0,0,-0.13333333,0,3200)"/>
    <path id="path58" d="m 4500.83,20662.7 c 58.97,-190.1 73.05,-385.3 81.8,-525.6 6.33,-123.6 10.54,-205.3 11.42,-222.5 -0.92,-4.7 -1.35,-7.1 -1.35,-7.1 0,0 0.97,2.3 1.53,3.7 0.03,-0.6 0.18,-3.8 0.18,-3.8 0,0 2.07,6.4 5.55,17.3 7.04,16.5 19.12,43.8 37.92,82.9 30.19,63.6 80.81,152.2 155.07,251.2 146.36,198.9 407.65,429 743.38,573.9 331.64,143.6 660.78,194.8 900.96,236.2 240.59,40.8 397.07,76.8 397.31,160.4 0.57,80.2 -162.71,128.2 -427.96,114.6 -262.66,-13.7 -632.26,-97.7 -977.26,-306.1 -353.13,-212.9 -588.59,-507.5 -702.38,-739.4 -24.05,-47.9 -43,-91.9 -59.26,-133.1 33.99,136.3 73.34,319.3 60.97,537.2 -13.24,234 -112.93,450.2 -239.02,563.6 -126.6,116.2 -247.53,122 -281.75,50.4 -37.94,-74.9 11.15,-141.3 76.61,-236.1 66.8,-93.7 158.31,-232.9 216.28,-417.7" style="fill:#100f0d;fill-opacity:1;fill-rule:nonzero;stroke:none" transform="matrix(0.13333333,0,0,-0.13333333,0,3200)"/>
    <path id="path59" d="m 5077.12,21015.1 c 126.81,126.9 240.49,198.2 175.18,298.9 -62.02,100.3 -229.24,-7.7 -314.32,-206.9 -43.22,-99.7 -60.94,-194.5 -66.1,-261.9 -5.24,-67.7 -1.16,-108.4 -1.16,-108.4 0,0 74.83,150.9 206.4,278.3" style="fill:#100f0d;fill-opacity:1;fill-rule:nonzero;stroke:none" transform="matrix(0.13333333,0,0,-0.13333333,0,3200)"/>
  </g>
</svg>
