<?xml version='1.0' encoding='utf-8'?>
<svg xmlns="http://www.w3.org/2000/svg" version="1.1" id="corner-07" viewBox="2783.4903 1841.3363 1063.9962 1063.9988" width="1063.9962" height="1063.9988">
  <desc>Extracted decorative corner ornament 7, transparent background.</desc>
  <g id="corner-07-paths">
    <path id="path35" d="m 22083.7,7940.4 c 0,0 749.9,192.9 1163.4,-121.4 -314.3,413.6 -121.3,1163.5 -121.3,1163.5 -76.2,-336.9 -443.2,-396.4 -638.2,-403.9 v 0 c -7.5,-195 -67,-562 -403.9,-638.2" style="fill:#100f0d;fill-opacity:1;fill-rule:nonzero;stroke:none" transform="matrix(0.13333333,0,0,-0.13333333,0,3200)"/>
    <path id="path36" d="m 22286,7086.4 c 169,97.9 338.1,162.9 464.6,199 126.6,36.3 208.6,49.6 208.6,49.6 0,0 -81.8,7.5 -216.5,-0.9 -134.3,-8.1 -321.9,-38.5 -520.2,-113.4 -194,-73.7 -358.3,-180.4 -457.4,-279.2 -100,-98.7 -137,-183 -98.7,-217.4 81.2,-71.5 283.8,170.5 619.6,362.3" style="fill:#100f0d;fill-opacity:1;fill-rule:nonzero;stroke:none" transform="matrix(0.13333333,0,0,-0.13333333,0,3200)"/>
    <path id="path37" d="m 21749.2,2773.8 c 97.4,0 176.4,79 176.4,176.4 0,61.2 -31.2,115.1 -78.6,146.8 -7.9,6.9 -21.2,13.7 -40.8,19.4 -7.7,2.3 -15,4.6 -24.5,6.3 -4.9,0.8 -11.6,0.7 -17.2,1.2 -5.2,0.6 -9.9,2.8 -15.3,2.8 -3.3,0 -6.3,-0.8 -9.5,-1 -53.9,-0.5 -126.7,-18 -192.8,-81.2 -77.7,-74.2 -144.5,-220.1 -94.7,-381.5 24.4,-78.2 77.5,-156 159.1,-208 81.7,-51.9 191.8,-68.2 291.5,-44.1 205.4,45.3 353.8,226 429.2,421 78.1,199.7 90.7,427.7 56.7,652.7 -33.4,225.3 -112,448.3 -209.1,665.3 -97.4,217.5 -213.4,429.2 -312.2,650.3 -100.5,223.8 -177.1,450.7 -193.3,676.4 -15.8,225.2 22.6,447.7 94.8,645 145,399.2 424.4,689.2 693.2,866.1 15.4,10.4 30.6,19.2 45.9,28.9 -178.4,-139.5 -352.3,-340.3 -440.3,-614.6 -54.4,-169.9 -71.6,-363.7 -33.2,-558.6 39.3,-191.3 132.1,-395.9 321.3,-525.5 184.5,-123.7 425.3,-139.8 619.7,-55.3 195.2,80.7 341,260 382.2,454 43.6,190.1 -0.4,408.7 -159.3,535.2 -152.9,119.3 -356.3,126.1 -501,40.9 -71,-41.6 -127.2,-102.9 -158.4,-174.9 -32.2,-73.1 -32.7,-152.6 -11.7,-218.6 20.7,-67.1 67.4,-123 122,-152.5 54.7,-31.4 115.4,-34.9 162.9,-23.9 98.4,22.8 143.6,96.3 153.1,140.9 9.9,47.2 -3.5,70.5 -15.1,71.4 -14,1.8 -25.7,-17.8 -47.7,-41.5 -21.5,-23 -58.3,-51 -108.4,-50.9 -48.2,-1.3 -101.7,31.8 -115.9,99.1 -16.1,67.4 19.7,149.5 107,196.4 80.5,45.5 209.2,39.4 297.7,-31.9 86.4,-64.9 127,-211.3 96.6,-350.4 -27.9,-140.8 -127.4,-271.8 -272.5,-338.3 -141.8,-67.7 -326.7,-62.9 -470.7,25.2 -146.5,89.6 -239.5,258 -281.3,425.8 -42.1,169.6 -36.2,345.7 5.5,503.7 83.4,319.9 303.1,554.4 509.5,698 129,89.3 254.9,147.9 365.4,187.4 46.7,14.4 90.6,26.6 130,36.7 88.9,21.3 159,34 206.6,41.4 47.8,7 72.9,10.6 72.9,10.6 0,0 -22.3,-2.1 -63.1,-6 40.2,5.1 62.1,6 62.1,6 0,0 -80,2.2 -223.2,-20.2 -80.2,-13.3 -182,-36.5 -295.5,-78.2 -144.2,-44.2 -311.3,-110.7 -486.9,-216.9 -282.4,-168.1 -588,-455 -758.8,-871 -84.9,-206.1 -136.4,-440.5 -128.5,-687.8 8.4,-247.8 83.2,-494.7 179.7,-730.4 94.8,-232 204.9,-447.7 293.3,-659.3 88.5,-211.5 156.8,-420.9 184.2,-624 27.9,-201.6 13.5,-398 -49.2,-559.2 -61.4,-161.2 -173.8,-287.1 -297.8,-315.8 -60.1,-15.7 -116.8,-9 -163,16.3 -45.7,26.2 -79.8,68.6 -97.8,114.2 -21.2,52.9 -19.4,106.4 -6.8,154.5 29.6,-56.1 87.7,-94.8 155.6,-94.8" style="fill:#100f0d;fill-opacity:1;fill-rule:nonzero;stroke:none" transform="matrix(0.13333333,0,0,-0.13333333,0,3200)"/>
    <path id="path38" d="m 23450.3,9495.9 c -88.8,164.2 -226.9,318.8 -411,412.5 -178.7,92.7 -396.2,121.7 -588.2,55.9 -189.1,-62.2 -348.9,-205.8 -414.4,-390.1 -64.4,-186.1 -27.9,-382.7 73.2,-525.9 51.6,-71.2 118.9,-129.3 197.4,-163.7 77.7,-33.7 158.3,-44.5 232.7,-39.3 148.9,11.4 277.2,85.1 348.7,185.4 72,97.9 89.9,219.2 46.4,308.8 -48.8,93.4 -135,109.1 -181.2,99.2 -50,-11.5 -61.1,-40.6 -53.8,-49.5 7.5,-11.5 28.3,-9.6 53.5,-20 24.1,-8.6 61.8,-35.6 69,-75 10,-41 -5.5,-110.3 -57.5,-167.1 -49,-56.7 -135.4,-100.6 -235.2,-104.4 -100.5,-3.7 -201.7,37 -268.6,133.1 -66.7,93.3 -93.8,234.9 -52.3,358.5 41,124.9 154.4,237.9 298.1,290 141.7,54.4 313.8,41.4 467.2,-29.5 157.5,-71.4 282.9,-197.9 370,-341.4 85.7,-145.1 137.7,-305.3 166.8,-462 59.9,-314.5 40.2,-610.1 39.1,-856.7 -4.8,-247.1 6,-448.2 27.3,-584.7 2.8,-18.8 5.6,-33.4 8.5,-49.8 -16.4,2.9 -31,5.6 -49.8,8.5 -136.5,21.3 -337.6,32.1 -584.8,27.3 -246.6,-1.1 -542.1,-20.8 -856.7,39.1 -156.6,29.1 -316.8,81.1 -462,166.8 -143.4,87 -269.9,212.5 -341.4,370 -70.8,153.4 -83.8,325.5 -29.4,467.2 52.1,143.7 165,257.1 290,298.1 123.5,41.5 265.1,14.4 358.5,-52.3 96.1,-67 136.7,-168.1 133.1,-268.6 -3.9,-99.8 -47.8,-186.2 -104.5,-235.3 -56.7,-52 -126.1,-67.5 -167.1,-57.5 -39.4,7.3 -66.3,45 -74.9,69.1 -10.4,25.2 -8.6,46 -20,53.5 -9,7.3 -38.1,-3.9 -49.5,-53.8 -9.9,-46.2 5.8,-132.4 99.2,-181.2 89.6,-43.5 210.9,-25.7 308.7,46.3 100.4,71.6 174.1,199.8 185.5,348.8 5.2,74.4 -5.6,154.9 -39.3,232.7 -34.4,78.5 -92.5,145.7 -163.7,197.4 -143.2,101.1 -339.8,137.6 -525.9,73.2 -184.4,-65.5 -327.9,-225.3 -390.1,-414.5 -65.9,-192 -36.8,-409.4 55.9,-588.1 93.7,-184.2 248.3,-322.2 412.5,-411 166.1,-88 340.5,-134.2 506,-156.4 332.9,-45.6 629.7,-8.2 874.9,7.1 245.9,19.1 445.2,20.9 582.6,8.4 23.3,-2 44.1,-4.2 63.8,-6.4 -2.2,19.7 -4.4,40.5 -6.4,63.8 -12.5,137.4 -10.7,336.7 8.4,582.6 15.3,245.2 52.7,542 7.1,874.9 -22.3,165.5 -68.4,339.9 -156.4,506" style="fill:#100f0d;fill-opacity:1;fill-rule:nonzero;stroke:none" transform="matrix(0.13333333,0,0,-0.13333333,0,3200)"/>
    <path id="path39" d="m 28403.2,9614 c -161.4,49.8 -307.3,-17 -381.5,-94.8 -63.2,-66 -80.7,-138.8 -81.2,-192.7 -0.2,-3.2 -1,-6.2 -1,-9.5 0,-5.4 2.2,-10.1 2.8,-15.4 0.5,-5.6 0.4,-12.3 1.2,-17.1 1.7,-9.6 4,-17 6.3,-24.6 5.7,-19.5 12.5,-32.9 19.4,-40.7 31.6,-47.4 85.5,-78.6 146.8,-78.6 97.4,0 176.4,79 176.4,176.4 0,67.8 -38.7,126 -94.8,155.6 48,12.6 101.5,14.4 154.5,-6.8 45.6,-18 88,-52.2 114.2,-97.8 25.2,-46.2 32,-102.9 16.3,-163 -28.7,-124 -154.6,-236.4 -315.8,-297.9 -161.2,-62.6 -357.6,-77.1 -559.2,-49.1 -203.2,27.4 -412.6,95.6 -624,184.2 -211.7,88.4 -427.3,198.5 -659.4,293.3 -235.7,96.5 -482.5,171.3 -730.3,179.6 -247.3,7.9 -481.7,-43.5 -687.9,-128.5 -415.9,-170.8 -702.8,-476.4 -870.9,-758.7 -106.2,-175.7 -172.8,-342.8 -216.9,-487.1 -41.7,-113.4 -64.9,-215.2 -78.2,-295.3 -22.4,-143.3 -20.2,-223.3 -20.2,-223.3 0,0 0.9,21.9 5.9,62.1 -3.8,-40.8 -5.9,-63 -5.9,-63 0,0 3.6,25.1 10.5,72.9 7.4,47.6 20.1,117.7 41.5,206.6 10.1,39.3 22.3,83.3 36.7,130 39.5,110.5 98.1,236.4 187.3,365.4 143.6,206.4 378.1,426 698.1,509.5 157.9,41.7 334.1,47.6 503.7,5.5 167.8,-41.8 336.2,-134.8 425.8,-281.3 88.1,-144.1 92.9,-329 25.2,-470.7 -66.5,-145.2 -197.6,-244.6 -338.3,-272.5 -139.2,-30.4 -285.5,10.2 -350.5,96.6 -71.2,88.5 -77.4,217.1 -31.9,297.7 47,87.3 129.1,123.1 196.5,107 67.2,-14.2 100.4,-67.7 99.1,-115.9 0.1,-50.1 -27.9,-86.9 -50.9,-108.5 -23.7,-21.9 -43.3,-33.6 -41.6,-47.6 1,-11.7 24.3,-25 71.5,-15.1 44.6,9.4 118,54.6 140.9,153 11,47.6 7.4,108.3 -24,162.9 -29.5,54.7 -85.4,101.4 -152.4,122 -66,21.1 -145.6,20.5 -218.6,-11.6 -72.1,-31.2 -133.3,-87.4 -174.9,-158.4 -85.3,-144.7 -78.4,-348.1 40.9,-501 126.4,-158.9 345.1,-202.9 535.2,-159.3 194,41.2 373.3,186.9 454,382.2 84.4,194.3 68.4,435.2 -55.3,619.6 -129.6,189.3 -334.2,282.1 -525.6,321.4 -194.8,38.4 -388.6,21.2 -558.5,-33.3 -274.3,-87.9 -475.1,-261.8 -614.6,-440.2 9.7,15.3 18.5,30.4 28.8,45.8 177,268.8 466.9,548.2 866.2,693.3 197.3,72.2 419.8,110.6 645,94.7 225.6,-16.1 452.5,-92.8 676.4,-193.2 221.1,-98.8 432.8,-214.8 650.3,-312.2 217,-97.1 439.9,-175.7 665.3,-209.2 225,-33.9 453,-21.3 652.7,56.8 195,75.4 375.6,223.8 421,429.1 24,99.7 7.7,209.9 -44.1,291.5 -52.1,81.7 -129.8,134.8 -208,159.2" style="fill:#100f0d;fill-opacity:1;fill-rule:nonzero;stroke:none" transform="matrix(0.13333333,0,0,-0.13333333,0,3200)"/>
    <path id="path40" d="m 23780.8,8315.5 c 36,126.6 101.1,295.6 199,464.7 191.8,335.8 433.8,538.4 362.2,619.6 -34.3,38.3 -118.6,1.3 -217.4,-98.7 -98.7,-99.1 -205.4,-263.4 -279.2,-457.4 -74.8,-198.3 -105.2,-385.9 -113.3,-520.3 -8.4,-134.6 -0.9,-216.5 -0.9,-216.5 0,0 13.3,82.1 49.6,208.6" style="fill:#100f0d;fill-opacity:1;fill-rule:nonzero;stroke:none" transform="matrix(0.13333333,0,0,-0.13333333,0,3200)"/>
  </g>
</svg>
