<?xml version='1.0' encoding='utf-8'?>
<svg xmlns="http://www.w3.org/2000/svg" version="1.1" id="corner-02" viewBox="1485.7834 294.6637 1063.9906 1064.0028" width="1063.9906" height="1064.0028">
  <desc>Extracted decorative corner ornament 2, transparent background.</desc>
  <g id="corner-02-paths">
    <path id="path44" d="m 11403.3,19578.8 c 42,-79.7 92.5,-145.5 137.7,-188.8 45.4,-43 85.7,-63.8 113.5,-51.6 14,6 123.1,82.2 302.8,157.5 178.4,75.5 434,140.7 701.6,129.2 267.4,-8.1 539.4,-93.8 731.9,-194.2 157.6,-80 265.2,-161.9 306.3,-194.6 -32.8,41 -114.6,148.6 -194.7,306.2 -100.4,192.6 -186,464.5 -194.1,731.9 -11.6,267.6 53.7,523.2 129.2,701.7 75.2,179.7 151.4,288.7 157.5,302.7 12.2,27.8 -8.7,68.2 -51.6,113.5 -43.3,45.3 -109.2,95.8 -188.8,137.7 -79.7,42 -158.6,66.4 -223,69.6 -64.6,3.5 -114.1,-14.7 -130.9,-52.6 -7.9,-18.3 -68.3,-189.7 -98.2,-442.9 -31.3,-252 -17,-587.8 85.6,-891.2 19.7,-60.4 43,-118.5 68,-174.9 -451.9,584.1 -1004.8,1300.2 -1038.1,1333.5 -55.5,55.6 -202.5,-1.3 -329.3,-126.9 v 0 c -125.6,-126.8 -182.4,-273.7 -126.8,-329.3 33.2,-33.3 749.3,-586.1 1333.5,-1038 -56.5,24.9 -114.5,48.3 -175,67.9 -303.4,102.7 -639.2,116.9 -891.2,85.7 -253.2,-29.9 -424.5,-90.3 -442.8,-98.2 -38,-16.8 -56.1,-66.3 -52.6,-130.9 3.1,-64.5 27.5,-143.4 69.5,-223" style="fill:#100f0d;fill-opacity:1;fill-rule:nonzero;stroke:none" transform="matrix(0.13333333,0,0,-0.13333333,0,3200)"/>
    <path id="path45" d="m 14060.6,19036.1 c 88.8,0 161,-72.2 161,-161 0,-45 -18.7,-85.6 -48.5,-114.8 -29.3,-29.9 -69.9,-48.6 -114.9,-48.6 -88.8,0 -161,72.3 -161,161 0,45 18.7,85.7 48.5,114.9 29.3,29.9 69.9,48.5 114.9,48.5 z m -2.4,-404.8 c 67.2,0 128,27.6 171.8,72 44.4,43.8 72.1,104.6 72.1,171.8 0,133.2 -108.3,241.5 -241.5,241.5 -67.2,0 -128,-27.6 -171.8,-72 -44.4,-43.9 -72.1,-104.7 -72.1,-171.9 0,-133.1 108.3,-241.4 241.5,-241.4" style="fill:#100f0d;fill-opacity:1;fill-rule:nonzero;stroke:none" transform="matrix(0.13333333,0,0,-0.13333333,0,3200)"/>
    <path id="path46" d="m 13488.4,18745.1 c -105.3,139.7 -245.1,249.6 -397.3,321 -152.3,71.6 -317.7,108.5 -480.4,106.4 -163.2,-1.5 -321.5,-43.1 -459,-111.3 -137.2,-69.4 -256.7,-162.9 -350.2,-272.9 -94.1,-109.3 -163.5,-234.5 -204,-362.7 -40.9,-128 -54.9,-258.2 -45,-381.1 9.4,-123.2 45.2,-237.9 98.2,-336.9 54.3,-98.3 124.3,-176.8 198.1,-237 149.2,-120.3 312.6,-164.9 433.8,-166.6 124.1,-2.2 201,27.6 231.5,36.8 122.1,41.9 266.2,141.8 349.3,301.6 41.3,78.7 63.7,172.2 58.2,265.7 -5.5,92.4 -37.2,177.3 -81.3,246.4 -44.1,69.3 -100.7,123.8 -159.4,161.4 -58.7,37.9 -119.4,58 -170.6,66 -26.6,3.1 -50.1,3.2 -70.4,1.5 -169.3,-9.6 -306,-147.4 -310.8,-320 -5,-182.2 138.5,-333.9 320.7,-339 112.8,-3.1 213.8,50.9 275.7,135.6 -8.3,-40.3 -24.1,-79.8 -46.6,-115 -61.2,-97.5 -160.8,-161.2 -241.5,-188.3 -20.1,-6 -70.8,-25.7 -148.8,-24.9 -78.5,0.3 -190.3,28.3 -299.2,113.7 -53.6,42.8 -105,99.5 -144.5,169.2 -38,69.8 -66.5,154.8 -74.5,248.6 -17.6,187.6 40.1,410.2 191.9,588.4 74.4,89.8 171.4,167.2 282.3,225.1 111.7,56.8 237.5,91.4 369.1,94.3 263,7 548.8,-114 723.7,-341.2 176.1,-228.1 237.8,-549.3 192.8,-857.5 -41.8,-310.2 -195.7,-602.8 -396.1,-857.9 -201.2,-256.4 -445.5,-478.9 -690.9,-695.4 -244.7,-217.2 -490.9,-443.2 -658,-722.6 -82.3,-139.1 -143.7,-288.5 -175.8,-442.4 -32.7,-153.7 -32.1,-312.5 5.4,-459.4 18.5,-74.3 48.2,-144 85.7,-207.1 37.5,-63.2 81.2,-121.3 131.6,-171.4 50.5,-49.9 106.2,-92.8 165.6,-127.7 60,-33.9 123.9,-58.3 188.7,-73.5 261.1,-62.4 534,76.6 602.8,292.4 33.3,108.5 9.9,217.1 -40.7,296.3 -38.5,61.5 -96.3,105.3 -157.6,124.2 -24.4,8.9 -50.6,14.4 -78.2,15.1 -132.3,3.7 -242.4,-96.5 -245.9,-223.7 -3.6,-127.3 100.8,-233.4 233.1,-237.1 114.1,-3.1 211.4,70.9 238.5,172.8 4.5,-41.4 0.8,-84.6 -13.6,-125.5 -30.7,-85 -104.1,-159.1 -198.8,-201.6 -47.1,-21.6 -99.3,-35.7 -153.3,-40.2 -54.3,-2.7 -110.5,-0.5 -166,14.1 -222.5,54.3 -424.9,262.7 -485.9,518.9 -29.7,129.3 -27.8,270.3 4.7,408.2 31.8,138.2 90.6,274.2 169.2,401.1 158.7,254.5 396.6,467.5 644.4,679.4 249.1,212.4 505.1,437 721.7,704.3 107.8,133.9 205.6,278.3 283.1,434.6 78.8,154.9 134.5,325.9 161.2,498.2 26.2,173 26.5,350.2 -8.5,521.8 -32.2,171.8 -104.8,336.4 -208.2,476.8" style="fill:#100f0d;fill-opacity:1;fill-rule:nonzero;stroke:none" transform="matrix(0.13333333,0,0,-0.13333333,0,3200)"/>
    <path id="path47" d="m 14499.3,18535.1 c 55.7,0 101,-45.3 101,-101 0,-27.9 -11.3,-53.1 -29.7,-71.4 -18.2,-18.3 -43.5,-29.6 -71.4,-29.6 -55.7,0 -101,45.3 -101,101 0,27.8 11.4,53.1 29.7,71.4 18.3,18.3 43.5,29.6 71.4,29.6 z m -0.1,-282.5 c 50.1,0 95.5,20.3 128.3,53.2 32.9,32.9 53.3,78.3 53.3,128.3 0,100.1 -81.4,181.5 -181.5,181.5 -50.1,0 -95.5,-20.4 -128.3,-53.2 -32.9,-32.9 -53.3,-78.3 -53.3,-128.3 0,-100.1 81.5,-181.5 181.5,-181.5" style="fill:#100f0d;fill-opacity:1;fill-rule:nonzero;stroke:none" transform="matrix(0.13333333,0,0,-0.13333333,0,3200)"/>
    <path id="path48" d="m 12152.9,17005.4 c -94.7,16.1 -181.1,51.7 -256.3,101.5 l 162.7,-654 369,564 c -87.4,-22.3 -180.7,-27.5 -275.4,-11.5" style="fill:#100f0d;fill-opacity:1;fill-rule:nonzero;stroke:none" transform="matrix(0.13333333,0,0,-0.13333333,0,3200)"/>
    <path id="path49" d="m 18844.8,20935.6 c -34.8,59.4 -77.7,115.1 -127.7,165.6 -50.1,50.5 -108.2,94.2 -171.3,131.6 -63.2,37.6 -132.9,67.2 -207.1,85.8 -147,37.4 -305.8,38 -459.4,5.3 -154,-32 -303.3,-93.4 -442.4,-175.8 -279.5,-167.1 -505.5,-413.2 -722.6,-657.9 -216.6,-245.5 -439,-489.7 -695.5,-690.9 -255.1,-200.5 -547.6,-354.3 -857.9,-396.2 -308.2,-45 -629.4,16.7 -857.5,192.8 -227.2,174.9 -348.2,460.8 -341.1,723.7 2.9,131.6 37.5,257.5 94.2,369.2 57.9,110.8 135.3,207.8 225.2,282.2 178.1,151.9 400.8,209.6 588.3,191.9 93.9,-8 178.8,-36.5 248.6,-74.5 69.7,-39.5 126.4,-90.9 169.2,-144.5 85.4,-108.8 113.5,-220.6 113.7,-299.1 0.9,-78.1 -18.8,-128.8 -24.8,-148.9 -27.2,-80.7 -90.8,-180.3 -188.4,-241.5 -35.2,-22.5 -74.7,-38.2 -115,-46.6 84.8,61.9 138.7,163 135.6,275.8 -5,182.1 -156.8,325.7 -338.9,320.6 -172.7,-4.8 -310.4,-141.4 -320,-310.8 -1.8,-20.3 -1.7,-43.8 1.4,-70.4 8.1,-51.2 28.1,-111.8 66,-170.5 37.6,-58.7 92.1,-115.4 161.5,-159.5 69.1,-44 153.9,-75.8 246.3,-81.3 93.5,-5.5 187,17 265.7,58.2 159.8,83.1 259.7,227.2 301.6,349.3 9.2,30.5 39.1,107.5 36.8,231.5 -1.7,121.2 -46.3,284.6 -166.5,433.8 -60.3,73.9 -138.7,143.9 -237,198.2 -99,53 -213.7,88.7 -337,98.2 -122.9,9.9 -253.1,-4.2 -381.1,-45 -128.2,-40.6 -253.3,-110 -362.7,-204 -110,-93.5 -203.5,-213.1 -272.9,-350.3 -68.2,-137.5 -109.8,-295.8 -111.2,-458.9 -2.2,-162.8 34.7,-328.2 106.4,-480.5 71.4,-152.2 181.2,-292 320.9,-397.3 140.4,-103.3 305.1,-175.9 476.9,-208.1 171.6,-35.1 348.8,-34.8 521.7,-8.6 172.3,26.7 343.3,82.5 498.3,161.2 156.3,77.5 300.7,175.3 434.5,283.1 267.4,216.7 491.9,472.7 704.4,721.8 211.8,247.7 424.9,485.7 679.3,644.4 126.9,78.5 262.9,137.3 401.1,169.1 138,32.5 279,34.5 408.2,4.7 256.3,-60.9 464.6,-263.4 518.9,-485.9 14.6,-55.4 16.9,-111.6 14.2,-166 -4.6,-53.9 -18.6,-106.1 -40.2,-153.3 -42.6,-94.7 -116.7,-168.1 -201.7,-198.7 -40.9,-14.4 -84.1,-18.1 -125.5,-13.6 101.9,27 176,124.4 172.8,238.4 -3.7,132.3 -109.8,236.7 -237,233.2 -127.3,-3.5 -227.5,-113.7 -223.8,-246 0.8,-27.5 6.2,-53.8 15.1,-78.2 18.9,-61.2 62.7,-119.1 124.3,-157.6 79.1,-50.6 187.7,-74 296.2,-40.6 215.9,68.7 354.8,341.6 292.4,602.8 -15.1,64.8 -39.6,128.7 -73.5,188.6" style="fill:#100f0d;fill-opacity:1;fill-rule:nonzero;stroke:none" transform="matrix(0.13333333,0,0,-0.13333333,0,3200)"/>
    <path id="path50" d="m 15916.4,20505 564.1,369 -654.1,162.7 c 49.8,-75.2 85.5,-161.5 101.5,-256.3 16,-94.6 10.8,-187.9 -11.5,-275.4" style="fill:#100f0d;fill-opacity:1;fill-rule:nonzero;stroke:none" transform="matrix(0.13333333,0,0,-0.13333333,0,3200)"/>
  </g>
</svg>
