<?xml version='1.0' encoding='utf-8'?>
<svg xmlns="http://www.w3.org/2000/svg" version="1.1" id="corner-04" viewBox="4081.3285 294.6620 1064.0065 1064.0065" width="1064.0065" height="1064.0065">
  <desc>Extracted decorative corner ornament 4, transparent background.</desc>
  <g id="corner-04-paths">
    <path id="path41" d="m 33105.4,18929 c -41.7,-128.8 -23.3,-259.6 61.4,-344.3 107.9,-107.9 290.4,-108.2 448.4,-14 l 89.9,-89.7 c 45.1,-43.6 326.5,-277.2 312.1,-737 l 824.2,-185.4 -185.4,824.2 c -459.8,-14.4 -693.4,267 -737,312.1 l -89.7,89.9 c 94.2,158 93.9,340.5 -14,448.4 -84.7,84.7 -215.5,103.1 -344.3,61.4 -321.1,772.3 -649.8,1994.2 313.7,2295.9 h -667.6 c 0,0 -907,-690.7 103.6,-2176.4 -1350.3,1414.7 -727.7,2176.4 -727.7,2176.4 H 30809.5 V 19907 c 0,0 761.7,622.6 2176.5,-727.7 -1485.8,1010.6 -2176.5,103.6 -2176.5,103.6 v -667.6 c 301.7,963.5 1523.6,634.8 2295.9,313.7" style="fill:#100f0d;fill-opacity:1;fill-rule:nonzero;stroke:none" transform="matrix(0.13333333,0,0,-0.13333333,0,3200)"/>
    <path id="path42" d="m 30804,16032.3 c 0.8,-642.4 1.7,-1284.8 2.6,-1927.2 0.2,-140.3 217.9,-140 217.7,0 -0.9,632.8 -1.7,1265.5 -2.6,1898.2 -0.7,475.6 -5.5,951.3 -3.6,1426.8 1.2,288.1 5.7,633.7 191.7,872.4 231.5,297.2 723.5,304.8 988.2,50.6 139.2,-133.7 209.7,-340.5 101.3,-515.2 -14.6,-23.6 -33.2,-44.1 -54.4,-61.3 11.1,79.9 -22.1,166.6 -90.6,227.5 -124.5,110.7 -316,129 -465,59.4 -227.1,-106 -223.8,-382.8 -221.7,-596.9 2.8,-274.9 1.2,-549.9 1.4,-824.8 0.3,-446.4 0.2,-892.9 0.8,-1339.3 0.1,-46.8 72.7,-46.7 72.6,0 -0.3,186.9 -0.3,373.9 -0.4,560.8 -0.2,419.2 -0.4,838.4 -1,1257.7 -0.3,145.7 -2.1,291.4 -1.4,437.1 0.4,104.2 3.7,216.7 51.1,311.9 55.7,112 175.3,165.3 297.4,162.2 4.9,-0.1 9.8,-0.4 14.8,-0.8 -106.7,-29.6 -185.1,-127.2 -185.1,-243.3 0,-100.9 59.2,-187.7 144.7,-228.3 160.8,-90.9 375.3,-76.7 523.6,48.9 215.6,182.5 231.5,508.5 92,740.5 -257.2,427.8 -890.2,529.1 -1285.2,235.7 -310.8,-231 -376.4,-634.1 -389.6,-997 -6.9,-189.9 -1,-380.3 -0.7,-570.3 0.5,-328.4 0.9,-656.8 1.4,-985.3" style="fill:#100f0d;fill-opacity:1;fill-rule:nonzero;stroke:none" transform="matrix(0.13333333,0,0,-0.13333333,0,3200)"/>
    <path id="path43" d="m 38294.9,21593.4 c -642.4,0.9 -1284.8,1.8 -1927.2,2.6 -328.5,0.5 -656.9,0.9 -985.3,1.4 -190,0.3 -380.4,6.2 -570.3,-0.7 -362.9,-13.2 -766,-78.8 -997,-389.6 -293.3,-395 -192.1,-1028 235.7,-1285.2 232,-139.5 558,-123.6 740.5,92 125.7,148.3 139.8,362.8 48.9,523.6 -40.6,85.5 -127.4,144.7 -228.3,144.7 -116.1,0 -213.7,-78.4 -243.4,-185.1 -0.3,5 -0.6,9.9 -0.7,14.8 -3,122.1 50.2,241.7 162.2,297.5 95.2,47.3 207.8,50.6 311.9,51 145.7,0.7 291.4,-1.1 437.1,-1.4 419.3,-0.6 838.5,-0.8 1257.7,-1 187,-0.1 373.9,-0.1 560.8,-0.4 46.7,-0.1 46.8,72.5 0,72.6 -446.4,0.6 -892.8,0.5 -1339.3,0.8 -274.9,0.2 -549.9,-1.4 -824.8,1.4 -214.1,2.1 -490.9,5.4 -596.9,-221.7 -69.5,-149 -51.3,-340.5 59.4,-465 60.9,-68.5 147.6,-101.7 227.5,-90.6 -17.2,-21.2 -37.7,-39.8 -61.3,-54.4 -174.7,-108.4 -381.5,-37.9 -515.2,101.3 -254.2,264.7 -246.5,756.7 50.6,988.3 238.7,185.9 584.3,190.4 872.4,191.6 475.5,1.9 951.2,-2.9 1426.8,-3.6 632.7,-0.9 1265.4,-1.7 1898.2,-2.6 140,-0.2 140.3,217.5 0,217.7" style="fill:#100f0d;fill-opacity:1;fill-rule:nonzero;stroke:none" transform="matrix(0.13333333,0,0,-0.13333333,0,3200)"/>
  </g>
</svg>
