<?xml version='1.0' encoding='utf-8'?>
<svg xmlns="http://www.w3.org/2000/svg" version="1.1" id="corner-08" viewBox="4081.3333 1841.3334 1063.9989 1063.9989" width="1063.9989" height="1063.9989">
  <desc>Extracted decorative corner ornament 8, transparent background.</desc>
  <g id="corner-08-paths">
    <path id="path3" d="m 31928,8296.1 c 6.3,-7.5 1.5,-1.9 -1,1.2 0.3,-0.4 0.7,-0.8 1,-1.2 z m -336.8,352.5 c -365.4,-20.5 -624.2,-333.6 -718,-665.3 -55,-194.3 -64,-399.1 -64.9,-599.9 -1.1,-211.9 0,-423.9 0.3,-635.8 0.6,-425.7 1.6,-851.5 2.7,-1277.2 0.9,-417.7 2,-835.4 2.1,-1253.2 0.1,-91.8 0,-183.6 0,-275.4 0,-195.5 0,-391.1 0,-586.6 0,-195.4 0,-390.7 0,-586 0,-88.1 0,-176.1 0,-264.2 0,-58.8 48.1,-102.4 105,-104.9 56.6,-2.6 104.9,50 104.9,104.9 0,5.5 0,10.9 0,16.3 0,112.7 0,225.4 0,338 0,191.4 0,382.7 0,574 0,180.6 0,361.3 0,542 0,80.6 0,161.3 0,242 -0.1,403.7 -1.1,807.3 -2.1,1210.9 -0.9,403.7 -1.9,807.3 -2.5,1210.9 -0.3,200.9 -0.5,401.7 -0.6,602.5 0,95.6 -0.7,191.3 2.7,286.8 1.6,46.4 4.2,92.7 8.2,138.9 2.1,23.9 4.7,47.8 7.6,71.6 0.1,1 0.2,1.6 0.3,2.3 0.6,4.6 1.3,9.1 2,13.7 1.6,10.9 3.4,21.8 5.3,32.7 14.9,86.6 37.8,170.9 69.9,252.7 0,0.2 0.1,0.3 0.2,0.5 1.9,3.9 3.6,8 5.4,12.1 3.7,8 7.6,16 11.5,24 7.9,15.9 16.2,31.6 25,47.1 18.3,32.3 39.3,62.5 60.5,92.9 0.2,0.2 0.2,0.2 0.3,0.4 2.7,3.2 5.2,6.5 7.8,9.7 5.6,6.9 11.4,13.6 17.2,20.2 11.5,13.2 23.6,26.1 36,38.5 14.5,14.3 29.5,28.1 45,41.3 3.5,2.9 10,8.1 11.7,9.5 5,3.7 10,7.5 15.2,11.1 29.4,20.6 60.6,38.8 93.1,54 1.1,0.5 5.7,2.6 8.7,3.9 0.9,0.4 1.6,0.7 2,0.8 8.1,3 16.2,6.1 24.4,8.8 16.5,5.6 33.2,10.4 50.2,14.3 10.8,2.5 21.8,4 32.5,6.5 0.6,0.2 0.8,0.2 1.2,0.3 3.3,0.4 6.5,0.7 9.7,1 19.5,1.8 39.1,2.6 58.6,2.3 11.5,-0.2 22.9,-0.8 34.2,-1.7 4.9,-0.4 18.4,-2.4 17.7,-2.1 17,-3.1 33.8,-6.4 50.5,-11 11,-3 21.8,-6.4 32.6,-10.1 3.1,-1.1 15.5,-5.9 19.4,-7.3 4.3,-2.1 15.3,-7.4 18.1,-8.8 8.7,-4.4 17.2,-9.1 25.6,-14.1 9.8,-5.8 19.2,-12.1 28.7,-18.5 2.6,-1.7 4.1,-2.6 5,-3.2 0.8,-0.7 2,-1.8 3.8,-3.3 14.2,-12.2 27.9,-24.8 40.7,-38.5 6.9,-7.4 13.3,-15.2 19.8,-23 2.4,-3.5 5,-7 7.5,-10.6 11.4,-16.8 21.7,-34.2 30.7,-52.3 2.4,-4.7 4.6,-9.5 6.8,-14.3 2.9,-8.5 6.3,-16.8 9,-25.4 5.7,-17.8 8.6,-36.1 13.4,-54.1 0.1,-0.6 0.2,-0.9 0.4,-1.3 0.3,-4.1 0.8,-8.2 1.1,-12.3 0.7,-9.3 1.1,-18.6 1.1,-27.9 0,-9.2 -0.3,-18.3 -0.9,-27.4 -0.6,-9.3 -4.2,-25.3 -0.3,-7 -4,-18.6 -7.5,-37.1 -13.3,-55.3 -2.4,-7.7 -5.3,-15.1 -8,-22.6 -1.5,-3.1 -2.9,-6.2 -4.4,-9.3 -8.4,-17 -18.1,-33.5 -28.8,-49.1 -4.4,-6.5 -16.6,-19.8 -4.6,-6.8 -5.9,-6.4 -11.4,-13.3 -17.4,-19.6 -6.9,-7.4 -14.2,-14.6 -21.8,-21.4 -2,-1.8 -10.6,-8.7 -13.9,-11.6 -4.2,-2.8 -11.4,-7.7 -13.3,-8.9 -7.3,-4.7 -14.9,-9.1 -22.6,-13.2 -4.8,-2.6 -20.8,-9.3 -17.1,-8.3 -7.3,-2.6 -14.6,-5.3 -22,-7.5 -9.4,-2.7 -18.9,-4.8 -28.5,-6.9 -2.6,-0.6 -4.3,-1.1 -5.4,-1.4 -1.2,0 -2.9,0 -5.3,-0.2 -11.3,-0.6 -22.6,-1.1 -34,-0.7 -3.3,0.1 -16.2,1.4 -20.5,1.7 -5.2,1.2 -15.7,3.5 -18.4,4.3 -2.8,0.7 -13.4,4.1 -18.4,5.6 -3.2,1.5 -9.2,4.2 -10.3,4.7 -4.2,2.2 -8.3,4.5 -12.4,7 96.1,10.7 170.8,92.1 170.8,191.1 0,104.3 -83,189 -186.5,192.1 -1.3,0 -2.4,0.2 -3.7,0.2 -0.7,0 -1.4,0.1 -2.2,0.1 -0.2,0 -0.4,-0.1 -0.6,-0.1 -8.5,0.3 -17.1,-0.1 -25.5,-1.3 -99.3,-13.9 -177.9,-96.8 -209.5,-188.3 -30.9,-89.9 -9.4,-198.8 45.7,-274.9 65,-89.7 157.7,-139.1 267.3,-150.4 186.9,-19.4 368.9,103.2 445.8,269.8 82.1,177.7 56.6,383.8 -63.1,538.8 -118.3,153.1 -308.8,236.5 -502.1,225.7" style="fill:#100f0d;fill-opacity:1;fill-rule:nonzero;stroke:none" transform="matrix(0.13333333,0,0,-0.13333333,0,3200)"/>
    <path id="path4" d="m 31900.3,8899.7 c -208.8,785.2 123.3,1100.3 123.3,1100.3 H 30800 V 8776.4 c 0,0 315.1,332.1 1100.3,123.3" style="fill:#100f0d;fill-opacity:1;fill-rule:nonzero;stroke:none" transform="matrix(0.13333333,0,0,-0.13333333,0,3200)"/>
    <path id="path5" d="m 31613.6,7233.5 c -153.1,0 -277.3,-124.2 -277.3,-277.3 0,-153.1 124.2,-277.3 277.3,-277.3 153.1,0 277.3,124.2 277.3,277.3 0,153.1 -124.2,277.3 -277.3,277.3" style="fill:#100f0d;fill-opacity:1;fill-rule:nonzero;stroke:none" transform="matrix(0.13333333,0,0,-0.13333333,0,3200)"/>
    <path id="path6" d="m 31613.6,6446.1 c -131.8,0 -238.7,-106.9 -238.7,-238.7 0,-131.8 106.9,-238.6 238.7,-238.6 131.8,0 238.7,106.8 238.7,238.6 0,131.8 -106.9,238.7 -238.7,238.7" style="fill:#100f0d;fill-opacity:1;fill-rule:nonzero;stroke:none" transform="matrix(0.13333333,0,0,-0.13333333,0,3200)"/>
    <path id="path7" d="m 31613.6,5658.7 c -110.5,0 -200,-89.5 -200,-200 0,-110.5 89.5,-200.1 200,-200.1 110.5,0 200.1,89.6 200.1,200.1 0,110.5 -89.6,200 -200.1,200" style="fill:#100f0d;fill-opacity:1;fill-rule:nonzero;stroke:none" transform="matrix(0.13333333,0,0,-0.13333333,0,3200)"/>
    <path id="path8" d="m 31613.6,4871.3 c -89.2,0 -161.4,-72.2 -161.4,-161.4 0,-89.2 72.2,-161.4 161.4,-161.4 89.2,0 161.4,72.2 161.4,161.4 0,89.2 -72.2,161.4 -161.4,161.4" style="fill:#100f0d;fill-opacity:1;fill-rule:nonzero;stroke:none" transform="matrix(0.13333333,0,0,-0.13333333,0,3200)"/>
    <path id="path9" d="m 31613.6,4084 c -67.8,0 -122.8,-55 -122.8,-122.9 0,-67.8 55,-122.8 122.8,-122.8 67.8,0 122.8,55 122.8,122.8 0,67.9 -55,122.9 -122.8,122.9" style="fill:#100f0d;fill-opacity:1;fill-rule:nonzero;stroke:none" transform="matrix(0.13333333,0,0,-0.13333333,0,3200)"/>
    <path id="path10" d="m 31613.6,3128.1 c 46.5,0 84.2,37.7 84.2,84.3 0,46.5 -37.7,84.2 -84.2,84.2 -46.5,0 -84.2,-37.7 -84.2,-84.2 0,-46.6 37.7,-84.3 84.2,-84.3" style="fill:#100f0d;fill-opacity:1;fill-rule:nonzero;stroke:none" transform="matrix(0.13333333,0,0,-0.13333333,0,3200)"/>
    <path id="path11" d="m 32362.5,7455.3 c 9,33 17.1,62.3 24,87.7 8.5,25 15.6,46.2 21.4,63.3 11.6,34.3 17.7,52.4 17.7,52.4 0,0 -8.5,-17 -24.7,-49.4 -8.1,-16.3 -18.1,-36.4 -29.9,-60.2 -10.3,-24.5 -22.2,-52.8 -35.5,-84.6 -51,-128 -113.1,-321.4 -142.1,-569 -32.5,-247.1 -30.9,-545.6 4.7,-870.7 34.8,-325.9 107,-675.6 174.6,-1036.3 24.1,-129.6 46.3,-256.4 65.3,-379.8 18.7,-123.5 33.2,-243.6 44,-359.9 10.3,-116.3 15,-228.7 16.2,-336.7 -0.4,-26.9 -0.8,-53.5 -1.2,-80 -0.3,-26.3 -0.6,-52.7 -2.1,-77.7 -2.4,-50.2 -6.8,-96.6 -14.6,-138.8 -7.9,-42.3 -19,-80 -34,-112.9 -15,-33.1 -33.8,-62 -54.6,-84.5 -20.8,-22.6 -43.7,-39.3 -65.8,-49.2 -23,-10.8 -48.6,-15.7 -71.2,-15.7 -22.9,-0.1 -42.4,5 -58.4,12.9 -13.8,6.4 -27.1,18.4 -37,33.6 -10.1,15 -15.9,32.1 -18.3,47.1 -2,15 -1,28.2 2.4,39.8 3.8,16.2 21.2,34.1 41.2,44.2 20.1,10.6 40.7,14.6 57.9,16.1 17.5,1.4 32,-0.7 45,-1.5 12,-1.6 23,-1.3 30.3,4 7.3,5.2 10.3,15.5 5.9,32.5 -5.2,15.9 -19.5,38.4 -48,56.4 -28.1,17.7 -69.3,31 -118.9,27.2 -24.8,-1.5 -51.6,-8.3 -79.3,-21.3 -27.4,-12.9 -56.2,-33.9 -79.1,-64.3 -26,-34.6 -43.1,-78.9 -47.9,-125.7 -4.4,-46.7 2.1,-95.8 21.6,-142.9 19.2,-46.8 52,-93.6 100.9,-129.2 46.5,-34 103.5,-55.6 161.9,-62.2 58.5,-6.7 119,-0.6 177.7,19.9 59.8,20.8 113.6,55.7 158.6,98.8 45.2,43.3 81.5,94.5 109.6,149.7 28.4,55.7 47.6,115.2 60.3,174.2 12.8,59.2 19.3,118.4 23.1,176.2 2.1,29 2.8,57.2 3.5,86.1 0.6,28.8 1.3,57.8 1.9,87.2 -0.6,117.2 -6.4,238.5 -19.1,362.2 -13.3,123.6 -31.6,249.8 -55.1,377.4 -23.8,127.5 -51.7,256.7 -82.4,387.1 -85.6,362 -179.6,699.8 -238.8,1011.3 -60.2,311.3 -89.8,596.9 -84.4,837.7 2.1,241.1 38.9,435.4 72.7,567.5" style="fill:#100f0d;fill-opacity:1;fill-rule:nonzero;stroke:none" transform="matrix(0.13333333,0,0,-0.13333333,0,3200)"/>
    <path id="path12" d="m 32554.8,7146.8 c -2.2,-6.9 -4.6,-14.1 -7.1,-21.8 -5,-15.6 -10.5,-32.9 -16.4,-51.8 -5,-19.2 -9.6,-40.3 -14.9,-63.1 -9.5,-45.6 -17.3,-98.5 -21.2,-157.6 -8.8,-118.2 1.8,-260.2 32.5,-413 31,-152.6 83,-314.9 147.9,-477.4 65.7,-164 132.3,-313.3 187.5,-447.2 28.1,-66.9 52.5,-129.9 75.3,-188.7 21.8,-58.8 41.8,-113.4 58.5,-163.3 33.6,-99.7 58.7,-181 81.5,-238.6 6.5,-14.4 12,-27.3 17.7,-38.5 5.8,-11.3 12,-20.9 18.4,-28.8 12.9,-15.8 27,-24.5 42.3,-24.7 15.4,-0.2 29.3,8.3 41.7,25.3 6.2,8.5 12,19.2 17.5,31.9 5.5,12.8 10.6,27.6 14.1,44.3 16.7,67.1 19.5,166.3 1.5,285.4 -8.7,59.6 -23.7,123.4 -43.1,190.7 -20.2,66.7 -44.6,137 -74.2,208.4 -58.6,143.3 -135,292.2 -215.1,445.3 -77.7,148.9 -147.6,291.4 -200.7,425.4 -52.4,133.9 -89.5,259.1 -106.7,367.7 -9.1,54.2 -14.1,104.1 -16.3,148.4 -0.6,22.1 -1.2,42.8 -1.7,62 0.7,19.1 1.3,36.6 1.9,52.4 0.3,7.9 0.6,15.4 0.9,22.5 0.8,7 1.5,13.5 2.1,19.6 1.3,12.2 2.4,22.5 3.3,30.9 1.7,16.9 2.6,25.8 2.6,25.8 0,0 -3.5,-8.2 -10,-23.7 -3.3,-7.9 -7.4,-17.7 -12.1,-29.1 -2.4,-5.8 -5,-12.1 -7.7,-18.7" style="fill:#100f0d;fill-opacity:1;fill-rule:nonzero;stroke:none" transform="matrix(0.13333333,0,0,-0.13333333,0,3200)"/>
    <path id="path13" d="m 33281,6127.5 c 6.6,-18.1 16.8,-34.7 26.7,-48.1 9.8,-13.4 21.7,-24 34.3,-31.4 24.9,-14.9 51.6,-16.8 80.6,-6.8 29.1,10 50.5,27.4 65.8,47.3 7.5,9.9 13.6,20.6 19.3,32.6 5.6,12 8.8,23.9 12.7,38.1 3.3,13.9 5.2,28.4 7.1,45.1 1.2,16 2.5,34.3 2.3,53.5 0.2,39.1 -2.8,84.5 -10,136.1 -7.2,50.7 -18.6,101.8 -33.4,148 -8.5,23.6 -15.8,45.1 -25.9,65.5 -4.8,10.1 -9.4,19.7 -14.2,28.7 -5.3,9.1 -10.4,17.7 -15.5,25.7 -9.4,16.1 -20.6,29.7 -30,41.2 -4.8,5.7 -9.1,11 -13.3,15.6 -4.6,4.4 -8.9,8.5 -12.8,12.1 -15.3,14.2 -24,21 -24,21 0,0 -0.9,-12 -2.5,-31.7 -0.3,-4.9 -0.7,-10.2 -1.1,-16 -0.9,-5.9 -1.9,-12.2 -2.9,-18.9 -2.1,-13.4 -3.8,-27.8 -7.9,-43.9 -1.7,-7.9 -3.4,-16 -5.2,-24.3 -2.3,-8.6 -4.6,-17.3 -6.9,-26.2 -4.1,-17.4 -10.6,-36.8 -15.6,-56.1 -11.7,-39.6 -24.1,-82.8 -34.2,-130.9 -10.4,-49.1 -16.6,-99.1 -16.2,-146.4 0.5,-24.1 1.9,-46.7 6.1,-69 3.3,-21.6 9.5,-42.4 16.7,-60.8" style="fill:#100f0d;fill-opacity:1;fill-rule:nonzero;stroke:none" transform="matrix(0.13333333,0,0,-0.13333333,0,3200)"/>
    <path id="path14" d="m 32503.9,8872 c -0.4,0.3 -0.8,0.7 -1.2,1 3.1,-2.5 8.7,-7.3 1.2,-1 z M 38295,9986.6 c -88.1,0 -176.1,0 -264.2,0 -195.3,0 -390.6,0 -586,0 -195.5,0 -391.1,0 -586.6,0 -91.8,0 -183.6,-0.1 -275.4,0 -417.8,0.1 -835.5,1.2 -1253.2,2.1 -425.7,1.1 -851.5,2.1 -1277.2,2.7 -211.9,0.3 -423.9,1.4 -635.8,0.3 -200.8,-0.9 -405.6,-9.9 -599.9,-64.9 -331.7,-93.8 -644.8,-352.6 -665.3,-718 -10.8,-193.3 72.6,-383.8 225.7,-502.1 155,-119.7 361.1,-145.2 538.8,-63.1 166.6,76.9 289.2,258.9 269.8,445.8 -11.3,109.6 -60.7,202.3 -150.4,267.3 -76.1,55.1 -185,76.6 -274.9,45.7 -91.5,-31.6 -174.4,-110.2 -188.3,-209.5 -1.2,-8.4 -1.6,-17 -1.3,-25.5 0,-0.2 -0.1,-0.4 -0.1,-0.6 0,-0.8 0.1,-1.5 0.1,-2.2 0,-1.3 0.2,-2.4 0.2,-3.7 3.1,-103.5 87.8,-186.5 192.1,-186.5 99,0 180.4,74.7 191.1,170.8 2.5,-4.1 4.8,-8.2 7,-12.4 0.5,-1.1 3.2,-7.1 4.7,-10.3 1.5,-5 4.9,-15.6 5.6,-18.4 0.8,-2.7 3.1,-13.2 4.3,-18.4 0.3,-4.3 1.6,-17.2 1.7,-20.5 0.4,-11.4 -0.1,-22.7 -0.7,-34 -0.2,-2.4 -0.2,-4.1 -0.2,-5.3 -0.3,-1.1 -0.8,-2.8 -1.4,-5.4 -2.1,-9.6 -4.2,-19.1 -6.9,-28.5 -2.2,-7.4 -4.9,-14.7 -7.5,-22 1,3.7 -5.7,-12.3 -8.3,-17.1 -4.1,-7.7 -8.5,-15.3 -13.2,-22.6 -1.2,-1.9 -6,-9 -8.9,-13.3 -2.8,-3.3 -9.8,-11.9 -11.6,-13.9 -6.8,-7.6 -14,-14.9 -21.4,-21.8 -6.3,-6 -13.2,-11.5 -19.6,-17.4 13,12 -0.3,-0.2 -6.8,-4.6 -15.6,-10.7 -32.1,-20.4 -49.1,-28.8 -3.1,-1.5 -6.2,-2.9 -9.3,-4.4 -7.5,-2.7 -14.9,-5.6 -22.6,-8 -18.2,-5.8 -36.7,-9.3 -55.3,-13.3 18.3,3.9 2.3,0.3 -7,-0.3 -9.1,-0.6 -18.2,-0.9 -27.4,-0.9 -9.3,0 -18.6,0.4 -27.9,1.1 -4.1,0.3 -8.2,0.8 -12.3,1.1 -0.4,0.2 -0.7,0.3 -1.3,0.4 -18,4.8 -36.3,7.7 -54.1,13.4 -8.6,2.7 -16.9,6.1 -25.4,9 -4.8,2.2 -9.6,4.4 -14.3,6.8 -18.1,9 -35.5,19.3 -52.3,30.7 -3.6,2.5 -7.1,5.1 -10.6,7.5 -7.8,6.5 -15.6,12.9 -23,19.8 -13.7,12.8 -26.3,26.5 -38.5,40.7 -1.5,1.8 -2.6,3 -3.3,3.8 -0.6,0.9 -1.5,2.4 -3.2,5 -6.4,9.5 -12.7,18.9 -18.5,28.7 -5,8.4 -9.7,16.9 -14.1,25.6 -1.4,2.8 -6.7,13.8 -8.8,18.1 -1.4,3.9 -6.2,16.3 -7.3,19.4 -3.7,10.8 -7.1,21.6 -10.1,32.6 -4.6,16.7 -7.9,33.5 -11,50.5 0.3,-0.7 -1.7,12.8 -2.1,17.7 -0.9,11.3 -1.5,22.7 -1.7,34.2 -0.3,19.5 0.5,39.1 2.3,58.6 0.3,3.2 0.6,6.4 1,9.7 0.1,0.4 0.1,0.6 0.3,1.2 2.5,10.7 4,21.7 6.5,32.5 3.9,17 8.7,33.7 14.3,50.2 2.7,8.2 5.8,16.3 8.8,24.4 0.1,0.4 0.4,1.1 0.8,2 1.3,3 3.4,7.6 3.9,8.7 15.2,32.5 33.4,63.7 54,93.1 3.6,5.2 7.4,10.2 11.1,15.2 1.4,1.7 6.6,8.2 9.5,11.7 13.2,15.5 27,30.5 41.3,45 12.4,12.4 25.3,24.5 38.5,36 6.6,5.8 13.3,11.6 20.2,17.2 3.2,2.6 6.5,5.1 9.7,7.8 0.2,0.1 0.2,0.1 0.4,0.3 30.4,21.2 60.6,42.2 92.9,60.5 15.5,8.8 31.2,17.1 47.1,25 8,3.9 16,7.8 24,11.5 4.1,1.8 8.2,3.5 12.1,5.4 0.2,0.1 0.3,0.2 0.5,0.2 81.8,32.1 166.1,55 252.7,69.9 10.9,1.9 21.8,3.7 32.7,5.3 4.6,0.7 9.1,1.4 13.7,2 0.7,0.1 1.3,0.2 2.3,0.3 23.8,2.9 47.7,5.5 71.6,7.6 46.2,4 92.5,6.6 138.9,8.2 95.5,3.4 191.2,2.7 286.8,2.7 200.8,-0.1 401.6,-0.3 602.5,-0.6 403.6,-0.6 807.2,-1.6 1210.9,-2.5 403.6,-1 807.2,-2 1210.9,-2.1 80.7,0 161.4,0 242,0 180.7,0 361.4,0 542,0 191.3,0 382.6,0 574,0 112.6,0 225.3,0 338,0 5.4,0 10.8,0 16.3,0 54.9,0 107.5,48.3 104.9,104.9 -2.5,56.9 -46.1,105 -104.9,105" style="fill:#100f0d;fill-opacity:1;fill-rule:nonzero;stroke:none" transform="matrix(0.13333333,0,0,-0.13333333,0,3200)"/>
    <path id="path15" d="m 34121.1,9186.4 c 0,153.1 -124.2,277.3 -277.3,277.3 -153.1,0 -277.3,-124.2 -277.3,-277.3 0,-153.1 124.2,-277.3 277.3,-277.3 153.1,0 277.3,124.2 277.3,277.3" style="fill:#100f0d;fill-opacity:1;fill-rule:nonzero;stroke:none" transform="matrix(0.13333333,0,0,-0.13333333,0,3200)"/>
    <path id="path16" d="m 34831.2,9186.4 c 0,131.8 -106.8,238.7 -238.6,238.7 -131.8,0 -238.7,-106.9 -238.7,-238.7 0,-131.8 106.9,-238.7 238.7,-238.7 131.8,0 238.6,106.9 238.6,238.7" style="fill:#100f0d;fill-opacity:1;fill-rule:nonzero;stroke:none" transform="matrix(0.13333333,0,0,-0.13333333,0,3200)"/>
    <path id="path17" d="m 35541.4,9186.4 c 0,110.5 -89.6,200 -200.1,200 -110.5,0 -200,-89.5 -200,-200 0,-110.5 89.5,-200.1 200,-200.1 110.5,0 200.1,89.6 200.1,200.1" style="fill:#100f0d;fill-opacity:1;fill-rule:nonzero;stroke:none" transform="matrix(0.13333333,0,0,-0.13333333,0,3200)"/>
    <path id="path18" d="m 36251.5,9186.4 c 0,89.2 -72.2,161.4 -161.4,161.4 -89.2,0 -161.4,-72.2 -161.4,-161.4 0,-89.2 72.2,-161.4 161.4,-161.4 89.2,0 161.4,72.2 161.4,161.4" style="fill:#100f0d;fill-opacity:1;fill-rule:nonzero;stroke:none" transform="matrix(0.13333333,0,0,-0.13333333,0,3200)"/>
    <path id="path19" d="m 36961.7,9186.4 c 0,67.8 -55,122.8 -122.8,122.8 -67.9,0 -122.9,-55 -122.9,-122.8 0,-67.8 55,-122.8 122.9,-122.8 67.8,0 122.8,55 122.8,122.8" style="fill:#100f0d;fill-opacity:1;fill-rule:nonzero;stroke:none" transform="matrix(0.13333333,0,0,-0.13333333,0,3200)"/>
    <path id="path20" d="m 37671.9,9186.4 c 0,46.5 -37.7,84.2 -84.3,84.2 -46.5,0 -84.2,-37.7 -84.2,-84.2 0,-46.5 37.7,-84.2 84.2,-84.2 46.6,0 84.3,37.7 84.3,84.2" style="fill:#100f0d;fill-opacity:1;fill-rule:nonzero;stroke:none" transform="matrix(0.13333333,0,0,-0.13333333,0,3200)"/>
    <path id="path21" d="m 32682.4,8117.6 c -126.4,-124.7 -214.9,-657.1 139.7,-961 269.8,-231.3 297.9,-473.3 297.9,-473.3 l 64.7,357.7 c 117.4,-96.2 484.1,-239.1 778.8,-204.5 34.6,294.7 -108.3,661.4 -204.5,778.8 l 357.7,64.7 c 0,0 -242,28.1 -473.3,297.9 -303.9,354.6 -836.3,266.1 -961,139.7" style="fill:#100f0d;fill-opacity:1;fill-rule:nonzero;stroke:none" transform="matrix(0.13333333,0,0,-0.13333333,0,3200)"/>
    <path id="path22" d="m 33250.9,8429 c -23.8,-11.8 -43.9,-21.8 -60.2,-29.9 -32.4,-16.2 -49.4,-24.7 -49.4,-24.7 0,0 18.1,6.1 52.4,17.7 17.1,5.8 38.3,12.9 63.3,21.4 25.4,6.9 54.7,15 87.7,24 132.1,33.8 326.4,70.6 567.5,72.7 240.8,5.4 526.4,-24.2 837.7,-84.4 311.5,-59.2 649.3,-153.2 1011.3,-238.8 130.4,-30.7 259.6,-58.6 387.1,-82.4 127.6,-23.5 253.8,-41.8 377.4,-55.1 123.7,-12.7 245,-18.5 362.2,-19.1 29.4,0.6 58.4,1.3 87.2,1.9 28.9,0.7 57.1,1.4 86.1,3.5 57.8,3.8 117,10.3 176.2,23.1 59,12.7 118.5,31.9 174.2,60.3 55.2,28.1 106.4,64.4 149.7,109.6 43.1,45 78,98.8 98.8,158.6 20.5,58.7 26.6,119.2 19.9,177.7 -6.6,58.4 -28.2,115.4 -62.2,161.9 -35.6,48.9 -82.4,81.7 -129.2,100.9 -47.1,19.5 -96.2,26 -142.9,21.6 -46.8,-4.8 -91.1,-21.9 -125.7,-47.9 -30.4,-22.9 -51.4,-51.7 -64.3,-79.1 -13,-27.7 -19.8,-54.5 -21.3,-79.3 -3.8,-49.6 9.5,-90.8 27.2,-118.9 18,-28.5 40.5,-42.8 56.4,-48 17,-4.4 27.3,-1.4 32.5,5.9 5.3,7.3 5.6,18.3 4,30.3 -0.8,13 -2.9,27.5 -1.5,45 1.5,17.2 5.5,37.8 16.1,57.9 10.1,20 28,37.4 44.2,41.2 11.6,3.4 24.8,4.4 39.8,2.4 15,-2.4 32.1,-8.2 47.1,-18.3 15.2,-9.9 27.2,-23.2 33.6,-37 7.9,-16 13,-35.5 12.9,-58.4 0,-22.6 -4.9,-48.2 -15.7,-71.2 -9.9,-22.1 -26.6,-45 -49.2,-65.8 -22.5,-20.8 -51.4,-39.6 -84.5,-54.6 -32.9,-15 -70.6,-26.1 -112.9,-34 -42.2,-7.8 -88.6,-12.2 -138.8,-14.6 -25,-1.5 -51.4,-1.8 -77.7,-2.1 -26.5,-0.4 -53.1,-0.8 -80,-1.2 -108,1.2 -220.4,5.9 -336.7,16.2 -116.3,10.8 -236.4,25.3 -359.9,44 -123.4,19 -250.2,41.2 -379.8,65.3 -360.7,67.6 -710.4,139.8 -1036.3,174.6 -325.1,35.6 -623.6,37.2 -870.7,4.7 -247.6,-29 -441,-91.1 -569,-142.1 -31.8,-13.3 -60.1,-25.2 -84.6,-35.5" style="fill:#100f0d;fill-opacity:1;fill-rule:nonzero;stroke:none" transform="matrix(0.13333333,0,0,-0.13333333,0,3200)"/>
    <path id="path23" d="m 35943,7685.5 c -7.9,6.4 -17.5,12.6 -28.8,18.4 -11.2,5.7 -24.1,11.2 -38.5,17.7 -57.6,22.8 -138.9,47.9 -238.6,81.5 -49.9,16.7 -104.5,36.7 -163.3,58.5 -58.8,22.8 -121.8,47.2 -188.7,75.3 -133.9,55.2 -283.2,121.8 -447.2,187.5 -162.5,64.9 -324.8,116.9 -477.4,147.9 -152.8,30.7 -294.8,41.3 -413,32.5 -59.1,-3.9 -112,-11.7 -157.6,-21.2 -22.8,-5.3 -43.9,-9.9 -63.1,-14.9 -18.9,-5.9 -36.2,-11.4 -51.8,-16.4 -7.7,-2.5 -14.9,-4.9 -21.8,-7.1 -6.6,-2.7 -12.9,-5.3 -18.7,-7.7 -11.4,-4.7 -21.2,-8.8 -29.1,-12.1 -15.5,-6.5 -23.7,-10 -23.7,-10 0,0 8.9,0.9 25.8,2.6 8.4,0.9 18.7,2 30.9,3.3 6.1,0.6 12.6,1.3 19.6,2.1 7.1,0.3 14.6,0.6 22.5,0.9 15.8,0.6 33.3,1.2 52.4,1.9 19.2,-0.5 39.9,-1.1 62,-1.7 44.3,-2.2 94.2,-7.2 148.4,-16.3 108.6,-17.2 233.8,-54.3 367.7,-106.7 134,-53.1 276.5,-123 425.4,-200.7 153.1,-80.1 302,-156.5 445.3,-215.1 71.4,-29.6 141.7,-54 208.4,-74.2 67.3,-19.4 131.1,-34.4 190.7,-43.1 119.1,-18 218.3,-15.2 285.4,1.5 16.7,3.5 31.5,8.6 44.3,14.1 12.7,5.5 23.4,11.3 31.9,17.5 17,12.4 25.5,26.3 25.3,41.7 -0.2,15.3 -8.9,29.4 -24.7,42.3" style="fill:#100f0d;fill-opacity:1;fill-rule:nonzero;stroke:none" transform="matrix(0.13333333,0,0,-0.13333333,0,3200)"/>
    <path id="path24" d="m 34096,7452.9 c -5.8,-0.4 -11.1,-0.8 -16,-1.1 -19.7,-1.6 -31.7,-2.5 -31.7,-2.5 0,0 6.8,-8.7 21,-24 3.6,-3.9 7.7,-8.2 12.1,-12.8 4.6,-4.2 9.9,-8.5 15.6,-13.3 11.5,-9.4 25.1,-20.6 41.2,-30 8,-5.1 16.6,-10.2 25.7,-15.5 9,-4.8 18.6,-9.4 28.7,-14.2 20.4,-10.1 41.9,-17.4 65.5,-25.9 46.2,-14.8 97.3,-26.2 148,-33.4 51.6,-7.2 97,-10.2 136.1,-10 19.2,-0.2 37.5,1.1 53.5,2.3 16.7,1.9 31.2,3.8 45.1,7.1 14.2,3.9 26.1,7.1 38.1,12.7 12,5.7 22.7,11.8 32.6,19.3 19.9,15.3 37.3,36.7 47.3,65.8 10,29 8.1,55.7 -6.8,80.6 -7.4,12.6 -18,24.5 -31.4,34.3 -13.4,9.9 -30,20.1 -48.1,26.7 -18.4,7.2 -39.2,13.4 -60.8,16.7 -22.3,4.2 -44.9,5.6 -69,6.1 -47.3,0.4 -97.3,-5.8 -146.4,-16.2 -48.1,-10.1 -91.3,-22.5 -130.9,-34.2 -19.3,-5 -38.7,-11.5 -56.1,-15.6 -8.9,-2.3 -17.6,-4.6 -26.2,-6.9 -8.3,-1.8 -16.4,-3.5 -24.3,-5.2 -16.1,-4.1 -30.5,-5.8 -43.9,-7.9 -6.7,-1 -13,-2 -18.9,-2.9" style="fill:#100f0d;fill-opacity:1;fill-rule:nonzero;stroke:none" transform="matrix(0.13333333,0,0,-0.13333333,0,3200)"/>
  </g>
</svg>
