<?xml version='1.0' encoding='utf-8'?>
<svg xmlns="http://www.w3.org/2000/svg" version="1.1" id="corner-03" viewBox="2783.5568 294.6662 1064.0032 1064.0005" width="1064.0032" height="1064.0005">
  <desc>Extracted decorative corner ornament 3, transparent background.</desc>
  <g id="corner-03-paths">
    <path id="path60" d="m 22512.7,19139.7 c -29.9,122.6 -104.9,218.4 -192.9,280.5 -89.8,62.8 -189.6,87.8 -278.6,90.7 -89.7,2.9 -170.2,-15.8 -237.3,-45.3 -132.5,-59 -210.8,-155.8 -233.1,-233.9 -12.2,-38.5 -9.8,-70.6 -5,-90.4 6.7,-20.3 15.2,-29.4 25.2,-29.5 24.3,-0.2 38.6,33.3 74.3,73.3 17.9,20.1 41.5,42.9 74.7,65 32.7,22.1 74.9,44.1 124.2,59.3 48.3,14.9 106.2,23.5 166.8,17.9 60.4,-5.2 124.2,-24.7 177.6,-63.3 53.6,-38.7 100,-99.5 117.7,-169.4 18,-67.8 4.7,-153.3 -34.5,-240.7 -36.1,-83.8 -97.1,-171.2 -152.8,-273.2 -28.7,-49.7 -53.6,-102.2 -79.4,-154.3 -23.3,-53.4 -47.5,-106.6 -67.2,-161.5 -83.2,-217.8 -129.2,-445.8 -142.2,-647.8 -15.2,-202.2 4,-377.6 24.4,-499.8 5.7,-30.5 10.8,-57.9 15.3,-81.9 5.6,-23.7 10.5,-44 14.4,-60.5 8,-32.9 12.4,-50.8 12.4,-50.8 0,0 -1.9,17.3 -5.3,49.5 -1.7,16 -3.8,35.7 -6.3,58.7 -1.3,23.1 -2.9,49.6 -4.6,79 -5.2,117.7 -3.9,284.4 28.3,473.3 15.4,94.4 39.6,193.9 69.5,295.4 31.2,101.4 70.8,204 116.8,305.1 45.6,101.4 101,199.6 159.9,294 56.6,93.6 129.8,184.4 184,296.6 26.5,55 47.3,113.4 58,175.2 11.2,61.4 10.2,127.1 -4.3,188.8" style="fill:#100f0d;fill-opacity:1;fill-rule:nonzero;stroke:none" transform="matrix(0.13333333,0,0,-0.13333333,0,3200)"/>
    <path id="path61" d="m 21603.8,17878.7 c 46.2,215.8 108.6,399 159.4,527.1 13.1,31.9 25,60.6 35.3,85.7 10.7,24.9 20.8,45.9 28.6,63.2 15.8,34.6 24.4,53.4 24.4,53.4 0,0 -10.2,-16.8 -29.1,-47.7 -9.4,-15.5 -20.9,-34.6 -34.5,-56.9 -12.6,-22.9 -27.1,-49.1 -43.2,-78.3 -62.7,-117.7 -144.6,-289.1 -213.2,-499.5 -69.8,-209.9 -127.5,-457.6 -160.6,-716.5 -34,-258.8 -43.6,-528.2 -34.6,-779.3 18.3,-493.1 85,-892.6 140.9,-1167.1 57.8,-274.6 110.1,-425.6 149.3,-419.3 45.9,7.4 45.8,168.1 16.1,445.4 -28.1,277.5 -90.4,671.2 -121.9,1149.4 -14.4,227 -22,478.8 -8.8,728.4 11.8,249.6 44.2,496.7 91.9,712" style="fill:#100f0d;fill-opacity:1;fill-rule:nonzero;stroke:none" transform="matrix(0.13333333,0,0,-0.13333333,0,3200)"/>
    <path id="path62" d="m 21357.7,14531.4 c -15.9,305.5 -92.3,743 -92.3,743 0,0 -80.8,-414.3 -92.3,-743 -11.2,-322.3 14,-531.4 94,-531.4 92.3,0 107.3,209.7 90.6,531.4" style="fill:#100f0d;fill-opacity:1;fill-rule:nonzero;stroke:none" transform="matrix(0.13333333,0,0,-0.13333333,0,3200)"/>
    <path id="path63" d="m 21573.9,18583.2 c -56.2,-39.4 -117.4,-89.3 -175.7,-146.4 -58.3,-57 -112.1,-122.3 -156,-188 -86.2,-129.2 -133.8,-250.5 -150.2,-338.5 -16.7,-88.5 -2.6,-143.5 35,-153.9 45.3,-12.5 81.9,25.5 122.1,96.3 40.2,71 84.2,176.1 150.4,299.6 61.2,117.7 145.4,259.3 226,366.4 19.7,27 39.5,51.3 57,73.8 18.3,21.8 34.6,41.1 48.1,57.3 28.2,31.6 45.2,50.5 45.2,50.5 0,0 -21.8,-10.9 -58.5,-29.2 -36.4,-19.4 -87,-48.7 -143.4,-87.9" style="fill:#100f0d;fill-opacity:1;fill-rule:nonzero;stroke:none" transform="matrix(0.13333333,0,0,-0.13333333,0,3200)"/>
    <path id="path64" d="m 21811.9,20236.6 c -81.4,52.8 -155,119.9 -215.8,199.8 -122.5,160.1 -190.9,361.6 -223.6,543.7 -23.2,129.3 -32,249.5 -36.4,350.5 101,-4.4 221.1,-13.2 350.5,-36.5 182,-32.6 383.6,-101 543.7,-223.5 79.8,-60.8 146.9,-134.4 199.7,-215.8 52.6,-81.5 91.7,-169.1 118.9,-256 29.4,-91.2 46.1,-182.5 55.2,-269.9 9.2,-87.3 10.2,-171.1 6.9,-250.6 -0.3,-7.3 -0.8,-14.3 -1.1,-21.5 -7.2,-0.4 -14.2,-0.8 -21.5,-1.1 -79.6,-3.3 -163.3,-2.4 -250.6,6.9 -87.4,9.1 -178.8,25.8 -270,55.2 -86.8,27.1 -174.4,66.3 -255.9,118.8 z M 21207.8,18949 c 76.1,-82.5 173.6,-132.2 263.8,-148.5 90.4,-17 171.9,-6.7 234.9,11.5 63.4,18.4 108.9,45.3 138,65.3 14.8,9.9 25.3,18.6 32.3,24.6 7.1,5.9 10.8,8.9 10.8,8.9 0,0 -3.8,-2.4 -11.3,-7 -7.3,-4.8 -18.1,-11.8 -33.1,-19.3 -29.4,-15.6 -74.5,-34.9 -133.7,-46.2 -59,-10.6 -132.7,-12.8 -209.9,8.6 -77.1,20.4 -155,66.5 -214.5,138.2 -58.9,71.4 -99.9,166.8 -102.2,265.7 -3.1,98.3 33.7,200.5 96.3,284.8 62.3,84.5 151.1,150.8 249.4,197.2 98.5,47 206.4,74.7 313,90.4 210.1,29.9 411.8,14.2 591.7,1.6 165.7,-13 312.9,-22.9 436.5,-27.9 -5,123.6 -14.9,270.8 -27.9,436.5 -12.7,179.9 -28.3,381.6 1.5,591.7 15.8,106.5 43.5,214.5 90.4,312.9 46.5,98.4 112.8,187.2 197.2,249.4 84.3,62.7 186.6,99.5 284.9,96.4 98.9,-2.4 194.2,-43.3 265.6,-102.2 71.8,-59.5 117.9,-137.5 138.3,-214.5 21.3,-77.2 19.2,-151 8.5,-210 -11.2,-59.2 -30.5,-104.3 -46.1,-133.7 -7.5,-14.9 -14.6,-25.7 -19.3,-33.1 -4.6,-7.4 -7.1,-11.2 -7.1,-11.2 0,0 3.1,3.7 9,10.8 6,7 14.7,17.5 24.6,32.3 20,29.1 46.8,74.6 65.3,138 18.1,63 28.5,144.4 11.4,234.9 -16.2,90.2 -65.9,187.7 -148.4,263.8 -81.7,75.9 -196,133 -324.8,140.2 -128.4,7.8 -259.7,-35.4 -367.5,-109.8 -109.2,-75 -192.6,-180.9 -250.9,-292.4 -58.7,-112.1 -93.1,-230.2 -113.3,-342.6 -2.4,-13.6 -3.9,-26.9 -5.9,-40.3 -28.1,53 -60.7,104.5 -98,153.1 -36.7,47.6 -78.5,91.5 -123.1,132 -45.2,39.9 -93.9,75 -144.4,105.2 -203.1,121.3 -426.6,163.7 -615.8,173.9 -145.3,7.5 -272.8,-0.7 -375.3,-10.2 -9.5,-102.5 -17.7,-230.1 -10.2,-375.3 10.2,-189.2 52.6,-412.7 173.9,-615.9 30.2,-50.4 65.3,-99.1 105.1,-144.4 40.6,-44.5 84.5,-86.3 132,-123 48.7,-37.3 100.2,-69.9 153.2,-98.1 -13.5,-1.9 -26.7,-3.5 -40.3,-5.8 -112.5,-20.2 -230.5,-54.7 -342.6,-113.3 -111.6,-58.3 -217.5,-141.7 -292.4,-250.9 -74.4,-107.9 -117.7,-239.1 -109.8,-367.5 7.1,-128.9 64.2,-243.1 140.2,-324.8" style="fill:#100f0d;fill-opacity:1;fill-rule:nonzero;stroke:none" transform="matrix(0.13333333,0,0,-0.13333333,0,3200)"/>
    <path id="path65" d="m 22061.9,20811.2 c -125.7,118.8 -283.8,197.1 -451.1,244.6 v 0 c 47.6,-167.2 125.9,-325.3 244.7,-451 130.5,-138.2 301.5,-228.4 485.6,-279.2 -50.9,184.1 -141.1,355.1 -279.2,485.6" style="fill:#100f0d;fill-opacity:1;fill-rule:nonzero;stroke:none" transform="matrix(0.13333333,0,0,-0.13333333,0,3200)"/>
    <path id="path66" d="m 25691.8,20762.4 c -16.6,3.9 -36.9,8.7 -60.5,14.4 -24,4.5 -51.4,9.6 -81.9,15.3 -122.2,20.3 -297.6,39.6 -499.9,24.4 -201.9,-13 -430,-59 -647.7,-142.2 -54.9,-19.7 -108.1,-43.9 -161.5,-67.3 -52.1,-25.7 -104.6,-50.6 -154.3,-79.3 -102,-55.7 -189.5,-116.7 -273.3,-152.8 -87.3,-39.2 -172.8,-52.5 -240.7,-34.6 -69.9,17.8 -130.7,64.2 -169.4,117.8 -38.6,53.3 -58.1,117.2 -63.3,177.6 -5.5,60.6 3,118.4 18,166.8 15.2,49.3 37.2,91.5 59.3,124.2 22.1,33.2 44.8,56.7 65,74.6 39.9,35.8 73.4,50 73.3,74.4 -0.2,10 -9.2,18.5 -29.5,25.1 -19.8,4.9 -51.9,7.3 -90.4,-4.9 -78.1,-22.3 -174.9,-100.6 -233.9,-233.1 -29.6,-67.2 -48.3,-147.6 -45.4,-237.4 3,-89 27.9,-188.7 90.7,-278.5 62.2,-88 158,-163 280.6,-193 61.6,-14.4 127.3,-15.4 188.8,-4.3 61.8,10.7 120.2,31.6 175.1,58.1 112.3,54.2 203.1,127.4 296.7,184 94.4,58.8 192.6,114.3 294,159.9 101.1,46 203.7,85.5 305,116.7 101.6,30 201.1,54.2 295.5,69.6 188.9,32.2 355.6,33.5 473.2,28.3 29.5,-1.8 56,-3.3 79.1,-4.6 23,-2.5 42.7,-4.7 58.7,-6.4 32.1,-3.4 49.5,-5.2 49.5,-5.2 0,0 -17.9,4.4 -50.8,12.4" style="fill:#100f0d;fill-opacity:1;fill-rule:nonzero;stroke:none" transform="matrix(0.13333333,0,0,-0.13333333,0,3200)"/>
    <path id="path67" d="m 24241.5,20921.9 c -29.2,-16.1 -55.4,-30.5 -78.3,-43.1 -22.4,-13.6 -41.4,-25.1 -57,-34.6 -30.9,-18.8 -47.6,-29 -47.6,-29 0,0 18.8,8.6 53.4,24.4 17.3,7.7 38.2,17.8 63.2,28.6 25.1,10.3 53.7,22.1 85.7,35.3 128.1,50.8 311.2,113.2 527.1,159.3 215.3,47.8 462.3,80.2 711.9,92 249.6,13.2 501.5,5.6 728.5,-8.8 478.2,-31.6 871.9,-93.8 1149.3,-121.9 277.4,-29.7 438.1,-29.8 445.4,16.1 6.4,39.2 -144.6,91.5 -419.2,149.2 -274.5,56 -674,122.6 -1167.1,141 -251.1,9 -520.5,-0.6 -779.3,-34.6 -258.9,-33.1 -506.7,-90.8 -716.5,-160.6 -210.5,-68.6 -381.9,-150.5 -499.5,-213.3" style="fill:#100f0d;fill-opacity:1;fill-rule:nonzero;stroke:none" transform="matrix(0.13333333,0,0,-0.13333333,0,3200)"/>
    <path id="path68" d="m 28135.3,21493.6 c -328.7,-11.5 -743,-92.3 -743,-92.3 0,0 437.5,-76.5 743,-92.3 321.7,-16.7 531.4,-1.7 531.4,90.6 0,79.9 -209.1,105.2 -531.4,94" style="fill:#100f0d;fill-opacity:1;fill-rule:nonzero;stroke:none" transform="matrix(0.13333333,0,0,-0.13333333,0,3200)"/>
    <path id="path69" d="m 24074.2,20984.2 c 22.4,17.5 46.7,37.3 73.7,57 107.1,80.6 248.8,164.7 366.5,226 123.4,66.1 228.6,110.2 299.6,150.4 70.8,40.1 108.8,76.7 96.2,122.1 -10.3,37.6 -65.3,51.7 -153.8,35 -88.1,-16.4 -209.3,-64 -338.5,-150.2 -65.8,-43.9 -131,-97.7 -188.1,-156 -57,-58.3 -106.9,-119.5 -146.3,-175.7 -39.2,-56.4 -68.5,-107 -87.9,-143.4 -18.4,-36.7 -29.3,-58.5 -29.3,-58.5 0,0 19,16.9 50.6,45.2 16.1,13.5 35.5,29.8 57.3,48.1" style="fill:#100f0d;fill-opacity:1;fill-rule:nonzero;stroke:none" transform="matrix(0.13333333,0,0,-0.13333333,0,3200)"/>
  </g>
</svg>
