<?xml version='1.0' encoding='utf-8'?>
<svg xmlns="http://www.w3.org/2000/svg" version="1.1" id="corner-06" viewBox="1485.6511 1841.3312 1063.9886 1064.0019" width="1063.9886" height="1064.0019">
  <desc>Extracted decorative corner ornament 6, transparent background.</desc>
  <g id="corner-06-paths">
    <path id="path25" d="m 12804,8528.3 v 0 c -122.2,166.5 -914.9,1314.7 -947.8,1347.6 -34.9,34.9 -152.5,-26.1 -263.5,-136.3 -110.1,-110.9 -171.1,-228.5 -136.3,-263.4 33,-32.9 1181.2,-825.6 1347.6,-947.9" style="fill:#100f0d;fill-opacity:1;fill-rule:nonzero;stroke:none" transform="matrix(0.13333333,0,0,-0.13333333,0,3200)"/>
    <path id="path26" d="m 11422.9,8438.2 c 31.3,-72.4 66.6,-135.2 97,-178.8 30.4,-43.6 55.9,-67.8 70.9,-61.8 2,0.7 6.9,4.3 15,9.3 8.1,5 19.1,11.9 32.7,20.8 6.9,4.4 14.3,9.3 22.4,14.6 8.1,5.2 17.1,10.1 26.5,15.7 19,10.9 40.1,24.5 64.1,36.3 12,6.3 24.5,12.8 37.3,19.6 12.9,7 26.7,12.6 40.7,19.3 14.1,6.3 28.6,13.5 43.7,19.8 15.2,6.1 30.7,12.3 46.5,18.6 7.9,3.1 15.9,6.7 24.1,9.5 8.2,2.8 16.5,5.7 24.8,8.5 16.7,5.7 33.7,11.9 51,17.3 34.8,9.7 70.5,21.2 107,28.9 72.8,18 147.9,28.8 220.1,36.1 35.9,2.6 71.4,6 105,6 17,0.4 33.6,0.7 49.6,1 16,-0.5 31.6,-0.9 46.5,-1.4 120.4,-4.1 204.5,-20.8 212,-22.8 -7.9,2 -76.6,51.5 -189.1,109.1 -14.2,7.2 -28.9,14.7 -44.1,22.4 -15.6,7 -31.6,14.2 -48.1,21.6 -33.1,15.5 -68.9,28.6 -106.3,43.2 -75,26.9 -157.6,52.8 -243,70.6 -170.5,39 -351.8,48.2 -492.4,41.2 -35.3,-0.8 -67.6,-4.7 -96.9,-7.3 -14.6,-1.5 -28.5,-2.6 -41.3,-4.3 -12.9,-2 -24.7,-3.7 -35.6,-5.4 -21.8,-3.3 -39.6,-6.2 -52.6,-8.5 -13,-2.3 -21,-4.7 -23.7,-5.7 -21.3,-8.5 -28.8,-46 -22.2,-99.1 6.5,-53.1 27.1,-121.8 58.4,-194.3" style="fill:#100f0d;fill-opacity:1;fill-rule:nonzero;stroke:none" transform="matrix(0.13333333,0,0,-0.13333333,0,3200)"/>
    <path id="path27" d="m 11372.3,4219.6 c 9.1,-6.2 16.6,-8.1 20.3,-8.3 3.7,-0.1 11.5,1.6 21.1,6.1 9.6,4.4 21.2,11.7 33.3,22 25.1,20.8 49.2,52.6 83.1,103.1 17.3,25.5 37.4,52.7 62.8,77.7 25.4,25.1 57.1,48 89.5,64.4 32.2,16.9 64.7,27.2 89.4,33.8 8.3,2.2 15.7,4 21.9,5.6 -4.3,-15.9 -7.8,-32.1 -10.7,-48.5 -5.6,-30.7 -8.8,-62.3 -9.4,-94.4 -0.8,-32.3 0.8,-64.6 4.7,-96.7 7.8,-64.6 23.7,-130.4 51.8,-193.9 28.3,-63.3 69.1,-124.7 125.4,-173.9 56.2,-49.6 126,-84.6 199.9,-102.9 35.8,-8.5 72.3,-13.2 109.2,-14.4 V 2623.6 c -32.8,-21.8 -54.5,-59.2 -54.5,-101.6 0,-67.4 54.7,-122 122,-122 67.4,0 122.1,54.6 122.1,122 0,42.4 -21.7,79.8 -54.5,101.6 v 1186.3 c 4.2,1 8.5,2 12.7,2.9 l 28.4,6.6 28,8.7 c 9.3,3 18.8,5.7 27.8,9.6 18.2,7.5 36.7,14.4 54.2,23.9 8.8,4.5 17.8,8.8 26.5,13.7 l 25.5,15.7 c 68.9,43.2 125.2,101.1 172,166.5 47,65.3 80.7,139.2 104.7,215.6 24,76.7 35.8,156.8 38.5,237.4 0.7,40.2 -0.4,81.1 -4.9,121 -3.8,40.1 -11,79.6 -19.1,118.8 -17.5,78.1 -42.1,154.4 -73.2,227.1 -61.6,145.8 -144.7,279.6 -234,403.5 -89.4,124.3 -185,240.6 -278.3,353.8 -93.4,113.1 -184.1,223.7 -265.4,335.6 -81.1,111.9 -153.1,225.2 -208.5,341.1 -13,29.4 -26.7,57.7 -38.9,86.7 -12,29.2 -23.4,58.2 -33.6,87.1 -20.7,57.7 -38.1,114.7 -52.3,170.8 -28.3,112.1 -43.4,220.2 -46.1,321.8 -5.9,203.7 40.1,379.9 114.1,517.6 18.9,34.2 38.2,66.9 59.6,96.8 10.2,15.4 21.7,29.4 32.1,43.8 11,13.6 21.8,26.9 33.2,39.4 22.6,25 46.1,48 70,68.9 24,20.6 48.3,39.4 72.6,56.4 97.8,67.3 193.6,105 276.5,126.6 83.2,21.5 154.1,26.4 211.5,26 57.5,-0.5 101.7,-7.1 135.2,-12.6 16.6,-3 30.7,-5.4 42.3,-8 5.8,-1.1 11.1,-2.1 15.8,-3 4.7,-1 8.8,-1.8 12.4,-2.6 14.5,-2.7 21.2,-2.5 22,-0.9 0.8,1.7 -3.3,6.7 -15.3,16 -3,2.3 -6.5,5 -10.5,7.8 -4.2,2.6 -8.9,5.6 -14.1,8.8 -10.6,6.7 -23.8,13.6 -40.1,21.4 -32.6,15 -77.9,32.6 -140.4,44.3 -62.3,11.5 -142,17.7 -238.5,4.5 -96,-13.4 -209.4,-45.6 -328.7,-115 -29.6,-17.6 -59.6,-37.4 -89.5,-59.9 -29.7,-22.6 -59.2,-48 -88,-76.4 -14.5,-14.1 -28.5,-29.4 -42.5,-45 -13.1,-15.9 -27.2,-31.5 -40,-48.7 -26.6,-33.6 -51.2,-70.7 -75.1,-110 -23.1,-39.8 -44.7,-82.3 -64,-127.5 -18.9,-45.4 -35.3,-93.5 -48.8,-143.9 -27.1,-100.9 -40.5,-211.5 -39.8,-327.7 0.8,-116.2 16.2,-238.1 46.4,-362.8 15.1,-62.3 33.9,-125.4 56.4,-188.8 11.1,-31.8 23.4,-63.6 36.5,-95.6 13.3,-31.9 28.5,-63.9 43.1,-96.5 61.7,-128.9 140.7,-251.5 227.3,-368.9 86.7,-117.6 181.5,-230.1 276.5,-341.9 95,-111.8 190.1,-223.6 277.5,-340.1 22.1,-28.9 42.4,-58.8 63.8,-88.2 20.4,-29.9 40.6,-59.8 59.4,-90.4 38.1,-61 72.2,-123.9 101.4,-188.3 29.5,-64.4 52.7,-130.7 69.8,-197.9 16.3,-67.4 26.1,-135.6 26.3,-203.1 0.2,-135.2 -34.5,-270.9 -106,-379.1 l -13.6,-20.1 c -4.7,-6.4 -9.9,-12.6 -14.8,-19 -9.4,-13 -20.7,-24.3 -31.3,-36.3 -5.2,-6.1 -11.4,-11 -17,-16.7 -5.9,-5.3 -11.4,-11.2 -17.4,-16.1 l -18.2,-14.5 c -3,-2.4 -5.9,-5 -9.1,-7.3 l -9.7,-6.4 -19.4,-13 c -6.7,-4 -13.6,-7.6 -20.4,-11.4 -13.4,-8.1 -27.9,-13.9 -42.1,-20.4 -7,-3.5 -14.5,-5.8 -21.8,-8.4 l -22.1,-7.9 -22.6,-6 c -7.5,-2 -14.9,-4.4 -22.6,-5.4 -60.8,-12.4 -123.3,-13.4 -182.1,-2 -58.5,12.3 -112.8,37.1 -157.2,73 -44.9,36 -80.1,83.7 -106.1,135.6 -25.8,52.1 -42.2,108.7 -51.6,165.3 -4.8,28.5 -7.3,56.9 -7.9,84.5 -0.7,27.8 0.9,55.5 4.5,82.5 6.8,54.1 22.2,105.6 45.2,150.6 11.6,22.5 25.6,42.9 41,61.5 3.9,4.6 8.2,8.7 12.3,13.1 4,4.4 8.2,8.7 12.8,12.4 l 13.4,11.5 c 4.6,3.5 9.5,6.7 14.3,10 37.6,26.5 82.8,39.4 127,42.1 44.3,2.8 87.9,-5.2 124.8,-22.2 37,-16.9 67.1,-43.3 85.3,-75 18.2,-31.6 25.4,-67.9 23.5,-101.8 -1.3,-33.9 -11.3,-65.4 -25.5,-92.2 -14.5,-26.8 -32.6,-49.6 -52.4,-67 -4.6,-4.7 -10.1,-8.2 -14.9,-12.3 -2.5,-2 -4.9,-3.9 -7.4,-5.8 -2.6,-1.7 -5.1,-3.4 -7.7,-5 -5.1,-3.2 -9.9,-6.5 -14.9,-9.4 -5.1,-2.6 -10.1,-5.1 -15,-7.6 -0.7,-0.4 -1.5,-0.6 -2.2,-1 24.5,22.3 40,54.4 40,90.2 0,67.4 -54.6,122.1 -122,122.1 -67.4,0 -122,-54.7 -122,-122.1 0,-67.4 54.6,-122 122,-122 7.6,0 15.1,0.8 22.3,2.1 19.7,1.3 42.9,5.5 68.4,15.5 5.4,2.3 11,4.6 16.7,6.9 5.5,2.7 11,5.8 16.7,8.9 2.9,1.5 5.8,3.1 8.7,4.7 2.8,1.9 5.6,3.8 8.4,5.7 5.5,4 11.7,7.5 17.1,12.2 22.8,17.4 44.4,40.9 62.5,69.8 17.9,28.9 31.7,64.2 35.7,103.8 4.5,39.1 -1,83 -21.5,124 -7.5,14.9 -17.1,29 -28.3,42.1 5.6,1 12.7,2.9 21.4,5.8 17.8,6.4 42.4,17.4 66.1,34.5 23.9,16.9 47.6,39.4 65.5,65.2 18,25.6 30.1,54.3 33.1,81 2.8,26.7 -2,48.2 -11.1,64.2 -4.3,8.1 -9.5,14.8 -15.4,20.3 -5.7,5.5 -11.5,9.9 -17.7,13.4 -24.8,13.7 -48.2,12.8 -55.5,11.6 -7.3,-1.1 -28.8,-9.5 -46.7,-24.9 -18.9,-15.8 -33.9,-36.8 -37.6,-70.5 -1.8,-17.2 -1.7,-36.6 -2,-57.2 -0.2,-20.7 -1,-42.5 -3.2,-63 -1.8,-20.6 -5.8,-39.4 -8,-54.1 -0.9,-4.6 -1.5,-8.6 -2,-12.2 -17,16.7 -36.9,31.2 -58.8,42.6 -20.9,11 -43.5,19.4 -67.1,25.3 2.8,4.3 5.9,9.3 9.2,15.3 10.2,19.8 22.9,49 30.4,84.3 8,35.2 11.9,76.5 8.8,118 -3,41.5 -12.8,83.1 -29,117.6 -16.2,34.6 -35,59.3 -54,75.7 -4.7,4.1 -9.2,7.8 -13.7,11.1 -4.5,3.2 -9.1,5.9 -13.5,8.3 -8.8,4.8 -16.8,8.2 -24.5,10.3 -30.9,8.2 -50.4,-0.3 -55.6,-4.3 -5.3,-4 -17.3,-21.6 -19.3,-48.8 -2.9,-28 3.7,-63.7 27.9,-115.7 12.7,-26.4 26.9,-55.8 41.1,-85.1 14.2,-30.1 27.6,-61.5 38.5,-90.9 11.4,-29.4 19,-56.6 25.8,-76.9 1.5,-5.1 2.9,-9.8 4.3,-14 -18.7,3.2 -37.9,4.7 -57.4,4.6 -27.5,-0.3 -56,-3.9 -84,-11.6 1.5,7.2 2.7,17.4 3.1,30.2 0.5,26.3 -3.1,63.8 -17.5,105.1 -13.9,41.3 -38.7,86.3 -74.3,125.7 -35.3,39.5 -81,72.5 -127.4,92.9 -46.4,20.7 -88,27.9 -120.9,28.9 -33.1,0.9 -58.1,-4.8 -76,-11.6 -18,-7.1 -29.1,-15.6 -35.8,-23.1 -6.7,-7.4 -9.1,-13.5 -9.4,-16.6 -0.3,-3 1.2,-9.4 6,-17.3 4.7,-7.8 12.7,-17.4 24.8,-27.3 12,-10.1 28.3,-20.4 49.6,-31.5 21.3,-11.2 47.8,-22.7 80.7,-37.4 33.1,-14.5 69.3,-31.8 103.9,-53 34.7,-21.2 67.9,-46.7 95.1,-73 27.6,-26 49.1,-52.6 64.6,-72.4 7.7,-10.1 14,-18.4 18.7,-24.1 -20.9,-6.9 -41.4,-16.2 -60.8,-28.3 -6.1,-3.9 -12.4,-7.6 -18.5,-11.8 -5.8,-4.4 -11.6,-9 -17.4,-13.5 -6,-4.3 -11.4,-9.4 -16.7,-14.5 -5.3,-5.2 -11,-10.2 -16.1,-15.6 -4.5,-4.9 -8.9,-10 -13.3,-15.2 -1.7,6.7 -4.3,14.6 -7.9,23.7 -11,26.9 -31.8,63.8 -66.5,98.5 -34.1,35 -82.3,67.3 -138.3,85.4 -55.9,18.4 -118,20.9 -169.9,8.8 -52.3,-11.7 -89.7,-34.2 -114.7,-56.3 -25.2,-22.4 -38.1,-45 -44.7,-63.2 -3.1,-9.3 -4.8,-17.5 -5.4,-24.8 -0.5,-7.3 0,-13.6 1,-18.9 2,-10.4 5.8,-16.8 8.3,-19.3 2.5,-2.5 9,-6.2 18.9,-9 4.9,-1.3 10.7,-2.5 17.1,-3.2 6.5,-0.8 13.9,-1.4 21.7,-1.2 32.5,-0.2 72.8,9.3 135.5,24.2 31.7,7.3 67,13.3 104.4,13.2 37.5,0.2 77.6,-6.4 113.3,-18.2 35.9,-11.4 67,-28 89.5,-41.2 10,-6 18.2,-11.2 24.6,-15 -9.8,-13 -18.9,-26.5 -27.1,-40.6 -18.3,-32 -33,-66.4 -44.1,-102.4 -6,4.1 -13.8,8.8 -23.5,13.5 -25.5,12.2 -64.7,25 -112.6,26.9 -47.8,2.4 -104.1,-6.5 -156.7,-31.1 -52.8,-24.2 -99.7,-64.2 -129.2,-107.9 -30.1,-43.7 -41.9,-85.2 -44.9,-118 -2.9,-33.1 3.4,-58.1 11.3,-75.6 8.4,-17.7 18.8,-28.1 27.9,-34.3" style="fill:#100f0d;fill-opacity:1;fill-rule:nonzero;stroke:none" transform="matrix(0.13333333,0,0,-0.13333333,0,3200)"/>
    <path id="path28" d="m 12694.2,7751.2 c -19.5,13 -55.7,30.4 -118.3,33.8 -15.8,1.6 -32.5,-0.3 -51.3,-1.3 -9.4,-0.6 -18.8,-2.7 -28.9,-4.3 -10,-1.6 -20.5,-3.5 -31,-6.7 -42.7,-10.5 -90.1,-30.2 -139.2,-61.9 -48.8,-31.9 -100,-75.6 -144.4,-137.3 -5.5,-7.8 -11,-15.7 -16.6,-23.8 -5.3,-8.2 -10.2,-17 -15.4,-25.7 -10.8,-17.5 -18.6,-35.7 -27.9,-54.5 -16.5,-38 -30.6,-79.4 -41.2,-123.6 -20.3,-88.6 -25.5,-183.4 -17.3,-276.8 8,-93.6 27.6,-186.6 54.3,-275.2 53.1,-178.3 137.3,-343.5 228.7,-476.1 91.3,-133.1 189.5,-233.3 263.4,-298.5 18.2,-16.6 36,-30.1 50.9,-42.5 14.8,-12.3 28.5,-21.9 39.5,-29.7 22.1,-15.7 34.6,-23.4 35.8,-22 1.3,1.4 -7.5,13.4 -24.6,34 -8.5,10.4 -19.3,22.6 -31,37.8 -11.7,15.1 -26,31.4 -40.4,50.8 -58.8,76.4 -136.3,186.9 -204.6,323.1 -68.6,135.9 -128.1,296.7 -162.5,462.8 -17.7,83.1 -28.9,166.3 -31.7,246.3 -3.1,79.9 3.9,155.9 19.5,223.9 8.1,33.9 18.2,64.9 29.5,93.5 6.4,13.7 11.7,28.3 18.5,40.1 3.3,6.1 6.2,12.3 9.5,18.3 3.6,5.8 7.1,11.5 10.5,17.2 28,45.3 61.3,81 93,109.3 31.9,28.3 62.8,49.6 91.3,65.1 6.9,4.4 14,7.6 20.7,10.9 6.8,3.2 13.3,7.1 19.7,9.6 12.9,4.8 24.7,11.2 36.1,14.4 45,16.1 77.4,22.5 97.9,28.2 20.6,5.2 29.8,11.2 30.7,14.7 0.9,3.6 -3.6,12.4 -23.2,26.1" style="fill:#100f0d;fill-opacity:1;fill-rule:nonzero;stroke:none" transform="matrix(0.13333333,0,0,-0.13333333,0,3200)"/>
    <path id="path29" d="m 12628.4,7430.9 c -14.9,0 -92.4,-41.2 -92.4,-278.6 0,-237.3 77.5,-580.9 92.4,-580.9 14.9,0 92.4,343.6 92.4,580.9 0,237.4 -77.5,278.6 -92.4,278.6" style="fill:#100f0d;fill-opacity:1;fill-rule:nonzero;stroke:none" transform="matrix(0.13333333,0,0,-0.13333333,0,3200)"/>
    <path id="path30" d="m 12681.4,8960.2 c 14.5,-37.4 27.6,-73.2 43.2,-106.3 7.4,-16.5 14.6,-32.6 21.6,-48.2 7.7,-15.2 15.1,-29.9 22.3,-44 57.6,-112.6 107.2,-181.2 109.2,-189.2 -2,7.6 -18.7,91.6 -22.9,212 -0.4,15 -0.9,30.5 -1.4,46.6 0.4,16 0.7,32.5 1.1,49.5 -0.1,33.6 3.4,69.1 6,105.1 7.2,72.1 18,147.2 36.1,220.1 7.6,36.4 19.2,72.2 28.9,106.9 5.4,17.3 11.6,34.3 17.2,51 2.9,8.4 5.7,16.6 8.5,24.8 2.9,8.2 6.4,16.2 9.5,24.2 6.3,15.7 12.6,31.3 18.7,46.5 6.2,15.1 13.4,29.5 19.8,43.6 6.7,14 12.3,27.8 19.3,40.7 6.7,12.9 13.3,25.3 19.5,37.3 11.9,24 25.4,45.1 36.3,64.1 5.7,9.5 10.5,18.5 15.8,26.6 5.2,8 10.1,15.5 14.6,22.3 8.8,13.6 15.8,24.7 20.8,32.8 4.9,8.1 8.6,13 9.2,14.9 6.1,15.1 -18.2,40.5 -61.7,71 -43.6,30.3 -106.4,65.7 -178.9,97 -72.4,31.3 -141.1,51.9 -194.3,58.4 -53.1,6.6 -90.6,-0.9 -99.1,-22.3 -0.9,-2.7 -3.3,-10.7 -5.6,-23.7 -2.3,-13 -5.3,-30.8 -8.6,-52.6 -1.6,-10.8 -3.4,-22.7 -5.3,-35.5 -1.8,-12.8 -2.8,-26.7 -4.4,-41.3 -2.5,-29.4 -6.4,-61.6 -7.3,-97 -7,-140.6 2.2,-321.8 41.3,-492.3 17.7,-85.4 43.6,-168 70.6,-243" style="fill:#100f0d;fill-opacity:1;fill-rule:nonzero;stroke:none" transform="matrix(0.13333333,0,0,-0.13333333,0,3200)"/>
    <path id="path31" d="m 13384.1,8241 c 0,161.7 -131,292.7 -292.7,292.7 -80.9,0 -154,-32.8 -207,-85.7 -53,-53 -85.8,-126.2 -85.8,-207 0,-161.7 131.1,-292.8 292.8,-292.8 80.8,0 154,32.8 207,85.8 52.9,53 85.7,126.1 85.7,207" style="fill:#100f0d;fill-opacity:1;fill-rule:nonzero;stroke:none" transform="matrix(0.13333333,0,0,-0.13333333,0,3200)"/>
    <path id="path32" d="m 13252.1,8651.3 c 7.8,-16.2 14.7,-29.5 21.4,-40 3.3,-5.2 6.2,-9.9 8.8,-14.1 2.9,-4.1 5.5,-7.6 7.8,-10.5 9.4,-12 14.3,-16.1 16,-15.3 1.7,0.8 1.8,7.4 -0.9,22 -0.7,3.6 -1.6,7.7 -2.6,12.4 -0.8,4.7 -1.8,9.9 -2.9,15.8 -2.6,11.6 -5.1,25.7 -8.1,42.3 -5.4,33.4 -12,77.6 -12.6,135.1 -0.4,57.4 4.6,128.3 26,211.6 21.6,82.8 59.4,178.7 126.7,276.5 17,24.2 35.7,48.5 56.4,72.6 20.9,23.9 43.8,47.3 68.9,69.9 12.5,11.4 25.8,22.2 39.3,33.2 14.5,10.5 28.5,22 43.8,32.2 30,21.3 62.7,40.6 96.9,59.6 137.7,74 313.8,120 517.5,114 101.7,-2.7 209.8,-17.8 321.9,-46.1 56,-14.1 113,-31.5 170.8,-52.3 28.9,-10.2 57.8,-21.6 87,-33.6 29,-12.2 57.4,-25.8 86.7,-38.8 116,-55.5 229.2,-127.4 341.1,-208.6 112,-81.2 222.5,-172 335.6,-265.3 113.3,-93.4 229.5,-189 353.9,-278.3 123.8,-89.3 257.7,-172.4 403.5,-234.1 72.7,-31 148.9,-55.7 227,-73.2 39.3,-8.1 78.8,-15.3 118.8,-19 39.9,-4.5 80.8,-5.7 121.1,-5 80.6,2.7 160.7,14.5 237.3,38.5 76.5,24.1 150.4,57.8 215.6,104.8 65.4,46.8 123.3,103.1 166.5,171.9 l 15.8,25.6 c 4.8,8.7 9.1,17.7 13.7,26.5 9.5,17.5 16.4,36 23.8,54.2 4,9 6.7,18.4 9.6,27.8 l 8.8,27.9 6.5,28.5 c 1,4.2 2,8.4 2.9,12.6 h 1186.3 c 21.9,-32.8 59.2,-54.4 101.6,-54.4 67.4,0 122,54.6 122,122 0,67.4 -54.6,122 -122,122 -42.4,0 -79.7,-21.6 -101.6,-54.4 h -1175.6 c -1.3,36.8 -5.9,73.4 -14.4,109.1 -18.3,73.9 -53.4,143.8 -103,200 -49.2,56.2 -110.6,97.1 -173.8,125.4 -63.6,28.1 -129.4,44 -193.9,51.8 -32.2,3.9 -64.5,5.5 -96.8,4.7 -32.1,-0.6 -63.6,-3.9 -94.4,-9.5 -16.4,-2.8 -32.5,-6.4 -48.5,-10.6 1.6,6.2 3.4,13.5 5.6,21.9 6.7,24.6 16.9,57.2 33.9,89.4 16.4,32.4 39.2,64 64.4,89.5 24.9,25.4 52.2,45.5 77.6,62.8 50.6,33.9 82.4,58 103.2,83.1 10.3,12.1 17.5,23.7 22,33.2 4.5,9.7 6.2,17.4 6,21.1 -0.1,3.8 -2.1,11.3 -8.3,20.3 -6.1,9.1 -16.6,19.6 -34.2,27.9 -17.5,8 -42.5,14.3 -75.6,11.4 -32.8,-3.1 -74.3,-14.9 -118,-44.9 -43.7,-29.6 -83.7,-76.4 -108,-129.3 -24.6,-52.5 -33.5,-108.9 -31,-156.6 1.8,-48 14.6,-87.2 26.8,-112.7 4.8,-9.7 9.4,-17.5 13.5,-23.4 -35.9,-11.2 -70.3,-25.8 -102.3,-44.2 -14.2,-8.2 -27.7,-17.3 -40.6,-27.1 -3.8,6.5 -9,14.7 -15,24.6 -13.3,22.6 -29.9,53.6 -41.2,89.6 -11.9,35.6 -18.4,75.8 -18.3,113.3 0,37.3 6,72.6 13.3,104.3 14.8,62.8 24.4,103.1 24.1,135.5 0.2,7.8 -0.3,15.2 -1.2,21.7 -0.6,6.5 -1.8,12.2 -3.2,17.1 -2.8,9.9 -6.5,16.4 -9,18.9 -2.5,2.5 -8.8,6.4 -19.3,8.3 -5.2,1 -11.5,1.5 -18.9,1 -7.2,-0.5 -15.4,-2.2 -24.8,-5.3 -18.1,-6.6 -40.8,-19.6 -63.2,-44.7 -22,-25.1 -44.6,-62.4 -56.3,-114.7 -12.1,-51.9 -9.6,-114 8.9,-170 18,-56 50.4,-104.1 85.4,-138.3 34.6,-34.7 71.6,-55.5 98.4,-66.5 9.2,-3.6 17.1,-6.1 23.8,-7.9 -5.2,-4.3 -10.3,-8.7 -15.3,-13.3 -5.4,-5.1 -10.4,-10.7 -15.5,-16 -5.2,-5.3 -10.2,-10.7 -14.6,-16.7 -4.5,-5.9 -9,-11.7 -13.5,-17.4 -4.1,-6.1 -7.9,-12.4 -11.7,-18.5 -12.2,-19.5 -21.5,-40 -28.4,-60.9 -5.6,4.8 -13.9,11 -24,18.8 -19.9,15.4 -46.4,36.9 -72.5,64.5 -26.2,27.3 -51.8,60.5 -72.9,95.2 -21.3,34.6 -38.5,70.7 -53,103.8 -14.7,33 -26.2,59.5 -37.5,80.8 -11.1,21.3 -21.3,37.5 -31.5,49.6 -9.9,12.1 -19.4,20 -27.3,24.8 -7.9,4.7 -14.2,6.2 -17.3,6 -3,-0.3 -9.2,-2.7 -16.6,-9.4 -7.4,-6.8 -16,-17.9 -23.1,-35.9 -6.8,-17.8 -12.4,-42.8 -11.6,-76 1.1,-32.9 8.3,-74.4 28.9,-120.8 20.4,-46.5 53.5,-92.2 93,-127.5 39.3,-35.5 84.3,-60.4 125.7,-74.3 41.3,-14.3 78.8,-17.9 105.1,-17.4 12.7,0.3 22.9,1.5 30.2,3 -7.8,-28 -11.4,-56.5 -11.6,-84 -0.2,-19.5 1.4,-38.7 4.5,-57.4 -4.1,1.4 -8.8,2.9 -14,4.4 -20.2,6.8 -47.4,14.4 -76.8,25.7 -29.5,11 -60.9,24.4 -91,38.6 -29.3,14.1 -58.7,28.3 -85.1,41 -52,24.2 -87.7,30.9 -115.7,28 -27.1,-2.1 -44.7,-14.1 -48.7,-19.3 -4,-5.3 -12.5,-24.7 -4.4,-55.7 2.2,-7.6 5.6,-15.7 10.4,-24.5 2.4,-4.3 5.1,-8.9 8.3,-13.5 3.3,-4.4 7,-9 11.1,-13.7 16.3,-18.9 41,-37.8 75.6,-54 34.6,-16.1 76.2,-25.9 117.6,-28.9 41.5,-3.2 82.8,0.8 118,8.7 35.3,7.6 64.5,20.3 84.3,30.4 6,3.4 11.1,6.4 15.4,9.3 5.8,-23.7 14.2,-46.3 25.2,-67.2 11.5,-21.8 25.9,-41.7 42.6,-58.7 -3.5,-0.5 -7.6,-1.2 -12.1,-2.1 -14.8,-2.2 -33.5,-6.2 -54.1,-8 -20.6,-2.1 -42.4,-3 -63,-3.2 -20.7,-0.2 -40.1,-0.1 -57.2,-2 -33.8,-3.7 -54.7,-18.7 -70.6,-37.6 -15.4,-17.8 -23.7,-39.4 -24.9,-46.7 -1.2,-7.3 -2,-30.6 11.7,-55.5 3.4,-6.1 7.8,-11.9 13.3,-17.7 5.6,-5.9 12.3,-11.1 20.3,-15.3 16.1,-9.2 37.6,-14 64.2,-11.1 26.7,2.9 55.4,15.1 81.1,33 25.7,17.9 48.3,41.7 65.1,65.6 17.1,23.6 28.1,48.2 34.6,66.1 2.8,8.6 4.7,15.8 5.7,21.3 13.1,-11.2 27.2,-20.8 42.2,-28.2 40.9,-20.5 84.9,-26 124,-21.5 39.6,3.9 74.8,17.7 103.8,35.6 28.9,18.1 52.3,39.7 69.8,62.5 4.6,5.5 8.2,11.6 12.1,17.2 2,2.8 3.8,5.6 5.7,8.3 1.6,3 3.2,5.9 4.8,8.7 3,5.8 6.2,11.2 8.8,16.8 2.4,5.7 4.7,11.2 6.9,16.6 10,25.6 14.3,48.8 15.5,68.4 1.4,7.3 2.2,14.7 2.2,22.3 0,67.4 -54.7,122.1 -122.1,122.1 -67.4,0 -122,-54.7 -122,-122.1 0,-67.4 54.6,-122 122,-122 35.8,0 67.9,15.5 90.2,40.1 -0.3,-0.8 -0.6,-1.5 -1,-2.3 -2.4,-4.8 -4.9,-9.8 -7.5,-14.9 -2.9,-5 -6.3,-9.9 -9.5,-15 -1.6,-2.5 -3.2,-5.1 -4.9,-7.7 -1.9,-2.4 -3.9,-4.9 -5.9,-7.3 -4,-4.9 -7.6,-10.3 -12.3,-15 -17.4,-19.8 -40.1,-37.9 -66.9,-52.3 -26.8,-14.3 -58.4,-24.2 -92.2,-25.5 -33.9,-1.9 -70.2,5.3 -101.9,23.5 -31.7,18.2 -58,48.3 -74.9,85.3 -17,36.9 -25,80.4 -22.3,124.7 2.7,44.2 15.6,89.5 42.1,127.1 3.4,4.7 6.6,9.6 10,14.3 l 11.6,13.4 c 3.6,4.6 7.9,8.7 12.3,12.8 4.4,4 8.5,8.4 13.1,12.3 18.7,15.4 39.1,29.4 61.6,41 45,23 96.4,38.4 150.5,45.1 27,3.7 54.7,5.3 82.5,4.6 27.7,-0.6 56,-3.2 84.5,-7.9 56.7,-9.4 113.2,-25.9 165.4,-51.7 51.9,-25.9 99.5,-61.1 135.5,-106 36,-44.5 60.8,-98.7 73,-157.2 11.5,-58.8 10.5,-121.3 -1.9,-182.1 -1.1,-7.7 -3.5,-15.2 -5.4,-22.7 l -6,-22.6 -7.9,-22 c -2.7,-7.3 -4.9,-14.8 -8.5,-21.8 -6.5,-14.2 -12.3,-28.8 -20.4,-42.1 -3.8,-6.8 -7.3,-13.8 -11.4,-20.5 l -13,-19.4 -6.4,-9.7 c -2.3,-3.1 -4.8,-6 -7.2,-9.1 l -14.6,-18.1 c -4.8,-6.1 -10.8,-11.6 -16.1,-17.4 -5.6,-5.6 -10.5,-11.9 -16.7,-17 -12,-10.6 -23.2,-21.9 -36.3,-31.4 -6.3,-4.9 -12.5,-10 -19,-14.8 l -20.1,-13.5 c -108.2,-71.5 -243.8,-106.2 -379,-106 -67.5,0.1 -135.7,10 -203.1,26.3 -67.2,17.1 -133.6,40.3 -197.9,69.7 -64.5,29.2 -127.3,63.4 -188.3,101.5 -30.6,18.8 -60.6,38.9 -90.4,59.3 -29.4,21.4 -59.3,41.8 -88.3,63.9 -116.5,87.3 -228.2,182.4 -340,277.4 -111.9,95.1 -224.4,189.8 -341.9,276.6 -117.5,86.6 -240.1,165.6 -368.9,227.3 -32.6,14.5 -64.7,29.7 -96.6,43.1 -31.9,13 -63.7,25.4 -95.5,36.5 -63.5,22.4 -126.5,41.2 -188.9,56.3 -124.6,30.3 -246.5,45.7 -362.8,46.5 -116.2,0.7 -226.7,-12.7 -327.6,-39.9 -50.5,-13.4 -98.6,-29.9 -144,-48.7 -45.2,-19.3 -87.7,-41 -127.4,-64.1 -39.3,-23.9 -76.4,-48.4 -110,-75 -17.2,-12.8 -32.8,-26.9 -48.8,-40 -15.6,-14.1 -30.8,-28 -45,-42.5 -28.4,-28.9 -53.8,-58.4 -76.4,-88.1 -22.4,-29.9 -42.3,-59.8 -59.8,-89.4 -69.5,-119.4 -101.7,-232.8 -115.1,-328.8 -13.1,-96.5 -6.9,-176.2 4.5,-238.5 11.7,-62.4 29.3,-107.7 44.3,-140.4" style="fill:#100f0d;fill-opacity:1;fill-rule:nonzero;stroke:none" transform="matrix(0.13333333,0,0,-0.13333333,0,3200)"/>
    <path id="path33" d="m 15284.6,8693 c 19.5,-14.3 35.8,-28.6 50.9,-40.4 15.1,-11.7 27.4,-22.5 37.7,-31 20.7,-17 32.7,-25.8 34.1,-24.6 1.3,1.3 -6.4,13.8 -22,35.9 -7.8,11 -17.4,24.6 -29.8,39.5 -12.3,14.9 -25.8,32.7 -42.5,50.8 -65.1,74 -165.3,172.2 -298.5,263.5 -132.6,91.3 -297.7,175.5 -476,228.6 -88.7,26.8 -181.7,46.4 -275.2,54.3 -93.5,8.2 -188.3,3.1 -276.9,-17.3 -44.2,-10.5 -85.5,-24.7 -123.6,-41.2 -18.8,-9.3 -36.9,-17 -54.5,-27.9 -8.7,-5.1 -17.4,-10 -25.7,-15.3 -8,-5.7 -15.9,-11.2 -23.7,-16.6 -61.7,-44.5 -105.5,-95.6 -137.3,-144.5 -31.7,-49 -51.4,-96.4 -62,-139.2 -3.2,-10.4 -5,-20.9 -6.7,-30.9 -1.6,-10.1 -3.6,-19.5 -4.2,-28.9 -1.1,-18.9 -2.9,-35.6 -1.3,-51.4 3.3,-62.6 20.8,-98.8 33.8,-118.3 13.6,-19.5 22.4,-24 26,-23.1 3.6,0.9 9.5,10 14.7,30.6 5.7,20.5 12.1,52.9 28.3,98 3.1,11.3 9.5,23.2 14.4,36.1 2.5,6.4 6.4,12.8 9.5,19.6 3.3,6.8 6.5,13.8 11,20.8 15.4,28.4 36.7,59.4 65,91.3 28.4,31.7 64,65 109.4,92.9 5.6,3.5 11.4,7 17.2,10.6 5.9,3.3 12.1,6.2 18.2,9.4 11.8,6.8 26.4,12.2 40.1,18.6 28.6,11.2 59.6,21.3 93.5,29.5 68,15.5 144.1,22.5 224,19.5 79.9,-2.9 163.1,-14.1 246.3,-31.7 166,-34.5 326.9,-94 462.7,-162.6 136.3,-68.3 246.8,-145.7 323.1,-204.6" style="fill:#100f0d;fill-opacity:1;fill-rule:nonzero;stroke:none" transform="matrix(0.13333333,0,0,-0.13333333,0,3200)"/>
    <path id="path34" d="m 14180,8796.4 c -237.3,0 -278.6,-77.5 -278.6,-92.4 0,-14.9 41.3,-92.4 278.6,-92.4 237.4,0 580.9,77.5 580.9,92.4 0,14.9 -343.5,92.4 -580.9,92.4" style="fill:#100f0d;fill-opacity:1;fill-rule:nonzero;stroke:none" transform="matrix(0.13333333,0,0,-0.13333333,0,3200)"/>
  </g>
</svg>
